<?xml version="1.0" encoding="utf-8" standalone="no"?>
<!DOCTYPE svg PUBLIC "-//W3C//DTD SVG 1.1//EN"
  "http://www.w3.org/Graphics/SVG/1.1/DTD/svg11.dtd">
<!-- Created with matplotlib (http://matplotlib.org/) -->
<svg height="144pt" version="1.1" viewBox="0 0 123 144" width="123pt" xmlns="http://www.w3.org/2000/svg" xmlns:xlink="http://www.w3.org/1999/xlink">
 <defs>
  <style type="text/css">
*{stroke-linecap:butt;stroke-linejoin:round;}
  </style>
 </defs>
 <g id="figure_1">
  <g id="patch_1">
   <path d="M -0 144.252545 
L 123.687378 144.252545 
L 123.687378 0 
L -0 0 
z
" style="fill:#ffffff;"/>
  </g>
  <g id="axes_1">
   <g id="patch_2">
    <path d="M 21.583438 128.102857 
L 116.487378 128.102857 
L 116.487378 7.2 
L 21.583438 7.2 
z
" style="fill:#ffffff;"/>
   </g>
   <g id="matplotlib.axis_1">
    <g id="xtick_1">
     <g id="line2d_1">
      <path clip-path="url(#pe1cd40caec)" d="M 25.692823 128.102857 
L 25.692823 7.2 
" style="fill:none;opacity:0.1;stroke:#b0b0b0;stroke-linecap:square;stroke-width:0.1;"/>
     </g>
     <g id="line2d_2">
      <defs>
       <path d="M 0 0 
L 0 -2 
" id="mc9878e0db7" style="stroke:#000000;stroke-width:0.3;"/>
      </defs>
      <g>
       <use style="stroke:#000000;stroke-width:0.3;" x="25.692823" xlink:href="#mc9878e0db7" y="128.102857"/>
      </g>
     </g>
     <g id="text_1">
      <!-- 64 -->
      <defs>
       <path d="M 44.828125 67.578125 
L 44.828125 65.765625 
Q 38.375 65.140625 34.296875 63.203125 
Q 30.21875 61.28125 26.234375 57.328125 
Q 22.265625 53.375 19.65625 48.515625 
Q 17.046875 43.65625 15.28125 36.96875 
Q 22.3125 41.796875 29.390625 41.796875 
Q 36.1875 41.796875 41.15625 36.328125 
Q 46.140625 30.859375 46.140625 22.265625 
Q 46.140625 13.96875 41.109375 7.125 
Q 35.0625 -1.171875 25.09375 -1.171875 
Q 18.3125 -1.171875 13.578125 3.328125 
Q 4.296875 12.0625 4.296875 25.984375 
Q 4.296875 34.859375 7.859375 42.859375 
Q 11.421875 50.875 18.03125 57.078125 
Q 24.65625 63.28125 30.703125 65.421875 
Q 36.765625 67.578125 42 67.578125 
z
M 14.453125 33.40625 
Q 13.578125 26.8125 13.578125 22.75 
Q 13.578125 18.0625 15.3125 12.5625 
Q 17.046875 7.078125 20.453125 3.859375 
Q 22.953125 1.5625 26.515625 1.5625 
Q 30.765625 1.5625 34.109375 5.5625 
Q 37.453125 9.578125 37.453125 17 
Q 37.453125 25.34375 34.125 31.4375 
Q 30.8125 37.546875 24.703125 37.546875 
Q 22.859375 37.546875 20.734375 36.765625 
Q 18.609375 35.984375 14.453125 33.40625 
z
" id="TimesNewRomanPSMT-36"/>
       <path d="M 46.53125 24.421875 
L 46.53125 17.484375 
L 37.640625 17.484375 
L 37.640625 0 
L 29.59375 0 
L 29.59375 17.484375 
L 1.5625 17.484375 
L 1.5625 23.734375 
L 32.28125 67.578125 
L 37.640625 67.578125 
L 37.640625 24.421875 
z
M 29.59375 24.421875 
L 29.59375 57.28125 
L 6.34375 24.421875 
z
" id="TimesNewRomanPSMT-34"/>
      </defs>
      <g transform="translate(22.692823 135.769107)scale(0.06 -0.06)">
       <use xlink:href="#TimesNewRomanPSMT-36"/>
       <use x="50" xlink:href="#TimesNewRomanPSMT-34"/>
      </g>
     </g>
    </g>
    <g id="xtick_2">
     <g id="line2d_3">
      <path clip-path="url(#pe1cd40caec)" d="M 60.341943 128.102857 
L 60.341943 7.2 
" style="fill:none;opacity:0.1;stroke:#b0b0b0;stroke-linecap:square;stroke-width:0.1;"/>
     </g>
     <g id="line2d_4">
      <g>
       <use style="stroke:#000000;stroke-width:0.3;" x="60.341943" xlink:href="#mc9878e0db7" y="128.102857"/>
      </g>
     </g>
     <g id="text_2">
      <!-- 66 -->
      <g transform="translate(57.341943 135.769107)scale(0.06 -0.06)">
       <use xlink:href="#TimesNewRomanPSMT-36"/>
       <use x="50" xlink:href="#TimesNewRomanPSMT-36"/>
      </g>
     </g>
    </g>
    <g id="xtick_3">
     <g id="line2d_5">
      <path clip-path="url(#pe1cd40caec)" d="M 94.991063 128.102857 
L 94.991063 7.2 
" style="fill:none;opacity:0.1;stroke:#b0b0b0;stroke-linecap:square;stroke-width:0.1;"/>
     </g>
     <g id="line2d_6">
      <g>
       <use style="stroke:#000000;stroke-width:0.3;" x="94.991063" xlink:href="#mc9878e0db7" y="128.102857"/>
      </g>
     </g>
     <g id="text_3">
      <!-- 68 -->
      <defs>
       <path d="M 19.1875 33.34375 
Q 11.328125 39.796875 9.046875 43.703125 
Q 6.78125 47.609375 6.78125 51.8125 
Q 6.78125 58.25 11.765625 62.90625 
Q 16.75 67.578125 25 67.578125 
Q 33.015625 67.578125 37.890625 63.234375 
Q 42.78125 58.890625 42.78125 53.328125 
Q 42.78125 49.609375 40.140625 45.75 
Q 37.5 41.890625 29.15625 36.671875 
Q 37.75 30.03125 40.53125 26.21875 
Q 44.234375 21.234375 44.234375 15.71875 
Q 44.234375 8.734375 38.90625 3.78125 
Q 33.59375 -1.171875 24.953125 -1.171875 
Q 15.53125 -1.171875 10.25 4.734375 
Q 6.0625 9.46875 6.0625 15.09375 
Q 6.0625 19.484375 9.015625 23.796875 
Q 11.96875 28.125 19.1875 33.34375 
z
M 26.859375 38.578125 
Q 32.71875 43.84375 34.28125 46.890625 
Q 35.84375 49.953125 35.84375 53.8125 
Q 35.84375 58.9375 32.953125 61.84375 
Q 30.078125 64.75 25.09375 64.75 
Q 20.125 64.75 17 61.859375 
Q 13.875 58.984375 13.875 55.125 
Q 13.875 52.59375 15.15625 50.046875 
Q 16.453125 47.515625 18.84375 45.21875 
z
M 21.484375 31.5 
Q 17.4375 28.078125 15.484375 24.046875 
Q 13.53125 20.015625 13.53125 15.328125 
Q 13.53125 9.03125 16.96875 5.25 
Q 20.40625 1.46875 25.734375 1.46875 
Q 31 1.46875 34.171875 4.4375 
Q 37.359375 7.421875 37.359375 11.671875 
Q 37.359375 15.1875 35.5 17.96875 
Q 32.03125 23.140625 21.484375 31.5 
z
" id="TimesNewRomanPSMT-38"/>
      </defs>
      <g transform="translate(91.991063 135.769107)scale(0.06 -0.06)">
       <use xlink:href="#TimesNewRomanPSMT-36"/>
       <use x="50" xlink:href="#TimesNewRomanPSMT-38"/>
      </g>
     </g>
    </g>
   </g>
   <g id="matplotlib.axis_2">
    <g id="ytick_1">
     <g id="line2d_7">
      <path clip-path="url(#pe1cd40caec)" d="M 21.583438 121.386032 
L 116.487378 121.386032 
" style="fill:none;opacity:0.1;stroke:#b0b0b0;stroke-linecap:square;stroke-width:0.1;"/>
     </g>
     <g id="line2d_8">
      <defs>
       <path d="M 0 0 
L 2 0 
" id="m2d4e67bfeb" style="stroke:#000000;stroke-width:0.3;"/>
      </defs>
      <g>
       <use style="stroke:#000000;stroke-width:0.3;" x="21.583438" xlink:href="#m2d4e67bfeb" y="121.386032"/>
      </g>
     </g>
     <g id="text_4">
      <!-- −0.8 -->
      <defs>
       <path d="M 54.4375 31.25 
L 1.8125 31.25 
L 1.8125 35.25 
L 54.4375 35.25 
z
" id="TimesNewRomanPSMT-2212"/>
       <path d="M 3.609375 32.71875 
Q 3.609375 44.046875 7.03125 52.21875 
Q 10.453125 60.40625 16.109375 64.40625 
Q 20.515625 67.578125 25.203125 67.578125 
Q 32.8125 67.578125 38.875 59.8125 
Q 46.4375 50.203125 46.4375 33.734375 
Q 46.4375 22.21875 43.109375 14.15625 
Q 39.796875 6.109375 34.640625 2.46875 
Q 29.5 -1.171875 24.703125 -1.171875 
Q 15.234375 -1.171875 8.9375 10.015625 
Q 3.609375 19.4375 3.609375 32.71875 
z
M 13.1875 31.5 
Q 13.1875 17.828125 16.546875 9.1875 
Q 19.34375 1.90625 24.859375 1.90625 
Q 27.484375 1.90625 30.3125 4.265625 
Q 33.15625 6.640625 34.625 12.203125 
Q 36.859375 20.609375 36.859375 35.890625 
Q 36.859375 47.21875 34.515625 54.78125 
Q 32.765625 60.40625 29.984375 62.75 
Q 27.984375 64.359375 25.140625 64.359375 
Q 21.828125 64.359375 19.234375 61.375 
Q 15.71875 57.328125 14.453125 48.625 
Q 13.1875 39.9375 13.1875 31.5 
z
" id="TimesNewRomanPSMT-30"/>
       <path d="M 12.5 9.46875 
Q 14.796875 9.46875 16.359375 7.875 
Q 17.921875 6.296875 17.921875 4.046875 
Q 17.921875 1.8125 16.328125 0.21875 
Q 14.75 -1.375 12.5 -1.375 
Q 10.25 -1.375 8.65625 0.21875 
Q 7.078125 1.8125 7.078125 4.046875 
Q 7.078125 6.34375 8.65625 7.90625 
Q 10.25 9.46875 12.5 9.46875 
z
" id="TimesNewRomanPSMT-2e"/>
      </defs>
      <g transform="translate(7.2 123.469157)scale(0.06 -0.06)">
       <use xlink:href="#TimesNewRomanPSMT-2212"/>
       <use x="56.396484" xlink:href="#TimesNewRomanPSMT-30"/>
       <use x="106.396484" xlink:href="#TimesNewRomanPSMT-2e"/>
       <use x="131.396484" xlink:href="#TimesNewRomanPSMT-38"/>
      </g>
     </g>
    </g>
    <g id="ytick_2">
     <g id="line2d_9">
      <path clip-path="url(#pe1cd40caec)" d="M 21.583438 107.952381 
L 116.487378 107.952381 
" style="fill:none;opacity:0.1;stroke:#b0b0b0;stroke-linecap:square;stroke-width:0.1;"/>
     </g>
     <g id="line2d_10">
      <g>
       <use style="stroke:#000000;stroke-width:0.3;" x="21.583438" xlink:href="#m2d4e67bfeb" y="107.952381"/>
      </g>
     </g>
     <g id="text_5">
      <!-- −0.6 -->
      <g transform="translate(7.2 110.035506)scale(0.06 -0.06)">
       <use xlink:href="#TimesNewRomanPSMT-2212"/>
       <use x="56.396484" xlink:href="#TimesNewRomanPSMT-30"/>
       <use x="106.396484" xlink:href="#TimesNewRomanPSMT-2e"/>
       <use x="131.396484" xlink:href="#TimesNewRomanPSMT-36"/>
      </g>
     </g>
    </g>
    <g id="ytick_3">
     <g id="line2d_11">
      <path clip-path="url(#pe1cd40caec)" d="M 21.583438 94.51873 
L 116.487378 94.51873 
" style="fill:none;opacity:0.1;stroke:#b0b0b0;stroke-linecap:square;stroke-width:0.1;"/>
     </g>
     <g id="line2d_12">
      <g>
       <use style="stroke:#000000;stroke-width:0.3;" x="21.583438" xlink:href="#m2d4e67bfeb" y="94.51873"/>
      </g>
     </g>
     <g id="text_6">
      <!-- −0.4 -->
      <g transform="translate(7.2 96.601855)scale(0.06 -0.06)">
       <use xlink:href="#TimesNewRomanPSMT-2212"/>
       <use x="56.396484" xlink:href="#TimesNewRomanPSMT-30"/>
       <use x="106.396484" xlink:href="#TimesNewRomanPSMT-2e"/>
       <use x="131.396484" xlink:href="#TimesNewRomanPSMT-34"/>
      </g>
     </g>
    </g>
    <g id="ytick_4">
     <g id="line2d_13">
      <path clip-path="url(#pe1cd40caec)" d="M 21.583438 81.08508 
L 116.487378 81.08508 
" style="fill:none;opacity:0.1;stroke:#b0b0b0;stroke-linecap:square;stroke-width:0.1;"/>
     </g>
     <g id="line2d_14">
      <g>
       <use style="stroke:#000000;stroke-width:0.3;" x="21.583438" xlink:href="#m2d4e67bfeb" y="81.08508"/>
      </g>
     </g>
     <g id="text_7">
      <!-- −0.2 -->
      <defs>
       <path d="M 45.84375 12.75 
L 41.21875 0 
L 2.15625 0 
L 2.15625 1.8125 
Q 19.390625 17.53125 26.421875 27.484375 
Q 33.453125 37.453125 33.453125 45.703125 
Q 33.453125 52 29.59375 56.046875 
Q 25.734375 60.109375 20.359375 60.109375 
Q 15.484375 60.109375 11.59375 57.25 
Q 7.71875 54.390625 5.859375 48.875 
L 4.046875 48.875 
Q 5.28125 57.90625 10.328125 62.734375 
Q 15.375 67.578125 22.953125 67.578125 
Q 31 67.578125 36.390625 62.40625 
Q 41.796875 57.234375 41.796875 50.203125 
Q 41.796875 45.171875 39.453125 40.140625 
Q 35.84375 32.234375 27.734375 23.390625 
Q 15.578125 10.109375 12.546875 7.375 
L 29.828125 7.375 
Q 35.109375 7.375 37.234375 7.765625 
Q 39.359375 8.15625 41.0625 9.34375 
Q 42.78125 10.546875 44.046875 12.75 
z
" id="TimesNewRomanPSMT-32"/>
      </defs>
      <g transform="translate(7.2 83.168205)scale(0.06 -0.06)">
       <use xlink:href="#TimesNewRomanPSMT-2212"/>
       <use x="56.396484" xlink:href="#TimesNewRomanPSMT-30"/>
       <use x="106.396484" xlink:href="#TimesNewRomanPSMT-2e"/>
       <use x="131.396484" xlink:href="#TimesNewRomanPSMT-32"/>
      </g>
     </g>
    </g>
    <g id="ytick_5">
     <g id="line2d_15">
      <path clip-path="url(#pe1cd40caec)" d="M 21.583438 67.651429 
L 116.487378 67.651429 
" style="fill:none;opacity:0.1;stroke:#b0b0b0;stroke-linecap:square;stroke-width:0.1;"/>
     </g>
     <g id="line2d_16">
      <g>
       <use style="stroke:#000000;stroke-width:0.3;" x="21.583438" xlink:href="#m2d4e67bfeb" y="67.651429"/>
      </g>
     </g>
     <g id="text_8">
      <!-- 0.0 -->
      <g transform="translate(10.583438 69.734554)scale(0.06 -0.06)">
       <use xlink:href="#TimesNewRomanPSMT-30"/>
       <use x="50" xlink:href="#TimesNewRomanPSMT-2e"/>
       <use x="75" xlink:href="#TimesNewRomanPSMT-30"/>
      </g>
     </g>
    </g>
    <g id="ytick_6">
     <g id="line2d_17">
      <path clip-path="url(#pe1cd40caec)" d="M 21.583438 54.217778 
L 116.487378 54.217778 
" style="fill:none;opacity:0.1;stroke:#b0b0b0;stroke-linecap:square;stroke-width:0.1;"/>
     </g>
     <g id="line2d_18">
      <g>
       <use style="stroke:#000000;stroke-width:0.3;" x="21.583438" xlink:href="#m2d4e67bfeb" y="54.217778"/>
      </g>
     </g>
     <g id="text_9">
      <!-- 0.2 -->
      <g transform="translate(10.583438 56.300903)scale(0.06 -0.06)">
       <use xlink:href="#TimesNewRomanPSMT-30"/>
       <use x="50" xlink:href="#TimesNewRomanPSMT-2e"/>
       <use x="75" xlink:href="#TimesNewRomanPSMT-32"/>
      </g>
     </g>
    </g>
    <g id="ytick_7">
     <g id="line2d_19">
      <path clip-path="url(#pe1cd40caec)" d="M 21.583438 40.784127 
L 116.487378 40.784127 
" style="fill:none;opacity:0.1;stroke:#b0b0b0;stroke-linecap:square;stroke-width:0.1;"/>
     </g>
     <g id="line2d_20">
      <g>
       <use style="stroke:#000000;stroke-width:0.3;" x="21.583438" xlink:href="#m2d4e67bfeb" y="40.784127"/>
      </g>
     </g>
     <g id="text_10">
      <!-- 0.4 -->
      <g transform="translate(10.583438 42.867252)scale(0.06 -0.06)">
       <use xlink:href="#TimesNewRomanPSMT-30"/>
       <use x="50" xlink:href="#TimesNewRomanPSMT-2e"/>
       <use x="75" xlink:href="#TimesNewRomanPSMT-34"/>
      </g>
     </g>
    </g>
    <g id="ytick_8">
     <g id="line2d_21">
      <path clip-path="url(#pe1cd40caec)" d="M 21.583438 27.350476 
L 116.487378 27.350476 
" style="fill:none;opacity:0.1;stroke:#b0b0b0;stroke-linecap:square;stroke-width:0.1;"/>
     </g>
     <g id="line2d_22">
      <g>
       <use style="stroke:#000000;stroke-width:0.3;" x="21.583438" xlink:href="#m2d4e67bfeb" y="27.350476"/>
      </g>
     </g>
     <g id="text_11">
      <!-- 0.6 -->
      <g transform="translate(10.583438 29.433601)scale(0.06 -0.06)">
       <use xlink:href="#TimesNewRomanPSMT-30"/>
       <use x="50" xlink:href="#TimesNewRomanPSMT-2e"/>
       <use x="75" xlink:href="#TimesNewRomanPSMT-36"/>
      </g>
     </g>
    </g>
    <g id="ytick_9">
     <g id="line2d_23">
      <path clip-path="url(#pe1cd40caec)" d="M 21.583438 13.916825 
L 116.487378 13.916825 
" style="fill:none;opacity:0.1;stroke:#b0b0b0;stroke-linecap:square;stroke-width:0.1;"/>
     </g>
     <g id="line2d_24">
      <g>
       <use style="stroke:#000000;stroke-width:0.3;" x="21.583438" xlink:href="#m2d4e67bfeb" y="13.916825"/>
      </g>
     </g>
     <g id="text_12">
      <!-- 0.8 -->
      <g transform="translate(10.583438 15.99995)scale(0.06 -0.06)">
       <use xlink:href="#TimesNewRomanPSMT-30"/>
       <use x="50" xlink:href="#TimesNewRomanPSMT-2e"/>
       <use x="75" xlink:href="#TimesNewRomanPSMT-38"/>
      </g>
     </g>
    </g>
   </g>
   <g id="line2d_25">
    <path clip-path="url(#pe1cd40caec)" d="M 25.897253 68.899109 
L 26.356354 69.319237 
L 27.006025 71.1905 
L 28.350411 77.217125 
L 29.403744 79.512124 
L 29.419336 79.946408 
L 29.719051 79.932195 
L 30.136573 79.789839 
L 30.730805 79.319518 
L 30.910981 78.608422 
L 31.31291 78.064664 
L 31.501748 76.997125 
L 31.849972 75.997822 
L 31.849972 74.941931 
L 32.582801 73.984458 
L 33.643064 72.035661 
L 34.524884 70.568704 
L 35.304489 68.592933 
L 36.678327 62.153453 
L 36.997099 61.028045 
L 37.787099 60.13136 
L 37.996726 60.231918 
L 38.41598 60.654508 
L 39.164401 62.217922 
L 39.765563 64.422774 
L 40.151901 65.272209 
L 40.437756 66.724478 
L 41.255475 68.863975 
L 41.868765 70.158167 
L 42.229116 70.301959 
L 42.632778 69.941439 
L 43.91826 67.377388 
L 44.311528 66.955533 
L 44.713458 66.727898 
L 45.028765 66.842761 
L 46.709247 68.533923 
L 47.093852 68.55245 
L 47.424751 68.134158 
L 47.795497 67.42439 
L 48.800321 63.374854 
L 49.488106 60.68016 
L 50.162032 59.205063 
L 50.544905 59.178012 
L 50.926045 59.536799 
L 52.088523 62.258751 
L 52.239247 63.246542 
L 52.584005 64.026072 
L 53.633874 65.69319 
L 54.397887 66.793829 
L 56.442185 71.088195 
L 57.206198 72.263399 
L 57.80043 72.981321 
L 59.1119 73.674205 
L 59.506899 74.390644 
L 60.033566 75.018925 
L 60.194685 75.434755 
L 60.733478 76.370231 
L 60.898062 76.891026 
L 61.280934 77.078284 
L 61.662075 77.094637 
L 62.232053 76.494309 
L 63.356417 74.771984 
L 63.737557 74.570397 
L 64.032075 74.662196 
L 64.51543 75.155349 
L 64.816877 76.084514 
L 65.416307 78.475056 
L 65.752403 79.542617 
L 66.100627 80.233007 
L 67.001504 80.153632 
L 67.143566 79.503828 
L 67.881592 77.6798 
L 68.539925 75.004706 
L 69.277951 72.927949 
L 70.028105 70.835235 
L 72.030824 62.9678 
L 72.365188 62.022417 
L 73.014859 61.037127 
L 73.45317 61.102814 
L 73.842973 61.485147 
L 74.402556 62.959893 
L 75.079947 64.432875 
L 75.876876 65.311425 
L 76.212973 65.731969 
L 78.626284 70.20239 
L 79.625911 73.220058 
L 80.369135 75.718597 
L 81.025736 78.233925 
L 81.671942 80.018398 
L 82.014968 80.431263 
L 82.442885 80.369998 
L 83.01806 79.699225 
L 83.113345 79.050884 
L 83.849639 77.229265 
L 85.204419 74.657266 
L 85.512797 74.038846 
L 86.016941 73.460935 
L 86.179792 72.872263 
L 86.685669 72.04611 
L 86.888367 71.213089 
L 87.338805 70.436067 
L 87.931305 68.501125 
L 88.340165 67.647206 
L 88.622555 66.758258 
L 88.962117 66.197674 
L 89.70534 65.555527 
L 89.984266 65.848175 
L 90.422577 66.729608 
L 90.670318 67.860459 
L 91.162336 69.248507 
L 92.397577 77.869793 
L 93.868432 87.881978 
L 94.528498 91.933209 
L 95.857291 98.182051 
L 96.574528 99.62297 
L 96.90023 99.616107 
L 97.279638 99.136747 
L 97.743936 98.255051 
L 98.180515 97.10383 
L 99.34819 91.535456 
L 99.815953 89.783692 
L 100.034243 87.964865 
L 101.085844 83.110888 
L 101.926085 80.870066 
L 102.452751 78.885892 
L 103.234089 77.122527 
L 103.880295 75.050565 
L 104.952685 71.413787 
L 107.385054 58.467189 
L 108.000076 53.757399 
L 109.765448 43.201356 
L 110.843036 39.12773 
L 111.130624 38.736143 
L 111.447663 38.983895 
L 111.858255 39.858466 
L 112.173562 41.225057 
L 112.173562 41.225057 
" style="fill:none;stroke:#1f77b4;stroke-linecap:square;"/>
   </g>
   <g id="line2d_26">
    <path clip-path="url(#pe1cd40caec)" d="M 25.897253 96.867344 
L 28.350411 78.10151 
L 28.816441 76.453172 
L 29.403744 73.62151 
L 29.419336 71.410191 
L 30.136573 67.175291 
L 30.730805 65.158394 
L 30.910981 63.134278 
L 31.31291 61.757735 
L 31.501748 59.614385 
L 31.849972 58.041121 
L 31.849972 56.576033 
L 32.582801 55.01394 
L 33.643064 50.80461 
L 33.958371 49.175983 
L 34.524884 45.625067 
L 34.866178 43.785288 
L 35.701221 41.088559 
L 35.97495 41.025368 
L 36.317976 41.920426 
L 36.678327 43.467095 
L 37.787099 52.308035 
L 37.996726 54.930881 
L 39.164401 64.734011 
L 39.426002 66.009948 
L 39.765563 66.042315 
L 40.151901 65.288656 
L 41.672997 51.201989 
L 41.868765 46.797899 
L 42.885717 35.621187 
L 43.91826 29.435931 
L 44.311528 28.45918 
L 44.713458 28.085116 
L 45.028765 28.369224 
L 45.274773 28.896171 
L 46.10462 32.254292 
L 47.424751 42.117273 
L 50.162032 62.956785 
L 51.516812 70.327347 
L 52.088523 72.621759 
L 52.239247 74.281269 
L 53.633874 81.16386 
L 54.070453 82.767229 
L 57.206198 98.953562 
L 57.80043 103.082161 
L 58.647601 107.114833 
L 58.827777 109.037225 
L 60.194685 115.375433 
L 60.733478 117.316892 
L 60.898062 118.672273 
L 61.280934 119.601441 
L 61.662075 120.185479 
L 61.966987 120.296634 
L 62.232053 120.015732 
L 62.680759 119.033651 
L 63.737557 113.82654 
L 64.032075 111.365718 
L 64.51543 108.7334 
L 65.752403 97.642207 
L 66.100627 95.224037 
L 67.001504 90.897315 
L 67.143566 88.923265 
L 67.881592 85.552886 
L 68.539925 82.96229 
L 69.277951 80.685605 
L 70.3001 77.903095 
L 70.611942 77.583134 
L 70.932447 77.797819 
L 71.318785 78.552258 
L 72.030824 81.427681 
L 72.725539 85.904445 
L 73.014859 88.453802 
L 73.842973 93.659478 
L 74.061262 96.275934 
L 74.775034 100.675197 
L 75.079947 102.140648 
L 75.54771 102.942577 
L 75.876876 102.807497 
L 76.212973 101.824774 
L 77.328674 95.824656 
L 77.526174 93.499507 
L 78.20703 89.209388 
L 78.626284 87.091564 
L 81.367029 67.088568 
L 81.671942 64.253476 
L 83.01806 56.403969 
L 83.113345 54.142443 
L 83.423455 52.108787 
L 84.222117 48.564654 
L 84.804222 45.394897 
L 86.016941 40.176664 
L 86.179792 38.211044 
L 86.685669 36.087428 
L 86.888367 34.029374 
L 87.338805 31.860821 
L 88.622555 23.855417 
L 90.670318 12.196311 
L 91.406612 9.765719 
L 91.735779 9.378002 
L 92.099594 9.44877 
L 92.397577 9.798208 
L 92.792577 10.560272 
L 93.236085 11.745149 
L 93.478629 12.954705 
L 93.868432 14.231845 
L 94.897511 18.493249 
L 95.548914 20.929231 
L 95.857291 22.215007 
L 96.342379 23.420416 
L 96.574528 24.638606 
L 97.279638 26.547278 
L 99.34819 30.51251 
L 99.815953 31.046774 
L 100.787861 32.983877 
L 101.926085 37.08815 
L 103.584045 49.750646 
L 104.549023 58.93193 
L 105.565975 65.660958 
L 106.276282 67.687104 
L 106.657422 68.039048 
L 107.385054 68.003308 
L 107.672641 67.852084 
L 108.000076 67.881418 
L 108.402005 68.123851 
L 108.706918 68.455522 
L 109.38604 69.705802 
L 110.843036 72.913994 
L 111.130624 73.192466 
L 111.447663 73.329736 
L 111.858255 73.103668 
L 112.173562 72.709396 
L 112.173562 72.709396 
" style="fill:none;stroke:#ff7f0e;stroke-linecap:square;"/>
   </g>
   <g id="line2d_27">
    <path clip-path="url(#pe1cd40caec)" d="M 0 0 
" style="fill:none;stroke:#2ca02c;stroke-linecap:square;"/>
   </g>
   <g id="patch_3">
    <path d="M 21.583438 128.102857 
L 21.583438 7.2 
" style="fill:none;stroke:#000000;stroke-linecap:square;stroke-linejoin:miter;stroke-width:0.3;"/>
   </g>
   <g id="patch_4">
    <path d="M 116.487378 128.102857 
L 116.487378 7.2 
" style="fill:none;stroke:#000000;stroke-linecap:square;stroke-linejoin:miter;stroke-width:0.3;"/>
   </g>
   <g id="patch_5">
    <path d="M 21.583437 128.102857 
L 116.487378 128.102857 
" style="fill:none;stroke:#000000;stroke-linecap:square;stroke-linejoin:miter;stroke-width:0.3;"/>
   </g>
   <g id="patch_6">
    <path d="M 21.583437 7.2 
L 116.487378 7.2 
" style="fill:none;stroke:#000000;stroke-linecap:square;stroke-linejoin:miter;stroke-width:0.3;"/>
   </g>
  </g>
 </g>
 <defs>
  <clipPath id="pe1cd40caec">
   <rect height="120.902857" width="94.90394" x="21.583438" y="7.2"/>
  </clipPath>
 </defs>
</svg>
