<?xml version="1.0" encoding="utf-8" standalone="no"?>
<!DOCTYPE svg PUBLIC "-//W3C//DTD SVG 1.1//EN"
  "http://www.w3.org/Graphics/SVG/1.1/DTD/svg11.dtd">
<!-- Created with matplotlib (http://matplotlib.org/) -->
<svg height="144pt" version="1.1" viewBox="0 0 222 144" width="222pt" xmlns="http://www.w3.org/2000/svg" xmlns:xlink="http://www.w3.org/1999/xlink">
 <defs>
  <style type="text/css">
*{stroke-linecap:butt;stroke-linejoin:round;}
  </style>
 </defs>
 <g id="figure_1">
  <g id="patch_1">
   <path d="M 0 144.264593 
L 222.325676 144.264593 
L 222.325676 0 
L 0 0 
z
" style="fill:#ffffff;"/>
  </g>
  <g id="axes_1">
   <g id="patch_2">
    <path d="M 18.2 128.114906 
L 215.125676 128.114906 
L 215.125676 7.2 
L 18.2 7.2 
z
" style="fill:#ffffff;"/>
   </g>
   <g id="matplotlib.axis_1">
    <g id="xtick_1">
     <g id="line2d_1">
      <path clip-path="url(#pbb58209bfe)" d="M 27.042362 128.114906 
L 27.042362 7.2 
" style="fill:none;opacity:0.1;stroke:#b0b0b0;stroke-linecap:square;stroke-width:0.1;"/>
     </g>
     <g id="line2d_2">
      <defs>
       <path d="M 0 0 
L 0 -2 
" id="m9a9abf0073" style="stroke:#000000;stroke-width:0.3;"/>
      </defs>
      <g>
       <use style="stroke:#000000;stroke-width:0.3;" x="27.042362" xlink:href="#m9a9abf0073" y="128.114906"/>
      </g>
     </g>
     <g id="text_1">
      <!-- 10 -->
      <defs>
       <path d="M 11.71875 59.71875 
L 27.828125 67.578125 
L 29.4375 67.578125 
L 29.4375 11.671875 
Q 29.4375 6.109375 29.90625 4.734375 
Q 30.375 3.375 31.828125 2.640625 
Q 33.296875 1.90625 37.796875 1.8125 
L 37.796875 0 
L 12.890625 0 
L 12.890625 1.8125 
Q 17.578125 1.90625 18.9375 2.609375 
Q 20.3125 3.328125 20.84375 4.515625 
Q 21.390625 5.71875 21.390625 11.671875 
L 21.390625 47.40625 
Q 21.390625 54.640625 20.90625 56.6875 
Q 20.5625 58.25 19.65625 58.984375 
Q 18.75 59.71875 17.484375 59.71875 
Q 15.671875 59.71875 12.453125 58.203125 
z
" id="TimesNewRomanPSMT-31"/>
       <path d="M 3.609375 32.71875 
Q 3.609375 44.046875 7.03125 52.21875 
Q 10.453125 60.40625 16.109375 64.40625 
Q 20.515625 67.578125 25.203125 67.578125 
Q 32.8125 67.578125 38.875 59.8125 
Q 46.4375 50.203125 46.4375 33.734375 
Q 46.4375 22.21875 43.109375 14.15625 
Q 39.796875 6.109375 34.640625 2.46875 
Q 29.5 -1.171875 24.703125 -1.171875 
Q 15.234375 -1.171875 8.9375 10.015625 
Q 3.609375 19.4375 3.609375 32.71875 
z
M 13.1875 31.5 
Q 13.1875 17.828125 16.546875 9.1875 
Q 19.34375 1.90625 24.859375 1.90625 
Q 27.484375 1.90625 30.3125 4.265625 
Q 33.15625 6.640625 34.625 12.203125 
Q 36.859375 20.609375 36.859375 35.890625 
Q 36.859375 47.21875 34.515625 54.78125 
Q 32.765625 60.40625 29.984375 62.75 
Q 27.984375 64.359375 25.140625 64.359375 
Q 21.828125 64.359375 19.234375 61.375 
Q 15.71875 57.328125 14.453125 48.625 
Q 13.1875 39.9375 13.1875 31.5 
z
" id="TimesNewRomanPSMT-30"/>
      </defs>
      <g transform="translate(24.042362 135.781156)scale(0.06 -0.06)">
       <use xlink:href="#TimesNewRomanPSMT-31"/>
       <use x="50" xlink:href="#TimesNewRomanPSMT-30"/>
      </g>
     </g>
    </g>
    <g id="xtick_2">
     <g id="line2d_3">
      <path clip-path="url(#pbb58209bfe)" d="M 59.618714 128.114906 
L 59.618714 7.2 
" style="fill:none;opacity:0.1;stroke:#b0b0b0;stroke-linecap:square;stroke-width:0.1;"/>
     </g>
     <g id="line2d_4">
      <g>
       <use style="stroke:#000000;stroke-width:0.3;" x="59.618714" xlink:href="#m9a9abf0073" y="128.114906"/>
      </g>
     </g>
     <g id="text_2">
      <!-- 15 -->
      <defs>
       <path d="M 43.40625 66.21875 
L 39.59375 57.90625 
L 19.671875 57.90625 
L 15.328125 49.03125 
Q 28.265625 47.125 35.84375 39.40625 
Q 42.328125 32.765625 42.328125 23.78125 
Q 42.328125 18.5625 40.203125 14.109375 
Q 38.09375 9.671875 34.859375 6.546875 
Q 31.640625 3.421875 27.6875 1.515625 
Q 22.078125 -1.171875 16.15625 -1.171875 
Q 10.203125 -1.171875 7.484375 0.84375 
Q 4.78125 2.875 4.78125 5.328125 
Q 4.78125 6.6875 5.90625 7.734375 
Q 7.03125 8.796875 8.734375 8.796875 
Q 10.015625 8.796875 10.96875 8.40625 
Q 11.921875 8.015625 14.203125 6.390625 
Q 17.875 3.859375 21.625 3.859375 
Q 27.34375 3.859375 31.65625 8.171875 
Q 35.984375 12.5 35.984375 18.703125 
Q 35.984375 24.703125 32.125 29.90625 
Q 28.265625 35.109375 21.484375 37.9375 
Q 16.15625 40.140625 6.984375 40.484375 
L 19.671875 66.21875 
z
" id="TimesNewRomanPSMT-35"/>
      </defs>
      <g transform="translate(56.618714 135.781156)scale(0.06 -0.06)">
       <use xlink:href="#TimesNewRomanPSMT-31"/>
       <use x="50" xlink:href="#TimesNewRomanPSMT-35"/>
      </g>
     </g>
    </g>
    <g id="xtick_3">
     <g id="line2d_5">
      <path clip-path="url(#pbb58209bfe)" d="M 92.195066 128.114906 
L 92.195066 7.2 
" style="fill:none;opacity:0.1;stroke:#b0b0b0;stroke-linecap:square;stroke-width:0.1;"/>
     </g>
     <g id="line2d_6">
      <g>
       <use style="stroke:#000000;stroke-width:0.3;" x="92.195066" xlink:href="#m9a9abf0073" y="128.114906"/>
      </g>
     </g>
     <g id="text_3">
      <!-- 20 -->
      <defs>
       <path d="M 45.84375 12.75 
L 41.21875 0 
L 2.15625 0 
L 2.15625 1.8125 
Q 19.390625 17.53125 26.421875 27.484375 
Q 33.453125 37.453125 33.453125 45.703125 
Q 33.453125 52 29.59375 56.046875 
Q 25.734375 60.109375 20.359375 60.109375 
Q 15.484375 60.109375 11.59375 57.25 
Q 7.71875 54.390625 5.859375 48.875 
L 4.046875 48.875 
Q 5.28125 57.90625 10.328125 62.734375 
Q 15.375 67.578125 22.953125 67.578125 
Q 31 67.578125 36.390625 62.40625 
Q 41.796875 57.234375 41.796875 50.203125 
Q 41.796875 45.171875 39.453125 40.140625 
Q 35.84375 32.234375 27.734375 23.390625 
Q 15.578125 10.109375 12.546875 7.375 
L 29.828125 7.375 
Q 35.109375 7.375 37.234375 7.765625 
Q 39.359375 8.15625 41.0625 9.34375 
Q 42.78125 10.546875 44.046875 12.75 
z
" id="TimesNewRomanPSMT-32"/>
      </defs>
      <g transform="translate(89.195066 135.781156)scale(0.06 -0.06)">
       <use xlink:href="#TimesNewRomanPSMT-32"/>
       <use x="50" xlink:href="#TimesNewRomanPSMT-30"/>
      </g>
     </g>
    </g>
    <g id="xtick_4">
     <g id="line2d_7">
      <path clip-path="url(#pbb58209bfe)" d="M 124.771418 128.114906 
L 124.771418 7.2 
" style="fill:none;opacity:0.1;stroke:#b0b0b0;stroke-linecap:square;stroke-width:0.1;"/>
     </g>
     <g id="line2d_8">
      <g>
       <use style="stroke:#000000;stroke-width:0.3;" x="124.771418" xlink:href="#m9a9abf0073" y="128.114906"/>
      </g>
     </g>
     <g id="text_4">
      <!-- 25 -->
      <g transform="translate(121.771418 135.781156)scale(0.06 -0.06)">
       <use xlink:href="#TimesNewRomanPSMT-32"/>
       <use x="50" xlink:href="#TimesNewRomanPSMT-35"/>
      </g>
     </g>
    </g>
    <g id="xtick_5">
     <g id="line2d_9">
      <path clip-path="url(#pbb58209bfe)" d="M 157.347769 128.114906 
L 157.347769 7.2 
" style="fill:none;opacity:0.1;stroke:#b0b0b0;stroke-linecap:square;stroke-width:0.1;"/>
     </g>
     <g id="line2d_10">
      <g>
       <use style="stroke:#000000;stroke-width:0.3;" x="157.347769" xlink:href="#m9a9abf0073" y="128.114906"/>
      </g>
     </g>
     <g id="text_5">
      <!-- 30 -->
      <defs>
       <path d="M 5.078125 53.609375 
Q 7.90625 60.296875 12.21875 63.9375 
Q 16.546875 67.578125 23 67.578125 
Q 30.953125 67.578125 35.203125 62.40625 
Q 38.421875 58.546875 38.421875 54.15625 
Q 38.421875 46.921875 29.34375 39.203125 
Q 35.453125 36.8125 38.578125 32.375 
Q 41.703125 27.9375 41.703125 21.921875 
Q 41.703125 13.328125 36.234375 7.03125 
Q 29.109375 -1.171875 15.578125 -1.171875 
Q 8.890625 -1.171875 6.46875 0.484375 
Q 4.046875 2.15625 4.046875 4.046875 
Q 4.046875 5.46875 5.1875 6.546875 
Q 6.34375 7.625 7.953125 7.625 
Q 9.1875 7.625 10.453125 7.234375 
Q 11.28125 6.984375 14.203125 5.4375 
Q 17.140625 3.90625 18.265625 3.609375 
Q 20.0625 3.078125 22.125 3.078125 
Q 27.09375 3.078125 30.78125 6.9375 
Q 34.46875 10.796875 34.46875 16.0625 
Q 34.46875 19.921875 32.765625 23.578125 
Q 31.5 26.3125 29.984375 27.734375 
Q 27.875 29.6875 24.21875 31.265625 
Q 20.5625 32.859375 16.75 32.859375 
L 15.1875 32.859375 
L 15.1875 34.328125 
Q 19.046875 34.8125 22.921875 37.109375 
Q 26.8125 39.40625 28.5625 42.625 
Q 30.328125 45.84375 30.328125 49.703125 
Q 30.328125 54.734375 27.171875 57.828125 
Q 24.03125 60.9375 19.34375 60.9375 
Q 11.765625 60.9375 6.6875 52.828125 
z
" id="TimesNewRomanPSMT-33"/>
      </defs>
      <g transform="translate(154.347769 135.781156)scale(0.06 -0.06)">
       <use xlink:href="#TimesNewRomanPSMT-33"/>
       <use x="50" xlink:href="#TimesNewRomanPSMT-30"/>
      </g>
     </g>
    </g>
    <g id="xtick_6">
     <g id="line2d_11">
      <path clip-path="url(#pbb58209bfe)" d="M 189.924121 128.114906 
L 189.924121 7.2 
" style="fill:none;opacity:0.1;stroke:#b0b0b0;stroke-linecap:square;stroke-width:0.1;"/>
     </g>
     <g id="line2d_12">
      <g>
       <use style="stroke:#000000;stroke-width:0.3;" x="189.924121" xlink:href="#m9a9abf0073" y="128.114906"/>
      </g>
     </g>
     <g id="text_6">
      <!-- 35 -->
      <g transform="translate(186.924121 135.781156)scale(0.06 -0.06)">
       <use xlink:href="#TimesNewRomanPSMT-33"/>
       <use x="50" xlink:href="#TimesNewRomanPSMT-35"/>
      </g>
     </g>
    </g>
   </g>
   <g id="matplotlib.axis_2">
    <g id="ytick_1">
     <g id="line2d_13">
      <path clip-path="url(#pbb58209bfe)" d="M 18.2 105.398241 
L 215.125676 105.398241 
" style="fill:none;opacity:0.1;stroke:#b0b0b0;stroke-linecap:square;stroke-width:0.1;"/>
     </g>
     <g id="line2d_14">
      <defs>
       <path d="M 0 0 
L 2 0 
" id="ma196fa9333" style="stroke:#000000;stroke-width:0.3;"/>
      </defs>
      <g>
       <use style="stroke:#000000;stroke-width:0.3;" x="18.2" xlink:href="#ma196fa9333" y="105.398241"/>
      </g>
     </g>
     <g id="text_7">
      <!-- 0.0 -->
      <defs>
       <path d="M 12.5 9.46875 
Q 14.796875 9.46875 16.359375 7.875 
Q 17.921875 6.296875 17.921875 4.046875 
Q 17.921875 1.8125 16.328125 0.21875 
Q 14.75 -1.375 12.5 -1.375 
Q 10.25 -1.375 8.65625 0.21875 
Q 7.078125 1.8125 7.078125 4.046875 
Q 7.078125 6.34375 8.65625 7.90625 
Q 10.25 9.46875 12.5 9.46875 
z
" id="TimesNewRomanPSMT-2e"/>
      </defs>
      <g transform="translate(7.2 107.481366)scale(0.06 -0.06)">
       <use xlink:href="#TimesNewRomanPSMT-30"/>
       <use x="50" xlink:href="#TimesNewRomanPSMT-2e"/>
       <use x="75" xlink:href="#TimesNewRomanPSMT-30"/>
      </g>
     </g>
    </g>
    <g id="ytick_2">
     <g id="line2d_15">
      <path clip-path="url(#pbb58209bfe)" d="M 18.2 80.659933 
L 215.125676 80.659933 
" style="fill:none;opacity:0.1;stroke:#b0b0b0;stroke-linecap:square;stroke-width:0.1;"/>
     </g>
     <g id="line2d_16">
      <g>
       <use style="stroke:#000000;stroke-width:0.3;" x="18.2" xlink:href="#ma196fa9333" y="80.659933"/>
      </g>
     </g>
     <g id="text_8">
      <!-- 0.5 -->
      <g transform="translate(7.2 82.743058)scale(0.06 -0.06)">
       <use xlink:href="#TimesNewRomanPSMT-30"/>
       <use x="50" xlink:href="#TimesNewRomanPSMT-2e"/>
       <use x="75" xlink:href="#TimesNewRomanPSMT-35"/>
      </g>
     </g>
    </g>
    <g id="ytick_3">
     <g id="line2d_17">
      <path clip-path="url(#pbb58209bfe)" d="M 18.2 55.921625 
L 215.125676 55.921625 
" style="fill:none;opacity:0.1;stroke:#b0b0b0;stroke-linecap:square;stroke-width:0.1;"/>
     </g>
     <g id="line2d_18">
      <g>
       <use style="stroke:#000000;stroke-width:0.3;" x="18.2" xlink:href="#ma196fa9333" y="55.921625"/>
      </g>
     </g>
     <g id="text_9">
      <!-- 1.0 -->
      <g transform="translate(7.2 58.00475)scale(0.06 -0.06)">
       <use xlink:href="#TimesNewRomanPSMT-31"/>
       <use x="50" xlink:href="#TimesNewRomanPSMT-2e"/>
       <use x="75" xlink:href="#TimesNewRomanPSMT-30"/>
      </g>
     </g>
    </g>
    <g id="ytick_4">
     <g id="line2d_19">
      <path clip-path="url(#pbb58209bfe)" d="M 18.2 31.183317 
L 215.125676 31.183317 
" style="fill:none;opacity:0.1;stroke:#b0b0b0;stroke-linecap:square;stroke-width:0.1;"/>
     </g>
     <g id="line2d_20">
      <g>
       <use style="stroke:#000000;stroke-width:0.3;" x="18.2" xlink:href="#ma196fa9333" y="31.183317"/>
      </g>
     </g>
     <g id="text_10">
      <!-- 1.5 -->
      <g transform="translate(7.2 33.266442)scale(0.06 -0.06)">
       <use xlink:href="#TimesNewRomanPSMT-31"/>
       <use x="50" xlink:href="#TimesNewRomanPSMT-2e"/>
       <use x="75" xlink:href="#TimesNewRomanPSMT-35"/>
      </g>
     </g>
    </g>
   </g>
   <g id="line2d_21">
    <path clip-path="url(#pbb58209bfe)" d="M 27.151167 105.256983 
L 111.829484 105.575735 
L 113.685033 105.760531 
L 114.070086 105.812574 
L 114.969193 105.899561 
L 116.40125 105.489426 
L 117.850246 105.138043 
L 118.990418 104.910737 
L 124.335546 105.568574 
L 124.893905 105.677668 
L 127.463527 105.70692 
L 128.795249 105.793531 
L 130.465112 105.515395 
L 131.24499 105.440455 
L 133.458879 105.34963 
L 134.109755 105.407448 
L 134.886375 105.382666 
L 136.087139 105.424526 
L 136.729545 105.399272 
L 138.851568 105.751486 
L 142.465589 105.551632 
L 143.906767 105.345949 
L 144.922497 105.288561 
L 146.615816 105.405976 
L 147.920173 105.372521 
L 150.794059 105.412745 
L 151.965505 105.543553 
L 152.612471 105.406246 
L 153.265301 105.325103 
L 154.435443 105.389732 
L 155.382764 105.48834 
L 156.135929 105.544192 
L 156.932095 105.558373 
L 157.57841 105.569655 
L 161.478451 105.51225 
L 161.615923 105.834223 
L 161.864155 108.993181 
L 162.651199 122.618774 
L 162.82646 121.684153 
L 163.298166 112.398771 
L 163.575065 110.694858 
L 163.849358 110.881743 
L 163.984224 110.763861 
L 164.346473 108.695744 
L 164.877467 105.189956 
L 164.988227 104.779592 
L 165.165442 104.670031 
L 165.286626 104.807828 
L 165.644315 105.681602 
L 165.792863 105.62382 
L 165.904925 105.378755 
L 166.561013 102.631941 
L 166.957142 101.509535 
L 167.223616 101.287913 
L 167.482272 101.794932 
L 167.858204 103.037627 
L 168.144224 103.30406 
L 168.674567 103.190051 
L 169.419914 103.661553 
L 170.093593 103.600783 
L 171.250053 104.33008 
L 172.176525 104.423105 
L 172.674943 104.573704 
L 173.590338 105.069787 
L 174.121333 105.148632 
L 174.925969 105.135764 
L 175.288869 105.381825 
L 175.704544 105.2921 
L 176.072005 105.175176 
L 176.615378 105.261224 
L 177.403726 105.418245 
L 178.151028 105.40511 
L 178.803206 105.383013 
L 179.472976 105.30776 
L 179.887999 105.400311 
L 180.393584 105.554293 
L 181.041202 105.504129 
L 181.799579 105.4261 
L 182.612033 105.505642 
L 183.155407 105.504503 
L 183.759372 105.663177 
L 185.189474 105.574802 
L 185.862502 105.572999 
L 186.489922 105.576727 
L 193.269061 105.402222 
L 194.704375 105.525431 
L 197.69749 105.519251 
L 198.741888 105.808598 
L 200.08664 106.501851 
L 200.326402 106.385277 
L 200.570724 106.081231 
L 200.701681 105.808067 
L 201.004641 102.253211 
L 201.476999 85.497351 
L 201.754549 79.405611 
L 201.867915 78.487392 
L 202.01516 78.765967 
L 202.262089 82.331044 
L 203.170969 103.950897 
L 203.326684 103.705839 
L 203.574916 99.489629 
L 204.111122 87.942935 
L 204.241428 87.063251 
L 204.390627 87.232808 
L 205.156172 95.237248 
L 205.281265 94.994698 
L 205.52233 93.176542 
L 205.791411 94.573582 
L 206.174509 96.633306 
L 206.174509 96.633306 
" style="fill:none;stroke:#1f77b4;stroke-linecap:square;"/>
   </g>
   <g id="line2d_22">
    <path clip-path="url(#pbb58209bfe)" d="M 27.151167 105.226626 
L 28.858168 105.245891 
L 31.56852 105.244663 
L 35.871856 105.296046 
L 37.970425 105.307495 
L 41.121861 105.324753 
L 45.236906 105.344952 
L 52.300111 105.356912 
L 56.067892 105.361614 
L 58.925489 105.341027 
L 64.275178 105.281237 
L 70.523973 105.278105 
L 74.821446 105.267256 
L 78.756669 105.291235 
L 95.169287 105.380159 
L 105.215182 105.372342 
L 111.570177 105.319371 
L 114.330045 105.067873 
L 114.692946 105.017668 
L 115.621372 105.279514 
L 116.007076 105.370168 
L 116.656648 105.652169 
L 119.557247 105.606796 
L 120.314321 105.533964 
L 121.209519 105.459287 
L 122.40898 105.363601 
L 125.004013 105.304641 
L 126.550738 105.377648 
L 127.604909 105.336199 
L 129.195938 105.403143 
L 130.23382 105.358975 
L 131.40722 105.400278 
L 132.725911 105.484771 
L 134.391866 105.538089 
L 135.68645 105.49726 
L 143.508032 105.602235 
L 147.666078 105.583478 
L 148.971086 105.373385 
L 150.528887 105.347714 
L 153.265301 105.155521 
L 154.061467 105.225018 
L 155.612101 105.443924 
L 156.932095 105.508906 
L 157.697639 105.478216 
L 158.496412 105.351689 
L 159.158363 105.280145 
L 160.33893 105.235185 
L 160.951365 105.322685 
L 161.478451 105.368359 
L 161.615923 105.294631 
L 161.864155 104.634178 
L 162.427074 102.751416 
L 162.525455 102.722941 
L 162.910507 102.996826 
L 163.168512 102.403328 
L 163.447365 101.676192 
L 163.685824 101.639617 
L 163.849358 101.664855 
L 163.984224 101.490952 
L 164.346473 99.407034 
L 164.757586 96.824152 
L 164.877467 96.43005 
L 164.988227 96.456294 
L 165.286626 97.656459 
L 165.524434 99.14997 
L 165.644315 99.443774 
L 165.792863 99.437955 
L 166.164233 99.192964 
L 166.431359 99.375814 
L 166.561013 99.267678 
L 166.817063 98.467421 
L 167.340891 96.617948 
L 167.482272 96.797926 
L 167.987857 99.180418 
L 168.144224 99.223885 
L 168.382031 98.924846 
L 168.52211 98.92462 
L 168.898041 99.105325 
L 169.099363 98.933026 
L 169.419914 97.598968 
L 169.688343 96.954352 
L 169.812133 97.051384 
L 170.500797 98.67293 
L 170.872168 98.473273 
L 171.250053 98.397066 
L 171.506755 97.970016 
L 172.176525 96.826484 
L 172.414984 97.323873 
L 172.813718 98.008937 
L 173.72325 97.694692 
L 173.988421 97.143777 
L 174.422338 96.269508 
L 174.520719 96.262527 
L 175.288869 97.24364 
L 176.072005 97.152762 
L 176.523513 96.25627 
L 176.745684 95.794979 
L 176.85905 95.753555 
L 177.154843 96.09131 
L 177.510577 96.514837 
L 178.478094 96.574154 
L 179.213017 95.428292 
L 179.887999 95.693815 
L 180.265884 95.773322 
L 180.757136 96.01333 
L 181.041202 95.932987 
L 181.799579 95.331541 
L 182.223072 95.237072 
L 182.71302 94.844511 
L 183.525474 94.864284 
L 185.056563 93.856841 
L 186.000625 93.952347 
L 186.489922 93.446196 
L 187.011795 92.782397 
L 187.422257 92.597643 
L 188.446458 92.80972 
L 188.70772 92.909675 
L 189.207441 92.858904 
L 189.256957 92.63915 
L 190.042699 92.186584 
L 190.404297 91.762939 
L 191.571833 91.482306 
L 191.971219 91.537754 
L 192.374514 91.296558 
L 193.530323 90.241637 
L 193.927103 90.180747 
L 194.462659 89.927261 
L 195.219733 89.939869 
L 195.900579 89.459671 
L 196.55406 88.749939 
L 196.939764 88.331627 
L 197.174966 88.440957 
L 197.442743 88.559168 
L 197.69749 88.389874 
L 198.088406 88.090241 
L 198.535354 88.302165 
L 198.741888 88.347788 
L 199.156259 88.082372 
L 199.397976 87.645989 
L 199.558251 87.151251 
L 200.20196 82.593726 
L 200.326402 82.289818 
L 200.465829 82.416672 
L 200.701681 84.513387 
L 201.004641 89.818916 
L 201.259389 97.147843 
L 201.476999 101.347675 
L 201.627501 102.455074 
L 201.754549 102.509812 
L 202.01516 100.134757 
L 202.658869 88.922032 
L 202.832175 88.464422 
L 202.918176 88.900458 
L 203.326684 94.256243 
L 203.574916 96.898041 
L 203.702615 97.006533 
L 204.111122 94.813535 
L 204.475978 92.809621 
L 204.738543 92.448142 
L 204.913804 92.586985 
L 205.656545 95.289375 
L 205.908034 95.866231 
L 206.066355 95.423898 
L 206.174509 94.494196 
L 206.174509 94.494196 
" style="fill:none;stroke:#ff7f0e;stroke-linecap:square;"/>
   </g>
   <g id="line2d_23">
    <path clip-path="url(#pbb58209bfe)" d="M 27.151167 27.486155 
L 29.336389 27.471319 
L 135.296185 27.540438 
L 135.423233 26.8186 
L 136.324946 26.927399 
L 137.392799 27.271976 
L 138.406575 27.650516 
L 140.374839 27.896254 
L 143.360135 27.740431 
L 146.615816 27.642185 
L 154.985332 27.685556 
L 160.071152 27.694656 
L 162.139751 27.65125 
L 162.525455 27.49774 
L 163.447365 26.404861 
L 164.877467 23.793109 
L 165.644315 22.30761 
L 168.382031 18.096433 
L 170.201746 16.364862 
L 172.414984 15.062189 
L 175.023698 14.20421 
L 176.983491 13.807445 
L 178.943285 13.545378 
L 185.189474 13.160562 
L 196.667426 12.863452 
L 201.004641 12.769029 
L 201.867915 15.023157 
L 202.131132 14.661178 
L 202.387833 14.244608 
L 202.520093 14.239213 
L 202.832175 14.820971 
L 203.170969 16.407219 
L 203.574916 18.212272 
L 205.656545 28.450624 
L 205.908034 28.487288 
L 206.174509 28.314992 
L 206.174509 28.314992 
" style="fill:none;stroke:#2ca02c;stroke-linecap:square;"/>
   </g>
   <g id="patch_3">
    <path d="M 18.2 128.114906 
L 18.2 7.2 
" style="fill:none;stroke:#000000;stroke-linecap:square;stroke-linejoin:miter;stroke-width:0.3;"/>
   </g>
   <g id="patch_4">
    <path d="M 215.125676 128.114906 
L 215.125676 7.2 
" style="fill:none;stroke:#000000;stroke-linecap:square;stroke-linejoin:miter;stroke-width:0.3;"/>
   </g>
   <g id="patch_5">
    <path d="M 18.2 128.114906 
L 215.125676 128.114906 
" style="fill:none;stroke:#000000;stroke-linecap:square;stroke-linejoin:miter;stroke-width:0.3;"/>
   </g>
   <g id="patch_6">
    <path d="M 18.2 7.2 
L 215.125676 7.2 
" style="fill:none;stroke:#000000;stroke-linecap:square;stroke-linejoin:miter;stroke-width:0.3;"/>
   </g>
  </g>
 </g>
 <defs>
  <clipPath id="pbb58209bfe">
   <rect height="120.914906" width="196.925676" x="18.2" y="7.2"/>
  </clipPath>
 </defs>
</svg>
