<?xml version="1.0" encoding="utf-8" standalone="no"?>
<!DOCTYPE svg PUBLIC "-//W3C//DTD SVG 1.1//EN"
  "http://www.w3.org/Graphics/SVG/1.1/DTD/svg11.dtd">
<!-- Created with matplotlib (http://matplotlib.org/) -->
<svg height="144pt" version="1.1" viewBox="0 0 225 144" width="225pt" xmlns="http://www.w3.org/2000/svg" xmlns:xlink="http://www.w3.org/1999/xlink">
 <defs>
  <style type="text/css">
*{stroke-linecap:butt;stroke-linejoin:round;}
  </style>
 </defs>
 <g id="figure_1">
  <g id="patch_1">
   <path d="M 0 144.264593 
L 225.709113 144.264593 
L 225.709113 0 
L 0 0 
z
" style="fill:#ffffff;"/>
  </g>
  <g id="axes_1">
   <g id="patch_2">
    <path d="M 21.583438 128.114906 
L 218.509113 128.114906 
L 218.509113 7.2 
L 21.583438 7.2 
z
" style="fill:#ffffff;"/>
   </g>
   <g id="matplotlib.axis_1">
    <g id="xtick_1">
     <g id="line2d_1">
      <path clip-path="url(#pc71806be0a)" d="M 30.110284 128.114906 
L 30.110284 7.2 
" style="fill:none;opacity:0.1;stroke:#b0b0b0;stroke-linecap:square;stroke-width:0.1;"/>
     </g>
     <g id="line2d_2">
      <defs>
       <path d="M 0 0 
L 0 -2 
" id="md950d7c131" style="stroke:#000000;stroke-width:0.3;"/>
      </defs>
      <g>
       <use style="stroke:#000000;stroke-width:0.3;" x="30.110284" xlink:href="#md950d7c131" y="128.114906"/>
      </g>
     </g>
     <g id="text_1">
      <!-- 5 -->
      <defs>
       <path d="M 43.40625 66.21875 
L 39.59375 57.90625 
L 19.671875 57.90625 
L 15.328125 49.03125 
Q 28.265625 47.125 35.84375 39.40625 
Q 42.328125 32.765625 42.328125 23.78125 
Q 42.328125 18.5625 40.203125 14.109375 
Q 38.09375 9.671875 34.859375 6.546875 
Q 31.640625 3.421875 27.6875 1.515625 
Q 22.078125 -1.171875 16.15625 -1.171875 
Q 10.203125 -1.171875 7.484375 0.84375 
Q 4.78125 2.875 4.78125 5.328125 
Q 4.78125 6.6875 5.90625 7.734375 
Q 7.03125 8.796875 8.734375 8.796875 
Q 10.015625 8.796875 10.96875 8.40625 
Q 11.921875 8.015625 14.203125 6.390625 
Q 17.875 3.859375 21.625 3.859375 
Q 27.34375 3.859375 31.65625 8.171875 
Q 35.984375 12.5 35.984375 18.703125 
Q 35.984375 24.703125 32.125 29.90625 
Q 28.265625 35.109375 21.484375 37.9375 
Q 16.15625 40.140625 6.984375 40.484375 
L 19.671875 66.21875 
z
" id="TimesNewRomanPSMT-35"/>
      </defs>
      <g transform="translate(28.610284 135.781156)scale(0.06 -0.06)">
       <use xlink:href="#TimesNewRomanPSMT-35"/>
      </g>
     </g>
    </g>
    <g id="xtick_2">
     <g id="line2d_3">
      <path clip-path="url(#pc71806be0a)" d="M 52.050333 128.114906 
L 52.050333 7.2 
" style="fill:none;opacity:0.1;stroke:#b0b0b0;stroke-linecap:square;stroke-width:0.1;"/>
     </g>
     <g id="line2d_4">
      <g>
       <use style="stroke:#000000;stroke-width:0.3;" x="52.050333" xlink:href="#md950d7c131" y="128.114906"/>
      </g>
     </g>
     <g id="text_2">
      <!-- 6 -->
      <defs>
       <path d="M 44.828125 67.578125 
L 44.828125 65.765625 
Q 38.375 65.140625 34.296875 63.203125 
Q 30.21875 61.28125 26.234375 57.328125 
Q 22.265625 53.375 19.65625 48.515625 
Q 17.046875 43.65625 15.28125 36.96875 
Q 22.3125 41.796875 29.390625 41.796875 
Q 36.1875 41.796875 41.15625 36.328125 
Q 46.140625 30.859375 46.140625 22.265625 
Q 46.140625 13.96875 41.109375 7.125 
Q 35.0625 -1.171875 25.09375 -1.171875 
Q 18.3125 -1.171875 13.578125 3.328125 
Q 4.296875 12.0625 4.296875 25.984375 
Q 4.296875 34.859375 7.859375 42.859375 
Q 11.421875 50.875 18.03125 57.078125 
Q 24.65625 63.28125 30.703125 65.421875 
Q 36.765625 67.578125 42 67.578125 
z
M 14.453125 33.40625 
Q 13.578125 26.8125 13.578125 22.75 
Q 13.578125 18.0625 15.3125 12.5625 
Q 17.046875 7.078125 20.453125 3.859375 
Q 22.953125 1.5625 26.515625 1.5625 
Q 30.765625 1.5625 34.109375 5.5625 
Q 37.453125 9.578125 37.453125 17 
Q 37.453125 25.34375 34.125 31.4375 
Q 30.8125 37.546875 24.703125 37.546875 
Q 22.859375 37.546875 20.734375 36.765625 
Q 18.609375 35.984375 14.453125 33.40625 
z
" id="TimesNewRomanPSMT-36"/>
      </defs>
      <g transform="translate(50.550333 135.781156)scale(0.06 -0.06)">
       <use xlink:href="#TimesNewRomanPSMT-36"/>
      </g>
     </g>
    </g>
    <g id="xtick_3">
     <g id="line2d_5">
      <path clip-path="url(#pc71806be0a)" d="M 73.990382 128.114906 
L 73.990382 7.2 
" style="fill:none;opacity:0.1;stroke:#b0b0b0;stroke-linecap:square;stroke-width:0.1;"/>
     </g>
     <g id="line2d_6">
      <g>
       <use style="stroke:#000000;stroke-width:0.3;" x="73.990382" xlink:href="#md950d7c131" y="128.114906"/>
      </g>
     </g>
     <g id="text_3">
      <!-- 7 -->
      <defs>
       <path d="M 10.0625 66.21875 
L 45.5625 66.21875 
L 45.5625 64.359375 
L 23.484375 -1.375 
L 18.015625 -1.375 
L 37.796875 58.25 
L 19.578125 58.25 
Q 14.0625 58.25 11.71875 56.9375 
Q 7.625 54.6875 5.125 50 
L 3.71875 50.53125 
z
" id="TimesNewRomanPSMT-37"/>
      </defs>
      <g transform="translate(72.490382 135.781156)scale(0.06 -0.06)">
       <use xlink:href="#TimesNewRomanPSMT-37"/>
      </g>
     </g>
    </g>
    <g id="xtick_4">
     <g id="line2d_7">
      <path clip-path="url(#pc71806be0a)" d="M 95.930431 128.114906 
L 95.930431 7.2 
" style="fill:none;opacity:0.1;stroke:#b0b0b0;stroke-linecap:square;stroke-width:0.1;"/>
     </g>
     <g id="line2d_8">
      <g>
       <use style="stroke:#000000;stroke-width:0.3;" x="95.930431" xlink:href="#md950d7c131" y="128.114906"/>
      </g>
     </g>
     <g id="text_4">
      <!-- 8 -->
      <defs>
       <path d="M 19.1875 33.34375 
Q 11.328125 39.796875 9.046875 43.703125 
Q 6.78125 47.609375 6.78125 51.8125 
Q 6.78125 58.25 11.765625 62.90625 
Q 16.75 67.578125 25 67.578125 
Q 33.015625 67.578125 37.890625 63.234375 
Q 42.78125 58.890625 42.78125 53.328125 
Q 42.78125 49.609375 40.140625 45.75 
Q 37.5 41.890625 29.15625 36.671875 
Q 37.75 30.03125 40.53125 26.21875 
Q 44.234375 21.234375 44.234375 15.71875 
Q 44.234375 8.734375 38.90625 3.78125 
Q 33.59375 -1.171875 24.953125 -1.171875 
Q 15.53125 -1.171875 10.25 4.734375 
Q 6.0625 9.46875 6.0625 15.09375 
Q 6.0625 19.484375 9.015625 23.796875 
Q 11.96875 28.125 19.1875 33.34375 
z
M 26.859375 38.578125 
Q 32.71875 43.84375 34.28125 46.890625 
Q 35.84375 49.953125 35.84375 53.8125 
Q 35.84375 58.9375 32.953125 61.84375 
Q 30.078125 64.75 25.09375 64.75 
Q 20.125 64.75 17 61.859375 
Q 13.875 58.984375 13.875 55.125 
Q 13.875 52.59375 15.15625 50.046875 
Q 16.453125 47.515625 18.84375 45.21875 
z
M 21.484375 31.5 
Q 17.4375 28.078125 15.484375 24.046875 
Q 13.53125 20.015625 13.53125 15.328125 
Q 13.53125 9.03125 16.96875 5.25 
Q 20.40625 1.46875 25.734375 1.46875 
Q 31 1.46875 34.171875 4.4375 
Q 37.359375 7.421875 37.359375 11.671875 
Q 37.359375 15.1875 35.5 17.96875 
Q 32.03125 23.140625 21.484375 31.5 
z
" id="TimesNewRomanPSMT-38"/>
      </defs>
      <g transform="translate(94.430431 135.781156)scale(0.06 -0.06)">
       <use xlink:href="#TimesNewRomanPSMT-38"/>
      </g>
     </g>
    </g>
    <g id="xtick_5">
     <g id="line2d_9">
      <path clip-path="url(#pc71806be0a)" d="M 117.870481 128.114906 
L 117.870481 7.2 
" style="fill:none;opacity:0.1;stroke:#b0b0b0;stroke-linecap:square;stroke-width:0.1;"/>
     </g>
     <g id="line2d_10">
      <g>
       <use style="stroke:#000000;stroke-width:0.3;" x="117.870481" xlink:href="#md950d7c131" y="128.114906"/>
      </g>
     </g>
     <g id="text_5">
      <!-- 9 -->
      <defs>
       <path d="M 5.28125 -1.375 
L 5.28125 0.4375 
Q 11.625 0.53125 17.09375 3.390625 
Q 22.5625 6.25 27.65625 13.375 
Q 32.765625 20.515625 34.765625 29.046875 
Q 27.09375 24.125 20.90625 24.125 
Q 13.921875 24.125 8.9375 29.515625 
Q 3.953125 34.90625 3.953125 43.84375 
Q 3.953125 52.546875 8.9375 59.328125 
Q 14.9375 67.578125 24.609375 67.578125 
Q 32.765625 67.578125 38.578125 60.84375 
Q 45.703125 52.484375 45.703125 40.234375 
Q 45.703125 29.203125 40.28125 19.65625 
Q 34.859375 10.109375 25.203125 3.8125 
Q 17.328125 -1.375 8.0625 -1.375 
z
M 35.546875 32.671875 
Q 36.421875 39.015625 36.421875 42.828125 
Q 36.421875 47.5625 34.8125 53.046875 
Q 33.203125 58.546875 30.25 61.46875 
Q 27.296875 64.40625 23.53125 64.40625 
Q 19.1875 64.40625 15.90625 60.5 
Q 12.640625 56.59375 12.640625 48.875 
Q 12.640625 38.578125 17 32.765625 
Q 20.171875 28.5625 24.8125 28.5625 
Q 27.046875 28.5625 30.125 29.640625 
Q 33.203125 30.71875 35.546875 32.671875 
z
" id="TimesNewRomanPSMT-39"/>
      </defs>
      <g transform="translate(116.370481 135.781156)scale(0.06 -0.06)">
       <use xlink:href="#TimesNewRomanPSMT-39"/>
      </g>
     </g>
    </g>
    <g id="xtick_6">
     <g id="line2d_11">
      <path clip-path="url(#pc71806be0a)" d="M 139.81053 128.114906 
L 139.81053 7.2 
" style="fill:none;opacity:0.1;stroke:#b0b0b0;stroke-linecap:square;stroke-width:0.1;"/>
     </g>
     <g id="line2d_12">
      <g>
       <use style="stroke:#000000;stroke-width:0.3;" x="139.81053" xlink:href="#md950d7c131" y="128.114906"/>
      </g>
     </g>
     <g id="text_6">
      <!-- 10 -->
      <defs>
       <path d="M 11.71875 59.71875 
L 27.828125 67.578125 
L 29.4375 67.578125 
L 29.4375 11.671875 
Q 29.4375 6.109375 29.90625 4.734375 
Q 30.375 3.375 31.828125 2.640625 
Q 33.296875 1.90625 37.796875 1.8125 
L 37.796875 0 
L 12.890625 0 
L 12.890625 1.8125 
Q 17.578125 1.90625 18.9375 2.609375 
Q 20.3125 3.328125 20.84375 4.515625 
Q 21.390625 5.71875 21.390625 11.671875 
L 21.390625 47.40625 
Q 21.390625 54.640625 20.90625 56.6875 
Q 20.5625 58.25 19.65625 58.984375 
Q 18.75 59.71875 17.484375 59.71875 
Q 15.671875 59.71875 12.453125 58.203125 
z
" id="TimesNewRomanPSMT-31"/>
       <path d="M 3.609375 32.71875 
Q 3.609375 44.046875 7.03125 52.21875 
Q 10.453125 60.40625 16.109375 64.40625 
Q 20.515625 67.578125 25.203125 67.578125 
Q 32.8125 67.578125 38.875 59.8125 
Q 46.4375 50.203125 46.4375 33.734375 
Q 46.4375 22.21875 43.109375 14.15625 
Q 39.796875 6.109375 34.640625 2.46875 
Q 29.5 -1.171875 24.703125 -1.171875 
Q 15.234375 -1.171875 8.9375 10.015625 
Q 3.609375 19.4375 3.609375 32.71875 
z
M 13.1875 31.5 
Q 13.1875 17.828125 16.546875 9.1875 
Q 19.34375 1.90625 24.859375 1.90625 
Q 27.484375 1.90625 30.3125 4.265625 
Q 33.15625 6.640625 34.625 12.203125 
Q 36.859375 20.609375 36.859375 35.890625 
Q 36.859375 47.21875 34.515625 54.78125 
Q 32.765625 60.40625 29.984375 62.75 
Q 27.984375 64.359375 25.140625 64.359375 
Q 21.828125 64.359375 19.234375 61.375 
Q 15.71875 57.328125 14.453125 48.625 
Q 13.1875 39.9375 13.1875 31.5 
z
" id="TimesNewRomanPSMT-30"/>
      </defs>
      <g transform="translate(136.81053 135.781156)scale(0.06 -0.06)">
       <use xlink:href="#TimesNewRomanPSMT-31"/>
       <use x="50" xlink:href="#TimesNewRomanPSMT-30"/>
      </g>
     </g>
    </g>
    <g id="xtick_7">
     <g id="line2d_13">
      <path clip-path="url(#pc71806be0a)" d="M 161.750579 128.114906 
L 161.750579 7.2 
" style="fill:none;opacity:0.1;stroke:#b0b0b0;stroke-linecap:square;stroke-width:0.1;"/>
     </g>
     <g id="line2d_14">
      <g>
       <use style="stroke:#000000;stroke-width:0.3;" x="161.750579" xlink:href="#md950d7c131" y="128.114906"/>
      </g>
     </g>
     <g id="text_7">
      <!-- 11 -->
      <g transform="translate(158.751985 135.781156)scale(0.06 -0.06)">
       <use xlink:href="#TimesNewRomanPSMT-31"/>
       <use x="49.953125" xlink:href="#TimesNewRomanPSMT-31"/>
      </g>
     </g>
    </g>
    <g id="xtick_8">
     <g id="line2d_15">
      <path clip-path="url(#pc71806be0a)" d="M 183.690628 128.114906 
L 183.690628 7.2 
" style="fill:none;opacity:0.1;stroke:#b0b0b0;stroke-linecap:square;stroke-width:0.1;"/>
     </g>
     <g id="line2d_16">
      <g>
       <use style="stroke:#000000;stroke-width:0.3;" x="183.690628" xlink:href="#md950d7c131" y="128.114906"/>
      </g>
     </g>
     <g id="text_8">
      <!-- 12 -->
      <defs>
       <path d="M 45.84375 12.75 
L 41.21875 0 
L 2.15625 0 
L 2.15625 1.8125 
Q 19.390625 17.53125 26.421875 27.484375 
Q 33.453125 37.453125 33.453125 45.703125 
Q 33.453125 52 29.59375 56.046875 
Q 25.734375 60.109375 20.359375 60.109375 
Q 15.484375 60.109375 11.59375 57.25 
Q 7.71875 54.390625 5.859375 48.875 
L 4.046875 48.875 
Q 5.28125 57.90625 10.328125 62.734375 
Q 15.375 67.578125 22.953125 67.578125 
Q 31 67.578125 36.390625 62.40625 
Q 41.796875 57.234375 41.796875 50.203125 
Q 41.796875 45.171875 39.453125 40.140625 
Q 35.84375 32.234375 27.734375 23.390625 
Q 15.578125 10.109375 12.546875 7.375 
L 29.828125 7.375 
Q 35.109375 7.375 37.234375 7.765625 
Q 39.359375 8.15625 41.0625 9.34375 
Q 42.78125 10.546875 44.046875 12.75 
z
" id="TimesNewRomanPSMT-32"/>
      </defs>
      <g transform="translate(180.690628 135.781156)scale(0.06 -0.06)">
       <use xlink:href="#TimesNewRomanPSMT-31"/>
       <use x="50" xlink:href="#TimesNewRomanPSMT-32"/>
      </g>
     </g>
    </g>
    <g id="xtick_9">
     <g id="line2d_17">
      <path clip-path="url(#pc71806be0a)" d="M 205.630677 128.114906 
L 205.630677 7.2 
" style="fill:none;opacity:0.1;stroke:#b0b0b0;stroke-linecap:square;stroke-width:0.1;"/>
     </g>
     <g id="line2d_18">
      <g>
       <use style="stroke:#000000;stroke-width:0.3;" x="205.630677" xlink:href="#md950d7c131" y="128.114906"/>
      </g>
     </g>
     <g id="text_9">
      <!-- 13 -->
      <defs>
       <path d="M 5.078125 53.609375 
Q 7.90625 60.296875 12.21875 63.9375 
Q 16.546875 67.578125 23 67.578125 
Q 30.953125 67.578125 35.203125 62.40625 
Q 38.421875 58.546875 38.421875 54.15625 
Q 38.421875 46.921875 29.34375 39.203125 
Q 35.453125 36.8125 38.578125 32.375 
Q 41.703125 27.9375 41.703125 21.921875 
Q 41.703125 13.328125 36.234375 7.03125 
Q 29.109375 -1.171875 15.578125 -1.171875 
Q 8.890625 -1.171875 6.46875 0.484375 
Q 4.046875 2.15625 4.046875 4.046875 
Q 4.046875 5.46875 5.1875 6.546875 
Q 6.34375 7.625 7.953125 7.625 
Q 9.1875 7.625 10.453125 7.234375 
Q 11.28125 6.984375 14.203125 5.4375 
Q 17.140625 3.90625 18.265625 3.609375 
Q 20.0625 3.078125 22.125 3.078125 
Q 27.09375 3.078125 30.78125 6.9375 
Q 34.46875 10.796875 34.46875 16.0625 
Q 34.46875 19.921875 32.765625 23.578125 
Q 31.5 26.3125 29.984375 27.734375 
Q 27.875 29.6875 24.21875 31.265625 
Q 20.5625 32.859375 16.75 32.859375 
L 15.1875 32.859375 
L 15.1875 34.328125 
Q 19.046875 34.8125 22.921875 37.109375 
Q 26.8125 39.40625 28.5625 42.625 
Q 30.328125 45.84375 30.328125 49.703125 
Q 30.328125 54.734375 27.171875 57.828125 
Q 24.03125 60.9375 19.34375 60.9375 
Q 11.765625 60.9375 6.6875 52.828125 
z
" id="TimesNewRomanPSMT-33"/>
      </defs>
      <g transform="translate(202.630677 135.781156)scale(0.06 -0.06)">
       <use xlink:href="#TimesNewRomanPSMT-31"/>
       <use x="50" xlink:href="#TimesNewRomanPSMT-33"/>
      </g>
     </g>
    </g>
   </g>
   <g id="matplotlib.axis_2">
    <g id="ytick_1">
     <g id="line2d_19">
      <path clip-path="url(#pc71806be0a)" d="M 21.583438 123.067719 
L 218.509113 123.067719 
" style="fill:none;opacity:0.1;stroke:#b0b0b0;stroke-linecap:square;stroke-width:0.1;"/>
     </g>
     <g id="line2d_20">
      <defs>
       <path d="M 0 0 
L 2 0 
" id="mc716082dab" style="stroke:#000000;stroke-width:0.3;"/>
      </defs>
      <g>
       <use style="stroke:#000000;stroke-width:0.3;" x="21.583438" xlink:href="#mc716082dab" y="123.067719"/>
      </g>
     </g>
     <g id="text_10">
      <!-- −1.5 -->
      <defs>
       <path d="M 54.4375 31.25 
L 1.8125 31.25 
L 1.8125 35.25 
L 54.4375 35.25 
z
" id="TimesNewRomanPSMT-2212"/>
       <path d="M 12.5 9.46875 
Q 14.796875 9.46875 16.359375 7.875 
Q 17.921875 6.296875 17.921875 4.046875 
Q 17.921875 1.8125 16.328125 0.21875 
Q 14.75 -1.375 12.5 -1.375 
Q 10.25 -1.375 8.65625 0.21875 
Q 7.078125 1.8125 7.078125 4.046875 
Q 7.078125 6.34375 8.65625 7.90625 
Q 10.25 9.46875 12.5 9.46875 
z
" id="TimesNewRomanPSMT-2e"/>
      </defs>
      <g transform="translate(7.2 125.150844)scale(0.06 -0.06)">
       <use xlink:href="#TimesNewRomanPSMT-2212"/>
       <use x="56.396484" xlink:href="#TimesNewRomanPSMT-31"/>
       <use x="106.396484" xlink:href="#TimesNewRomanPSMT-2e"/>
       <use x="131.396484" xlink:href="#TimesNewRomanPSMT-35"/>
      </g>
     </g>
    </g>
    <g id="ytick_2">
     <g id="line2d_21">
      <path clip-path="url(#pc71806be0a)" d="M 21.583438 98.03877 
L 218.509113 98.03877 
" style="fill:none;opacity:0.1;stroke:#b0b0b0;stroke-linecap:square;stroke-width:0.1;"/>
     </g>
     <g id="line2d_22">
      <g>
       <use style="stroke:#000000;stroke-width:0.3;" x="21.583438" xlink:href="#mc716082dab" y="98.03877"/>
      </g>
     </g>
     <g id="text_11">
      <!-- −1.0 -->
      <g transform="translate(7.2 100.121895)scale(0.06 -0.06)">
       <use xlink:href="#TimesNewRomanPSMT-2212"/>
       <use x="56.396484" xlink:href="#TimesNewRomanPSMT-31"/>
       <use x="106.396484" xlink:href="#TimesNewRomanPSMT-2e"/>
       <use x="131.396484" xlink:href="#TimesNewRomanPSMT-30"/>
      </g>
     </g>
    </g>
    <g id="ytick_3">
     <g id="line2d_23">
      <path clip-path="url(#pc71806be0a)" d="M 21.583438 73.009822 
L 218.509113 73.009822 
" style="fill:none;opacity:0.1;stroke:#b0b0b0;stroke-linecap:square;stroke-width:0.1;"/>
     </g>
     <g id="line2d_24">
      <g>
       <use style="stroke:#000000;stroke-width:0.3;" x="21.583438" xlink:href="#mc716082dab" y="73.009822"/>
      </g>
     </g>
     <g id="text_12">
      <!-- −0.5 -->
      <g transform="translate(7.2 75.092947)scale(0.06 -0.06)">
       <use xlink:href="#TimesNewRomanPSMT-2212"/>
       <use x="56.396484" xlink:href="#TimesNewRomanPSMT-30"/>
       <use x="106.396484" xlink:href="#TimesNewRomanPSMT-2e"/>
       <use x="131.396484" xlink:href="#TimesNewRomanPSMT-35"/>
      </g>
     </g>
    </g>
    <g id="ytick_4">
     <g id="line2d_25">
      <path clip-path="url(#pc71806be0a)" d="M 21.583438 47.980873 
L 218.509113 47.980873 
" style="fill:none;opacity:0.1;stroke:#b0b0b0;stroke-linecap:square;stroke-width:0.1;"/>
     </g>
     <g id="line2d_26">
      <g>
       <use style="stroke:#000000;stroke-width:0.3;" x="21.583438" xlink:href="#mc716082dab" y="47.980873"/>
      </g>
     </g>
     <g id="text_13">
      <!-- 0.0 -->
      <g transform="translate(10.583438 50.063998)scale(0.06 -0.06)">
       <use xlink:href="#TimesNewRomanPSMT-30"/>
       <use x="50" xlink:href="#TimesNewRomanPSMT-2e"/>
       <use x="75" xlink:href="#TimesNewRomanPSMT-30"/>
      </g>
     </g>
    </g>
    <g id="ytick_5">
     <g id="line2d_27">
      <path clip-path="url(#pc71806be0a)" d="M 21.583438 22.951924 
L 218.509113 22.951924 
" style="fill:none;opacity:0.1;stroke:#b0b0b0;stroke-linecap:square;stroke-width:0.1;"/>
     </g>
     <g id="line2d_28">
      <g>
       <use style="stroke:#000000;stroke-width:0.3;" x="21.583438" xlink:href="#mc716082dab" y="22.951924"/>
      </g>
     </g>
     <g id="text_14">
      <!-- 0.5 -->
      <g transform="translate(10.583438 25.035049)scale(0.06 -0.06)">
       <use xlink:href="#TimesNewRomanPSMT-30"/>
       <use x="50" xlink:href="#TimesNewRomanPSMT-2e"/>
       <use x="75" xlink:href="#TimesNewRomanPSMT-35"/>
      </g>
     </g>
    </g>
   </g>
   <g id="line2d_29">
    <path clip-path="url(#pc71806be0a)" d="M 30.534605 51.39202 
L 30.998417 51.605473 
L 31.412645 51.734235 
L 33.625519 52.018884 
L 35.347374 52.279079 
L 36.266881 52.131876 
L 36.671895 52.179217 
L 37.114645 52.881522 
L 37.576483 54.083021 
L 38.915703 58.876188 
L 39.323349 60.129828 
L 40.188446 61.897857 
L 41.051787 63.307606 
L 42.382451 64.838116 
L 42.86557 65.228543 
L 43.237235 65.31509 
L 43.734177 65.238602 
L 46.793278 65.949983 
L 48.964904 64.98274 
L 49.856767 65.305514 
L 51.581036 66.504161 
L 52.082146 66.584431 
L 52.942635 66.282166 
L 53.354011 65.945571 
L 53.807951 65.853439 
L 54.73777 66.018502 
L 55.547138 66.285803 
L 56.513597 66.313373 
L 57.285887 66.124558 
L 57.747506 66.128493 
L 59.943924 66.77495 
L 60.788397 66.753877 
L 62.585506 66.664731 
L 63.457623 66.671009 
L 64.394682 66.383567 
L 65.702529 66.024632 
L 66.969567 65.717576 
L 67.855067 65.343198 
L 69.636599 64.153096 
L 70.596696 63.688029 
L 70.893544 63.61176 
L 73.549168 62.359124 
L 76.148406 61.677504 
L 77.031493 61.156924 
L 78.866119 59.857828 
L 81.476108 58.599155 
L 82.73437 57.424014 
L 83.650805 56.868439 
L 84.08478 56.788845 
L 85.852928 57.040199 
L 86.682043 56.811402 
L 87.207507 56.660454 
L 88.91181 55.808675 
L 90.226457 55.34015 
L 91.10757 55.253884 
L 91.575771 55.096142 
L 92.449862 54.39345 
L 93.279415 53.591397 
L 94.166013 53.201561 
L 95.107241 52.603781 
L 95.548894 52.333586 
L 95.924727 52.293372 
L 96.314821 52.397299 
L 97.214363 52.83418 
L 98.139356 52.489066 
L 98.580131 52.401392 
L 99.43689 52.474753 
L 99.877446 52.405716 
L 100.316028 52.164436 
L 101.618609 50.635658 
L 102.941155 50.558215 
L 105.123312 50.106647 
L 106.050279 49.354928 
L 106.457925 48.628346 
L 106.885976 48.202085 
L 108.669702 45.830982 
L 110.813683 46.818712 
L 111.812175 46.620474 
L 113.057273 45.549812 
L 114.365119 44.691128 
L 114.758285 44.179283 
L 115.255007 43.729604 
L 116.124272 42.190145 
L 117.004507 41.610881 
L 117.887813 41.525335 
L 118.326175 41.092695 
L 118.752032 40.85237 
L 119.19171 40.774085 
L 120.045836 41.192242 
L 120.941649 41.16907 
L 121.394272 40.995074 
L 122.692903 39.428886 
L 123.561071 37.784962 
L 126.192999 34.886763 
L 126.66493 34.508291 
L 127.489218 34.650337 
L 127.908711 35.091695 
L 129.316385 37.00525 
L 129.684978 37.147722 
L 130.542395 36.079244 
L 131.496787 33.489088 
L 131.885565 32.104264 
L 132.356398 31.152225 
L 133.197799 30.52138 
L 134.071891 30.369476 
L 134.528463 30.095005 
L 134.961998 30.097208 
L 135.398605 30.215747 
L 135.886771 30.17284 
L 136.704696 29.346546 
L 138.12685 29.295683 
L 139.375678 28.299971 
L 139.788151 28.389003 
L 140.650834 29.159952 
L 141.146679 29.065842 
L 141.572316 28.788052 
L 141.971625 28.078675 
L 142.432366 27.542584 
L 142.864585 26.814579 
L 143.298998 26.498631 
L 144.15466 25.488187 
L 145.06956 24.023788 
L 145.587345 23.433055 
L 146.403515 22.785381 
L 147.373265 22.526209 
L 147.704559 22.451918 
L 149.91831 22.63607 
L 151.232519 23.416645 
L 151.658156 23.798654 
L 152.952619 25.748479 
L 153.448464 26.024074 
L 153.830221 25.788993 
L 154.32826 25.34375 
L 155.181728 24.096049 
L 155.642469 23.799555 
L 156.011062 23.419156 
L 158.242365 22.12795 
L 158.678972 22.069636 
L 159.999763 22.57589 
L 160.864201 22.646076 
L 161.739609 22.443178 
L 162.615017 22.507969 
L 165.256599 23.750041 
L 166.221961 24.287149 
L 167.018385 24.447596 
L 167.413306 24.395043 
L 168.326012 23.813298 
L 168.716545 23.504819 
L 169.627057 22.550102 
L 170.991728 21.662641 
L 171.871524 21.524977 
L 174.030424 22.079578 
L 174.890474 21.71593 
L 175.77027 21.212302 
L 176.693946 20.647974 
L 177.560578 20.50925 
L 178.3943 20.704591 
L 181.91129 22.673525 
L 182.80425 23.037871 
L 183.74109 23.431356 
L 185.013613 23.803408 
L 185.873663 24.411009 
L 186.746877 25.092305 
L 188.929912 27.186472 
L 189.441115 27.793096 
L 189.798738 28.007253 
L 190.296777 28.758921 
L 191.134887 29.539548 
L 191.674612 29.842137 
L 193.811573 33.212682 
L 194.208688 33.958017 
L 194.662847 35.14182 
L 196.446573 41.62668 
L 199.05305 55.370188 
L 201.271189 69.199257 
L 201.73193 73.329879 
L 202.247522 76.603366 
L 202.574428 79.974758 
L 202.989095 82.170208 
L 203.914965 88.997733 
L 204.349378 94.176415 
L 204.777209 97.677204 
L 205.231368 100.150873 
L 205.663587 103.458839 
L 207.420985 111.409357 
L 207.84004 112.064143 
L 208.307363 113.005316 
L 209.084041 113.761367 
L 209.557946 114.181656 
L 209.557946 114.181656 
" style="fill:none;stroke:#1f77b4;stroke-linecap:square;"/>
   </g>
   <g id="line2d_30">
    <path clip-path="url(#pc71806be0a)" d="M 30.534605 40.839287 
L 30.998417 40.808275 
L 31.412645 40.823347 
L 31.910026 40.907676 
L 32.741774 41.314478 
L 36.266881 42.188537 
L 36.671895 42.38982 
L 37.114645 42.147636 
L 37.576483 41.475805 
L 37.973378 40.414183 
L 38.443992 38.648232 
L 40.188446 34.045632 
L 41.051787 32.45221 
L 43.734177 29.011135 
L 46.329465 26.684179 
L 46.793278 26.458449 
L 47.649818 25.883623 
L 49.428717 25.4707 
L 51.214856 25.311204 
L 52.521825 25.653 
L 53.354011 25.954804 
L 53.807951 26.100001 
L 54.197386 26.345711 
L 54.73777 26.487828 
L 55.547138 26.900167 
L 56.513597 27.430456 
L 59.573137 29.591345 
L 60.418268 30.228179 
L 60.788397 30.758663 
L 62.11182 31.782666 
L 63.033522 32.143197 
L 65.702529 32.200515 
L 70.015723 30.914476 
L 70.893544 30.352901 
L 71.811955 29.668205 
L 73.141741 28.977111 
L 74.901772 28.634992 
L 75.314025 28.408747 
L 76.633939 27.350978 
L 77.547742 26.813201 
L 78.866119 26.167664 
L 79.726389 25.714533 
L 81.036868 24.590493 
L 82.73437 23.484541 
L 84.08478 23.170774 
L 84.949217 23.175062 
L 85.852928 22.915704 
L 88.076552 22.271899 
L 89.307828 22.143071 
L 92.859263 21.012204 
L 94.166013 20.228108 
L 94.621269 19.758191 
L 95.548894 19.229001 
L 95.924727 19.142108 
L 96.79816 19.391952 
L 97.214363 19.718063 
L 98.139356 20.011452 
L 100.769309 19.794407 
L 101.618609 19.615219 
L 102.51486 19.767059 
L 104.245491 19.981394 
L 105.123312 19.915734 
L 105.560358 20.034549 
L 106.457925 19.944596 
L 107.333991 19.901487 
L 109.105431 19.318786 
L 110.813683 19.288692 
L 112.154878 19.463897 
L 113.057273 19.153111 
L 114.758285 18.061208 
L 116.541133 17.65657 
L 119.19171 17.728007 
L 120.467305 17.865824 
L 121.81574 17.654458 
L 124.028175 17.754082 
L 125.719314 17.737002 
L 126.192999 17.853534 
L 128.844674 19.212387 
L 129.684978 19.24701 
L 131.496787 18.914501 
L 131.885565 18.838654 
L 132.835569 18.912287 
L 134.528463 19.528807 
L 135.398605 19.710034 
L 137.605774 19.771399 
L 138.476355 20.042945 
L 139.375678 20.449095 
L 140.284435 20.597694 
L 142.432366 20.529102 
L 145.06956 21.244052 
L 145.587345 21.694063 
L 146.846704 22.489994 
L 147.704559 22.721659 
L 148.141166 22.722039 
L 149.479509 22.488343 
L 149.91831 22.51147 
L 152.145225 23.004567 
L 153.448464 23.017914 
L 156.011062 23.987092 
L 156.465221 24.001043 
L 157.814534 24.351876 
L 158.678972 24.724391 
L 159.119967 24.999038 
L 160.864201 25.544404 
L 161.739609 25.636336 
L 163.069176 25.484077 
L 164.416295 25.220632 
L 169.183868 25.029443 
L 172.233534 25.823237 
L 173.203285 25.818725 
L 174.890474 25.410942 
L 179.758971 25.514865 
L 181.465907 25.684537 
L 182.80425 25.362725 
L 185.873663 23.950529 
L 187.275632 23.710819 
L 190.296777 23.77226 
L 191.990549 23.412694 
L 193.337668 22.382287 
L 195.132364 20.229331 
L 195.994608 19.00515 
L 196.834912 17.913015 
L 197.769558 16.540696 
L 198.151314 15.900472 
L 198.618638 15.443335 
L 199.05305 14.824942 
L 199.948204 14.174496 
L 202.574428 12.696132 
L 203.443254 12.846449 
L 203.914965 13.191179 
L 205.231368 17.635082 
L 206.960244 30.300583 
L 207.420985 34.985412 
L 207.84004 37.594548 
L 208.307363 42.263335 
L 208.695702 45.020008 
L 209.084041 49.416508 
L 209.557946 53.058733 
L 209.557946 53.058733 
" style="fill:none;stroke:#ff7f0e;stroke-linecap:square;"/>
   </g>
   <g id="line2d_31">
    <path clip-path="url(#pc71806be0a)" d="M 30.534605 110.760541 
L 33.151614 110.887429 
L 36.266881 111.070287 
L 37.576483 110.840606 
L 41.051787 110.165875 
L 48.530491 109.092776 
L 52.082146 108.633414 
L 55.957417 108.021883 
L 59.214637 107.266888 
L 60.788397 106.72563 
L 65.175968 105.647403 
L 67.4257 105.29514 
L 69.250893 105.000797 
L 71.811955 104.78492 
L 74.901772 104.47101 
L 80.583806 104.268006 
L 84.949217 104.266343 
L 88.076552 104.337624 
L 90.747314 104.683216 
L 93.727212 105.114025 
L 95.107241 105.253241 
L 101.19714 105.858766 
L 102.941155 105.909096 
L 105.560358 106.022631 
L 107.333991 106.046349 
L 111.812175 106.271684 
L 113.057273 106.396303 
L 121.394272 106.968862 
L 122.692903 106.942697 
L 124.402472 107.069703 
L 126.66493 107.061029 
L 129.684978 107.49554 
L 133.197799 107.84003 
L 137.605774 108.699906 
L 138.476355 108.841276 
L 142.864585 109.807463 
L 145.06956 110.176889 
L 148.141166 110.99714 
L 152.145225 111.715209 
L 155.642469 112.473679 
L 156.465221 112.621496 
L 159.604842 113.328039 
L 160.864201 113.759369 
L 174.890474 117.574125 
L 176.215653 118.038001 
L 183.74109 119.716181 
L 185.013613 119.903369 
L 186.34318 120.122286 
L 188.929912 120.484301 
L 191.134887 120.932244 
L 191.990549 121.098931 
L 193.337668 121.422092 
L 197.769558 121.676778 
L 198.618638 121.671473 
L 199.948204 121.792552 
L 205.231368 122.560358 
L 206.100194 122.173849 
L 206.960244 121.226096 
L 207.420985 120.568803 
L 207.84004 120.196829 
L 209.557946 117.59699 
L 209.557946 117.59699 
" style="fill:none;stroke:#2ca02c;stroke-linecap:square;"/>
   </g>
   <g id="patch_3">
    <path d="M 21.583438 128.114906 
L 21.583438 7.2 
" style="fill:none;stroke:#000000;stroke-linecap:square;stroke-linejoin:miter;stroke-width:0.3;"/>
   </g>
   <g id="patch_4">
    <path d="M 218.509113 128.114906 
L 218.509113 7.2 
" style="fill:none;stroke:#000000;stroke-linecap:square;stroke-linejoin:miter;stroke-width:0.3;"/>
   </g>
   <g id="patch_5">
    <path d="M 21.583437 128.114906 
L 218.509113 128.114906 
" style="fill:none;stroke:#000000;stroke-linecap:square;stroke-linejoin:miter;stroke-width:0.3;"/>
   </g>
   <g id="patch_6">
    <path d="M 21.583437 7.2 
L 218.509113 7.2 
" style="fill:none;stroke:#000000;stroke-linecap:square;stroke-linejoin:miter;stroke-width:0.3;"/>
   </g>
  </g>
 </g>
 <defs>
  <clipPath id="pc71806be0a">
   <rect height="120.914906" width="196.925676" x="21.583438" y="7.2"/>
  </clipPath>
 </defs>
</svg>
