<?xml version="1.0" encoding="utf-8" standalone="no"?>
<!DOCTYPE svg PUBLIC "-//W3C//DTD SVG 1.1//EN"
  "http://www.w3.org/Graphics/SVG/1.1/DTD/svg11.dtd">
<!-- Created with matplotlib (http://matplotlib.org/) -->
<svg height="146pt" version="1.1" viewBox="0 0 225 146" width="225pt" xmlns="http://www.w3.org/2000/svg" xmlns:xlink="http://www.w3.org/1999/xlink">
 <defs>
  <style type="text/css">
*{stroke-linecap:butt;stroke-linejoin:round;}
  </style>
 </defs>
 <g id="figure_1">
  <g id="patch_1">
   <path d="M 0 146.821092 
L 225.758416 146.821092 
L 225.758416 0 
L 0 0 
z
" style="fill:#ffffff;"/>
  </g>
  <g id="axes_1">
   <g id="patch_2">
    <path d="M 21.583438 130.671405 
L 218.509113 130.671405 
L 218.509113 9.756499 
L 21.583438 9.756499 
z
" style="fill:#ffffff;"/>
   </g>
   <g id="matplotlib.axis_1">
    <g id="xtick_1">
     <g id="line2d_1">
      <path clip-path="url(#pd2a43ffad8)" d="M 30.507217 130.671405 
L 30.507217 9.756499 
" style="fill:none;opacity:0.1;stroke:#b0b0b0;stroke-linecap:square;stroke-width:0.1;"/>
     </g>
     <g id="line2d_2">
      <defs>
       <path d="M 0 0 
L 0 -2 
" id="mdbbf516597" style="stroke:#000000;stroke-width:0.3;"/>
      </defs>
      <g>
       <use style="stroke:#000000;stroke-width:0.3;" x="30.507217" xlink:href="#mdbbf516597" y="130.671405"/>
      </g>
     </g>
     <g id="text_1">
      <!-- 20 -->
      <defs>
       <path d="M 45.84375 12.75 
L 41.21875 0 
L 2.15625 0 
L 2.15625 1.8125 
Q 19.390625 17.53125 26.421875 27.484375 
Q 33.453125 37.453125 33.453125 45.703125 
Q 33.453125 52 29.59375 56.046875 
Q 25.734375 60.109375 20.359375 60.109375 
Q 15.484375 60.109375 11.59375 57.25 
Q 7.71875 54.390625 5.859375 48.875 
L 4.046875 48.875 
Q 5.28125 57.90625 10.328125 62.734375 
Q 15.375 67.578125 22.953125 67.578125 
Q 31 67.578125 36.390625 62.40625 
Q 41.796875 57.234375 41.796875 50.203125 
Q 41.796875 45.171875 39.453125 40.140625 
Q 35.84375 32.234375 27.734375 23.390625 
Q 15.578125 10.109375 12.546875 7.375 
L 29.828125 7.375 
Q 35.109375 7.375 37.234375 7.765625 
Q 39.359375 8.15625 41.0625 9.34375 
Q 42.78125 10.546875 44.046875 12.75 
z
" id="TimesNewRomanPSMT-32"/>
       <path d="M 3.609375 32.71875 
Q 3.609375 44.046875 7.03125 52.21875 
Q 10.453125 60.40625 16.109375 64.40625 
Q 20.515625 67.578125 25.203125 67.578125 
Q 32.8125 67.578125 38.875 59.8125 
Q 46.4375 50.203125 46.4375 33.734375 
Q 46.4375 22.21875 43.109375 14.15625 
Q 39.796875 6.109375 34.640625 2.46875 
Q 29.5 -1.171875 24.703125 -1.171875 
Q 15.234375 -1.171875 8.9375 10.015625 
Q 3.609375 19.4375 3.609375 32.71875 
z
M 13.1875 31.5 
Q 13.1875 17.828125 16.546875 9.1875 
Q 19.34375 1.90625 24.859375 1.90625 
Q 27.484375 1.90625 30.3125 4.265625 
Q 33.15625 6.640625 34.625 12.203125 
Q 36.859375 20.609375 36.859375 35.890625 
Q 36.859375 47.21875 34.515625 54.78125 
Q 32.765625 60.40625 29.984375 62.75 
Q 27.984375 64.359375 25.140625 64.359375 
Q 21.828125 64.359375 19.234375 61.375 
Q 15.71875 57.328125 14.453125 48.625 
Q 13.1875 39.9375 13.1875 31.5 
z
" id="TimesNewRomanPSMT-30"/>
      </defs>
      <g transform="translate(27.507217 138.337655)scale(0.06 -0.06)">
       <use xlink:href="#TimesNewRomanPSMT-32"/>
       <use x="50" xlink:href="#TimesNewRomanPSMT-30"/>
      </g>
     </g>
    </g>
    <g id="xtick_2">
     <g id="line2d_3">
      <path clip-path="url(#pd2a43ffad8)" d="M 67.517457 130.671405 
L 67.517457 9.756499 
" style="fill:none;opacity:0.1;stroke:#b0b0b0;stroke-linecap:square;stroke-width:0.1;"/>
     </g>
     <g id="line2d_4">
      <g>
       <use style="stroke:#000000;stroke-width:0.3;" x="67.517457" xlink:href="#mdbbf516597" y="130.671405"/>
      </g>
     </g>
     <g id="text_2">
      <!-- 30 -->
      <defs>
       <path d="M 5.078125 53.609375 
Q 7.90625 60.296875 12.21875 63.9375 
Q 16.546875 67.578125 23 67.578125 
Q 30.953125 67.578125 35.203125 62.40625 
Q 38.421875 58.546875 38.421875 54.15625 
Q 38.421875 46.921875 29.34375 39.203125 
Q 35.453125 36.8125 38.578125 32.375 
Q 41.703125 27.9375 41.703125 21.921875 
Q 41.703125 13.328125 36.234375 7.03125 
Q 29.109375 -1.171875 15.578125 -1.171875 
Q 8.890625 -1.171875 6.46875 0.484375 
Q 4.046875 2.15625 4.046875 4.046875 
Q 4.046875 5.46875 5.1875 6.546875 
Q 6.34375 7.625 7.953125 7.625 
Q 9.1875 7.625 10.453125 7.234375 
Q 11.28125 6.984375 14.203125 5.4375 
Q 17.140625 3.90625 18.265625 3.609375 
Q 20.0625 3.078125 22.125 3.078125 
Q 27.09375 3.078125 30.78125 6.9375 
Q 34.46875 10.796875 34.46875 16.0625 
Q 34.46875 19.921875 32.765625 23.578125 
Q 31.5 26.3125 29.984375 27.734375 
Q 27.875 29.6875 24.21875 31.265625 
Q 20.5625 32.859375 16.75 32.859375 
L 15.1875 32.859375 
L 15.1875 34.328125 
Q 19.046875 34.8125 22.921875 37.109375 
Q 26.8125 39.40625 28.5625 42.625 
Q 30.328125 45.84375 30.328125 49.703125 
Q 30.328125 54.734375 27.171875 57.828125 
Q 24.03125 60.9375 19.34375 60.9375 
Q 11.765625 60.9375 6.6875 52.828125 
z
" id="TimesNewRomanPSMT-33"/>
      </defs>
      <g transform="translate(64.517457 138.337655)scale(0.06 -0.06)">
       <use xlink:href="#TimesNewRomanPSMT-33"/>
       <use x="50" xlink:href="#TimesNewRomanPSMT-30"/>
      </g>
     </g>
    </g>
    <g id="xtick_3">
     <g id="line2d_5">
      <path clip-path="url(#pd2a43ffad8)" d="M 104.527697 130.671405 
L 104.527697 9.756499 
" style="fill:none;opacity:0.1;stroke:#b0b0b0;stroke-linecap:square;stroke-width:0.1;"/>
     </g>
     <g id="line2d_6">
      <g>
       <use style="stroke:#000000;stroke-width:0.3;" x="104.527697" xlink:href="#mdbbf516597" y="130.671405"/>
      </g>
     </g>
     <g id="text_3">
      <!-- 40 -->
      <defs>
       <path d="M 46.53125 24.421875 
L 46.53125 17.484375 
L 37.640625 17.484375 
L 37.640625 0 
L 29.59375 0 
L 29.59375 17.484375 
L 1.5625 17.484375 
L 1.5625 23.734375 
L 32.28125 67.578125 
L 37.640625 67.578125 
L 37.640625 24.421875 
z
M 29.59375 24.421875 
L 29.59375 57.28125 
L 6.34375 24.421875 
z
" id="TimesNewRomanPSMT-34"/>
      </defs>
      <g transform="translate(101.527697 138.337655)scale(0.06 -0.06)">
       <use xlink:href="#TimesNewRomanPSMT-34"/>
       <use x="50" xlink:href="#TimesNewRomanPSMT-30"/>
      </g>
     </g>
    </g>
    <g id="xtick_4">
     <g id="line2d_7">
      <path clip-path="url(#pd2a43ffad8)" d="M 141.537937 130.671405 
L 141.537937 9.756499 
" style="fill:none;opacity:0.1;stroke:#b0b0b0;stroke-linecap:square;stroke-width:0.1;"/>
     </g>
     <g id="line2d_8">
      <g>
       <use style="stroke:#000000;stroke-width:0.3;" x="141.537937" xlink:href="#mdbbf516597" y="130.671405"/>
      </g>
     </g>
     <g id="text_4">
      <!-- 50 -->
      <defs>
       <path d="M 43.40625 66.21875 
L 39.59375 57.90625 
L 19.671875 57.90625 
L 15.328125 49.03125 
Q 28.265625 47.125 35.84375 39.40625 
Q 42.328125 32.765625 42.328125 23.78125 
Q 42.328125 18.5625 40.203125 14.109375 
Q 38.09375 9.671875 34.859375 6.546875 
Q 31.640625 3.421875 27.6875 1.515625 
Q 22.078125 -1.171875 16.15625 -1.171875 
Q 10.203125 -1.171875 7.484375 0.84375 
Q 4.78125 2.875 4.78125 5.328125 
Q 4.78125 6.6875 5.90625 7.734375 
Q 7.03125 8.796875 8.734375 8.796875 
Q 10.015625 8.796875 10.96875 8.40625 
Q 11.921875 8.015625 14.203125 6.390625 
Q 17.875 3.859375 21.625 3.859375 
Q 27.34375 3.859375 31.65625 8.171875 
Q 35.984375 12.5 35.984375 18.703125 
Q 35.984375 24.703125 32.125 29.90625 
Q 28.265625 35.109375 21.484375 37.9375 
Q 16.15625 40.140625 6.984375 40.484375 
L 19.671875 66.21875 
z
" id="TimesNewRomanPSMT-35"/>
      </defs>
      <g transform="translate(138.537937 138.337655)scale(0.06 -0.06)">
       <use xlink:href="#TimesNewRomanPSMT-35"/>
       <use x="50" xlink:href="#TimesNewRomanPSMT-30"/>
      </g>
     </g>
    </g>
    <g id="xtick_5">
     <g id="line2d_9">
      <path clip-path="url(#pd2a43ffad8)" d="M 178.548176 130.671405 
L 178.548176 9.756499 
" style="fill:none;opacity:0.1;stroke:#b0b0b0;stroke-linecap:square;stroke-width:0.1;"/>
     </g>
     <g id="line2d_10">
      <g>
       <use style="stroke:#000000;stroke-width:0.3;" x="178.548176" xlink:href="#mdbbf516597" y="130.671405"/>
      </g>
     </g>
     <g id="text_5">
      <!-- 60 -->
      <defs>
       <path d="M 44.828125 67.578125 
L 44.828125 65.765625 
Q 38.375 65.140625 34.296875 63.203125 
Q 30.21875 61.28125 26.234375 57.328125 
Q 22.265625 53.375 19.65625 48.515625 
Q 17.046875 43.65625 15.28125 36.96875 
Q 22.3125 41.796875 29.390625 41.796875 
Q 36.1875 41.796875 41.15625 36.328125 
Q 46.140625 30.859375 46.140625 22.265625 
Q 46.140625 13.96875 41.109375 7.125 
Q 35.0625 -1.171875 25.09375 -1.171875 
Q 18.3125 -1.171875 13.578125 3.328125 
Q 4.296875 12.0625 4.296875 25.984375 
Q 4.296875 34.859375 7.859375 42.859375 
Q 11.421875 50.875 18.03125 57.078125 
Q 24.65625 63.28125 30.703125 65.421875 
Q 36.765625 67.578125 42 67.578125 
z
M 14.453125 33.40625 
Q 13.578125 26.8125 13.578125 22.75 
Q 13.578125 18.0625 15.3125 12.5625 
Q 17.046875 7.078125 20.453125 3.859375 
Q 22.953125 1.5625 26.515625 1.5625 
Q 30.765625 1.5625 34.109375 5.5625 
Q 37.453125 9.578125 37.453125 17 
Q 37.453125 25.34375 34.125 31.4375 
Q 30.8125 37.546875 24.703125 37.546875 
Q 22.859375 37.546875 20.734375 36.765625 
Q 18.609375 35.984375 14.453125 33.40625 
z
" id="TimesNewRomanPSMT-36"/>
      </defs>
      <g transform="translate(175.548176 138.337655)scale(0.06 -0.06)">
       <use xlink:href="#TimesNewRomanPSMT-36"/>
       <use x="50" xlink:href="#TimesNewRomanPSMT-30"/>
      </g>
     </g>
    </g>
    <g id="xtick_6">
     <g id="line2d_11">
      <path clip-path="url(#pd2a43ffad8)" d="M 215.558416 130.671405 
L 215.558416 9.756499 
" style="fill:none;opacity:0.1;stroke:#b0b0b0;stroke-linecap:square;stroke-width:0.1;"/>
     </g>
     <g id="line2d_12">
      <g>
       <use style="stroke:#000000;stroke-width:0.3;" x="215.558416" xlink:href="#mdbbf516597" y="130.671405"/>
      </g>
     </g>
     <g id="text_6">
      <!-- 70 -->
      <defs>
       <path d="M 10.0625 66.21875 
L 45.5625 66.21875 
L 45.5625 64.359375 
L 23.484375 -1.375 
L 18.015625 -1.375 
L 37.796875 58.25 
L 19.578125 58.25 
Q 14.0625 58.25 11.71875 56.9375 
Q 7.625 54.6875 5.125 50 
L 3.71875 50.53125 
z
" id="TimesNewRomanPSMT-37"/>
      </defs>
      <g transform="translate(212.558416 138.337655)scale(0.06 -0.06)">
       <use xlink:href="#TimesNewRomanPSMT-37"/>
       <use x="50" xlink:href="#TimesNewRomanPSMT-30"/>
      </g>
     </g>
    </g>
   </g>
   <g id="matplotlib.axis_2">
    <g id="ytick_1">
     <g id="line2d_13">
      <path clip-path="url(#pd2a43ffad8)" d="M 21.583438 121.97821 
L 218.509113 121.97821 
" style="fill:none;opacity:0.1;stroke:#b0b0b0;stroke-linecap:square;stroke-width:0.1;"/>
     </g>
     <g id="line2d_14">
      <defs>
       <path d="M 0 0 
L 2 0 
" id="mf0327e5a3b" style="stroke:#000000;stroke-width:0.3;"/>
      </defs>
      <g>
       <use style="stroke:#000000;stroke-width:0.3;" x="21.583438" xlink:href="#mf0327e5a3b" y="121.97821"/>
      </g>
     </g>
     <g id="text_7">
      <!-- −1.5 -->
      <defs>
       <path d="M 54.4375 31.25 
L 1.8125 31.25 
L 1.8125 35.25 
L 54.4375 35.25 
z
" id="TimesNewRomanPSMT-2212"/>
       <path d="M 11.71875 59.71875 
L 27.828125 67.578125 
L 29.4375 67.578125 
L 29.4375 11.671875 
Q 29.4375 6.109375 29.90625 4.734375 
Q 30.375 3.375 31.828125 2.640625 
Q 33.296875 1.90625 37.796875 1.8125 
L 37.796875 0 
L 12.890625 0 
L 12.890625 1.8125 
Q 17.578125 1.90625 18.9375 2.609375 
Q 20.3125 3.328125 20.84375 4.515625 
Q 21.390625 5.71875 21.390625 11.671875 
L 21.390625 47.40625 
Q 21.390625 54.640625 20.90625 56.6875 
Q 20.5625 58.25 19.65625 58.984375 
Q 18.75 59.71875 17.484375 59.71875 
Q 15.671875 59.71875 12.453125 58.203125 
z
" id="TimesNewRomanPSMT-31"/>
       <path d="M 12.5 9.46875 
Q 14.796875 9.46875 16.359375 7.875 
Q 17.921875 6.296875 17.921875 4.046875 
Q 17.921875 1.8125 16.328125 0.21875 
Q 14.75 -1.375 12.5 -1.375 
Q 10.25 -1.375 8.65625 0.21875 
Q 7.078125 1.8125 7.078125 4.046875 
Q 7.078125 6.34375 8.65625 7.90625 
Q 10.25 9.46875 12.5 9.46875 
z
" id="TimesNewRomanPSMT-2e"/>
      </defs>
      <g transform="translate(7.2 124.061335)scale(0.06 -0.06)">
       <use xlink:href="#TimesNewRomanPSMT-2212"/>
       <use x="56.396484" xlink:href="#TimesNewRomanPSMT-31"/>
       <use x="106.396484" xlink:href="#TimesNewRomanPSMT-2e"/>
       <use x="131.396484" xlink:href="#TimesNewRomanPSMT-35"/>
      </g>
     </g>
    </g>
    <g id="ytick_2">
     <g id="line2d_15">
      <path clip-path="url(#pd2a43ffad8)" d="M 21.583438 99.439193 
L 218.509113 99.439193 
" style="fill:none;opacity:0.1;stroke:#b0b0b0;stroke-linecap:square;stroke-width:0.1;"/>
     </g>
     <g id="line2d_16">
      <g>
       <use style="stroke:#000000;stroke-width:0.3;" x="21.583438" xlink:href="#mf0327e5a3b" y="99.439193"/>
      </g>
     </g>
     <g id="text_8">
      <!-- −1.0 -->
      <g transform="translate(7.2 101.522318)scale(0.06 -0.06)">
       <use xlink:href="#TimesNewRomanPSMT-2212"/>
       <use x="56.396484" xlink:href="#TimesNewRomanPSMT-31"/>
       <use x="106.396484" xlink:href="#TimesNewRomanPSMT-2e"/>
       <use x="131.396484" xlink:href="#TimesNewRomanPSMT-30"/>
      </g>
     </g>
    </g>
    <g id="ytick_3">
     <g id="line2d_17">
      <path clip-path="url(#pd2a43ffad8)" d="M 21.583438 76.900176 
L 218.509113 76.900176 
" style="fill:none;opacity:0.1;stroke:#b0b0b0;stroke-linecap:square;stroke-width:0.1;"/>
     </g>
     <g id="line2d_18">
      <g>
       <use style="stroke:#000000;stroke-width:0.3;" x="21.583438" xlink:href="#mf0327e5a3b" y="76.900176"/>
      </g>
     </g>
     <g id="text_9">
      <!-- −0.5 -->
      <g transform="translate(7.2 78.983301)scale(0.06 -0.06)">
       <use xlink:href="#TimesNewRomanPSMT-2212"/>
       <use x="56.396484" xlink:href="#TimesNewRomanPSMT-30"/>
       <use x="106.396484" xlink:href="#TimesNewRomanPSMT-2e"/>
       <use x="131.396484" xlink:href="#TimesNewRomanPSMT-35"/>
      </g>
     </g>
    </g>
    <g id="ytick_4">
     <g id="line2d_19">
      <path clip-path="url(#pd2a43ffad8)" d="M 21.583438 54.361159 
L 218.509113 54.361159 
" style="fill:none;opacity:0.1;stroke:#b0b0b0;stroke-linecap:square;stroke-width:0.1;"/>
     </g>
     <g id="line2d_20">
      <g>
       <use style="stroke:#000000;stroke-width:0.3;" x="21.583438" xlink:href="#mf0327e5a3b" y="54.361159"/>
      </g>
     </g>
     <g id="text_10">
      <!-- 0.0 -->
      <g transform="translate(10.583438 56.444284)scale(0.06 -0.06)">
       <use xlink:href="#TimesNewRomanPSMT-30"/>
       <use x="50" xlink:href="#TimesNewRomanPSMT-2e"/>
       <use x="75" xlink:href="#TimesNewRomanPSMT-30"/>
      </g>
     </g>
    </g>
    <g id="ytick_5">
     <g id="line2d_21">
      <path clip-path="url(#pd2a43ffad8)" d="M 21.583438 31.822142 
L 218.509113 31.822142 
" style="fill:none;opacity:0.1;stroke:#b0b0b0;stroke-linecap:square;stroke-width:0.1;"/>
     </g>
     <g id="line2d_22">
      <g>
       <use style="stroke:#000000;stroke-width:0.3;" x="21.583438" xlink:href="#mf0327e5a3b" y="31.822142"/>
      </g>
     </g>
     <g id="text_11">
      <!-- 0.5 -->
      <g transform="translate(10.583438 33.905267)scale(0.06 -0.06)">
       <use xlink:href="#TimesNewRomanPSMT-30"/>
       <use x="50" xlink:href="#TimesNewRomanPSMT-2e"/>
       <use x="75" xlink:href="#TimesNewRomanPSMT-35"/>
      </g>
     </g>
    </g>
    <g id="ytick_6">
     <g id="line2d_23">
      <path clip-path="url(#pd2a43ffad8)" d="M 21.583438 9.283125 
L 218.509113 9.283125 
" style="fill:none;opacity:0.1;stroke:#b0b0b0;stroke-linecap:square;stroke-width:0.1;"/>
     </g>
     <g id="line2d_24">
      <g>
       <use style="stroke:#000000;stroke-width:0.3;" x="21.583438" xlink:href="#mf0327e5a3b" y="9.283125"/>
      </g>
     </g>
     <g id="text_12">
      <!-- 1.0 -->
      <g transform="translate(10.583438 11.36625)scale(0.06 -0.06)">
       <use xlink:href="#TimesNewRomanPSMT-31"/>
       <use x="50" xlink:href="#TimesNewRomanPSMT-2e"/>
       <use x="75" xlink:href="#TimesNewRomanPSMT-30"/>
      </g>
     </g>
    </g>
   </g>
   <g id="line2d_25">
    <path clip-path="url(#pd2a43ffad8)" d="M 30.534605 59.169277 
L 70.223275 59.329796 
L 73.648943 59.323758 
L 85.70873 59.233388 
L 88.221725 59.220172 
L 89.041502 59.152709 
L 89.344616 58.871237 
L 89.785778 57.786473 
L 90.011911 57.324577 
L 90.068166 57.275944 
L 90.305032 57.505037 
L 90.522282 57.428138 
L 90.808741 57.244019 
L 91.185505 57.347036 
L 91.392392 57.258119 
L 93.171105 56.770487 
L 93.33654 56.707969 
L 93.626701 56.318645 
L 94.359503 52.706812 
L 94.439075 52.719758 
L 95.040862 54.696884 
L 95.32251 56.683089 
L 95.480173 56.796615 
L 95.651901 56.821912 
L 96.217788 58.796123 
L 96.377672 58.490453 
L 96.668942 57.413099 
L 96.808471 57.40149 
L 97.038675 57.864169 
L 97.277391 58.343559 
L 97.692275 58.273808 
L 98.35772 58.281605 
L 98.583852 58.144692 
L 98.789259 58.312634 
L 99.325167 58.078024 
L 99.688608 57.530954 
L 99.909559 57.319206 
L 100.278921 56.803511 
L 100.424001 57.177444 
L 100.651614 57.92274 
L 100.800025 57.493915 
L 101.040222 56.733401 
L 101.099438 56.733748 
L 101.330012 57.423952 
L 101.614991 58.024675 
L 102.132024 57.721709 
L 102.296349 56.976427 
L 102.488062 55.722879 
L 103.193478 53.608961 
L 103.232338 53.342932 
L 103.553957 52.724442 
L 103.836716 53.077566 
L 104.087645 53.182528 
L 104.118363 53.22353 
L 104.444794 53.110031 
L 104.71904 53.683761 
L 104.817117 53.895051 
L 105.211646 55.949626 
L 105.325637 56.268462 
L 105.692779 55.594663 
L 105.919282 55.78416 
L 106.046227 55.968651 
L 106.147265 56.044197 
L 106.41781 56.906902 
L 106.4922 56.916467 
L 106.677992 57.149142 
L 106.722404 57.017079 
L 106.791983 57.059608 
L 106.879697 57.05635 
L 107.053646 56.9078 
L 107.473342 57.409781 
L 107.82827 57.173014 
L 107.985933 57.410574 
L 108.133974 57.398852 
L 108.274243 57.310147 
L 108.430797 57.085499 
L 108.937097 55.868722 
L 109.038135 55.851447 
L 109.471154 55.085075 
L 109.755023 54.818664 
L 110.002621 55.281765 
L 110.514103 56.506013 
L 110.651041 56.449268 
L 111.159562 56.072205 
L 111.323147 56.233 
L 111.679926 56.820959 
L 112.494151 56.943932 
L 112.856481 57.538163 
L 113.010444 57.446642 
L 113.378325 56.926209 
L 113.523406 56.950512 
L 113.61112 56.877661 
L 113.696613 56.956112 
L 113.745467 56.791264 
L 114.421644 57.887186 
L 114.496035 57.746926 
L 114.796188 57.160672 
L 114.865027 57.16349 
L 115.244382 57.812675 
L 115.474956 57.548623 
L 115.682953 57.943434 
L 115.899833 58.369135 
L 116.302134 58.032747 
L 116.934639 56.878401 
L 117.616368 57.085116 
L 117.83954 56.724585 
L 117.979438 56.707548 
L 118.335847 57.595879 
L 118.717423 58.346144 
L 118.7796 58.369689 
L 119.150442 57.948112 
L 119.298113 58.215529 
L 119.524616 58.614333 
L 119.640088 58.598823 
L 119.887686 57.652503 
L 120.139356 57.123467 
L 120.360307 57.223297 
L 120.556832 57.345459 
L 120.650097 57.248459 
L 121.097551 56.3534 
L 121.465063 56.745534 
L 121.747821 56.576224 
L 122.268555 57.344297 
L 122.485805 56.888777 
L 122.998767 55.805394 
L 123.316685 55.607908 
L 123.734901 54.887071 
L 123.832978 54.960872 
L 124.045787 55.361456 
L 124.331506 55.508552 
L 124.497682 55.83741 
L 124.717523 56.148125 
L 124.854831 56.038555 
L 124.99584 55.702829 
L 125.377045 54.808558 
L 125.675718 54.745971 
L 125.833752 54.799761 
L 128.078423 55.1494 
L 128.175019 55.664287 
L 128.697604 55.930751 
L 128.925957 55.845463 
L 129.655059 56.066384 
L 129.849733 56.104565 
L 130.334937 55.166982 
L 130.846789 55.024557 
L 131.239467 54.664417 
L 131.495208 55.122759 
L 131.668416 55.660898 
L 131.813866 55.583212 
L 132.098475 55.201736 
L 132.329789 55.038815 
L 132.83868 53.8645 
L 132.960443 53.938784 
L 133.294646 54.872774 
L 133.509675 55.068663 
L 133.754683 54.995433 
L 134.036331 54.781199 
L 134.325381 54.770266 
L 134.550403 54.910661 
L 135.092233 55.694662 
L 135.320956 56.025575 
L 135.4405 55.883519 
L 135.733251 55.155665 
L 135.810972 55.146967 
L 135.963454 55.472985 
L 136.399805 56.798838 
L 136.551177 56.58038 
L 136.936824 55.78024 
L 137.142971 56.497802 
L 137.413515 57.110359 
L 137.450896 57.149484 
L 137.520105 57.061118 
L 138.032327 56.222347 
L 138.172595 56.501391 
L 138.399098 56.961922 
L 138.546029 57.122738 
L 138.91243 57.799123 
L 139.074905 57.565231 
L 139.445007 56.471255 
L 139.5986 56.365836 
L 139.809188 56.617368 
L 140.100089 56.887592 
L 140.479814 56.724699 
L 141.011651 56.621788 
L 141.452813 57.398716 
L 141.506848 57.358654 
L 141.649707 57.217603 
L 141.970216 56.816939 
L 142.09346 57.004437 
L 142.323294 57.247038 
L 142.556828 57.081318 
L 142.766676 56.913538 
L 143.066459 56.829811 
L 143.206728 57.040852 
L 143.449145 57.352345 
L 143.735234 56.731468 
L 143.90141 56.525981 
L 144.025025 56.597566 
L 144.256339 56.638625 
L 144.613117 56.093784 
L 144.830367 55.68813 
L 145.140883 54.948574 
L 145.278191 54.972616 
L 145.733047 55.477252 
L 146.020247 55.371322 
L 146.316329 55.826826 
L 146.630916 55.852692 
L 146.920336 55.905873 
L 147.135735 55.81371 
L 147.428856 56.076614 
L 148.1661 55.338231 
L 148.857082 55.655876 
L 149.125406 55.815784 
L 149.444804 55.541743 
L 149.871902 55.156041 
L 150.273093 55.318599 
L 150.467397 55.265908 
L 150.688348 55.430976 
L 150.98517 55.414192 
L 151.12692 55.509089 
L 151.34565 55.170072 
L 151.717603 54.925061 
L 152.099179 55.193199 
L 152.468541 55.059463 
L 152.613991 55.050746 
L 153.133985 54.763395 
L 153.661751 54.954434 
L 153.795728 55.574783 
L 154.242442 59.295353 
L 154.311651 59.346922 
L 154.473756 58.877639 
L 154.679903 58.145076 
L 154.990418 58.103029 
L 155.21322 57.343266 
L 155.508192 56.557209 
L 156.156241 56.1293 
L 156.314645 55.927731 
L 156.531155 56.19365 
L 156.677715 55.888901 
L 156.976388 55.007894 
L 157.141454 55.391007 
L 157.275061 55.871127 
L 157.359074 55.876606 
L 157.714002 54.88869 
L 157.857972 54.92703 
L 158.108531 55.61454 
L 158.25028 55.45458 
L 158.3924 55.199082 
L 158.530818 55.256567 
L 158.856878 55.753226 
L 159.138896 54.91174 
L 159.424985 54.176916 
L 159.58524 54.083244 
L 159.720697 54.290024 
L 160.232179 55.331914 
L 160.45498 55.378404 
L 160.606722 55.409247 
L 160.904285 55.498448 
L 161.120425 55.014699 
L 161.450556 54.225255 
L 161.581942 54.195076 
L 161.801043 54.397307 
L 162.082691 55.052438 
L 162.323257 55.196602 
L 162.707424 54.684483 
L 162.928375 54.317181 
L 163.051989 54.432271 
L 163.427643 55.030347 
L 163.796265 55.048939 
L 164.013515 54.545587 
L 164.32144 53.799363 
L 164.458008 54.20788 
L 164.775926 55.065294 
L 164.908423 55.01824 
L 165.134185 54.258388 
L 165.415093 53.170591 
L 165.563134 53.240521 
L 166.241161 54.165637 
L 166.52577 54.561847 
L 167.085735 53.820084 
L 167.116824 53.886356 
L 167.557986 54.244397 
L 167.737115 54.0824 
L 167.877754 53.933387 
L 168.086122 54.1513 
L 168.300411 54.418685 
L 168.746755 53.925597 
L 169.194949 54.971149 
L 169.48918 54.68215 
L 169.647954 54.731278 
L 170.147962 55.860949 
L 170.518435 56.561267 
L 170.829321 58.379007 
L 171.057304 59.856911 
L 171.192021 60.63252 
L 171.421485 62.025177 
L 171.576187 61.818711 
L 171.702392 61.644276 
L 171.87449 61.973532 
L 172.154287 63.103506 
L 172.683164 64.117081 
L 172.761625 63.94142 
L 173.040683 58.820919 
L 173.339725 54.027369 
L 173.432251 53.865807 
L 173.564377 54.626557 
L 173.776816 55.593509 
L 173.93596 54.756571 
L 174.222049 52.78912 
L 174.465207 53.380892 
L 174.668023 53.852074 
L 174.76573 53.786207 
L 175.043677 53.365391 
L 175.412299 53.764122 
L 175.651755 53.681009 
L 176.004833 55.050709 
L 176.084775 55.142371 
L 176.158055 55.058278 
L 176.294623 54.821839 
L 176.474863 55.153968 
L 176.667686 55.971522 
L 176.821649 55.972623 
L 177.203224 55.024128 
L 177.268732 55.111803 
L 177.493755 55.813639 
L 177.638095 56.264955 
L 177.864227 56.321694 
L 178.004866 56.065121 
L 178.383111 55.316846 
L 178.514127 55.304156 
L 178.74322 56.006494 
L 178.74322 56.243131 
L 179.128867 56.685377 
L 179.562257 56.503586 
L 179.997127 56.868206 
L 180.22511 57.367681 
L 180.808022 59.883935 
L 180.889814 59.811089 
L 181.12668 59.347373 
L 181.19922 59.388804 
L 181.409068 60.274533 
L 181.56007 60.869603 
L 181.624467 60.883312 
L 182.008264 60.350476 
L 182.216261 61.186651 
L 182.437953 61.888172 
L 182.53566 61.842682 
L 182.885406 60.812087 
L 182.951285 60.835111 
L 183.637084 62.00692 
L 183.76551 62.055332 
L 183.845452 61.934147 
L 184.012368 60.966492 
L 184.214814 59.498822 
L 184.318813 59.848353 
L 184.604162 65.939384 
L 184.879148 72.837332 
L 185.10454 76.023284 
L 185.396551 78.310222 
L 185.495739 78.102619 
L 185.618983 77.021617 
L 185.775906 74.40215 
L 186.456524 59.32494 
L 186.821445 51.514674 
L 187.616055 37.568843 
L 187.926571 34.72642 
L 188.091637 36.302125 
L 189.256349 58.026682 
L 189.338512 58.611384 
L 189.545769 57.43637 
L 189.83778 54.784443 
L 190.08945 55.708445 
L 190.287084 56.192544 
L 190.682724 55.689391 
L 191.105751 54.798958 
L 191.469191 53.481064 
L 191.635367 53.768343 
L 192.576908 59.175739 
L 192.660551 59.233212 
L 192.796749 58.699792 
L 193.395944 55.198504 
L 193.494022 55.48046 
L 193.758275 58.522534 
L 194.148363 62.612579 
L 194.301585 62.507502 
L 194.42853 62.191861 
L 194.82417 58.611389 
L 195.4056 54.993023 
L 195.847133 49.579265 
L 195.935957 49.314282 
L 195.98074 49.381769 
L 196.130261 50.04106 
L 196.441147 52.764414 
L 196.676902 55.174925 
L 196.8849 56.139986 
L 197.025169 55.544209 
L 197.415627 53.741358 
L 197.482985 53.818445 
L 197.924147 54.965854 
L 198.074039 54.208789 
L 198.579599 48.692625 
L 198.661391 48.67447 
L 198.817574 49.415397 
L 199.321284 53.046944 
L 199.552968 54.260428 
L 199.991539 57.063284 
L 200.299835 58.071808 
L 200.430851 58.267675 
L 200.491548 58.403171 
L 200.954916 60.687721 
L 201.036338 60.698696 
L 201.253959 59.801851 
L 201.479721 59.004625 
L 201.542638 59.066233 
L 201.645897 59.397199 
L 201.984541 62.804922 
L 202.176994 62.751652 
L 202.577075 58.570054 
L 202.948287 54.856708 
L 203.322831 50.583411 
L 203.461619 49.922162 
L 203.555255 49.966246 
L 203.685161 50.669419 
L 204.073028 52.790734 
L 204.383174 54.332558 
L 204.660381 56.073163 
L 205.095251 60.682447 
L 205.384301 62.937976 
L 205.475717 62.896859 
L 205.618946 62.011574 
L 206.06566 59.062924 
L 207.027186 52.954555 
L 207.086772 53.150958 
L 207.338442 55.432992 
L 208.136383 71.805499 
L 208.494642 75.817936 
L 208.564221 75.81333 
L 208.744461 74.899896 
L 208.963191 72.413565 
L 209.557946 63.927129 
L 209.557946 63.927129 
" style="fill:none;stroke:#1f77b4;stroke-linecap:square;"/>
   </g>
   <g id="line2d_26">
    <path clip-path="url(#pd2a43ffad8)" d="M 30.534605 53.306879 
L 39.1913 53.371825 
L 89.115523 53.314926 
L 89.54151 54.03383 
L 90.011911 55.311104 
L 90.068166 55.356267 
L 90.390895 55.008568 
L 90.432717 55.006105 
L 90.682166 55.340554 
L 90.759887 55.266822 
L 90.808741 55.327266 
L 91.034133 55.316316 
L 91.257675 55.307607 
L 91.392392 55.380934 
L 91.630368 55.443678 
L 91.855761 55.41711 
L 92.074861 55.43144 
L 92.5027 55.554925 
L 93.473848 55.51088 
L 93.626701 55.136573 
L 93.835438 53.434491 
L 94.285853 48.050845 
L 94.359503 48.064651 
L 94.516057 48.721761 
L 94.958329 52.010406 
L 95.263664 52.749092 
L 95.583802 52.560977 
L 95.817337 53.154756 
L 95.993135 54.259507 
L 96.150059 54.132791 
L 96.506838 53.490974 
L 96.586039 53.548209 
L 96.960583 53.896445 
L 97.038675 53.768263 
L 97.413218 53.216377 
L 97.56422 53.167476 
L 97.767406 53.375247 
L 98.151943 53.325651 
L 98.422488 53.028478 
L 98.583852 53.013499 
L 98.955805 52.714205 
L 99.182308 52.689542 
L 99.392526 52.738066 
L 100.070183 52.134235 
L 100.948066 52.076688 
L 101.330012 52.223338 
L 101.475092 52.215535 
L 101.907742 52.25808 
L 102.296349 52.370677 
L 102.432917 51.531998 
L 102.646836 48.095209 
L 102.873709 43.314471 
L 103.232338 34.809307 
L 103.906665 23.495767 
L 103.981426 23.602926 
L 104.118363 25.261101 
L 104.273806 29.027338 
L 105.032516 45.030964 
L 105.452212 52.009229 
L 106.302708 67.636987 
L 106.576213 72.533058 
L 106.948536 76.571359 
L 107.053646 76.215758 
L 107.393029 70.050276 
L 108.133974 56.243198 
L 108.575137 52.058036 
L 108.716146 52.025877 
L 109.160639 52.657075 
L 109.755023 52.191863 
L 110.002621 52.351484 
L 110.425649 53.201474 
L 110.810555 53.748412 
L 111.159562 53.874015 
L 111.385324 53.974086 
L 112.125159 53.605848 
L 112.343519 53.784317 
L 112.953078 53.552712 
L 113.234726 52.847346 
L 113.833551 52.411464 
L 114.496035 53.152244 
L 114.720317 53.004875 
L 114.937197 52.874322 
L 115.307299 53.334066 
L 115.746981 53.344308 
L 115.983106 53.480954 
L 116.202947 53.209173 
L 116.598216 52.520081 
L 116.934639 51.352634 
L 117.161882 51.084325 
L 117.40652 51.214685 
L 117.979438 52.2705 
L 118.132291 52.453214 
L 118.335847 52.254471 
L 118.565311 52.067181 
L 118.717423 52.222095 
L 118.933562 52.536566 
L 119.081233 52.495993 
L 119.456147 51.979271 
L 119.981322 52.360446 
L 120.413602 51.920216 
L 120.650097 52.237034 
L 120.865127 52.238668 
L 121.223386 51.922775 
L 121.465063 51.994617 
L 121.820731 51.577616 
L 121.96174 51.475891 
L 122.110151 51.597012 
L 122.485805 52.189134 
L 122.704906 52.036511 
L 122.998767 51.603502 
L 123.158651 51.751477 
L 123.523202 52.389523 
L 123.890714 51.864206 
L 124.331506 51.985233 
L 124.717523 51.736707 
L 125.166827 52.099897 
L 125.447365 51.936697 
L 125.605768 52.10985 
L 125.833752 52.492941 
L 128.074351 52.629439 
L 128.076202 52.592955 
L 128.089896 52.332592 
L 128.175019 52.435763 
L 128.549933 52.458656 
L 128.786058 52.693768 
L 128.786058 52.682423 
L 129.314935 52.618436 
L 129.51553 52.735815 
L 129.849733 52.748816 
L 130.106954 53.200778 
L 130.411178 53.255805 
L 130.629538 53.252225 
L 130.772028 53.474856 
L 131.079583 53.975209 
L 131.28721 53.724665 
L 131.536659 53.306004 
L 131.668416 53.264944 
L 131.813866 53.37403 
L 132.098475 53.835223 
L 132.329789 53.83289 
L 132.83868 53.304735 
L 133.083317 53.442451 
L 133.509675 54.071443 
L 133.754683 54.037742 
L 133.878297 53.812986 
L 134.253581 52.973627 
L 134.42938 53.081233 
L 135.001928 54.609543 
L 135.161442 54.573365 
L 135.810972 53.941002 
L 135.963454 53.958498 
L 136.470494 54.614474 
L 136.936824 54.621384 
L 137.520105 53.825402 
L 137.806934 54.049226 
L 138.246986 54.740152 
L 138.399098 54.747579 
L 138.546029 54.499321 
L 138.91243 53.677361 
L 139.074905 53.718764 
L 139.357663 54.148695 
L 139.5986 53.872083 
L 139.962041 52.976263 
L 140.53903 52.999099 
L 141.070127 52.065786 
L 141.287747 52.061949 
L 141.649707 52.277021 
L 141.734091 52.285239 
L 142.041646 51.703517 
L 142.241871 51.301034 
L 142.402126 51.307719 
L 142.556828 51.489809 
L 142.987258 52.350721 
L 143.066459 52.317219 
L 143.659363 51.041425 
L 143.90141 51.309171 
L 144.316295 52.055361 
L 144.400308 52.016308 
L 144.916601 50.790554 
L 145.058721 51.003927 
L 145.510986 52.183805 
L 145.733047 52.263319 
L 146.316329 51.423469 
L 146.774515 51.693172 
L 147.372231 51.719824 
L 147.494365 51.84128 
L 148.981066 52.225968 
L 149.274927 52.448358 
L 149.660944 52.416782 
L 150.467397 51.764257 
L 150.602114 51.833613 
L 150.98517 52.245491 
L 151.649504 52.282974 
L 152.613991 51.90969 
L 153.279435 52.286518 
L 153.713565 52.70845 
L 153.795728 52.684048 
L 154.02112 51.984789 
L 154.913807 47.848008 
L 155.57407 46.544985 
L 155.795761 46.536026 
L 156.026705 46.278862 
L 157.141454 43.92762 
L 157.421991 42.988099 
L 157.581135 42.774444 
L 157.644053 42.825487 
L 158.17663 43.15337 
L 158.912024 42.158296 
L 159.138896 42.082205 
L 159.503817 41.800532 
L 160.161859 40.958877 
L 160.312491 40.83625 
L 161.343966 39.619802 
L 161.499039 39.688563 
L 162.030876 40.142244 
L 162.178177 40.089169 
L 162.463896 39.797291 
L 163.862513 38.163659 
L 164.087906 38.154332 
L 164.605679 38.488988 
L 165.208946 38.287571 
L 165.563134 39.027797 
L 165.799259 39.777733 
L 166.449529 42.429435 
L 166.745981 42.630743 
L 167.116824 42.462996 
L 167.359611 42.85327 
L 167.947703 44.307161 
L 168.371101 44.059271 
L 168.371101 44.109314 
L 168.987691 44.314027 
L 169.117597 44.132628 
L 169.48918 43.593912 
L 169.716793 43.566898 
L 170.021387 43.840301 
L 170.147962 43.84225 
L 170.311177 43.682716 
L 170.68387 42.995262 
L 170.829321 43.022685 
L 171.057304 43.211354 
L 171.263451 42.377823 
L 171.421485 41.998344 
L 171.646507 41.252025 
L 171.781964 41.126758 
L 171.928895 41.547881 
L 172.093591 42.309904 
L 172.373018 43.612509 
L 172.600631 44.042511 
L 172.683164 44.789392 
L 172.81492 51.772975 
L 172.990349 65.277932 
L 173.194645 85.710497 
L 173.432251 93.626198 
L 173.50183 93.236322 
L 174.222049 78.501133 
L 174.668023 76.050862 
L 174.884903 73.576019 
L 175.276471 70.17161 
L 175.567742 68.912717 
L 175.786842 67.759931 
L 176.004833 66.245802 
L 176.377896 64.047429 
L 176.984494 62.515469 
L 177.401599 60.767238 
L 178.095171 59.324616 
L 178.305389 58.578875 
L 178.591478 57.955221 
L 179.191784 57.627567 
L 179.402373 57.252911 
L 179.948644 55.946773 
L 180.083361 56.034026 
L 180.433108 56.553894 
L 180.508609 56.571708 
L 181.12668 55.684686 
L 181.27065 55.569408 
L 181.470505 55.253833 
L 181.932393 54.406995 
L 182.064519 54.420872 
L 182.216261 54.53024 
L 182.35727 54.592838 
L 182.53566 54.325021 
L 183.034558 52.79232 
L 183.254769 53.04543 
L 183.551591 53.367121 
L 183.69297 53.161284 
L 183.917992 52.624509 
L 184.318813 51.305673 
L 184.378029 51.401418 
L 184.879148 54.299978 
L 185.036442 53.470212 
L 185.396551 50.357676 
L 185.555325 50.940382 
L 185.86214 53.242619 
L 185.917285 53.381574 
L 185.995747 53.229106 
L 186.221139 50.862477 
L 186.593832 46.007988 
L 186.651568 45.868318 
L 186.821445 46.975722 
L 187.479487 54.409636 
L 187.731527 54.936433 
L 187.769648 54.928257 
L 187.986898 54.285739 
L 188.293343 52.981791 
L 188.759672 50.85175 
L 188.880695 51.0487 
L 189.338512 53.597349 
L 189.545769 51.80476 
L 189.929565 47.019135 
L 189.989152 47.083366 
L 190.150146 48.096966 
L 190.505075 51.583495 
L 190.682724 51.927569 
L 190.823733 51.882017 
L 190.888501 52.010734 
L 191.105751 54.232444 
L 191.635367 66.234327 
L 191.982153 73.770426 
L 192.576908 82.439601 
L 192.796749 84.183218 
L 192.916662 83.901141 
L 193.175363 79.443636 
L 194.019567 60.268195 
L 194.21239 55.813146 
L 194.667616 46.928227 
L 194.910403 44.86156 
L 195.490354 36.534256 
L 195.54883 36.491847 
L 195.699092 38.130542 
L 196.358614 53.281249 
L 196.441147 52.775452 
L 197.329763 28.058413 
L 197.415627 27.807371 
L 197.53554 28.351687 
L 197.776106 31.976614 
L 198.869019 56.157024 
L 199.243562 62.270638 
L 200.39236 80.845884 
L 200.575931 84.491482 
L 200.837963 87.692701 
L 200.954916 89.225909 
L 201.101476 89.692469 
L 201.253959 88.844854 
L 201.645897 81.932138 
L 201.984541 72.865719 
L 202.823563 61.677659 
L 202.948287 61.026536 
L 203.016756 61.170616 
L 203.169979 62.495304 
L 203.399812 66.611144 
L 203.902781 77.507603 
L 204.002709 78.045795 
L 204.073028 77.955139 
L 204.212557 76.191152 
L 205.980166 39.424331 
L 206.382097 33.177892 
L 206.648201 27.628826 
L 207.460946 15.252631 
L 207.538667 15.300126 
L 207.686708 16.046078 
L 207.980199 19.437241 
L 208.645274 26.775296 
L 209.557946 32.719877 
L 209.557946 32.719877 
" style="fill:none;stroke:#ff7f0e;stroke-linecap:square;"/>
   </g>
   <g id="line2d_27">
    <path clip-path="url(#pd2a43ffad8)" d="M 30.534605 112.38721 
L 69.489362 112.409999 
L 72.449812 112.464176 
L 90.808741 112.401355 
L 91.112225 112.423721 
L 91.392392 112.486557 
L 91.855761 112.396334 
L 92.074861 112.331175 
L 93.239944 111.611979 
L 93.76956 111.48207 
L 94.079706 111.404596 
L 94.584896 111.251159 
L 95.094527 111.093183 
L 95.651901 110.93349 
L 96.150059 111.075599 
L 96.377672 111.159542 
L 97.277391 111.564014 
L 97.692275 111.699012 
L 100.278921 112.082177 
L 100.424001 124.00463 
L 100.510975 124.083639 
L 100.579814 124.003867 
L 101.099438 122.8319 
L 101.530607 122.002865 
L 101.983983 121.720034 
L 102.296349 121.801629 
L 103.758624 122.640845 
L 104.087645 122.728433 
L 104.356709 122.923504 
L 105.249766 123.24445 
L 105.919282 123.264944 
L 106.352302 123.376081 
L 106.722404 123.459533 
L 107.242028 123.779915 
L 108.575137 124.336007 
L 109.038135 124.299189 
L 109.540734 124.091497 
L 110.351258 123.827533 
L 111.465266 123.741032 
L 112.643302 123.850539 
L 114.796188 123.727316 
L 115.307299 123.922502 
L 116.507541 124.207057 
L 117.161882 124.03809 
L 118.040135 123.779677 
L 123.223419 123.927222 
L 124.99584 123.961138 
L 125.605768 123.949326 
L 125.833752 123.953579 
L 131.813866 124.156677 
L 135.521182 123.839085 
L 136.399805 123.82384 
L 137.290641 123.827251 
L 144.104967 124.13624 
L 145.797815 124.260703 
L 146.835952 124.478462 
L 148.981066 124.764596 
L 149.944813 124.855213 
L 151.798285 125.034187 
L 153.795728 125.051975 
L 156.756917 121.926826 
L 157.714002 121.381398 
L 160.312491 121.01556 
L 160.904285 121.031793 
L 161.499039 120.991442 
L 162.624891 120.997537 
L 163.427643 120.986572 
L 166.158258 121.217776 
L 166.95768 121.27003 
L 168.236383 121.038061 
L 169.264158 120.501432 
L 170.021387 119.711125 
L 170.68387 118.367539 
L 171.576187 114.917193 
L 173.040683 108.289498 
L 173.194645 108.112928 
L 174.222049 108.377619 
L 174.959664 108.582303 
L 175.938584 108.590068 
L 176.294623 108.570124 
L 176.821649 108.509038 
L 181.325055 107.426556 
L 183.637084 107.48903 
L 184.825483 107.584842 
L 185.036442 107.585764 
L 185.495739 107.912528 
L 185.720021 107.696513 
L 185.917285 107.528648 
L 186.144898 107.592447 
L 186.593832 107.758738 
L 186.98096 107.788266 
L 187.392883 107.93266 
L 187.839967 107.843768 
L 189.929565 107.601734 
L 190.287084 107.643477 
L 191.323741 107.679223 
L 191.982153 107.756576 
L 192.916662 107.584656 
L 193.175363 107.59516 
L 193.63281 107.627407 
L 194.593226 108.015266 
L 195.4056 107.988383 
L 195.76719 107.932712 
L 196.441147 108.205854 
L 196.807918 108.025328 
L 197.17543 107.926259 
L 197.627325 107.840385 
L 198.288698 107.812204 
L 199.694347 108.065077 
L 200.39236 107.85097 
L 200.575931 107.821249 
L 201.479721 107.731789 
L 202.881669 108.028373 
L 203.322831 108.005758 
L 204.212557 108.202717 
L 204.87393 108.121495 
L 205.095251 108.166024 
L 206.131538 108.322474 
L 206.648201 108.229736 
L 207.027186 108.059268 
L 208.136383 107.415574 
L 208.837727 106.89971 
L 209.187103 106.889481 
L 209.557946 106.945574 
L 209.557946 106.945574 
" style="fill:none;stroke:#2ca02c;stroke-linecap:square;"/>
   </g>
   <g id="patch_3">
    <path d="M 21.583438 130.671405 
L 21.583438 9.756499 
" style="fill:none;stroke:#000000;stroke-linecap:square;stroke-linejoin:miter;stroke-width:0.3;"/>
   </g>
   <g id="patch_4">
    <path d="M 218.509113 130.671405 
L 218.509113 9.756499 
" style="fill:none;stroke:#000000;stroke-linecap:square;stroke-linejoin:miter;stroke-width:0.3;"/>
   </g>
   <g id="patch_5">
    <path d="M 21.583438 130.671405 
L 218.509113 130.671405 
" style="fill:none;stroke:#000000;stroke-linecap:square;stroke-linejoin:miter;stroke-width:0.3;"/>
   </g>
   <g id="patch_6">
    <path d="M 21.583438 9.756499 
L 218.509113 9.756499 
" style="fill:none;stroke:#000000;stroke-linecap:square;stroke-linejoin:miter;stroke-width:0.3;"/>
   </g>
  </g>
 </g>
 <defs>
  <clipPath id="pd2a43ffad8">
   <rect height="120.914906" width="196.925676" x="21.583438" y="9.756499"/>
  </clipPath>
 </defs>
</svg>
