<?xml version="1.0" encoding="utf-8" standalone="no"?>
<!DOCTYPE svg PUBLIC "-//W3C//DTD SVG 1.1//EN"
  "http://www.w3.org/Graphics/SVG/1.1/DTD/svg11.dtd">
<!-- Created with matplotlib (http://matplotlib.org/) -->
<svg height="146pt" version="1.1" viewBox="0 0 123 146" width="123pt" xmlns="http://www.w3.org/2000/svg" xmlns:xlink="http://www.w3.org/1999/xlink">
 <defs>
  <style type="text/css">
*{stroke-linecap:butt;stroke-linejoin:round;}
  </style>
 </defs>
 <g id="figure_1">
  <g id="patch_1">
   <path d="M -0 146.33567 
L 123.687378 146.33567 
L 123.687378 0 
L -0 0 
z
" style="fill:#ffffff;"/>
  </g>
  <g id="axes_1">
   <g id="patch_2">
    <path d="M 21.583438 130.185982 
L 116.487378 130.185982 
L 116.487378 9.283125 
L 21.583438 9.283125 
z
" style="fill:#ffffff;"/>
   </g>
   <g id="matplotlib.axis_1">
    <g id="xtick_1">
     <g id="line2d_1">
      <path clip-path="url(#p6459cdaa01)" d="M 38.561354 130.185982 
L 38.561354 9.283125 
" style="fill:none;opacity:0.1;stroke:#b0b0b0;stroke-linecap:square;stroke-width:0.1;"/>
     </g>
     <g id="line2d_2">
      <defs>
       <path d="M 0 0 
L 0 -2 
" id="me70ce2835a" style="stroke:#000000;stroke-width:0.3;"/>
      </defs>
      <g>
       <use style="stroke:#000000;stroke-width:0.3;" x="38.561354" xlink:href="#me70ce2835a" y="130.185982"/>
      </g>
     </g>
     <g id="text_1">
      <!-- 30.5 -->
      <defs>
       <path d="M 5.078125 53.609375 
Q 7.90625 60.296875 12.21875 63.9375 
Q 16.546875 67.578125 23 67.578125 
Q 30.953125 67.578125 35.203125 62.40625 
Q 38.421875 58.546875 38.421875 54.15625 
Q 38.421875 46.921875 29.34375 39.203125 
Q 35.453125 36.8125 38.578125 32.375 
Q 41.703125 27.9375 41.703125 21.921875 
Q 41.703125 13.328125 36.234375 7.03125 
Q 29.109375 -1.171875 15.578125 -1.171875 
Q 8.890625 -1.171875 6.46875 0.484375 
Q 4.046875 2.15625 4.046875 4.046875 
Q 4.046875 5.46875 5.1875 6.546875 
Q 6.34375 7.625 7.953125 7.625 
Q 9.1875 7.625 10.453125 7.234375 
Q 11.28125 6.984375 14.203125 5.4375 
Q 17.140625 3.90625 18.265625 3.609375 
Q 20.0625 3.078125 22.125 3.078125 
Q 27.09375 3.078125 30.78125 6.9375 
Q 34.46875 10.796875 34.46875 16.0625 
Q 34.46875 19.921875 32.765625 23.578125 
Q 31.5 26.3125 29.984375 27.734375 
Q 27.875 29.6875 24.21875 31.265625 
Q 20.5625 32.859375 16.75 32.859375 
L 15.1875 32.859375 
L 15.1875 34.328125 
Q 19.046875 34.8125 22.921875 37.109375 
Q 26.8125 39.40625 28.5625 42.625 
Q 30.328125 45.84375 30.328125 49.703125 
Q 30.328125 54.734375 27.171875 57.828125 
Q 24.03125 60.9375 19.34375 60.9375 
Q 11.765625 60.9375 6.6875 52.828125 
z
" id="TimesNewRomanPSMT-33"/>
       <path d="M 3.609375 32.71875 
Q 3.609375 44.046875 7.03125 52.21875 
Q 10.453125 60.40625 16.109375 64.40625 
Q 20.515625 67.578125 25.203125 67.578125 
Q 32.8125 67.578125 38.875 59.8125 
Q 46.4375 50.203125 46.4375 33.734375 
Q 46.4375 22.21875 43.109375 14.15625 
Q 39.796875 6.109375 34.640625 2.46875 
Q 29.5 -1.171875 24.703125 -1.171875 
Q 15.234375 -1.171875 8.9375 10.015625 
Q 3.609375 19.4375 3.609375 32.71875 
z
M 13.1875 31.5 
Q 13.1875 17.828125 16.546875 9.1875 
Q 19.34375 1.90625 24.859375 1.90625 
Q 27.484375 1.90625 30.3125 4.265625 
Q 33.15625 6.640625 34.625 12.203125 
Q 36.859375 20.609375 36.859375 35.890625 
Q 36.859375 47.21875 34.515625 54.78125 
Q 32.765625 60.40625 29.984375 62.75 
Q 27.984375 64.359375 25.140625 64.359375 
Q 21.828125 64.359375 19.234375 61.375 
Q 15.71875 57.328125 14.453125 48.625 
Q 13.1875 39.9375 13.1875 31.5 
z
" id="TimesNewRomanPSMT-30"/>
       <path d="M 12.5 9.46875 
Q 14.796875 9.46875 16.359375 7.875 
Q 17.921875 6.296875 17.921875 4.046875 
Q 17.921875 1.8125 16.328125 0.21875 
Q 14.75 -1.375 12.5 -1.375 
Q 10.25 -1.375 8.65625 0.21875 
Q 7.078125 1.8125 7.078125 4.046875 
Q 7.078125 6.34375 8.65625 7.90625 
Q 10.25 9.46875 12.5 9.46875 
z
" id="TimesNewRomanPSMT-2e"/>
       <path d="M 43.40625 66.21875 
L 39.59375 57.90625 
L 19.671875 57.90625 
L 15.328125 49.03125 
Q 28.265625 47.125 35.84375 39.40625 
Q 42.328125 32.765625 42.328125 23.78125 
Q 42.328125 18.5625 40.203125 14.109375 
Q 38.09375 9.671875 34.859375 6.546875 
Q 31.640625 3.421875 27.6875 1.515625 
Q 22.078125 -1.171875 16.15625 -1.171875 
Q 10.203125 -1.171875 7.484375 0.84375 
Q 4.78125 2.875 4.78125 5.328125 
Q 4.78125 6.6875 5.90625 7.734375 
Q 7.03125 8.796875 8.734375 8.796875 
Q 10.015625 8.796875 10.96875 8.40625 
Q 11.921875 8.015625 14.203125 6.390625 
Q 17.875 3.859375 21.625 3.859375 
Q 27.34375 3.859375 31.65625 8.171875 
Q 35.984375 12.5 35.984375 18.703125 
Q 35.984375 24.703125 32.125 29.90625 
Q 28.265625 35.109375 21.484375 37.9375 
Q 16.15625 40.140625 6.984375 40.484375 
L 19.671875 66.21875 
z
" id="TimesNewRomanPSMT-35"/>
      </defs>
      <g transform="translate(33.311354 137.852232)scale(0.06 -0.06)">
       <use xlink:href="#TimesNewRomanPSMT-33"/>
       <use x="50" xlink:href="#TimesNewRomanPSMT-30"/>
       <use x="100" xlink:href="#TimesNewRomanPSMT-2e"/>
       <use x="125" xlink:href="#TimesNewRomanPSMT-35"/>
      </g>
     </g>
    </g>
    <g id="xtick_2">
     <g id="line2d_3">
      <path clip-path="url(#p6459cdaa01)" d="M 59.781362 130.185982 
L 59.781362 9.283125 
" style="fill:none;opacity:0.1;stroke:#b0b0b0;stroke-linecap:square;stroke-width:0.1;"/>
     </g>
     <g id="line2d_4">
      <g>
       <use style="stroke:#000000;stroke-width:0.3;" x="59.781362" xlink:href="#me70ce2835a" y="130.185982"/>
      </g>
     </g>
     <g id="text_2">
      <!-- 31.0 -->
      <defs>
       <path d="M 11.71875 59.71875 
L 27.828125 67.578125 
L 29.4375 67.578125 
L 29.4375 11.671875 
Q 29.4375 6.109375 29.90625 4.734375 
Q 30.375 3.375 31.828125 2.640625 
Q 33.296875 1.90625 37.796875 1.8125 
L 37.796875 0 
L 12.890625 0 
L 12.890625 1.8125 
Q 17.578125 1.90625 18.9375 2.609375 
Q 20.3125 3.328125 20.84375 4.515625 
Q 21.390625 5.71875 21.390625 11.671875 
L 21.390625 47.40625 
Q 21.390625 54.640625 20.90625 56.6875 
Q 20.5625 58.25 19.65625 58.984375 
Q 18.75 59.71875 17.484375 59.71875 
Q 15.671875 59.71875 12.453125 58.203125 
z
" id="TimesNewRomanPSMT-31"/>
      </defs>
      <g transform="translate(54.531362 137.852232)scale(0.06 -0.06)">
       <use xlink:href="#TimesNewRomanPSMT-33"/>
       <use x="50" xlink:href="#TimesNewRomanPSMT-31"/>
       <use x="100" xlink:href="#TimesNewRomanPSMT-2e"/>
       <use x="125" xlink:href="#TimesNewRomanPSMT-30"/>
      </g>
     </g>
    </g>
    <g id="xtick_3">
     <g id="line2d_5">
      <path clip-path="url(#p6459cdaa01)" d="M 81.00137 130.185982 
L 81.00137 9.283125 
" style="fill:none;opacity:0.1;stroke:#b0b0b0;stroke-linecap:square;stroke-width:0.1;"/>
     </g>
     <g id="line2d_6">
      <g>
       <use style="stroke:#000000;stroke-width:0.3;" x="81.00137" xlink:href="#me70ce2835a" y="130.185982"/>
      </g>
     </g>
     <g id="text_3">
      <!-- 31.5 -->
      <g transform="translate(75.75137 137.852232)scale(0.06 -0.06)">
       <use xlink:href="#TimesNewRomanPSMT-33"/>
       <use x="50" xlink:href="#TimesNewRomanPSMT-31"/>
       <use x="100" xlink:href="#TimesNewRomanPSMT-2e"/>
       <use x="125" xlink:href="#TimesNewRomanPSMT-35"/>
      </g>
     </g>
    </g>
    <g id="xtick_4">
     <g id="line2d_7">
      <path clip-path="url(#p6459cdaa01)" d="M 102.221378 130.185982 
L 102.221378 9.283125 
" style="fill:none;opacity:0.1;stroke:#b0b0b0;stroke-linecap:square;stroke-width:0.1;"/>
     </g>
     <g id="line2d_8">
      <g>
       <use style="stroke:#000000;stroke-width:0.3;" x="102.221378" xlink:href="#me70ce2835a" y="130.185982"/>
      </g>
     </g>
     <g id="text_4">
      <!-- 32.0 -->
      <defs>
       <path d="M 45.84375 12.75 
L 41.21875 0 
L 2.15625 0 
L 2.15625 1.8125 
Q 19.390625 17.53125 26.421875 27.484375 
Q 33.453125 37.453125 33.453125 45.703125 
Q 33.453125 52 29.59375 56.046875 
Q 25.734375 60.109375 20.359375 60.109375 
Q 15.484375 60.109375 11.59375 57.25 
Q 7.71875 54.390625 5.859375 48.875 
L 4.046875 48.875 
Q 5.28125 57.90625 10.328125 62.734375 
Q 15.375 67.578125 22.953125 67.578125 
Q 31 67.578125 36.390625 62.40625 
Q 41.796875 57.234375 41.796875 50.203125 
Q 41.796875 45.171875 39.453125 40.140625 
Q 35.84375 32.234375 27.734375 23.390625 
Q 15.578125 10.109375 12.546875 7.375 
L 29.828125 7.375 
Q 35.109375 7.375 37.234375 7.765625 
Q 39.359375 8.15625 41.0625 9.34375 
Q 42.78125 10.546875 44.046875 12.75 
z
" id="TimesNewRomanPSMT-32"/>
      </defs>
      <g transform="translate(96.971378 137.852232)scale(0.06 -0.06)">
       <use xlink:href="#TimesNewRomanPSMT-33"/>
       <use x="50" xlink:href="#TimesNewRomanPSMT-32"/>
       <use x="100" xlink:href="#TimesNewRomanPSMT-2e"/>
       <use x="125" xlink:href="#TimesNewRomanPSMT-30"/>
      </g>
     </g>
    </g>
   </g>
   <g id="matplotlib.axis_2">
    <g id="ytick_1">
     <g id="line2d_9">
      <path clip-path="url(#p6459cdaa01)" d="M 21.583438 130.185982 
L 116.487378 130.185982 
" style="fill:none;opacity:0.1;stroke:#b0b0b0;stroke-linecap:square;stroke-width:0.1;"/>
     </g>
     <g id="line2d_10">
      <defs>
       <path d="M 0 0 
L 2 0 
" id="m1ad90b6cf8" style="stroke:#000000;stroke-width:0.3;"/>
      </defs>
      <g>
       <use style="stroke:#000000;stroke-width:0.3;" x="21.583438" xlink:href="#m1ad90b6cf8" y="130.185982"/>
      </g>
     </g>
     <g id="text_5">
      <!-- −0.4 -->
      <defs>
       <path d="M 54.4375 31.25 
L 1.8125 31.25 
L 1.8125 35.25 
L 54.4375 35.25 
z
" id="TimesNewRomanPSMT-2212"/>
       <path d="M 46.53125 24.421875 
L 46.53125 17.484375 
L 37.640625 17.484375 
L 37.640625 0 
L 29.59375 0 
L 29.59375 17.484375 
L 1.5625 17.484375 
L 1.5625 23.734375 
L 32.28125 67.578125 
L 37.640625 67.578125 
L 37.640625 24.421875 
z
M 29.59375 24.421875 
L 29.59375 57.28125 
L 6.34375 24.421875 
z
" id="TimesNewRomanPSMT-34"/>
      </defs>
      <g transform="translate(7.2 132.269107)scale(0.06 -0.06)">
       <use xlink:href="#TimesNewRomanPSMT-2212"/>
       <use x="56.396484" xlink:href="#TimesNewRomanPSMT-30"/>
       <use x="106.396484" xlink:href="#TimesNewRomanPSMT-2e"/>
       <use x="131.396484" xlink:href="#TimesNewRomanPSMT-34"/>
      </g>
     </g>
    </g>
    <g id="ytick_2">
     <g id="line2d_11">
      <path clip-path="url(#p6459cdaa01)" d="M 21.583438 112.914146 
L 116.487378 112.914146 
" style="fill:none;opacity:0.1;stroke:#b0b0b0;stroke-linecap:square;stroke-width:0.1;"/>
     </g>
     <g id="line2d_12">
      <g>
       <use style="stroke:#000000;stroke-width:0.3;" x="21.583438" xlink:href="#m1ad90b6cf8" y="112.914146"/>
      </g>
     </g>
     <g id="text_6">
      <!-- −0.3 -->
      <g transform="translate(7.2 114.997271)scale(0.06 -0.06)">
       <use xlink:href="#TimesNewRomanPSMT-2212"/>
       <use x="56.396484" xlink:href="#TimesNewRomanPSMT-30"/>
       <use x="106.396484" xlink:href="#TimesNewRomanPSMT-2e"/>
       <use x="131.396484" xlink:href="#TimesNewRomanPSMT-33"/>
      </g>
     </g>
    </g>
    <g id="ytick_3">
     <g id="line2d_13">
      <path clip-path="url(#p6459cdaa01)" d="M 21.583438 95.642309 
L 116.487378 95.642309 
" style="fill:none;opacity:0.1;stroke:#b0b0b0;stroke-linecap:square;stroke-width:0.1;"/>
     </g>
     <g id="line2d_14">
      <g>
       <use style="stroke:#000000;stroke-width:0.3;" x="21.583438" xlink:href="#m1ad90b6cf8" y="95.642309"/>
      </g>
     </g>
     <g id="text_7">
      <!-- −0.2 -->
      <g transform="translate(7.2 97.725434)scale(0.06 -0.06)">
       <use xlink:href="#TimesNewRomanPSMT-2212"/>
       <use x="56.396484" xlink:href="#TimesNewRomanPSMT-30"/>
       <use x="106.396484" xlink:href="#TimesNewRomanPSMT-2e"/>
       <use x="131.396484" xlink:href="#TimesNewRomanPSMT-32"/>
      </g>
     </g>
    </g>
    <g id="ytick_4">
     <g id="line2d_15">
      <path clip-path="url(#p6459cdaa01)" d="M 21.583438 78.370472 
L 116.487378 78.370472 
" style="fill:none;opacity:0.1;stroke:#b0b0b0;stroke-linecap:square;stroke-width:0.1;"/>
     </g>
     <g id="line2d_16">
      <g>
       <use style="stroke:#000000;stroke-width:0.3;" x="21.583438" xlink:href="#m1ad90b6cf8" y="78.370472"/>
      </g>
     </g>
     <g id="text_8">
      <!-- −0.1 -->
      <g transform="translate(7.2 80.453597)scale(0.06 -0.06)">
       <use xlink:href="#TimesNewRomanPSMT-2212"/>
       <use x="56.396484" xlink:href="#TimesNewRomanPSMT-30"/>
       <use x="106.396484" xlink:href="#TimesNewRomanPSMT-2e"/>
       <use x="131.396484" xlink:href="#TimesNewRomanPSMT-31"/>
      </g>
     </g>
    </g>
    <g id="ytick_5">
     <g id="line2d_17">
      <path clip-path="url(#p6459cdaa01)" d="M 21.583438 61.098635 
L 116.487378 61.098635 
" style="fill:none;opacity:0.1;stroke:#b0b0b0;stroke-linecap:square;stroke-width:0.1;"/>
     </g>
     <g id="line2d_18">
      <g>
       <use style="stroke:#000000;stroke-width:0.3;" x="21.583438" xlink:href="#m1ad90b6cf8" y="61.098635"/>
      </g>
     </g>
     <g id="text_9">
      <!-- 0.0 -->
      <g transform="translate(10.583438 63.18176)scale(0.06 -0.06)">
       <use xlink:href="#TimesNewRomanPSMT-30"/>
       <use x="50" xlink:href="#TimesNewRomanPSMT-2e"/>
       <use x="75" xlink:href="#TimesNewRomanPSMT-30"/>
      </g>
     </g>
    </g>
    <g id="ytick_6">
     <g id="line2d_19">
      <path clip-path="url(#p6459cdaa01)" d="M 21.583438 43.826799 
L 116.487378 43.826799 
" style="fill:none;opacity:0.1;stroke:#b0b0b0;stroke-linecap:square;stroke-width:0.1;"/>
     </g>
     <g id="line2d_20">
      <g>
       <use style="stroke:#000000;stroke-width:0.3;" x="21.583438" xlink:href="#m1ad90b6cf8" y="43.826799"/>
      </g>
     </g>
     <g id="text_10">
      <!-- 0.1 -->
      <g transform="translate(10.583438 45.909924)scale(0.06 -0.06)">
       <use xlink:href="#TimesNewRomanPSMT-30"/>
       <use x="50" xlink:href="#TimesNewRomanPSMT-2e"/>
       <use x="75" xlink:href="#TimesNewRomanPSMT-31"/>
      </g>
     </g>
    </g>
    <g id="ytick_7">
     <g id="line2d_21">
      <path clip-path="url(#p6459cdaa01)" d="M 21.583438 26.554962 
L 116.487378 26.554962 
" style="fill:none;opacity:0.1;stroke:#b0b0b0;stroke-linecap:square;stroke-width:0.1;"/>
     </g>
     <g id="line2d_22">
      <g>
       <use style="stroke:#000000;stroke-width:0.3;" x="21.583438" xlink:href="#m1ad90b6cf8" y="26.554962"/>
      </g>
     </g>
     <g id="text_11">
      <!-- 0.2 -->
      <g transform="translate(10.583438 28.638087)scale(0.06 -0.06)">
       <use xlink:href="#TimesNewRomanPSMT-30"/>
       <use x="50" xlink:href="#TimesNewRomanPSMT-2e"/>
       <use x="75" xlink:href="#TimesNewRomanPSMT-32"/>
      </g>
     </g>
    </g>
    <g id="ytick_8">
     <g id="line2d_23">
      <path clip-path="url(#p6459cdaa01)" d="M 21.583438 9.283125 
L 116.487378 9.283125 
" style="fill:none;opacity:0.1;stroke:#b0b0b0;stroke-linecap:square;stroke-width:0.1;"/>
     </g>
     <g id="line2d_24">
      <g>
       <use style="stroke:#000000;stroke-width:0.3;" x="21.583438" xlink:href="#m1ad90b6cf8" y="9.283125"/>
      </g>
     </g>
     <g id="text_12">
      <!-- 0.3 -->
      <g transform="translate(10.583438 11.36625)scale(0.06 -0.06)">
       <use xlink:href="#TimesNewRomanPSMT-30"/>
       <use x="50" xlink:href="#TimesNewRomanPSMT-2e"/>
       <use x="75" xlink:href="#TimesNewRomanPSMT-33"/>
      </g>
     </g>
    </g>
   </g>
   <g id="line2d_25">
    <path clip-path="url(#p6459cdaa01)" d="M 25.897253 61.780284 
L 26.593269 61.807924 
L 27.35719 61.833683 
L 28.082914 61.855875 
L 29.135426 61.867095 
L 29.873882 61.881893 
L 30.659023 61.883714 
L 31.469627 61.846671 
L 32.403307 61.778796 
L 33.209668 61.670725 
L 34.024516 61.560217 
L 35.081272 61.470285 
L 35.790021 61.421521 
L 36.825557 61.323104 
L 37.708309 61.286918 
L 38.42979 61.296779 
L 39.482302 61.325382 
L 40.080706 61.380496 
L 40.814919 61.446837 
L 41.884407 61.503638 
L 42.682279 61.502966 
L 43.352832 61.487631 
L 44.248316 61.496631 
L 45.1438 62.620609 
L 45.933185 66.576181 
L 46.760765 73.648246 
L 47.724153 83.21265 
L 48.555978 94.080663 
L 49.472682 104.801578 
L 50.427582 115.016816 
L 51.068427 119.82666 
L 51.887519 121.21395 
L 53.029155 117.951274 
L 53.576632 111.006198 
L 54.565484 100.66244 
L 55.257256 92.973381 
L 56.101813 85.536848 
L 57.073689 81.129112 
L 57.905513 79.588644 
L 58.626994 79.804946 
L 59.692238 80.241042 
L 60.570746 79.829529 
L 61.232811 78.266984 
L 62.183467 75.740622 
L 62.930411 72.609918 
L 63.741015 69.181963 
L 64.581328 65.809714 
L 65.608376 62.753763 
L 66.389273 60.37153 
L 67.110753 58.938988 
L 68.265121 58.556522 
L 69.054506 59.037557 
L 69.691106 60.203214 
L 70.603566 61.368827 
L 71.384462 62.087825 
L 72.352095 61.886111 
L 73.082063 61.030613 
L 73.918131 58.938237 
L 74.771176 57.184749 
L 75.628464 54.881779 
L 76.511216 53.085768 
L 77.355773 51.441735 
L 78.289453 49.915007 
L 79.023665 48.46957 
L 79.936126 47.523519 
L 81.323914 46.716426 
L 81.671922 46.749855 
L 82.435843 47.364873 
L 83.356791 48.519813 
L 84.116467 50.043188 
L 84.948292 51.388906 
L 85.80558 52.857947 
L 86.650136 53.597309 
L 87.668697 53.78804 
L 88.402909 53.644799 
L 89.217757 53.39243 
L 90.130218 53.284274 
L 91.123314 53.390045 
L 91.950894 53.694319 
L 92.579007 54.14224 
L 93.890403 54.556167 
L 94.297827 54.84377 
L 95.150872 55.004771 
L 95.978452 55.036016 
L 97.013988 54.920945 
L 97.726981 54.754463 
L 98.533341 54.650822 
L 99.411849 54.673996 
L 100.36675 54.823873 
L 101.071254 55.095193 
L 102.187426 55.466743 
L 103.019251 55.839717 
L 103.672827 56.219623 
L 104.674411 56.484283 
L 105.438332 56.756863 
L 106.185276 56.948614 
L 107.174128 57.183747 
L 107.899852 57.369784 
L 108.935389 57.491916 
L 109.571989 57.562362 
L 110.649966 57.601473 
L 111.320518 57.603793 
L 112.173562 57.615673 
" style="fill:none;stroke:#1f77b4;stroke-linecap:square;"/>
   </g>
   <g id="line2d_26">
    <path clip-path="url(#p6459cdaa01)" d="M 25.897253 60.957224 
L 26.593269 60.919662 
L 27.35719 60.851473 
L 28.082914 60.760907 
L 29.135426 60.686373 
L 29.873882 60.636938 
L 30.659023 60.608087 
L 31.469627 60.616953 
L 32.403307 60.665261 
L 33.209668 60.682736 
L 34.024516 60.681823 
L 35.081272 60.641899 
L 35.790021 60.58586 
L 36.825557 60.529422 
L 37.708309 60.511245 
L 38.42979 60.5037 
L 39.482302 60.559101 
L 40.080706 60.693841 
L 40.814919 60.834878 
L 41.884407 60.935677 
L 42.682279 61.005754 
L 43.352832 61.02008 
L 44.248316 60.994319 
L 45.1438 60.736943 
L 45.933185 59.910553 
L 46.760765 58.431361 
L 47.724153 56.496621 
L 48.555978 54.501518 
L 49.472682 52.875407 
L 50.427582 51.858811 
L 51.068427 51.759407 
L 51.887519 52.168028 
L 53.029155 52.66844 
L 53.576632 52.715513 
L 54.565484 51.824717 
L 55.257256 50.643667 
L 56.101813 49.167977 
L 57.073689 48.105302 
L 57.905513 47.78628 
L 58.626994 47.977623 
L 59.692238 48.065726 
L 60.570746 47.458647 
L 61.232811 45.83953 
L 62.183467 43.293296 
L 62.930411 40.183878 
L 63.741015 36.83772 
L 64.581328 33.67519 
L 65.608376 31.167269 
L 66.389273 29.791497 
L 67.110753 29.883112 
L 68.265121 31.889691 
L 69.054506 34.072779 
L 69.691106 37.112195 
L 70.603566 39.286492 
L 71.384462 40.312131 
L 72.352095 40.291821 
L 73.082063 39.879743 
L 73.918131 39.367169 
L 74.771176 39.43658 
L 75.628464 39.861882 
L 76.511216 40.074892 
L 77.355773 39.697397 
L 78.289453 38.600973 
L 79.023665 36.903773 
L 79.936126 35.277067 
L 81.323914 32.766973 
L 81.671922 31.134995 
L 82.435843 30.447431 
L 83.356791 31.075718 
L 84.116467 32.961008 
L 84.948292 35.13547 
L 85.80558 37.958229 
L 86.650136 39.392783 
L 87.668697 39.54452 
L 88.402909 39.023691 
L 89.217757 38.500602 
L 90.130218 38.499814 
L 91.123314 38.891369 
L 91.950894 39.187815 
L 92.579007 39.13064 
L 93.890403 38.529158 
L 94.297827 37.320365 
L 95.150872 35.678349 
L 95.978452 33.872082 
L 97.013988 32.354684 
L 97.726981 31.621786 
L 98.533341 31.960516 
L 99.411849 33.209709 
L 100.36675 34.890148 
L 101.071254 36.418192 
L 102.187426 37.432382 
L 103.019251 37.621187 
L 103.672827 37.341335 
L 104.674411 37.103327 
L 105.438332 36.924203 
L 106.185276 36.897112 
L 107.174128 36.881722 
L 107.899852 36.658171 
L 108.935389 35.972857 
L 109.571989 35.167377 
L 110.649966 34.028958 
L 111.320518 32.818547 
L 112.173562 31.795452 
" style="fill:none;stroke:#ff7f0e;stroke-linecap:square;"/>
   </g>
   <g id="line2d_27">
    <path clip-path="url(#p6459cdaa01)" style="fill:none;stroke:#2ca02c;stroke-linecap:square;"/>
   </g>
   <g id="patch_3">
    <path d="M 21.583438 130.185982 
L 21.583438 9.283125 
" style="fill:none;stroke:#000000;stroke-linecap:square;stroke-linejoin:miter;stroke-width:0.3;"/>
   </g>
   <g id="patch_4">
    <path d="M 116.487378 130.185982 
L 116.487378 9.283125 
" style="fill:none;stroke:#000000;stroke-linecap:square;stroke-linejoin:miter;stroke-width:0.3;"/>
   </g>
   <g id="patch_5">
    <path d="M 21.583437 130.185982 
L 116.487378 130.185982 
" style="fill:none;stroke:#000000;stroke-linecap:square;stroke-linejoin:miter;stroke-width:0.3;"/>
   </g>
   <g id="patch_6">
    <path d="M 21.583437 9.283125 
L 116.487378 9.283125 
" style="fill:none;stroke:#000000;stroke-linecap:square;stroke-linejoin:miter;stroke-width:0.3;"/>
   </g>
  </g>
 </g>
 <defs>
  <clipPath id="p6459cdaa01">
   <rect height="120.902857" width="94.90394" x="21.583438" y="9.283125"/>
  </clipPath>
 </defs>
</svg>
