<?xml version="1.0" encoding="utf-8" standalone="no"?>
<!DOCTYPE svg PUBLIC "-//W3C//DTD SVG 1.1//EN"
  "http://www.w3.org/Graphics/SVG/1.1/DTD/svg11.dtd">
<!-- Created with matplotlib (http://matplotlib.org/) -->
<svg height="146pt" version="1.1" viewBox="0 0 123 146" width="123pt" xmlns="http://www.w3.org/2000/svg" xmlns:xlink="http://www.w3.org/1999/xlink">
 <defs>
  <style type="text/css">
*{stroke-linecap:butt;stroke-linejoin:round;}
  </style>
 </defs>
 <g id="figure_1">
  <g id="patch_1">
   <path d="M -0 146.33567 
L 123.687378 146.33567 
L 123.687378 0 
L -0 0 
z
" style="fill:#ffffff;"/>
  </g>
  <g id="axes_1">
   <g id="patch_2">
    <path d="M 21.583438 130.185982 
L 116.487378 130.185982 
L 116.487378 9.283125 
L 21.583438 9.283125 
z
" style="fill:#ffffff;"/>
   </g>
   <g id="matplotlib.axis_1">
    <g id="xtick_1">
     <g id="line2d_1">
      <path clip-path="url(#pc538891a2a)" d="M 31.136301 130.185982 
L 31.136301 9.283125 
" style="fill:none;opacity:0.1;stroke:#b0b0b0;stroke-linecap:square;stroke-width:0.1;"/>
     </g>
     <g id="line2d_2">
      <defs>
       <path d="M 0 0 
L 0 -2 
" id="mca9453b5d3" style="stroke:#000000;stroke-width:0.3;"/>
      </defs>
      <g>
       <use style="stroke:#000000;stroke-width:0.3;" x="31.136301" xlink:href="#mca9453b5d3" y="130.185982"/>
      </g>
     </g>
     <g id="text_1">
      <!-- 58 -->
      <defs>
       <path d="M 43.40625 66.21875 
L 39.59375 57.90625 
L 19.671875 57.90625 
L 15.328125 49.03125 
Q 28.265625 47.125 35.84375 39.40625 
Q 42.328125 32.765625 42.328125 23.78125 
Q 42.328125 18.5625 40.203125 14.109375 
Q 38.09375 9.671875 34.859375 6.546875 
Q 31.640625 3.421875 27.6875 1.515625 
Q 22.078125 -1.171875 16.15625 -1.171875 
Q 10.203125 -1.171875 7.484375 0.84375 
Q 4.78125 2.875 4.78125 5.328125 
Q 4.78125 6.6875 5.90625 7.734375 
Q 7.03125 8.796875 8.734375 8.796875 
Q 10.015625 8.796875 10.96875 8.40625 
Q 11.921875 8.015625 14.203125 6.390625 
Q 17.875 3.859375 21.625 3.859375 
Q 27.34375 3.859375 31.65625 8.171875 
Q 35.984375 12.5 35.984375 18.703125 
Q 35.984375 24.703125 32.125 29.90625 
Q 28.265625 35.109375 21.484375 37.9375 
Q 16.15625 40.140625 6.984375 40.484375 
L 19.671875 66.21875 
z
" id="TimesNewRomanPSMT-35"/>
       <path d="M 19.1875 33.34375 
Q 11.328125 39.796875 9.046875 43.703125 
Q 6.78125 47.609375 6.78125 51.8125 
Q 6.78125 58.25 11.765625 62.90625 
Q 16.75 67.578125 25 67.578125 
Q 33.015625 67.578125 37.890625 63.234375 
Q 42.78125 58.890625 42.78125 53.328125 
Q 42.78125 49.609375 40.140625 45.75 
Q 37.5 41.890625 29.15625 36.671875 
Q 37.75 30.03125 40.53125 26.21875 
Q 44.234375 21.234375 44.234375 15.71875 
Q 44.234375 8.734375 38.90625 3.78125 
Q 33.59375 -1.171875 24.953125 -1.171875 
Q 15.53125 -1.171875 10.25 4.734375 
Q 6.0625 9.46875 6.0625 15.09375 
Q 6.0625 19.484375 9.015625 23.796875 
Q 11.96875 28.125 19.1875 33.34375 
z
M 26.859375 38.578125 
Q 32.71875 43.84375 34.28125 46.890625 
Q 35.84375 49.953125 35.84375 53.8125 
Q 35.84375 58.9375 32.953125 61.84375 
Q 30.078125 64.75 25.09375 64.75 
Q 20.125 64.75 17 61.859375 
Q 13.875 58.984375 13.875 55.125 
Q 13.875 52.59375 15.15625 50.046875 
Q 16.453125 47.515625 18.84375 45.21875 
z
M 21.484375 31.5 
Q 17.4375 28.078125 15.484375 24.046875 
Q 13.53125 20.015625 13.53125 15.328125 
Q 13.53125 9.03125 16.96875 5.25 
Q 20.40625 1.46875 25.734375 1.46875 
Q 31 1.46875 34.171875 4.4375 
Q 37.359375 7.421875 37.359375 11.671875 
Q 37.359375 15.1875 35.5 17.96875 
Q 32.03125 23.140625 21.484375 31.5 
z
" id="TimesNewRomanPSMT-38"/>
      </defs>
      <g transform="translate(28.136301 137.852232)scale(0.06 -0.06)">
       <use xlink:href="#TimesNewRomanPSMT-35"/>
       <use x="50" xlink:href="#TimesNewRomanPSMT-38"/>
      </g>
     </g>
    </g>
    <g id="xtick_2">
     <g id="line2d_3">
      <path clip-path="url(#pc538891a2a)" d="M 68.057009 130.185982 
L 68.057009 9.283125 
" style="fill:none;opacity:0.1;stroke:#b0b0b0;stroke-linecap:square;stroke-width:0.1;"/>
     </g>
     <g id="line2d_4">
      <g>
       <use style="stroke:#000000;stroke-width:0.3;" x="68.057009" xlink:href="#mca9453b5d3" y="130.185982"/>
      </g>
     </g>
     <g id="text_2">
      <!-- 60 -->
      <defs>
       <path d="M 44.828125 67.578125 
L 44.828125 65.765625 
Q 38.375 65.140625 34.296875 63.203125 
Q 30.21875 61.28125 26.234375 57.328125 
Q 22.265625 53.375 19.65625 48.515625 
Q 17.046875 43.65625 15.28125 36.96875 
Q 22.3125 41.796875 29.390625 41.796875 
Q 36.1875 41.796875 41.15625 36.328125 
Q 46.140625 30.859375 46.140625 22.265625 
Q 46.140625 13.96875 41.109375 7.125 
Q 35.0625 -1.171875 25.09375 -1.171875 
Q 18.3125 -1.171875 13.578125 3.328125 
Q 4.296875 12.0625 4.296875 25.984375 
Q 4.296875 34.859375 7.859375 42.859375 
Q 11.421875 50.875 18.03125 57.078125 
Q 24.65625 63.28125 30.703125 65.421875 
Q 36.765625 67.578125 42 67.578125 
z
M 14.453125 33.40625 
Q 13.578125 26.8125 13.578125 22.75 
Q 13.578125 18.0625 15.3125 12.5625 
Q 17.046875 7.078125 20.453125 3.859375 
Q 22.953125 1.5625 26.515625 1.5625 
Q 30.765625 1.5625 34.109375 5.5625 
Q 37.453125 9.578125 37.453125 17 
Q 37.453125 25.34375 34.125 31.4375 
Q 30.8125 37.546875 24.703125 37.546875 
Q 22.859375 37.546875 20.734375 36.765625 
Q 18.609375 35.984375 14.453125 33.40625 
z
" id="TimesNewRomanPSMT-36"/>
       <path d="M 3.609375 32.71875 
Q 3.609375 44.046875 7.03125 52.21875 
Q 10.453125 60.40625 16.109375 64.40625 
Q 20.515625 67.578125 25.203125 67.578125 
Q 32.8125 67.578125 38.875 59.8125 
Q 46.4375 50.203125 46.4375 33.734375 
Q 46.4375 22.21875 43.109375 14.15625 
Q 39.796875 6.109375 34.640625 2.46875 
Q 29.5 -1.171875 24.703125 -1.171875 
Q 15.234375 -1.171875 8.9375 10.015625 
Q 3.609375 19.4375 3.609375 32.71875 
z
M 13.1875 31.5 
Q 13.1875 17.828125 16.546875 9.1875 
Q 19.34375 1.90625 24.859375 1.90625 
Q 27.484375 1.90625 30.3125 4.265625 
Q 33.15625 6.640625 34.625 12.203125 
Q 36.859375 20.609375 36.859375 35.890625 
Q 36.859375 47.21875 34.515625 54.78125 
Q 32.765625 60.40625 29.984375 62.75 
Q 27.984375 64.359375 25.140625 64.359375 
Q 21.828125 64.359375 19.234375 61.375 
Q 15.71875 57.328125 14.453125 48.625 
Q 13.1875 39.9375 13.1875 31.5 
z
" id="TimesNewRomanPSMT-30"/>
      </defs>
      <g transform="translate(65.057009 137.852232)scale(0.06 -0.06)">
       <use xlink:href="#TimesNewRomanPSMT-36"/>
       <use x="50" xlink:href="#TimesNewRomanPSMT-30"/>
      </g>
     </g>
    </g>
    <g id="xtick_3">
     <g id="line2d_5">
      <path clip-path="url(#pc538891a2a)" d="M 104.977716 130.185982 
L 104.977716 9.283125 
" style="fill:none;opacity:0.1;stroke:#b0b0b0;stroke-linecap:square;stroke-width:0.1;"/>
     </g>
     <g id="line2d_6">
      <g>
       <use style="stroke:#000000;stroke-width:0.3;" x="104.977716" xlink:href="#mca9453b5d3" y="130.185982"/>
      </g>
     </g>
     <g id="text_3">
      <!-- 62 -->
      <defs>
       <path d="M 45.84375 12.75 
L 41.21875 0 
L 2.15625 0 
L 2.15625 1.8125 
Q 19.390625 17.53125 26.421875 27.484375 
Q 33.453125 37.453125 33.453125 45.703125 
Q 33.453125 52 29.59375 56.046875 
Q 25.734375 60.109375 20.359375 60.109375 
Q 15.484375 60.109375 11.59375 57.25 
Q 7.71875 54.390625 5.859375 48.875 
L 4.046875 48.875 
Q 5.28125 57.90625 10.328125 62.734375 
Q 15.375 67.578125 22.953125 67.578125 
Q 31 67.578125 36.390625 62.40625 
Q 41.796875 57.234375 41.796875 50.203125 
Q 41.796875 45.171875 39.453125 40.140625 
Q 35.84375 32.234375 27.734375 23.390625 
Q 15.578125 10.109375 12.546875 7.375 
L 29.828125 7.375 
Q 35.109375 7.375 37.234375 7.765625 
Q 39.359375 8.15625 41.0625 9.34375 
Q 42.78125 10.546875 44.046875 12.75 
z
" id="TimesNewRomanPSMT-32"/>
      </defs>
      <g transform="translate(101.977716 137.852232)scale(0.06 -0.06)">
       <use xlink:href="#TimesNewRomanPSMT-36"/>
       <use x="50" xlink:href="#TimesNewRomanPSMT-32"/>
      </g>
     </g>
    </g>
   </g>
   <g id="matplotlib.axis_2">
    <g id="ytick_1">
     <g id="line2d_7">
      <path clip-path="url(#pc538891a2a)" d="M 21.583438 130.185982 
L 116.487378 130.185982 
" style="fill:none;opacity:0.1;stroke:#b0b0b0;stroke-linecap:square;stroke-width:0.1;"/>
     </g>
     <g id="line2d_8">
      <defs>
       <path d="M 0 0 
L 2 0 
" id="m65f31d4c94" style="stroke:#000000;stroke-width:0.3;"/>
      </defs>
      <g>
       <use style="stroke:#000000;stroke-width:0.3;" x="21.583438" xlink:href="#m65f31d4c94" y="130.185982"/>
      </g>
     </g>
     <g id="text_4">
      <!-- −1.0 -->
      <defs>
       <path d="M 54.4375 31.25 
L 1.8125 31.25 
L 1.8125 35.25 
L 54.4375 35.25 
z
" id="TimesNewRomanPSMT-2212"/>
       <path d="M 11.71875 59.71875 
L 27.828125 67.578125 
L 29.4375 67.578125 
L 29.4375 11.671875 
Q 29.4375 6.109375 29.90625 4.734375 
Q 30.375 3.375 31.828125 2.640625 
Q 33.296875 1.90625 37.796875 1.8125 
L 37.796875 0 
L 12.890625 0 
L 12.890625 1.8125 
Q 17.578125 1.90625 18.9375 2.609375 
Q 20.3125 3.328125 20.84375 4.515625 
Q 21.390625 5.71875 21.390625 11.671875 
L 21.390625 47.40625 
Q 21.390625 54.640625 20.90625 56.6875 
Q 20.5625 58.25 19.65625 58.984375 
Q 18.75 59.71875 17.484375 59.71875 
Q 15.671875 59.71875 12.453125 58.203125 
z
" id="TimesNewRomanPSMT-31"/>
       <path d="M 12.5 9.46875 
Q 14.796875 9.46875 16.359375 7.875 
Q 17.921875 6.296875 17.921875 4.046875 
Q 17.921875 1.8125 16.328125 0.21875 
Q 14.75 -1.375 12.5 -1.375 
Q 10.25 -1.375 8.65625 0.21875 
Q 7.078125 1.8125 7.078125 4.046875 
Q 7.078125 6.34375 8.65625 7.90625 
Q 10.25 9.46875 12.5 9.46875 
z
" id="TimesNewRomanPSMT-2e"/>
      </defs>
      <g transform="translate(7.2 132.269107)scale(0.06 -0.06)">
       <use xlink:href="#TimesNewRomanPSMT-2212"/>
       <use x="56.396484" xlink:href="#TimesNewRomanPSMT-31"/>
       <use x="106.396484" xlink:href="#TimesNewRomanPSMT-2e"/>
       <use x="131.396484" xlink:href="#TimesNewRomanPSMT-30"/>
      </g>
     </g>
    </g>
    <g id="ytick_2">
     <g id="line2d_9">
      <path clip-path="url(#pc538891a2a)" d="M 21.583438 112.914146 
L 116.487378 112.914146 
" style="fill:none;opacity:0.1;stroke:#b0b0b0;stroke-linecap:square;stroke-width:0.1;"/>
     </g>
     <g id="line2d_10">
      <g>
       <use style="stroke:#000000;stroke-width:0.3;" x="21.583438" xlink:href="#m65f31d4c94" y="112.914146"/>
      </g>
     </g>
     <g id="text_5">
      <!-- −0.8 -->
      <g transform="translate(7.2 114.997271)scale(0.06 -0.06)">
       <use xlink:href="#TimesNewRomanPSMT-2212"/>
       <use x="56.396484" xlink:href="#TimesNewRomanPSMT-30"/>
       <use x="106.396484" xlink:href="#TimesNewRomanPSMT-2e"/>
       <use x="131.396484" xlink:href="#TimesNewRomanPSMT-38"/>
      </g>
     </g>
    </g>
    <g id="ytick_3">
     <g id="line2d_11">
      <path clip-path="url(#pc538891a2a)" d="M 21.583438 95.642309 
L 116.487378 95.642309 
" style="fill:none;opacity:0.1;stroke:#b0b0b0;stroke-linecap:square;stroke-width:0.1;"/>
     </g>
     <g id="line2d_12">
      <g>
       <use style="stroke:#000000;stroke-width:0.3;" x="21.583438" xlink:href="#m65f31d4c94" y="95.642309"/>
      </g>
     </g>
     <g id="text_6">
      <!-- −0.6 -->
      <g transform="translate(7.2 97.725434)scale(0.06 -0.06)">
       <use xlink:href="#TimesNewRomanPSMT-2212"/>
       <use x="56.396484" xlink:href="#TimesNewRomanPSMT-30"/>
       <use x="106.396484" xlink:href="#TimesNewRomanPSMT-2e"/>
       <use x="131.396484" xlink:href="#TimesNewRomanPSMT-36"/>
      </g>
     </g>
    </g>
    <g id="ytick_4">
     <g id="line2d_13">
      <path clip-path="url(#pc538891a2a)" d="M 21.583438 78.370472 
L 116.487378 78.370472 
" style="fill:none;opacity:0.1;stroke:#b0b0b0;stroke-linecap:square;stroke-width:0.1;"/>
     </g>
     <g id="line2d_14">
      <g>
       <use style="stroke:#000000;stroke-width:0.3;" x="21.583438" xlink:href="#m65f31d4c94" y="78.370472"/>
      </g>
     </g>
     <g id="text_7">
      <!-- −0.4 -->
      <defs>
       <path d="M 46.53125 24.421875 
L 46.53125 17.484375 
L 37.640625 17.484375 
L 37.640625 0 
L 29.59375 0 
L 29.59375 17.484375 
L 1.5625 17.484375 
L 1.5625 23.734375 
L 32.28125 67.578125 
L 37.640625 67.578125 
L 37.640625 24.421875 
z
M 29.59375 24.421875 
L 29.59375 57.28125 
L 6.34375 24.421875 
z
" id="TimesNewRomanPSMT-34"/>
      </defs>
      <g transform="translate(7.2 80.453597)scale(0.06 -0.06)">
       <use xlink:href="#TimesNewRomanPSMT-2212"/>
       <use x="56.396484" xlink:href="#TimesNewRomanPSMT-30"/>
       <use x="106.396484" xlink:href="#TimesNewRomanPSMT-2e"/>
       <use x="131.396484" xlink:href="#TimesNewRomanPSMT-34"/>
      </g>
     </g>
    </g>
    <g id="ytick_5">
     <g id="line2d_15">
      <path clip-path="url(#pc538891a2a)" d="M 21.583438 61.098635 
L 116.487378 61.098635 
" style="fill:none;opacity:0.1;stroke:#b0b0b0;stroke-linecap:square;stroke-width:0.1;"/>
     </g>
     <g id="line2d_16">
      <g>
       <use style="stroke:#000000;stroke-width:0.3;" x="21.583438" xlink:href="#m65f31d4c94" y="61.098635"/>
      </g>
     </g>
     <g id="text_8">
      <!-- −0.2 -->
      <g transform="translate(7.2 63.18176)scale(0.06 -0.06)">
       <use xlink:href="#TimesNewRomanPSMT-2212"/>
       <use x="56.396484" xlink:href="#TimesNewRomanPSMT-30"/>
       <use x="106.396484" xlink:href="#TimesNewRomanPSMT-2e"/>
       <use x="131.396484" xlink:href="#TimesNewRomanPSMT-32"/>
      </g>
     </g>
    </g>
    <g id="ytick_6">
     <g id="line2d_17">
      <path clip-path="url(#pc538891a2a)" d="M 21.583438 43.826799 
L 116.487378 43.826799 
" style="fill:none;opacity:0.1;stroke:#b0b0b0;stroke-linecap:square;stroke-width:0.1;"/>
     </g>
     <g id="line2d_18">
      <g>
       <use style="stroke:#000000;stroke-width:0.3;" x="21.583438" xlink:href="#m65f31d4c94" y="43.826799"/>
      </g>
     </g>
     <g id="text_9">
      <!-- 0.0 -->
      <g transform="translate(10.583438 45.909924)scale(0.06 -0.06)">
       <use xlink:href="#TimesNewRomanPSMT-30"/>
       <use x="50" xlink:href="#TimesNewRomanPSMT-2e"/>
       <use x="75" xlink:href="#TimesNewRomanPSMT-30"/>
      </g>
     </g>
    </g>
    <g id="ytick_7">
     <g id="line2d_19">
      <path clip-path="url(#pc538891a2a)" d="M 21.583438 26.554962 
L 116.487378 26.554962 
" style="fill:none;opacity:0.1;stroke:#b0b0b0;stroke-linecap:square;stroke-width:0.1;"/>
     </g>
     <g id="line2d_20">
      <g>
       <use style="stroke:#000000;stroke-width:0.3;" x="21.583438" xlink:href="#m65f31d4c94" y="26.554962"/>
      </g>
     </g>
     <g id="text_10">
      <!-- 0.2 -->
      <g transform="translate(10.583438 28.638087)scale(0.06 -0.06)">
       <use xlink:href="#TimesNewRomanPSMT-30"/>
       <use x="50" xlink:href="#TimesNewRomanPSMT-2e"/>
       <use x="75" xlink:href="#TimesNewRomanPSMT-32"/>
      </g>
     </g>
    </g>
    <g id="ytick_8">
     <g id="line2d_21">
      <path clip-path="url(#pc538891a2a)" d="M 21.583438 9.283125 
L 116.487378 9.283125 
" style="fill:none;opacity:0.1;stroke:#b0b0b0;stroke-linecap:square;stroke-width:0.1;"/>
     </g>
     <g id="line2d_22">
      <g>
       <use style="stroke:#000000;stroke-width:0.3;" x="21.583438" xlink:href="#m65f31d4c94" y="9.283125"/>
      </g>
     </g>
     <g id="text_11">
      <!-- 0.4 -->
      <g transform="translate(10.583438 11.36625)scale(0.06 -0.06)">
       <use xlink:href="#TimesNewRomanPSMT-30"/>
       <use x="50" xlink:href="#TimesNewRomanPSMT-2e"/>
       <use x="75" xlink:href="#TimesNewRomanPSMT-34"/>
      </g>
     </g>
    </g>
   </g>
   <g id="line2d_23">
    <path clip-path="url(#pc538891a2a)" d="M 25.897253 46.297914 
L 26.157544 46.700052 
L 26.971646 47.059115 
L 27.294702 47.530222 
L 27.711906 47.42284 
L 28.367248 48.739595 
L 28.830603 49.51636 
L 29.107508 50.718931 
L 29.556095 51.524073 
L 29.840385 52.815487 
L 30.303739 53.109916 
L 30.693253 54.3554 
L 30.994157 54.722217 
L 31.36521 55.841289 
L 31.721495 57.28783 
L 32.1147 58.285013 
L 32.509752 58.5093 
L 33.281394 58.113759 
L 33.632141 57.759618 
L 33.910893 57.779581 
L 34.30779 57.956845 
L 34.769299 58.41036 
L 35.040666 59.107531 
L 35.600015 59.560632 
L 36.499034 60.824246 
L 36.993772 61.198641 
L 37.255909 61.576351 
L 38.047858 62.341967 
L 38.39122 62.230879 
L 38.802886 62.51691 
L 39.194246 62.180382 
L 39.96035 58.559824 
L 40.335096 55.553973 
L 40.586156 52.370676 
L 41.354107 46.558325 
L 42.077753 43.187334 
L 42.539262 42.877816 
L 42.886316 43.293508 
L 43.611808 45.395672 
L 43.945941 46.191738 
L 44.257921 46.187698 
L 44.636358 45.606418 
L 45.476304 43.343566 
L 45.788284 42.114555 
L 46.164875 41.165274 
L 46.478701 40.815132 
L 47.399873 41.464991 
L 47.691547 41.948831 
L 48.234281 42.415994 
L 48.405962 42.739865 
L 48.703174 42.851508 
L 49.190527 42.725321 
L 50.15785 41.942572 
L 50.5769 41.919136 
L 50.938723 42.121105 
L 51.287623 42.465795 
L 52.040806 42.765296 
L 53.609936 42.523787 
L 54.283739 43.609782 
L 55.371054 45.147819 
L 55.769797 45.323422 
L 56.593129 44.872291 
L 56.816499 44.709356 
L 57.231857 44.910495 
L 57.715519 45.345638 
L 58.357939 46.510948 
L 58.677303 46.911884 
L 59.151734 47.034856 
L 59.445254 46.913993 
L 60.257509 46.07414 
L 60.556567 45.515051 
L 60.883315 45.153295 
L 61.348516 45.096894 
L 61.675264 45.26486 
L 62.072162 45.607646 
L 62.337991 46.07941 
L 62.797654 46.609416 
L 63.076405 47.103819 
L 63.517608 47.474036 
L 64.182181 47.643273 
L 65.038741 47.428851 
L 66.009756 46.440114 
L 67.233677 45.657676 
L 67.887174 45.633364 
L 68.673585 46.401481 
L 69.029869 46.978884 
L 69.029869 47.432225 
L 69.762745 47.868761 
L 70.106108 48.217151 
L 70.514082 48.321924 
L 71.267264 48.192017 
L 72.024139 47.884957 
L 72.649945 47.841284 
L 73.809255 48.102657 
L 74.566129 48.3843 
L 75.284237 48.629726 
L 76.031882 49.149297 
L 76.779526 50.15482 
L 78.974462 54.278276 
L 79.328901 54.407171 
L 79.736875 54.267616 
L 80.050701 53.869714 
L 80.918337 53.379241 
L 81.28016 53.458615 
L 81.636445 53.844013 
L 82.633304 55.85558 
L 83.080045 56.295485 
L 83.401255 56.321748 
L 84.219048 55.694546 
L 84.937156 55.232357 
L 85.315593 55.300957 
L 85.596191 55.607964 
L 87.056405 57.977837 
L 87.458841 58.24683 
L 87.946194 58.159682 
L 89.003972 56.884818 
L 89.30303 56.386474 
L 89.690697 56.185298 
L 90.019292 56.229406 
L 90.772474 56.843694 
L 91.533041 57.529221 
L 92.232688 57.993939 
L 93.439995 58.474325 
L 94.080569 58.567072 
L 94.479313 58.334909 
L 94.841136 57.710355 
L 95.311875 56.481103 
L 95.967218 54.007842 
L 96.321656 53.669384 
L 96.840392 54.339005 
L 97.135758 56.164597 
L 99.367615 77.20997 
L 99.978652 81.57843 
L 100.759525 85.326466 
L 101.337334 86.811687 
L 101.492401 88.143185 
L 102.216047 89.707716 
L 102.710785 89.309995 
L 103.007996 88.694073 
L 103.829482 85.02659 
L 104.108234 82.220744 
L 104.53836 79.032505 
L 104.813419 75.504026 
L 106.657608 59.256023 
L 107.503093 53.336265 
L 107.754153 50.438838 
L 108.187972 47.489919 
L 108.863621 41.730258 
L 109.679568 35.709386 
L 110.118925 33.611745 
L 110.454903 30.068358 
L 112.173562 18.925674 
L 112.173562 18.925674 
" style="fill:none;stroke:#1f77b4;stroke-linecap:square;"/>
   </g>
   <g id="line2d_24">
    <path clip-path="url(#pc538891a2a)" d="M 25.897253 23.72867 
L 26.617207 23.587015 
L 27.294702 23.069173 
L 28.367248 22.205694 
L 29.107508 22.053633 
L 29.556095 22.104881 
L 29.840385 22.298886 
L 30.693253 22.466327 
L 30.994157 21.61259 
L 31.721495 20.869472 
L 32.1147 20.624045 
L 32.509752 20.142478 
L 32.806963 19.554578 
L 33.910893 18.509989 
L 34.30779 18.472719 
L 34.769299 18.815143 
L 35.040666 19.279495 
L 35.600015 19.944656 
L 36.164902 21.498785 
L 36.499034 22.223443 
L 36.993772 22.762389 
L 37.255909 23.234848 
L 38.047858 23.891245 
L 38.39122 24.058634 
L 38.802886 25.489487 
L 39.194246 30.167204 
L 39.460075 38.868431 
L 39.96035 50.700961 
L 40.335096 64.740835 
L 40.586156 79.126169 
L 41.354107 103.884946 
L 41.878381 112.127098 
L 42.077753 117.086646 
L 42.539262 119.049616 
L 42.886316 118.302703 
L 43.611808 111.336067 
L 44.636358 98.317279 
L 45.051716 95.247605 
L 45.788284 91.660086 
L 46.478701 90.073456 
L 46.846062 89.452837 
L 47.399873 88.901482 
L 47.691547 88.327474 
L 48.234281 87.581513 
L 48.703174 85.3793 
L 49.190527 83.941113 
L 49.784951 80.638068 
L 50.5769 77.40893 
L 51.287623 75.023331 
L 52.784758 72.237358 
L 53.609936 71.109606 
L 53.857305 70.338265 
L 54.713865 68.66948 
L 56.135312 64.544323 
L 56.593129 63.759321 
L 56.816499 63.042844 
L 57.231857 62.383471 
L 58.677303 61.158138 
L 59.151734 60.886583 
L 59.836613 60.078339 
L 60.257509 59.448588 
L 60.883315 58.142422 
L 62.337991 56.099377 
L 63.076405 55.601316 
L 64.016037 55.179481 
L 64.182181 54.948049 
L 64.645535 54.647444 
L 65.797461 53.335644 
L 66.009756 52.789798 
L 67.233677 51.493615 
L 68.272995 50.712197 
L 69.029869 50.512526 
L 69.029869 50.354653 
L 70.953438 50.261771 
L 72.317658 49.366733 
L 73.115146 48.546896 
L 73.417895 47.96818 
L 74.17477 47.189483 
L 75.042407 46.864472 
L 75.284237 46.854068 
L 76.031882 47.278501 
L 76.421395 47.623636 
L 76.779526 47.775106 
L 77.109966 48.039985 
L 77.835458 48.061703 
L 80.050701 46.658962 
L 80.56759 46.559952 
L 80.918337 46.362373 
L 81.28016 46.345698 
L 82.633304 45.536957 
L 84.521798 43.906042 
L 85.965398 43.950767 
L 86.353065 44.150718 
L 87.056405 44.270643 
L 87.458841 44.098824 
L 87.946194 43.757565 
L 89.003972 42.264006 
L 89.30303 41.67475 
L 90.019292 40.903869 
L 90.43465 40.821262 
L 91.143527 41.058275 
L 92.620355 41.932591 
L 93.013561 41.922449 
L 93.439995 41.799073 
L 95.311875 39.870977 
L 95.967218 38.544685 
L 96.321656 38.149864 
L 96.840392 37.973186 
L 97.135758 38.156613 
L 97.807715 39.835892 
L 98.263686 41.159488 
L 98.525823 42.308218 
L 98.954103 43.243832 
L 99.367615 43.685119 
L 99.63529 43.70959 
L 99.978652 43.171238 
L 100.419855 42.119947 
L 100.759525 40.738547 
L 101.337334 39.066674 
L 101.492401 37.616952 
L 102.216047 36.157042 
L 102.710785 36.613803 
L 103.007996 37.273374 
L 103.325515 38.48647 
L 103.829482 39.655403 
L 104.108234 40.885507 
L 104.53836 41.683933 
L 104.813419 41.950139 
L 105.204779 41.658044 
L 105.58137 40.599041 
L 106.329014 37.124125 
L 106.657608 34.789834 
L 107.503093 30.292546 
L 107.754153 28.73234 
L 108.187972 27.824036 
L 108.475953 27.55646 
L 108.863621 28.137436 
L 109.323283 29.677993 
L 109.679568 31.46506 
L 110.118925 32.971647 
L 110.454903 35.667027 
L 112.173562 43.220426 
L 112.173562 43.220426 
" style="fill:none;stroke:#ff7f0e;stroke-linecap:square;"/>
   </g>
   <g id="line2d_25">
    <path clip-path="url(#pc538891a2a)" d="M 40.458649 147.33567 
L 40.586156 147.141137 
L 40.951671 146.867187 
L 41.354107 146.80287 
L 43.198296 147.01938 
L 46.639632 147.33567 
M 63.442658 147.33567 
L 65.797461 147.050029 
L 66.84601 146.900693 
L 68.272995 146.756962 
L 77.835458 145.736829 
L 83.768616 145.417846 
L 89.003972 145.453377 
L 90.019292 145.539533 
L 94.841136 145.639884 
L 98.954103 145.810812 
L 100.419855 145.792945 
L 102.216047 146.457888 
L 103.007996 146.355192 
L 104.108234 145.828016 
L 104.813419 145.683524 
L 105.58137 145.72818 
L 107.754153 146.117267 
L 110.454903 146.258117 
L 112.173562 146.457518 
L 112.173562 146.457518 
" style="fill:none;stroke:#2ca02c;stroke-linecap:square;"/>
   </g>
   <g id="patch_3">
    <path d="M 21.583438 130.185982 
L 21.583438 9.283125 
" style="fill:none;stroke:#000000;stroke-linecap:square;stroke-linejoin:miter;stroke-width:0.3;"/>
   </g>
   <g id="patch_4">
    <path d="M 116.487378 130.185982 
L 116.487378 9.283125 
" style="fill:none;stroke:#000000;stroke-linecap:square;stroke-linejoin:miter;stroke-width:0.3;"/>
   </g>
   <g id="patch_5">
    <path d="M 21.583437 130.185982 
L 116.487378 130.185982 
" style="fill:none;stroke:#000000;stroke-linecap:square;stroke-linejoin:miter;stroke-width:0.3;"/>
   </g>
   <g id="patch_6">
    <path d="M 21.583437 9.283125 
L 116.487378 9.283125 
" style="fill:none;stroke:#000000;stroke-linecap:square;stroke-linejoin:miter;stroke-width:0.3;"/>
   </g>
  </g>
 </g>
 <defs>
  <clipPath id="pc538891a2a">
   <rect height="120.902857" width="94.90394" x="21.583438" y="9.283125"/>
  </clipPath>
 </defs>
</svg>
