<?xml version="1.0" encoding="utf-8" standalone="no"?>
<!DOCTYPE svg PUBLIC "-//W3C//DTD SVG 1.1//EN"
  "http://www.w3.org/Graphics/SVG/1.1/DTD/svg11.dtd">
<!-- Created with matplotlib (http://matplotlib.org/) -->
<svg height="144pt" version="1.1" viewBox="0 0 188 144" width="188pt" xmlns="http://www.w3.org/2000/svg" xmlns:xlink="http://www.w3.org/1999/xlink">
 <defs>
  <style type="text/css">
*{stroke-linecap:butt;stroke-linejoin:round;}
  </style>
 </defs>
 <g id="figure_1">
  <g id="patch_1">
   <path d="M 0 144.264593 
L 188.119874 144.264593 
L 188.119874 0 
L 0 0 
z
" style="fill:#ffffff;"/>
  </g>
  <g id="axes_1">
   <g id="patch_2">
    <path d="M 19.7 128.114906 
L 180.919874 128.114906 
L 180.919874 7.2 
L 19.7 7.2 
z
" style="fill:#ffffff;"/>
   </g>
   <g id="matplotlib.axis_1">
    <g id="xtick_1">
     <g id="line2d_1">
      <path clip-path="url(#p1c0413f1e4)" d="M 19.7 128.114906 
L 19.7 7.2 
" style="fill:none;opacity:0.1;stroke:#b0b0b0;stroke-linecap:square;stroke-width:0.1;"/>
     </g>
     <g id="line2d_2">
      <defs>
       <path d="M 0 0 
L 0 -2 
" id="m0e70016c24" style="stroke:#000000;stroke-width:0.3;"/>
      </defs>
      <g>
       <use style="stroke:#000000;stroke-width:0.3;" x="19.7" xlink:href="#m0e70016c24" y="128.114906"/>
      </g>
     </g>
     <g id="text_1">
      <!-- 0 -->
      <defs>
       <path d="M 3.609375 32.71875 
Q 3.609375 44.046875 7.03125 52.21875 
Q 10.453125 60.40625 16.109375 64.40625 
Q 20.515625 67.578125 25.203125 67.578125 
Q 32.8125 67.578125 38.875 59.8125 
Q 46.4375 50.203125 46.4375 33.734375 
Q 46.4375 22.21875 43.109375 14.15625 
Q 39.796875 6.109375 34.640625 2.46875 
Q 29.5 -1.171875 24.703125 -1.171875 
Q 15.234375 -1.171875 8.9375 10.015625 
Q 3.609375 19.4375 3.609375 32.71875 
z
M 13.1875 31.5 
Q 13.1875 17.828125 16.546875 9.1875 
Q 19.34375 1.90625 24.859375 1.90625 
Q 27.484375 1.90625 30.3125 4.265625 
Q 33.15625 6.640625 34.625 12.203125 
Q 36.859375 20.609375 36.859375 35.890625 
Q 36.859375 47.21875 34.515625 54.78125 
Q 32.765625 60.40625 29.984375 62.75 
Q 27.984375 64.359375 25.140625 64.359375 
Q 21.828125 64.359375 19.234375 61.375 
Q 15.71875 57.328125 14.453125 48.625 
Q 13.1875 39.9375 13.1875 31.5 
z
" id="TimesNewRomanPSMT-30"/>
      </defs>
      <g transform="translate(18.2 135.781156)scale(0.06 -0.06)">
       <use xlink:href="#TimesNewRomanPSMT-30"/>
      </g>
     </g>
    </g>
    <g id="xtick_2">
     <g id="line2d_3">
      <path clip-path="url(#p1c0413f1e4)" d="M 57.485908 128.114906 
L 57.485908 7.2 
" style="fill:none;opacity:0.1;stroke:#b0b0b0;stroke-linecap:square;stroke-width:0.1;"/>
     </g>
     <g id="line2d_4">
      <g>
       <use style="stroke:#000000;stroke-width:0.3;" x="57.485908" xlink:href="#m0e70016c24" y="128.114906"/>
      </g>
     </g>
     <g id="text_2">
      <!-- 150 -->
      <defs>
       <path d="M 11.71875 59.71875 
L 27.828125 67.578125 
L 29.4375 67.578125 
L 29.4375 11.671875 
Q 29.4375 6.109375 29.90625 4.734375 
Q 30.375 3.375 31.828125 2.640625 
Q 33.296875 1.90625 37.796875 1.8125 
L 37.796875 0 
L 12.890625 0 
L 12.890625 1.8125 
Q 17.578125 1.90625 18.9375 2.609375 
Q 20.3125 3.328125 20.84375 4.515625 
Q 21.390625 5.71875 21.390625 11.671875 
L 21.390625 47.40625 
Q 21.390625 54.640625 20.90625 56.6875 
Q 20.5625 58.25 19.65625 58.984375 
Q 18.75 59.71875 17.484375 59.71875 
Q 15.671875 59.71875 12.453125 58.203125 
z
" id="TimesNewRomanPSMT-31"/>
       <path d="M 43.40625 66.21875 
L 39.59375 57.90625 
L 19.671875 57.90625 
L 15.328125 49.03125 
Q 28.265625 47.125 35.84375 39.40625 
Q 42.328125 32.765625 42.328125 23.78125 
Q 42.328125 18.5625 40.203125 14.109375 
Q 38.09375 9.671875 34.859375 6.546875 
Q 31.640625 3.421875 27.6875 1.515625 
Q 22.078125 -1.171875 16.15625 -1.171875 
Q 10.203125 -1.171875 7.484375 0.84375 
Q 4.78125 2.875 4.78125 5.328125 
Q 4.78125 6.6875 5.90625 7.734375 
Q 7.03125 8.796875 8.734375 8.796875 
Q 10.015625 8.796875 10.96875 8.40625 
Q 11.921875 8.015625 14.203125 6.390625 
Q 17.875 3.859375 21.625 3.859375 
Q 27.34375 3.859375 31.65625 8.171875 
Q 35.984375 12.5 35.984375 18.703125 
Q 35.984375 24.703125 32.125 29.90625 
Q 28.265625 35.109375 21.484375 37.9375 
Q 16.15625 40.140625 6.984375 40.484375 
L 19.671875 66.21875 
z
" id="TimesNewRomanPSMT-35"/>
      </defs>
      <g transform="translate(52.985908 135.781156)scale(0.06 -0.06)">
       <use xlink:href="#TimesNewRomanPSMT-31"/>
       <use x="50" xlink:href="#TimesNewRomanPSMT-35"/>
       <use x="100" xlink:href="#TimesNewRomanPSMT-30"/>
      </g>
     </g>
    </g>
    <g id="xtick_3">
     <g id="line2d_5">
      <path clip-path="url(#p1c0413f1e4)" d="M 95.271816 128.114906 
L 95.271816 7.2 
" style="fill:none;opacity:0.1;stroke:#b0b0b0;stroke-linecap:square;stroke-width:0.1;"/>
     </g>
     <g id="line2d_6">
      <g>
       <use style="stroke:#000000;stroke-width:0.3;" x="95.271816" xlink:href="#m0e70016c24" y="128.114906"/>
      </g>
     </g>
     <g id="text_3">
      <!-- 300 -->
      <defs>
       <path d="M 5.078125 53.609375 
Q 7.90625 60.296875 12.21875 63.9375 
Q 16.546875 67.578125 23 67.578125 
Q 30.953125 67.578125 35.203125 62.40625 
Q 38.421875 58.546875 38.421875 54.15625 
Q 38.421875 46.921875 29.34375 39.203125 
Q 35.453125 36.8125 38.578125 32.375 
Q 41.703125 27.9375 41.703125 21.921875 
Q 41.703125 13.328125 36.234375 7.03125 
Q 29.109375 -1.171875 15.578125 -1.171875 
Q 8.890625 -1.171875 6.46875 0.484375 
Q 4.046875 2.15625 4.046875 4.046875 
Q 4.046875 5.46875 5.1875 6.546875 
Q 6.34375 7.625 7.953125 7.625 
Q 9.1875 7.625 10.453125 7.234375 
Q 11.28125 6.984375 14.203125 5.4375 
Q 17.140625 3.90625 18.265625 3.609375 
Q 20.0625 3.078125 22.125 3.078125 
Q 27.09375 3.078125 30.78125 6.9375 
Q 34.46875 10.796875 34.46875 16.0625 
Q 34.46875 19.921875 32.765625 23.578125 
Q 31.5 26.3125 29.984375 27.734375 
Q 27.875 29.6875 24.21875 31.265625 
Q 20.5625 32.859375 16.75 32.859375 
L 15.1875 32.859375 
L 15.1875 34.328125 
Q 19.046875 34.8125 22.921875 37.109375 
Q 26.8125 39.40625 28.5625 42.625 
Q 30.328125 45.84375 30.328125 49.703125 
Q 30.328125 54.734375 27.171875 57.828125 
Q 24.03125 60.9375 19.34375 60.9375 
Q 11.765625 60.9375 6.6875 52.828125 
z
" id="TimesNewRomanPSMT-33"/>
      </defs>
      <g transform="translate(90.771816 135.781156)scale(0.06 -0.06)">
       <use xlink:href="#TimesNewRomanPSMT-33"/>
       <use x="50" xlink:href="#TimesNewRomanPSMT-30"/>
       <use x="100" xlink:href="#TimesNewRomanPSMT-30"/>
      </g>
     </g>
    </g>
    <g id="xtick_4">
     <g id="line2d_7">
      <path clip-path="url(#p1c0413f1e4)" d="M 133.057724 128.114906 
L 133.057724 7.2 
" style="fill:none;opacity:0.1;stroke:#b0b0b0;stroke-linecap:square;stroke-width:0.1;"/>
     </g>
     <g id="line2d_8">
      <g>
       <use style="stroke:#000000;stroke-width:0.3;" x="133.057724" xlink:href="#m0e70016c24" y="128.114906"/>
      </g>
     </g>
     <g id="text_4">
      <!-- 450 -->
      <defs>
       <path d="M 46.53125 24.421875 
L 46.53125 17.484375 
L 37.640625 17.484375 
L 37.640625 0 
L 29.59375 0 
L 29.59375 17.484375 
L 1.5625 17.484375 
L 1.5625 23.734375 
L 32.28125 67.578125 
L 37.640625 67.578125 
L 37.640625 24.421875 
z
M 29.59375 24.421875 
L 29.59375 57.28125 
L 6.34375 24.421875 
z
" id="TimesNewRomanPSMT-34"/>
      </defs>
      <g transform="translate(128.557724 135.781156)scale(0.06 -0.06)">
       <use xlink:href="#TimesNewRomanPSMT-34"/>
       <use x="50" xlink:href="#TimesNewRomanPSMT-35"/>
       <use x="100" xlink:href="#TimesNewRomanPSMT-30"/>
      </g>
     </g>
    </g>
    <g id="xtick_5">
     <g id="line2d_9">
      <path clip-path="url(#p1c0413f1e4)" d="M 170.843632 128.114906 
L 170.843632 7.2 
" style="fill:none;opacity:0.1;stroke:#b0b0b0;stroke-linecap:square;stroke-width:0.1;"/>
     </g>
     <g id="line2d_10">
      <g>
       <use style="stroke:#000000;stroke-width:0.3;" x="170.843632" xlink:href="#m0e70016c24" y="128.114906"/>
      </g>
     </g>
     <g id="text_5">
      <!-- 600 -->
      <defs>
       <path d="M 44.828125 67.578125 
L 44.828125 65.765625 
Q 38.375 65.140625 34.296875 63.203125 
Q 30.21875 61.28125 26.234375 57.328125 
Q 22.265625 53.375 19.65625 48.515625 
Q 17.046875 43.65625 15.28125 36.96875 
Q 22.3125 41.796875 29.390625 41.796875 
Q 36.1875 41.796875 41.15625 36.328125 
Q 46.140625 30.859375 46.140625 22.265625 
Q 46.140625 13.96875 41.109375 7.125 
Q 35.0625 -1.171875 25.09375 -1.171875 
Q 18.3125 -1.171875 13.578125 3.328125 
Q 4.296875 12.0625 4.296875 25.984375 
Q 4.296875 34.859375 7.859375 42.859375 
Q 11.421875 50.875 18.03125 57.078125 
Q 24.65625 63.28125 30.703125 65.421875 
Q 36.765625 67.578125 42 67.578125 
z
M 14.453125 33.40625 
Q 13.578125 26.8125 13.578125 22.75 
Q 13.578125 18.0625 15.3125 12.5625 
Q 17.046875 7.078125 20.453125 3.859375 
Q 22.953125 1.5625 26.515625 1.5625 
Q 30.765625 1.5625 34.109375 5.5625 
Q 37.453125 9.578125 37.453125 17 
Q 37.453125 25.34375 34.125 31.4375 
Q 30.8125 37.546875 24.703125 37.546875 
Q 22.859375 37.546875 20.734375 36.765625 
Q 18.609375 35.984375 14.453125 33.40625 
z
" id="TimesNewRomanPSMT-36"/>
      </defs>
      <g transform="translate(166.343632 135.781156)scale(0.06 -0.06)">
       <use xlink:href="#TimesNewRomanPSMT-36"/>
       <use x="50" xlink:href="#TimesNewRomanPSMT-30"/>
       <use x="100" xlink:href="#TimesNewRomanPSMT-30"/>
      </g>
     </g>
    </g>
   </g>
   <g id="matplotlib.axis_2">
    <g id="ytick_1">
     <g id="line2d_11">
      <path clip-path="url(#p1c0413f1e4)" d="M 19.7 128.114906 
L 180.919874 128.114906 
" style="fill:none;opacity:0.1;stroke:#b0b0b0;stroke-linecap:square;stroke-width:0.1;"/>
     </g>
     <g id="line2d_12">
      <defs>
       <path d="M 0 0 
L 2 0 
" id="m27e869ad60" style="stroke:#000000;stroke-width:0.3;"/>
      </defs>
      <g>
       <use style="stroke:#000000;stroke-width:0.3;" x="19.7" xlink:href="#m27e869ad60" y="128.114906"/>
      </g>
     </g>
     <g id="text_6">
      <!-- 0 -->
      <g transform="translate(13.2 130.198031)scale(0.06 -0.06)">
       <use xlink:href="#TimesNewRomanPSMT-30"/>
      </g>
     </g>
    </g>
    <g id="ytick_2">
     <g id="line2d_13">
      <path clip-path="url(#p1c0413f1e4)" d="M 19.7 102.9243 
L 180.919874 102.9243 
" style="fill:none;opacity:0.1;stroke:#b0b0b0;stroke-linecap:square;stroke-width:0.1;"/>
     </g>
     <g id="line2d_14">
      <g>
       <use style="stroke:#000000;stroke-width:0.3;" x="19.7" xlink:href="#m27e869ad60" y="102.9243"/>
      </g>
     </g>
     <g id="text_7">
      <!-- 100 -->
      <g transform="translate(7.2 105.007425)scale(0.06 -0.06)">
       <use xlink:href="#TimesNewRomanPSMT-31"/>
       <use x="50" xlink:href="#TimesNewRomanPSMT-30"/>
       <use x="100" xlink:href="#TimesNewRomanPSMT-30"/>
      </g>
     </g>
    </g>
    <g id="ytick_3">
     <g id="line2d_15">
      <path clip-path="url(#p1c0413f1e4)" d="M 19.7 77.733695 
L 180.919874 77.733695 
" style="fill:none;opacity:0.1;stroke:#b0b0b0;stroke-linecap:square;stroke-width:0.1;"/>
     </g>
     <g id="line2d_16">
      <g>
       <use style="stroke:#000000;stroke-width:0.3;" x="19.7" xlink:href="#m27e869ad60" y="77.733695"/>
      </g>
     </g>
     <g id="text_8">
      <!-- 200 -->
      <defs>
       <path d="M 45.84375 12.75 
L 41.21875 0 
L 2.15625 0 
L 2.15625 1.8125 
Q 19.390625 17.53125 26.421875 27.484375 
Q 33.453125 37.453125 33.453125 45.703125 
Q 33.453125 52 29.59375 56.046875 
Q 25.734375 60.109375 20.359375 60.109375 
Q 15.484375 60.109375 11.59375 57.25 
Q 7.71875 54.390625 5.859375 48.875 
L 4.046875 48.875 
Q 5.28125 57.90625 10.328125 62.734375 
Q 15.375 67.578125 22.953125 67.578125 
Q 31 67.578125 36.390625 62.40625 
Q 41.796875 57.234375 41.796875 50.203125 
Q 41.796875 45.171875 39.453125 40.140625 
Q 35.84375 32.234375 27.734375 23.390625 
Q 15.578125 10.109375 12.546875 7.375 
L 29.828125 7.375 
Q 35.109375 7.375 37.234375 7.765625 
Q 39.359375 8.15625 41.0625 9.34375 
Q 42.78125 10.546875 44.046875 12.75 
z
" id="TimesNewRomanPSMT-32"/>
      </defs>
      <g transform="translate(7.2 79.81682)scale(0.06 -0.06)">
       <use xlink:href="#TimesNewRomanPSMT-32"/>
       <use x="50" xlink:href="#TimesNewRomanPSMT-30"/>
       <use x="100" xlink:href="#TimesNewRomanPSMT-30"/>
      </g>
     </g>
    </g>
    <g id="ytick_4">
     <g id="line2d_17">
      <path clip-path="url(#p1c0413f1e4)" d="M 19.7 52.54309 
L 180.919874 52.54309 
" style="fill:none;opacity:0.1;stroke:#b0b0b0;stroke-linecap:square;stroke-width:0.1;"/>
     </g>
     <g id="line2d_18">
      <g>
       <use style="stroke:#000000;stroke-width:0.3;" x="19.7" xlink:href="#m27e869ad60" y="52.54309"/>
      </g>
     </g>
     <g id="text_9">
      <!-- 300 -->
      <g transform="translate(7.2 54.626215)scale(0.06 -0.06)">
       <use xlink:href="#TimesNewRomanPSMT-33"/>
       <use x="50" xlink:href="#TimesNewRomanPSMT-30"/>
       <use x="100" xlink:href="#TimesNewRomanPSMT-30"/>
      </g>
     </g>
    </g>
    <g id="ytick_5">
     <g id="line2d_19">
      <path clip-path="url(#p1c0413f1e4)" d="M 19.7 27.352484 
L 180.919874 27.352484 
" style="fill:none;opacity:0.1;stroke:#b0b0b0;stroke-linecap:square;stroke-width:0.1;"/>
     </g>
     <g id="line2d_20">
      <g>
       <use style="stroke:#000000;stroke-width:0.3;" x="19.7" xlink:href="#m27e869ad60" y="27.352484"/>
      </g>
     </g>
     <g id="text_10">
      <!-- 400 -->
      <g transform="translate(7.2 29.435609)scale(0.06 -0.06)">
       <use xlink:href="#TimesNewRomanPSMT-34"/>
       <use x="50" xlink:href="#TimesNewRomanPSMT-30"/>
       <use x="100" xlink:href="#TimesNewRomanPSMT-30"/>
      </g>
     </g>
    </g>
   </g>
   <g id="line2d_21">
    <path clip-path="url(#p1c0413f1e4)" d="M 79.414582 82.746626 
L 79.163935 82.76174 
L 79.163935 82.76174 
L 79.163935 82.76174 
L 79.178042 82.750908 
L 79.494184 82.736297 
L 79.4302 82.460208 
L 79.712587 82.46172 
L 79.441536 82.742343 
L 79.443299 82.739068 
L 79.692686 82.763251 
L 79.435994 82.466002 
L 79.384857 82.761992 
L 79.412567 82.744106 
L 79.683114 82.756954 
L 79.444559 82.757206 
L 79.444559 82.757206 
L 79.39846 82.767534 
L 79.408032 82.759221 
L 79.408032 82.759221 
L 79.460429 82.737305 
L 79.449597 82.73403 
L 79.402742 82.488674 
L 79.409796 82.49875 
L 79.688908 82.472552 
L 79.42491 82.765015 
L 79.49368 82.734534 
L 79.115318 82.4922 
L 79.40501 82.744358 
L 79.15134 82.754183 
L 79.401483 82.764511 
L 79.401483 82.764511 
L 79.424658 82.754938 
L 79.720396 82.47759 
L 78.947548 82.479605 
L 79.41433 82.77232 
L 79.487131 82.491948 
L 79.420628 82.77232 
L 79.420628 82.77232 
L 79.454383 82.780633 
L 79.714854 82.779625 
L 79.53726 82.770305 
L 79.53726 82.770305 
L 79.405513 82.774839 
L 79.413574 82.778114 
L 79.408536 82.513109 
L 79.430956 82.775343 
L 79.714602 82.505048 
L 79.44204 82.758969 
L 79.747098 82.77232 
L 79.451612 82.508574 
L 79.385109 82.785671 
L 79.400727 82.522177 
L 79.123882 82.787686 
L 79.123882 82.787686 
L 79.123882 82.787686 
L 79.405765 82.52117 
L 79.38788 82.522933 
L 79.643313 82.519658 
L 79.158897 82.768541 
L 79.171996 82.769549 
L 79.412819 82.768541 
L 79.438765 82.515628 
L 79.421887 82.768038 
L 79.160661 83.028256 
L 79.272255 83.059997 
L 79.491665 82.480361 
L 79.453627 82.753427 
L 79.183332 82.768289 
L 79.429444 82.769801 
L 79.429444 82.769801 
L 79.494184 82.760228 
L 79.494184 82.760228 
L 79.494184 82.760228 
L 79.424406 82.770557 
L 79.459421 82.768289 
L 79.462444 82.50807 
L 79.449093 82.761236 
L 78.892885 82.780129 
L 79.384857 82.527215 
L 79.382086 82.528475 
L 79.166203 83.040096 
L 79.201973 83.037325 
L 79.478566 83.299559 
L 79.716617 82.525956 
L 79.905799 82.434514 
L 79.821158 82.978883 
L 79.135722 83.306613 
L 79.351354 82.770305 
L 79.302736 82.757457 
L 79.606282 83.284949 
L 79.561947 83.285453 
L 79.102722 83.53232 
L 79.102722 83.53232 
L 79.102722 83.53232 
L 79.616611 83.273613 
L 79.581092 83.273109 
L 79.290644 83.308376 
L 79.869272 83.801608 
L 79.400475 83.517458 
L 79.578825 83.187965 
L 79.521894 83.111889 
L 79.879852 82.220142 
L 79.366468 82.983921 
L 79.312056 82.703046 
L 79.879349 82.487666 
L 79.596458 81.649827 
L 79.581596 81.897198 
L 79.115569 81.457622 
L 79.617618 81.458126 
L 79.298705 81.095633 
L 79.366468 80.429342 
L 79.032944 80.072391 
L 79.366972 80.192298 
L 79.087104 80.154512 
L 79.345056 79.89656 
L 79.346819 79.107339 
L 79.355384 79.125728 
L 79.123882 78.943852 
L 79.37604 78.943852 
L 79.353369 78.880371 
L 79.331453 78.808074 
L 79.331453 78.808074 
L 79.331453 78.808074 
L 79.379567 78.921684 
L 79.360674 78.843593 
L 79.360674 78.843593 
L 79.301224 78.621664 
L 79.369491 78.338521 
L 79.109524 78.109035 
L 79.385109 78.166973 
L 79.368735 78.090898 
L 79.365208 77.850328 
L 79.113806 77.830427 
L 79.14202 76.893085 
L 79.116829 76.238633 
L 78.883312 76.648232 
L 78.883312 76.648232 
L 78.883312 76.648232 
L 79.141012 76.028543 
L 79.142775 76.140641 
L 78.879533 75.809385 
L 79.143279 75.889743 
L 78.880541 75.835583 
L 78.880541 75.835583 
L 78.87248 75.766309 
L 78.87248 75.766309 
L 78.87248 75.766309 
L 78.888602 75.908132 
L 78.881801 75.835079 
L 78.881801 75.835079 
L 78.888854 74.948874 
L 79.141012 75.14662 
L 79.1526 75.049636 
L 78.899434 75.128231 
L 78.904724 74.856676 
L 79.161164 74.871035 
L 79.175775 74.769768 
L 79.175775 74.769768 
L 79.175775 74.769768 
L 79.150584 74.888416 
L 79.164439 74.792188 
L 78.92135 74.511565 
L 79.15663 74.381581 
L 78.897419 74.38939 
L 78.902709 74.310292 
L 78.91077 74.044279 
L 79.160409 74.125897 
L 79.185347 74.027905 
L 78.908755 73.813281 
L 78.916312 73.738717 
L 79.166203 73.871975 
L 79.20424 73.450536 
L 78.902205 73.373705 
L 78.912533 73.353301 
L 78.925632 72.911961 
L 79.153607 73.393858 
L 79.179302 73.316774 
L 78.920342 73.039426 
L 78.915556 72.311921 
L 78.654329 72.382959 
L 78.674734 72.329806 
L 78.397637 72.139617 
L 78.390836 72.397821 
L 78.413759 72.313684 
L 78.1548 72.372379 
L 78.172181 72.297814 
L 78.229364 71.866299 
L 77.89584 72.127526 
L 77.948741 72.047672 
L 77.970656 71.761003 
L 77.658041 71.86378 
L 77.690789 71.83078 
L 77.712957 71.245855 
L 77.945466 70.753378 
L 77.983504 71.327724 
L 78.197876 71.128718 
L 78.081495 70.987399 
L 78.168403 70.859179 
L 78.078724 70.952636 
L 78.750809 70.729447 
L 78.092327 70.933239 
L 78.092327 70.933239 
L 77.213679 71.212099 
L 77.792811 71.380372 
L 77.735628 71.305053 
L 78.066129 71.101009 
L 77.978969 71.040803 
L 77.869642 70.966239 
L 78.057816 70.866484 
L 78.008946 70.242765 
L 78.353806 70.361412 
L 78.31073 70.286093 
L 78.408973 69.737441 
L 78.401416 70.116308 
L 78.184021 69.620557 
L 78.364134 69.851555 
L 78.348767 69.740212 
L 78.457843 69.801929 
L 80.62096 68.055464 
L 80.872589 70.052878 
L 79.929982 69.635419 
L 78.32534 69.527352 
L 80.426992 69.862638 
L 81.462074 69.980782 
L 81.462074 69.980782 
L 81.462074 69.980782 
L 78.81303 69.611488 
L 77.839413 70.135453 
L 77.592545 70.386351 
L 77.592545 70.386351 
L 77.592545 70.386351 
L 78.257577 69.821326 
L 79.004479 65.813249 
L 78.367912 70.508526 
L 78.416278 69.427093 
L 77.909947 69.849791 
L 77.485737 69.951309 
L 78.114999 70.032675 
L 78.098877 69.866417 
L 78.370431 69.597633 
L 78.328867 69.121279 
L 78.405194 69.361849 
L 78.483537 69.078707 
L 78.483537 69.078707 
L 78.483537 69.078707 
L 78.46943 69.477726 
L 78.972739 69.638946 
L 78.215761 69.763136 
L 78.355821 69.380994 
L 78.387309 69.423818 
L 78.398393 69.936699 
L 78.361867 69.830395 
L 78.199891 70.729447 
L 77.934382 71.3708 
L 77.569622 74.3312 
L 78.103915 74.918393 
L 78.118273 75.4348 
L 78.669948 79.73257 
L 78.743 77.978044 
L 79.156126 79.052171 
L 80.012859 77.709008 
L 80.567808 77.202929 
L 80.726509 77.24802 
L 80.975392 77.56517 
L 81.376174 77.467934 
L 82.097381 77.043976 
L 82.650063 76.979992 
L 84.173843 76.651003 
L 86.221084 80.151741 
L 88.048158 82.127944 
L 89.143698 80.403143 
L 90.422625 81.2498 
L 90.324129 78.431979 
L 92.547956 77.817328 
L 85.692837 77.67626 
L 89.293582 77.749817 
L 89.121026 77.545521 
L 92.657535 77.044732 
L 92.10309 77.265654 
L 92.930349 77.217288 
L 91.19648 78.318117 
L 89.96214 79.33355 
L 96.750001 80.631118 
L 96.572155 80.6815 
L 96.596086 80.035613 
L 97.536703 78.501505 
L 97.14499 78.429963 
L 98.069485 77.425614 
L 98.559694 77.420324 
L 98.361948 77.3775 
L 99.414915 77.710268 
L 99.008842 77.648803 
L 99.861041 77.44224 
L 100.122267 77.182273 
L 99.883208 77.114258 
L 100.913756 78.193927 
L 101.134678 78.949646 
L 100.932397 78.907577 
L 101.608765 79.965331 
L 101.452331 79.949461 
L 101.452331 79.949461 
L 101.452331 79.949461 
L 102.072524 79.973896 
L 102.393704 79.2212 
L 102.256163 79.198025 
L 102.60732 78.443062 
L 103.176628 78.195187 
L 103.024225 78.148584 
L 102.814639 78.083341 
L 102.814639 78.083341 
L 102.814639 78.083341 
L 103.442641 78.191912 
L 103.224238 78.120119 
L 103.968621 78.448604 
L 104.11523 78.158661 
L 104.466135 78.443566 
L 104.294335 78.382101 
L 104.095833 78.312071 
L 104.887574 80.459822 
L 104.568409 80.410953 
L 105.188602 80.227817 
L 105.411287 79.200292 
L 105.251578 79.149407 
L 105.703246 78.942088 
L 105.517843 78.871555 
L 105.98664 79.200796 
L 105.657399 79.080133 
L 105.155602 78.893219 
L 106.430499 79.684204 
L 106.317645 79.645914 
L 106.724473 80.462593 
L 106.685931 80.968421 
L 106.497506 80.933658 
L 107.004089 80.738179 
L 106.537811 80.631622 
L 107.166064 79.940644 
L 107.22627 79.688234 
L 107.121225 79.635586 
L 107.479687 79.679165 
L 107.26456 79.57135 
L 107.178156 79.526762 
L 107.178156 79.526762 
L 107.178156 79.526762 
L 107.739402 79.937369 
L 107.625541 79.882454 
L 107.932111 81.201938 
L 107.788776 81.17448 
L 107.531076 81.126114 
L 107.983247 80.978245 
L 107.980225 80.455792 
L 107.697838 80.320518 
L 108.270924 80.45428 
L 108.102651 80.360068 
L 108.311481 80.20842 
L 108.244726 80.420777 
L 107.993576 80.266862 
L 108.528876 80.958344 
L 108.388816 80.917032 
L 108.113987 80.836422 
L 108.506456 81.76923 
L 108.469426 81.669475 
L 108.497388 81.277509 
L 108.881544 81.108732 
L 119.079961 63.749634 
L 109.780597 79.722241 
L 109.780597 79.722241 
L 108.555074 81.488607 
L 105.500713 84.566143 
L 108.808492 81.070695 
L 115.526826 75.438327 
L 108.827888 81.435706 
L 109.043016 81.713811 
L 108.996666 81.882084 
L 108.996666 81.882084 
L 108.996666 81.882084 
L 109.089619 81.650834 
L 109.090878 81.891908 
L 109.080802 82.203264 
L 109.103978 82.540314 
L 109.103978 82.540314 
L 109.103978 82.540314 
L 109.057627 82.170264 
L 108.903964 82.441063 
L 109.093146 82.3864 
L 109.132443 82.615382 
L 109.661949 82.623947 
L 109.21532 82.831518 
L 108.303168 84.292321 
L 109.511813 83.276888 
L 109.197435 83.422741 
L 109.119848 83.088714 
L 108.801438 83.157736 
L 108.801438 83.157736 
L 108.801438 83.157736 
L 109.437501 82.900036 
L 109.40425 83.305605 
L 109.48889 83.133049 
L 109.618622 82.903563 
L 109.439768 83.707647 
L 109.703766 83.914966 
L 109.58537 83.871134 
L 109.257136 84.342954 
L 108.719317 83.742914 
L 109.804276 84.549013 
L 109.578569 84.507197 
L 109.099191 84.374694 
L 109.646583 84.267634 
L 109.587889 84.265619 
L 108.918827 84.747263 
L 109.571011 84.32129 
L 109.571011 84.32129 
L 109.608797 84.151254 
L 109.649354 85.025368 
L 109.58663 85.555378 
L 109.623156 85.406753 
L 109.89723 85.344029 
L 109.981366 85.820887 
L 109.878085 85.538752 
L 109.612828 85.540264 
L 109.869772 85.858925 
L 109.522897 85.909558 
L 109.548844 85.899734 
L 109.628698 86.942877 
L 109.886398 86.861511 
L 109.62895 87.202088 
L 109.893451 87.098806 
L 109.629705 86.89703 
L 109.637263 86.935571 
L 109.62769 87.456261 
L 109.887657 86.614391 
L 109.888413 86.842366 
" style="fill:none;stroke:#2b83ba;stroke-linecap:square;stroke-width:2;"/>
   </g>
   <g id="patch_3">
    <path d="M 19.7 128.114906 
L 19.7 7.2 
" style="fill:none;stroke:#000000;stroke-linecap:square;stroke-linejoin:miter;stroke-width:0.3;"/>
   </g>
   <g id="patch_4">
    <path d="M 180.919874 128.114906 
L 180.919874 7.2 
" style="fill:none;stroke:#000000;stroke-linecap:square;stroke-linejoin:miter;stroke-width:0.3;"/>
   </g>
   <g id="patch_5">
    <path d="M 19.7 128.114906 
L 180.919874 128.114906 
" style="fill:none;stroke:#000000;stroke-linecap:square;stroke-linejoin:miter;stroke-width:0.3;"/>
   </g>
   <g id="patch_6">
    <path d="M 19.7 7.2 
L 180.919874 7.2 
" style="fill:none;stroke:#000000;stroke-linecap:square;stroke-linejoin:miter;stroke-width:0.3;"/>
   </g>
  </g>
 </g>
 <defs>
  <clipPath id="p1c0413f1e4">
   <rect height="120.914906" width="161.219874" x="19.7" y="7.2"/>
  </clipPath>
 </defs>
</svg>
