<?xml version="1.0" encoding="utf-8" standalone="no"?>
<!DOCTYPE svg PUBLIC "-//W3C//DTD SVG 1.1//EN"
  "http://www.w3.org/Graphics/SVG/1.1/DTD/svg11.dtd">
<!-- Created with matplotlib (http://matplotlib.org/) -->
<svg height="144pt" version="1.1" viewBox="0 0 87 144" width="87pt" xmlns="http://www.w3.org/2000/svg" xmlns:xlink="http://www.w3.org/1999/xlink">
 <defs>
  <style type="text/css">
*{stroke-linecap:butt;stroke-linejoin:round;}
  </style>
 </defs>
 <g id="figure_1">
  <g id="patch_1">
   <path d="M -0 144.264593 
L 87.357453 144.264593 
L 87.357453 0 
L -0 0 
z
" style="fill:#ffffff;"/>
  </g>
  <g id="axes_1">
   <g id="patch_2">
    <path d="M 19.7 128.114906 
L 80.157453 128.114906 
L 80.157453 7.2 
L 19.7 7.2 
z
" style="fill:#ffffff;"/>
   </g>
   <g id="matplotlib.axis_1">
    <g id="xtick_1">
     <g id="line2d_1">
      <path clip-path="url(#pdd27b07e0c)" d="M 19.7 128.114906 
L 19.7 7.2 
" style="fill:none;opacity:0.1;stroke:#b0b0b0;stroke-linecap:square;stroke-width:0.1;"/>
     </g>
     <g id="line2d_2">
      <defs>
       <path d="M 0 0 
L 0 -2 
" id="m4e4b992f41" style="stroke:#000000;stroke-width:0.3;"/>
      </defs>
      <g>
       <use style="stroke:#000000;stroke-width:0.3;" x="19.7" xlink:href="#m4e4b992f41" y="128.114906"/>
      </g>
     </g>
     <g id="text_1">
      <!-- 0 -->
      <defs>
       <path d="M 3.609375 32.71875 
Q 3.609375 44.046875 7.03125 52.21875 
Q 10.453125 60.40625 16.109375 64.40625 
Q 20.515625 67.578125 25.203125 67.578125 
Q 32.8125 67.578125 38.875 59.8125 
Q 46.4375 50.203125 46.4375 33.734375 
Q 46.4375 22.21875 43.109375 14.15625 
Q 39.796875 6.109375 34.640625 2.46875 
Q 29.5 -1.171875 24.703125 -1.171875 
Q 15.234375 -1.171875 8.9375 10.015625 
Q 3.609375 19.4375 3.609375 32.71875 
z
M 13.1875 31.5 
Q 13.1875 17.828125 16.546875 9.1875 
Q 19.34375 1.90625 24.859375 1.90625 
Q 27.484375 1.90625 30.3125 4.265625 
Q 33.15625 6.640625 34.625 12.203125 
Q 36.859375 20.609375 36.859375 35.890625 
Q 36.859375 47.21875 34.515625 54.78125 
Q 32.765625 60.40625 29.984375 62.75 
Q 27.984375 64.359375 25.140625 64.359375 
Q 21.828125 64.359375 19.234375 61.375 
Q 15.71875 57.328125 14.453125 48.625 
Q 13.1875 39.9375 13.1875 31.5 
z
" id="TimesNewRomanPSMT-30"/>
      </defs>
      <g transform="translate(18.2 135.781156)scale(0.06 -0.06)">
       <use xlink:href="#TimesNewRomanPSMT-30"/>
      </g>
     </g>
    </g>
    <g id="xtick_2">
     <g id="line2d_3">
      <path clip-path="url(#pdd27b07e0c)" d="M 33.13499 128.114906 
L 33.13499 7.2 
" style="fill:none;opacity:0.1;stroke:#b0b0b0;stroke-linecap:square;stroke-width:0.1;"/>
     </g>
     <g id="line2d_4">
      <g>
       <use style="stroke:#000000;stroke-width:0.3;" x="33.13499" xlink:href="#m4e4b992f41" y="128.114906"/>
      </g>
     </g>
     <g id="text_2">
      <!-- 80 -->
      <defs>
       <path d="M 19.1875 33.34375 
Q 11.328125 39.796875 9.046875 43.703125 
Q 6.78125 47.609375 6.78125 51.8125 
Q 6.78125 58.25 11.765625 62.90625 
Q 16.75 67.578125 25 67.578125 
Q 33.015625 67.578125 37.890625 63.234375 
Q 42.78125 58.890625 42.78125 53.328125 
Q 42.78125 49.609375 40.140625 45.75 
Q 37.5 41.890625 29.15625 36.671875 
Q 37.75 30.03125 40.53125 26.21875 
Q 44.234375 21.234375 44.234375 15.71875 
Q 44.234375 8.734375 38.90625 3.78125 
Q 33.59375 -1.171875 24.953125 -1.171875 
Q 15.53125 -1.171875 10.25 4.734375 
Q 6.0625 9.46875 6.0625 15.09375 
Q 6.0625 19.484375 9.015625 23.796875 
Q 11.96875 28.125 19.1875 33.34375 
z
M 26.859375 38.578125 
Q 32.71875 43.84375 34.28125 46.890625 
Q 35.84375 49.953125 35.84375 53.8125 
Q 35.84375 58.9375 32.953125 61.84375 
Q 30.078125 64.75 25.09375 64.75 
Q 20.125 64.75 17 61.859375 
Q 13.875 58.984375 13.875 55.125 
Q 13.875 52.59375 15.15625 50.046875 
Q 16.453125 47.515625 18.84375 45.21875 
z
M 21.484375 31.5 
Q 17.4375 28.078125 15.484375 24.046875 
Q 13.53125 20.015625 13.53125 15.328125 
Q 13.53125 9.03125 16.96875 5.25 
Q 20.40625 1.46875 25.734375 1.46875 
Q 31 1.46875 34.171875 4.4375 
Q 37.359375 7.421875 37.359375 11.671875 
Q 37.359375 15.1875 35.5 17.96875 
Q 32.03125 23.140625 21.484375 31.5 
z
" id="TimesNewRomanPSMT-38"/>
      </defs>
      <g transform="translate(30.13499 135.781156)scale(0.06 -0.06)">
       <use xlink:href="#TimesNewRomanPSMT-38"/>
       <use x="50" xlink:href="#TimesNewRomanPSMT-30"/>
      </g>
     </g>
    </g>
    <g id="xtick_3">
     <g id="line2d_5">
      <path clip-path="url(#pdd27b07e0c)" d="M 46.569979 128.114906 
L 46.569979 7.2 
" style="fill:none;opacity:0.1;stroke:#b0b0b0;stroke-linecap:square;stroke-width:0.1;"/>
     </g>
     <g id="line2d_6">
      <g>
       <use style="stroke:#000000;stroke-width:0.3;" x="46.569979" xlink:href="#m4e4b992f41" y="128.114906"/>
      </g>
     </g>
     <g id="text_3">
      <!-- 160 -->
      <defs>
       <path d="M 11.71875 59.71875 
L 27.828125 67.578125 
L 29.4375 67.578125 
L 29.4375 11.671875 
Q 29.4375 6.109375 29.90625 4.734375 
Q 30.375 3.375 31.828125 2.640625 
Q 33.296875 1.90625 37.796875 1.8125 
L 37.796875 0 
L 12.890625 0 
L 12.890625 1.8125 
Q 17.578125 1.90625 18.9375 2.609375 
Q 20.3125 3.328125 20.84375 4.515625 
Q 21.390625 5.71875 21.390625 11.671875 
L 21.390625 47.40625 
Q 21.390625 54.640625 20.90625 56.6875 
Q 20.5625 58.25 19.65625 58.984375 
Q 18.75 59.71875 17.484375 59.71875 
Q 15.671875 59.71875 12.453125 58.203125 
z
" id="TimesNewRomanPSMT-31"/>
       <path d="M 44.828125 67.578125 
L 44.828125 65.765625 
Q 38.375 65.140625 34.296875 63.203125 
Q 30.21875 61.28125 26.234375 57.328125 
Q 22.265625 53.375 19.65625 48.515625 
Q 17.046875 43.65625 15.28125 36.96875 
Q 22.3125 41.796875 29.390625 41.796875 
Q 36.1875 41.796875 41.15625 36.328125 
Q 46.140625 30.859375 46.140625 22.265625 
Q 46.140625 13.96875 41.109375 7.125 
Q 35.0625 -1.171875 25.09375 -1.171875 
Q 18.3125 -1.171875 13.578125 3.328125 
Q 4.296875 12.0625 4.296875 25.984375 
Q 4.296875 34.859375 7.859375 42.859375 
Q 11.421875 50.875 18.03125 57.078125 
Q 24.65625 63.28125 30.703125 65.421875 
Q 36.765625 67.578125 42 67.578125 
z
M 14.453125 33.40625 
Q 13.578125 26.8125 13.578125 22.75 
Q 13.578125 18.0625 15.3125 12.5625 
Q 17.046875 7.078125 20.453125 3.859375 
Q 22.953125 1.5625 26.515625 1.5625 
Q 30.765625 1.5625 34.109375 5.5625 
Q 37.453125 9.578125 37.453125 17 
Q 37.453125 25.34375 34.125 31.4375 
Q 30.8125 37.546875 24.703125 37.546875 
Q 22.859375 37.546875 20.734375 36.765625 
Q 18.609375 35.984375 14.453125 33.40625 
z
" id="TimesNewRomanPSMT-36"/>
      </defs>
      <g transform="translate(42.069979 135.781156)scale(0.06 -0.06)">
       <use xlink:href="#TimesNewRomanPSMT-31"/>
       <use x="50" xlink:href="#TimesNewRomanPSMT-36"/>
       <use x="100" xlink:href="#TimesNewRomanPSMT-30"/>
      </g>
     </g>
    </g>
    <g id="xtick_4">
     <g id="line2d_7">
      <path clip-path="url(#pdd27b07e0c)" d="M 60.004969 128.114906 
L 60.004969 7.2 
" style="fill:none;opacity:0.1;stroke:#b0b0b0;stroke-linecap:square;stroke-width:0.1;"/>
     </g>
     <g id="line2d_8">
      <g>
       <use style="stroke:#000000;stroke-width:0.3;" x="60.004969" xlink:href="#m4e4b992f41" y="128.114906"/>
      </g>
     </g>
     <g id="text_4">
      <!-- 240 -->
      <defs>
       <path d="M 45.84375 12.75 
L 41.21875 0 
L 2.15625 0 
L 2.15625 1.8125 
Q 19.390625 17.53125 26.421875 27.484375 
Q 33.453125 37.453125 33.453125 45.703125 
Q 33.453125 52 29.59375 56.046875 
Q 25.734375 60.109375 20.359375 60.109375 
Q 15.484375 60.109375 11.59375 57.25 
Q 7.71875 54.390625 5.859375 48.875 
L 4.046875 48.875 
Q 5.28125 57.90625 10.328125 62.734375 
Q 15.375 67.578125 22.953125 67.578125 
Q 31 67.578125 36.390625 62.40625 
Q 41.796875 57.234375 41.796875 50.203125 
Q 41.796875 45.171875 39.453125 40.140625 
Q 35.84375 32.234375 27.734375 23.390625 
Q 15.578125 10.109375 12.546875 7.375 
L 29.828125 7.375 
Q 35.109375 7.375 37.234375 7.765625 
Q 39.359375 8.15625 41.0625 9.34375 
Q 42.78125 10.546875 44.046875 12.75 
z
" id="TimesNewRomanPSMT-32"/>
       <path d="M 46.53125 24.421875 
L 46.53125 17.484375 
L 37.640625 17.484375 
L 37.640625 0 
L 29.59375 0 
L 29.59375 17.484375 
L 1.5625 17.484375 
L 1.5625 23.734375 
L 32.28125 67.578125 
L 37.640625 67.578125 
L 37.640625 24.421875 
z
M 29.59375 24.421875 
L 29.59375 57.28125 
L 6.34375 24.421875 
z
" id="TimesNewRomanPSMT-34"/>
      </defs>
      <g transform="translate(55.504969 135.781156)scale(0.06 -0.06)">
       <use xlink:href="#TimesNewRomanPSMT-32"/>
       <use x="50" xlink:href="#TimesNewRomanPSMT-34"/>
       <use x="100" xlink:href="#TimesNewRomanPSMT-30"/>
      </g>
     </g>
    </g>
    <g id="xtick_5">
     <g id="line2d_9">
      <path clip-path="url(#pdd27b07e0c)" d="M 73.439958 128.114906 
L 73.439958 7.2 
" style="fill:none;opacity:0.1;stroke:#b0b0b0;stroke-linecap:square;stroke-width:0.1;"/>
     </g>
     <g id="line2d_10">
      <g>
       <use style="stroke:#000000;stroke-width:0.3;" x="73.439958" xlink:href="#m4e4b992f41" y="128.114906"/>
      </g>
     </g>
     <g id="text_5">
      <!-- 320 -->
      <defs>
       <path d="M 5.078125 53.609375 
Q 7.90625 60.296875 12.21875 63.9375 
Q 16.546875 67.578125 23 67.578125 
Q 30.953125 67.578125 35.203125 62.40625 
Q 38.421875 58.546875 38.421875 54.15625 
Q 38.421875 46.921875 29.34375 39.203125 
Q 35.453125 36.8125 38.578125 32.375 
Q 41.703125 27.9375 41.703125 21.921875 
Q 41.703125 13.328125 36.234375 7.03125 
Q 29.109375 -1.171875 15.578125 -1.171875 
Q 8.890625 -1.171875 6.46875 0.484375 
Q 4.046875 2.15625 4.046875 4.046875 
Q 4.046875 5.46875 5.1875 6.546875 
Q 6.34375 7.625 7.953125 7.625 
Q 9.1875 7.625 10.453125 7.234375 
Q 11.28125 6.984375 14.203125 5.4375 
Q 17.140625 3.90625 18.265625 3.609375 
Q 20.0625 3.078125 22.125 3.078125 
Q 27.09375 3.078125 30.78125 6.9375 
Q 34.46875 10.796875 34.46875 16.0625 
Q 34.46875 19.921875 32.765625 23.578125 
Q 31.5 26.3125 29.984375 27.734375 
Q 27.875 29.6875 24.21875 31.265625 
Q 20.5625 32.859375 16.75 32.859375 
L 15.1875 32.859375 
L 15.1875 34.328125 
Q 19.046875 34.8125 22.921875 37.109375 
Q 26.8125 39.40625 28.5625 42.625 
Q 30.328125 45.84375 30.328125 49.703125 
Q 30.328125 54.734375 27.171875 57.828125 
Q 24.03125 60.9375 19.34375 60.9375 
Q 11.765625 60.9375 6.6875 52.828125 
z
" id="TimesNewRomanPSMT-33"/>
      </defs>
      <g transform="translate(68.939958 135.781156)scale(0.06 -0.06)">
       <use xlink:href="#TimesNewRomanPSMT-33"/>
       <use x="50" xlink:href="#TimesNewRomanPSMT-32"/>
       <use x="100" xlink:href="#TimesNewRomanPSMT-30"/>
      </g>
     </g>
    </g>
   </g>
   <g id="matplotlib.axis_2">
    <g id="ytick_1">
     <g id="line2d_11">
      <path clip-path="url(#pdd27b07e0c)" d="M 19.7 128.114906 
L 80.157453 128.114906 
" style="fill:none;opacity:0.1;stroke:#b0b0b0;stroke-linecap:square;stroke-width:0.1;"/>
     </g>
     <g id="line2d_12">
      <defs>
       <path d="M 0 0 
L 2 0 
" id="m90bce045cf" style="stroke:#000000;stroke-width:0.3;"/>
      </defs>
      <g>
       <use style="stroke:#000000;stroke-width:0.3;" x="19.7" xlink:href="#m90bce045cf" y="128.114906"/>
      </g>
     </g>
     <g id="text_6">
      <!-- 0 -->
      <g transform="translate(13.2 130.198031)scale(0.06 -0.06)">
       <use xlink:href="#TimesNewRomanPSMT-30"/>
      </g>
     </g>
    </g>
    <g id="ytick_2">
     <g id="line2d_13">
      <path clip-path="url(#pdd27b07e0c)" d="M 19.7 102.9243 
L 80.157453 102.9243 
" style="fill:none;opacity:0.1;stroke:#b0b0b0;stroke-linecap:square;stroke-width:0.1;"/>
     </g>
     <g id="line2d_14">
      <g>
       <use style="stroke:#000000;stroke-width:0.3;" x="19.7" xlink:href="#m90bce045cf" y="102.9243"/>
      </g>
     </g>
     <g id="text_7">
      <!-- 150 -->
      <defs>
       <path d="M 43.40625 66.21875 
L 39.59375 57.90625 
L 19.671875 57.90625 
L 15.328125 49.03125 
Q 28.265625 47.125 35.84375 39.40625 
Q 42.328125 32.765625 42.328125 23.78125 
Q 42.328125 18.5625 40.203125 14.109375 
Q 38.09375 9.671875 34.859375 6.546875 
Q 31.640625 3.421875 27.6875 1.515625 
Q 22.078125 -1.171875 16.15625 -1.171875 
Q 10.203125 -1.171875 7.484375 0.84375 
Q 4.78125 2.875 4.78125 5.328125 
Q 4.78125 6.6875 5.90625 7.734375 
Q 7.03125 8.796875 8.734375 8.796875 
Q 10.015625 8.796875 10.96875 8.40625 
Q 11.921875 8.015625 14.203125 6.390625 
Q 17.875 3.859375 21.625 3.859375 
Q 27.34375 3.859375 31.65625 8.171875 
Q 35.984375 12.5 35.984375 18.703125 
Q 35.984375 24.703125 32.125 29.90625 
Q 28.265625 35.109375 21.484375 37.9375 
Q 16.15625 40.140625 6.984375 40.484375 
L 19.671875 66.21875 
z
" id="TimesNewRomanPSMT-35"/>
      </defs>
      <g transform="translate(7.2 105.007425)scale(0.06 -0.06)">
       <use xlink:href="#TimesNewRomanPSMT-31"/>
       <use x="50" xlink:href="#TimesNewRomanPSMT-35"/>
       <use x="100" xlink:href="#TimesNewRomanPSMT-30"/>
      </g>
     </g>
    </g>
    <g id="ytick_3">
     <g id="line2d_15">
      <path clip-path="url(#pdd27b07e0c)" d="M 19.7 77.733695 
L 80.157453 77.733695 
" style="fill:none;opacity:0.1;stroke:#b0b0b0;stroke-linecap:square;stroke-width:0.1;"/>
     </g>
     <g id="line2d_16">
      <g>
       <use style="stroke:#000000;stroke-width:0.3;" x="19.7" xlink:href="#m90bce045cf" y="77.733695"/>
      </g>
     </g>
     <g id="text_8">
      <!-- 300 -->
      <g transform="translate(7.2 79.81682)scale(0.06 -0.06)">
       <use xlink:href="#TimesNewRomanPSMT-33"/>
       <use x="50" xlink:href="#TimesNewRomanPSMT-30"/>
       <use x="100" xlink:href="#TimesNewRomanPSMT-30"/>
      </g>
     </g>
    </g>
    <g id="ytick_4">
     <g id="line2d_17">
      <path clip-path="url(#pdd27b07e0c)" d="M 19.7 52.54309 
L 80.157453 52.54309 
" style="fill:none;opacity:0.1;stroke:#b0b0b0;stroke-linecap:square;stroke-width:0.1;"/>
     </g>
     <g id="line2d_18">
      <g>
       <use style="stroke:#000000;stroke-width:0.3;" x="19.7" xlink:href="#m90bce045cf" y="52.54309"/>
      </g>
     </g>
     <g id="text_9">
      <!-- 450 -->
      <g transform="translate(7.2 54.626215)scale(0.06 -0.06)">
       <use xlink:href="#TimesNewRomanPSMT-34"/>
       <use x="50" xlink:href="#TimesNewRomanPSMT-35"/>
       <use x="100" xlink:href="#TimesNewRomanPSMT-30"/>
      </g>
     </g>
    </g>
    <g id="ytick_5">
     <g id="line2d_19">
      <path clip-path="url(#pdd27b07e0c)" d="M 19.7 27.352484 
L 80.157453 27.352484 
" style="fill:none;opacity:0.1;stroke:#b0b0b0;stroke-linecap:square;stroke-width:0.1;"/>
     </g>
     <g id="line2d_20">
      <g>
       <use style="stroke:#000000;stroke-width:0.3;" x="19.7" xlink:href="#m90bce045cf" y="27.352484"/>
      </g>
     </g>
     <g id="text_10">
      <!-- 600 -->
      <g transform="translate(7.2 29.435609)scale(0.06 -0.06)">
       <use xlink:href="#TimesNewRomanPSMT-36"/>
       <use x="50" xlink:href="#TimesNewRomanPSMT-30"/>
       <use x="100" xlink:href="#TimesNewRomanPSMT-30"/>
      </g>
     </g>
    </g>
   </g>
   <g id="line2d_21">
    <path clip-path="url(#pdd27b07e0c)" d="M 53.264802 89.996986 
L 53.258924 89.996482 
L 53.258924 89.996482 
L 53.258924 89.996482 
L 53.444495 89.988757 
L 53.429381 89.993291 
L 53.429381 89.993291 
L 53.028346 89.990268 
L 53.377656 89.986741 
L 53.377656 89.986741 
L 53.447854 89.991276 
L 53.433915 89.986909 
L 53.433915 89.986909 
L 53.191582 89.978345 
L 53.241459 89.985902 
L 53.241459 89.985902 
L 53.438953 89.989428 
L 53.466327 89.823842 
L 53.290833 89.823002 
L 53.439793 89.989428 
L 53.204009 90.034771 
L 53.359687 90.007062 
L 53.359687 90.007062 
L 53.464648 89.972971 
L 53.457762 89.979856 
L 53.278741 89.804865 
L 53.460281 89.782362 
L 53.47338 90.005214 
L 53.472877 90.005047 
L 53.297886 90.003367 
L 53.459442 89.830224 
L 53.300573 89.994131 
L 53.300573 89.994131 
L 53.295031 90.017138 
L 53.468846 90.000512 
L 53.296878 90.000848 
L 53.296878 90.000848 
L 53.277062 89.99665 
L 53.277062 89.99665 
L 53.277062 89.99665 
L 53.480098 89.994466 
L 53.477747 90.010253 
L 53.470022 90.168114 
L 53.470022 90.168114 
L 53.470022 90.168114 
L 53.460113 89.982543 
L 53.450037 90.001856 
L 53.283779 89.989764 
L 53.420648 89.970451 
L 53.266985 89.804529 
L 53.195948 90.106481 
L 53.180834 89.984894 
L 53.54912 89.980024 
L 53.529304 89.998665 
L 53.332145 89.81427 
L 53.492693 90.003031 
L 53.492693 90.003031 
L 53.520235 90.01294 
L 53.520235 90.01294 
L 53.520235 90.01294 
L 53.457091 89.996986 
L 53.450205 90.183564 
L 53.417793 90.063993 
L 53.126422 89.878926 
L 53.551975 90.02755 
L 53.318542 89.992451 
L 53.246833 90.080282 
L 53.246833 90.080282 
L 53.246833 90.080282 
L 53.402847 90.055092 
L 53.470694 89.860117 
L 53.434755 90.039138 
L 53.279077 90.022176 
L 53.285123 90.180541 
L 53.267489 90.027214 
L 53.447182 89.848193 
L 53.274711 90.019321 
L 53.443991 90.021672 
L 53.442144 90.028894 
L 53.442144 90.028894 
L 53.264298 90.040649 
L 53.440801 90.019153 
L 53.440801 90.019153 
L 53.447014 90.017642 
L 53.447014 90.017642 
L 53.447014 90.017642 
L 53.425686 90.052405 
L 53.447014 89.845842 
L 53.275046 89.837277 
L 53.44332 90.018146 
L 53.273535 90.01697 
L 53.44164 90.01294 
L 53.447854 89.841979 
L 53.449701 90.00555 
L 53.449701 90.00555 
L 53.438953 90.027382 
L 53.27639 90.012772 
L 53.436266 90.013611 
L 53.436266 90.013611 
L 53.448862 90.009917 
L 53.444495 90.011428 
L 53.444495 90.011428 
L 53.413427 90.065504 
L 53.442816 89.839796 
L 53.274039 89.82485 
L 53.448526 90.003871 
L 53.105598 89.998329 
L 53.426862 89.997321 
L 53.460953 89.809735 
L 53.456587 89.976497 
L 53.264634 89.999337 
L 53.44903 89.996986 
L 53.44903 89.996986 
L 53.464312 89.993291 
L 53.462297 89.994131 
L 53.462297 89.994131 
L 53.286466 89.995306 
L 53.438282 89.993123 
L 53.284619 89.819476 
L 53.444495 89.970451 
L 53.444495 89.970451 
L 53.453396 90.1619 
L 53.45306 89.9901 
L 53.233734 89.979184 
L 53.434755 89.986741 
L 53.434755 89.986741 
L 53.480938 89.969612 
L 53.458938 89.99665 
L 53.05572 90.356539 
L 53.296207 90.109672 
L 53.296207 90.109672 
L 53.625364 89.961383 
L 53.531823 89.986405 
L 53.363549 89.817628 
L 53.532327 89.984726 
L 53.532327 89.984726 
L 53.609242 89.982039 
L 53.547441 89.983886 
L 53.547441 89.983886 
L 53.532998 89.988253 
L 53.532998 89.988253 
L 53.532998 89.988253 
L 53.549456 89.984558 
L 53.549456 89.984558 
L 53.549456 89.984558 
L 53.376481 89.984222 
L 53.468174 89.974314 
L 53.468174 89.974314 
L 53.754676 89.955337 
L 53.564738 89.97381 
L 53.610753 90.135534 
L 53.724111 89.95181 
L 53.202665 90.268372 
L 53.478083 89.993291 
L 53.318542 89.984726 
L 53.318542 89.984726 
L 53.318542 89.984726 
L 53.499075 89.993123 
L 53.476739 89.993627 
L 53.309977 89.821491 
L 53.329458 89.820987 
L 53.309474 89.9901 
L 53.474388 89.993291 
L 53.474388 89.993291 
L 53.474388 89.993291 
L 53.305443 89.995138 
L 53.305443 89.995138 
L 53.305443 89.995138 
L 53.477747 89.988757 
L 53.470861 89.997153 
L 53.302924 90.163747 
L 53.302924 90.163747 
L 53.302924 90.163747 
L 53.48077 89.980696 
L 53.467839 89.99665 
L 53.301413 89.994299 
L 53.341718 89.996146 
L 53.341718 89.996146 
L 53.468678 89.993123 
L 53.468678 89.993291 
L 53.300909 89.824514 
L 53.470694 89.990268 
L 53.465152 90.166602 
L 53.467167 89.994634 
L 53.30981 90.165931 
L 53.30981 90.165931 
L 53.30981 90.165931 
L 53.470861 89.986405 
L 53.46364 90.165763 
L 53.462297 89.998161 
L 53.298894 89.988589 
L 53.458938 90.005047 
L 53.295031 90.164251 
L 53.295031 90.164251 
L 53.295031 90.164251 
L 53.473045 89.994131 
L 53.461289 90.000512 
L 53.464648 90.162908 
L 53.464648 90.162908 
L 53.464648 90.162908 
L 53.466495 89.987917 
L 53.293352 90.000176 
L 53.464984 89.989932 
L 53.464984 89.989932 
L 53.481274 90.007566 
L 53.461457 89.99665 
L 53.461457 89.99665 
L 53.295031 89.82317 
L 53.297382 89.833918 
L 53.297382 89.833918 
L 53.461625 89.99665 
L 53.290329 90.002695 
L 53.460617 89.997657 
L 53.460617 89.997657 
L 53.462465 89.990604 
L 53.289993 90.003871 
L 53.459778 89.999505 
L 53.459778 89.999505 
L 53.464984 90.004375 
L 53.464984 90.004375 
L 53.464984 90.004375 
L 53.460281 89.99665 
L 53.289489 90.003871 
L 53.45961 89.997993 
L 53.45961 89.997993 
L 53.460449 89.995474 
L 53.459778 89.996482 
L 53.459778 89.996482 
L 53.456587 90.00555 
L 53.291001 89.826865 
L 53.29352 89.986909 
L 53.29352 89.986909 
L 53.458938 89.999337 
L 53.458938 89.999337 
L 53.458938 89.999337 
L 53.292176 89.994299 
L 53.457426 90.003703 
L 53.459274 90.165595 
L 53.459274 90.165595 
L 53.459274 90.165595 
L 53.460449 89.99497 
L 53.462968 90.003703 
L 53.462968 90.003703 
L 53.457426 90.170801 
L 53.290833 89.995642 
L 53.296207 90.020497 
L 53.45961 89.990772 
L 53.455075 90.010085 
L 53.455075 90.010085 
L 53.291001 89.994466 
L 53.291001 90.008405 
L 53.291001 90.008405 
L 53.458434 90.000344 
L 53.456755 90.001016 
L 53.456755 90.171808 
L 53.456755 90.171808 
L 53.456755 90.171808 
L 53.460113 89.990436 
L 53.45793 89.997825 
L 53.288817 89.999001 
L 53.459946 90.173488 
L 53.458938 89.994802 
L 53.45793 90.011932 
L 53.289321 89.999337 
L 53.458266 89.995138 
L 53.458266 89.995138 
L 53.459946 90.173488 
L 53.456755 90.009077 
L 53.287306 90.005047 
L 53.287306 90.005047 
L 53.287306 90.005047 
L 53.458098 89.99497 
L 53.456083 89.999673 
L 53.455411 90.172144 
L 53.457762 90.029733 
L 53.457762 90.029733 
L 53.457594 89.994634 
L 53.455243 90.001688 
L 53.287474 90.001184 
L 53.287474 90.001184 
L 53.287474 90.001184 
L 53.457259 89.992115 
L 53.457259 89.992115 
L 53.457259 89.992115 
L 53.286466 90.00723 
L 53.453732 90.008405 
L 53.454907 90.170465 
L 53.454907 90.170465 
L 53.454907 90.170465 
L 53.456251 89.999673 
L 53.286466 89.999673 
L 53.286802 89.999673 
L 53.286802 89.999673 
L 53.458266 89.974314 
L 53.454404 89.999337 
L 53.454907 90.169121 
L 53.453732 90.009245 
L 53.28613 90.011764 
L 53.28613 90.011764 
L 53.28613 90.011764 
L 53.454068 90.005047 
L 53.455411 90.167274 
L 53.455411 90.167274 
L 53.455411 90.167274 
L 53.462968 89.993459 
L 53.451717 90.003367 
L 53.29839 90.173488 
L 53.29839 90.173488 
L 53.29839 90.173488 
L 53.458938 90.006054 
L 53.461961 90.018985 
L 53.273535 90.003367 
L 53.454068 90.011764 
L 53.458938 90.181045 
L 53.455915 90.015459 
L 53.455915 90.015459 
L 53.4628 90.00723 
L 53.460113 90.007901 
L 53.288146 90.006222 
L 53.458434 90.176343 
L 53.454907 90.164587 
L 53.456419 89.988253 
L 53.621165 89.990772 
L 53.459274 90.00068 
L 53.444663 90.221686 
L 53.44735 90.007734 
L 53.610921 90.007901 
L 53.434755 90.190281 
L 53.478083 90.195991 
L 53.456755 89.995474 
L 53.27639 89.999169 
L 53.44903 89.992115 
L 53.452556 90.164251 
L 53.274879 90.169457 
L 53.450877 90.001184 
L 53.282604 90.002192 
L 53.449533 90.174999 
L 53.448862 90.173656 
L 53.451549 90.002527 
L 53.451549 90.002527 
L 53.451549 90.002527 
L 53.452556 90.179869 
L 53.454907 90.002695 
L 53.621837 90.003367 
L 53.455579 90.16845 
L 53.288314 90.001184 
L 53.288314 90.001184 
L 53.288314 90.001184 
L 53.454739 90.171137 
L 53.464312 89.994802 
L 53.443152 90.163915 
L 53.61512 90.001688 
L 53.42132 90.002863 
L 53.469686 90.192968 
L 53.447686 90.159717 
L 53.447686 90.159717 
L 53.44903 89.987077 
L 53.44903 89.987077 
L 53.44903 89.987077 
L 53.448862 90.163747 
L 53.455243 90.001688 
L 53.627547 90.170633 
L 53.460113 90.005047 
L 53.44735 90.176846 
L 53.279917 90.165931 
L 53.430053 90.166434 
L 53.446846 90.004039 
L 53.444495 90.166602 
L 53.444495 90.166602 
L 53.451717 90.182724 
L 53.451717 90.182724 
L 53.451717 90.182724 
L 53.282772 90.01294 
L 53.468342 90.067015 
L 53.484128 90.189106 
L 53.459778 90.176846 
L 53.285291 90.150816 
L 53.446846 90.159213 
L 53.281428 89.99497 
L 53.443488 90.029733 
L 53.443488 90.029733 
L 53.450373 90.182724 
L 53.450373 90.182724 
L 53.450373 90.182724 
L 53.453564 90.016802 
L 53.453564 90.016802 
L 53.453564 90.016802 
L 53.45306 90.208587 
L 53.45306 90.208587 
L 53.45306 90.208587 
L 53.453732 90.006894 
L 53.283107 90.00639 
L 53.449198 90.170969 
L 53.448526 90.168618 
L 53.448526 90.168618 
L 53.274207 89.993627 
L 53.447854 90.002863 
L 53.471701 90.202373 
L 53.46364 90.181381 
L 53.293016 90.006726 
L 53.444495 90.149976 
L 53.446343 89.987077 
L 53.446343 89.987077 
L 53.446343 89.987077 
L 53.43845 90.175503 
L 53.428205 90.065504 
L 53.281596 90.013947 
L 53.287642 90.0121 
L 53.287642 90.0121 
L 53.453564 90.179533 
L 53.4539 90.175671 
L 53.455747 90.009413 
L 53.458434 90.171808 
L 53.458434 90.171808 
L 53.459442 90.187427 
L 53.459442 90.187427 
L 53.459442 90.187427 
L 53.456587 89.985902 
L 53.454739 90.171976 
L 53.620326 90.004207 
L 53.454907 90.170297 
L 53.454907 90.170297 
L 53.457594 90.182556 
L 53.451045 90.172144 
L 53.451045 90.172144 
L 53.445167 90.002863 
L 53.446175 90.168953 
L 53.446175 90.168953 
L 53.450373 90.174159 
L 53.440129 90.181045 
L 53.440129 90.181045 
L 53.450037 90.004207 
L 53.619318 90.201197 
L 53.459274 90.180877 
L 53.464816 90.202037 
L 53.464816 90.202037 
L 53.628387 90.177014 
L 53.612769 90.155686 
L 53.620494 89.990436 
L 53.628555 90.010085 
L 53.457091 90.185243 
L 53.623349 90.178694 
L 53.601349 90.19448 
L 53.601349 90.19448 
L 53.443152 90.176511 
L 53.443152 90.176511 
L 53.443152 90.176511 
L 53.615959 90.177014 
L 53.615959 90.177014 
L 53.615959 90.177014 
L 53.277901 90.177014 
L 53.782049 90.009749 
L 53.457594 90.010421 
L 53.628555 90.178862 
L 53.628051 90.174663 
L 53.4539 90.178694 
L 53.625532 90.168618 
L 53.451885 89.992955 
L 53.446511 90.008405 
L 53.446678 90.167274 
L 53.611089 89.998161 
L 53.608234 90.3117 
L 53.459106 90.00068 
L 53.61428 90.14074 
L 53.614784 89.961551 
L 53.407549 89.78085 
L 53.430053 89.437586 
L 53.109124 89.024964 
L 53.300237 89.118505 
L 53.111811 88.581106 
L 53.12004 88.790356 
L 52.768547 88.588663 
L 52.914149 88.874492 
L 52.945553 88.775577 
L 53.112987 88.428786 
L 53.105598 88.45045 
L 53.105262 88.667929 
L 52.8107 88.60025 
L 52.822455 88.6068 
L 52.956301 88.513595 
L 52.935645 88.508893 
L 53.134483 88.635349 
L 52.967385 88.532572 
L 52.965874 88.694631 
L 53.151277 88.509396 
L 53.495212 88.537106 
L 53.434419 88.202071 
L 53.647028 88.509732 
L 53.839988 88.457 
L 53.832599 88.128011 
L 53.667012 88.113904 
L 53.807744 88.331551 
L 53.969467 88.32836 
L 53.948979 88.195689 
L 54.148993 88.326177 
L 54.116581 88.344482 
L 54.163267 88.134392 
L 54.292747 88.135904 
L 54.434486 87.969814 
L 54.430456 90.642537 
L 54.484867 90.562599 
L 54.302319 93.345825 
L 54.293922 94.068291 
L 54.515096 94.32977 
L 54.510898 94.573447 
L 54.488394 94.379143 
L 54.488394 94.379143 
L 54.669934 93.885911 
L 54.624255 92.810272 
L 54.485707 92.184538 
L 54.978771 91.0298 
L 54.994893 90.59014 
L 55.018572 90.63985 
L 55.458904 89.88346 
L 55.63104 89.871704 
L 55.63104 89.871704 
L 55.63104 89.871704 
L 55.308096 89.957016 
L 55.37376 89.907811 
L 55.455713 89.50157 
L 55.423133 89.555646 
L 55.435393 88.055965 
L 55.320188 87.710686 
L 55.110266 87.916577 
L 54.933932 87.917585 
L 54.980115 87.77467 
L 54.804452 87.80154 
L 54.457493 87.192096 
L 54.595706 87.194615 
L 54.60511 87.001151 
L 54.42928 87.068326 
L 54.476974 86.763016 
L 54.394181 86.81474 
L 54.288884 86.639918 
L 54.304838 86.266425 
L 54.269572 86.290944 
L 54.073757 85.845238 
L 53.793133 85.138557 
L 53.760218 85.198511 
L 53.760218 85.198511 
L 53.760218 85.198511 
L 53.986597 84.988589 
L 53.730325 84.893873 
L 53.782385 83.959637 
L 53.642829 83.938981 
L 53.613104 82.603543 
L 53.406541 82.65342 
L 53.288649 82.140707 
L 52.542336 82.219638 
L 52.405467 81.969075 
L 52.491451 81.485584 
L 52.295804 81.322013 
L 52.25785 81.148534 
L 52.00057 81.248288 
L 51.848586 80.613989 
L 50.530782 80.345457 
L 51.285157 80.08465 
L 51.028716 79.711997 
L 50.451683 79.529953 
L 49.922849 79.355466 
L 48.762401 79.046965 
L 49.385113 79.130094 
L 48.104591 78.731747 
L 48.891545 78.743502 
L 48.556174 78.69648 
L 48.554327 78.611336 
L 48.090484 79.120186 
L 47.635374 80.073566 
L 45.760689 95.19767 
L 45.615255 97.541908 
L 45.605515 98.768186 
L 45.281396 101.186988 
L 45.502233 101.81054 
L 45.299869 103.577577 
L 45.479562 103.835529 
L 45.448997 103.748705 
L 44.399221 100.593498 
L 44.168307 99.14571 
L 43.797501 97.854607 
L 43.573641 96.291446 
L 43.117859 94.863978 
L 42.938669 95.379042 
L 41.984785 87.907677 
L 41.67259 87.161027 
L 41.586774 87.198813 
L 41.733551 85.359395 
L 41.432607 84.808728 
L 41.196487 84.800164 
L 40.966581 81.4216 
L 40.574111 80.595852 
L 40.290465 80.390632 
L 40.192725 78.50268 
L 39.844423 78.392681 
L 39.774729 75.761271 
L 39.428778 75.671088 
L 39.060828 73.863578 
L 39.170659 73.015159 
L 38.571962 71.173558 
L 38.146744 71.016368 
L 38.394956 70.236803 
L 37.994593 67.474905 
L 37.319485 65.737257 
L 36.964969 65.484343 
L 37.62681 63.920007 
L 37.46559 62.815651 
L 37.233333 62.634614 
L 37.47214 61.687951 
L 37.502033 61.836072 
L 37.469117 62.20671 
L 38.129447 62.969649 
L 37.888793 63.309554 
L 38.21308 64.248156 
L 38.767777 64.679923 
L 38.653244 67.16187 
L 38.129111 67.895924 
L 38.38975 69.120523 
L 38.806234 69.305926 
L 38.475566 71.058353 
L 38.827059 71.421769 
L 38.654755 73.667763 
L 38.754678 74.509969 
L 38.77567 76.833047 
L 39.179559 77.330813 
L 39.512411 77.374645 
L 39.502839 77.357179 
L 39.620059 77.181517 
L 39.025393 80.206573 
L 38.761395 80.197 
L 38.779365 80.24587 
L 38.784235 79.751798 
L 39.100461 79.929644 
L 38.908508 79.917888 
L 39.071911 80.147963 
L 38.960401 80.345961 
L 39.096598 80.247214 
L 39.309039 80.205733 
L 39.127667 80.310694 
L 39.127667 80.310694 
L 38.992141 80.411121 
L 39.062675 80.534387 
L 39.022034 80.5186 
L 38.876432 80.624401 
L 39.06066 80.13839 
L 39.282337 80.22471 
L 39.376886 79.653219 
L 39.248246 79.659601 
L 39.434992 79.273009 
L 39.321634 79.448839 
L 39.321634 79.448839 
L 39.17301 79.625845 
L 39.17301 79.625845 
L 39.17301 79.625845 
L 39.343802 79.462106 
L 39.279818 79.460091 
L 39.279818 79.460091 
L 39.09072 79.569083 
L 39.279314 79.580838 
L 39.361435 79.684456 
L 39.229101 79.980865 
L 39.184262 79.836103 
L 38.863669 79.904453 
L 39.20475 79.999674 
L 39.056797 79.814271 
L 39.056797 79.814271 
L 39.056797 79.814271 
L 39.251101 79.984895 
L 39.178048 80.037628 
L 39.415511 79.899247 
L 39.347497 80.182222 
L 39.425755 80.589302 
L 39.366474 80.646065 
L 39.366474 80.646065 
L 39.366474 80.646065 
L 39.472946 80.599714 
L 39.472946 80.599714 
L 39.472946 80.599714 
L 39.248246 80.774201 
L 39.248246 80.774201 
L 39.248246 80.774201 
L 39.593693 80.441181 
L 39.398046 80.661011 
L 39.613341 80.129993 
L 39.548182 79.855752 
L 39.615525 78.879196 
L 39.52635 78.910936 
L 39.285528 78.408299 
L 39.354718 78.158745 
L 39.265879 78.165966 
L 39.31626 77.868045 
L 38.992141 77.866869 
L 38.996172 77.560552 
L 38.572298 77.765603 
L 38.609748 77.738733 
L 39.114903 77.191929 
L 38.808754 77.379011 
L 38.913882 77.401851 
L 38.862494 77.603544 
L 38.897089 77.595483 
L 39.024217 77.762244 
L 38.851242 77.766275 
L 39.034797 77.952853 
L 38.952004 78.553733 
L 39.241528 79.030004 
L 39.438015 79.072828 
L 39.590334 78.596725 
L 39.454305 78.365979 
L 39.512579 78.411658 
L 39.496793 77.984593 
L 39.47832 78.03699 
L 39.642563 78.112226 
L 39.626105 78.27798 
L 39.661036 78.139768 
L 39.661036 78.139768 
L 39.800424 77.964609 
L 39.784973 77.747802 
L 39.59067 78.049585 
L 39.896484 77.877114 
L 39.453633 78.519474 
L 39.50435 78.389323 
L 39.943842 78.158745 
L 40.082391 77.649726 
L 39.985659 78.157065 
L 39.985659 78.157065 
L 39.96685 78.298133 
L 40.31851 78.086028 
L 40.322037 77.943617 
L 40.403991 77.998532 
L 40.444464 77.720092 
L 40.464616 77.86032 
L 40.464616 77.86032 
L 40.388205 78.081157 
L 40.334465 77.99954 
L 40.862796 78.049249 
L 40.741377 78.40746 
L 41.134686 78.371857 
L 41.35905 77.668367 
L 41.287005 77.887694 
L 41.391966 78.085356 
L 41.424378 78.042868 
L 41.491553 78.023051 
L 41.129816 77.755359 
L 41.516408 77.715558 
L 41.477446 77.319226 
L 41.407752 77.650398 
L 41.407752 77.650398 
L 41.468881 77.882152 
L 41.630941 77.717573 
L 41.594331 77.983418 
L 41.927183 77.754855 
L 41.836496 77.795832 
L 42.004434 77.877785 
L 42.036846 77.782901 
L 42.134417 77.527132 
L 42.168173 77.577345 
L 41.937091 77.458614 
L 42.107379 77.305623 
L 42.08538 77.334172 
L 41.93877 77.604887 
L 42.058342 77.352477 
L 38.401002 78.973745 
L 41.850099 77.061274 
L 41.796527 76.978985 
L 41.804756 76.882253 
L 41.804756 76.882253 
L 41.804756 76.882253 
L 41.725826 77.061106 
L 41.517751 77.205868 
L 41.517751 77.205868 
L 41.517751 77.205868 
L 41.760589 77.046159 
L 41.611628 76.884436 
L 41.78494 76.849841 
L 41.626071 76.853871 
L 41.638162 76.624637 
L 41.639338 76.715995 
L 41.424042 76.777628 
L 41.476775 76.395906 
L 41.472744 76.511111 
L 41.016626 76.330075 
L 41.370134 76.410517 
L 41.4934 76.217053 
L 41.271051 76.122336 
L 41.400699 76.042902 
L 41.296746 76.076489 
L 41.296746 76.076489 
L 41.110167 76.17171 
L 41.110167 76.17171 
L 41.110167 76.17171 
L 41.329661 76.018719 
L 41.179022 75.931727 
L 41.299936 75.846247 
L 41.204884 75.749011 
L 41.21009 75.534219 
L 41.153999 75.584097 
L 40.987069 75.704508 
L 41.121755 76.243419 
L 41.319753 76.03081 
L 41.290196 76.078336 
L 41.136869 76.092779 
L 41.176335 76.070779 
L 41.362577 75.30616 
L 41.191617 75.925178 
L 41.301616 76.080855 
L 41.257952 75.930048 
L 41.257952 75.930048 
L 41.205892 75.893269 
L 41.24351 75.741454 
L 41.032748 75.515578 
L 41.156854 75.592158 
L 41.376348 75.222024 
L 41.223525 75.497945 
L 41.310181 75.79637 
L 41.207235 76.000246 
L 40.914352 76.381799 
L 41.1409 76.007299 
L 41.050717 75.885544 
L 41.221006 75.504494 
L 41.166762 75.513227 
L 41.067679 75.028392 
L 41.15551 75.056438 
L 40.813086 75.238482 
L 40.808216 75.076926 
L 40.836093 75.14746 
L 41.057771 75.250741 
L 41.139892 75.13688 
L 41.184396 75.233108 
L 40.659255 75.695607 
L 40.481074 75.66773 
L 40.473013 75.760599 
L 40.415914 75.378373 
L 40.519196 75.289535 
L 40.498371 74.774135 
L 40.589897 75.010087 
L 40.589897 75.010087 
L 40.589897 75.010087 
L 40.482417 74.713845 
L 40.507944 74.715861 
L 40.359655 75.136544 
L 40.190374 75.220009 
L 40.429181 75.380389 
L 40.220435 75.261489 
L 40.032345 75.424724 
L 40.1761 75.44219 
L 39.984483 75.691409 
L 39.869278 75.542616 
L 39.690089 75.61315 
L 39.837202 75.126803 
L 39.732073 75.139063 
L 39.592685 75.260985 
L 39.592685 75.260985 
L 39.592685 75.260985 
L 39.740974 74.992621 
L 39.666746 74.755494 
L 39.812179 74.930149 
L 39.812179 74.930149 
L 39.936621 75.038132 
L 39.77305 75.424556 
L 39.72015 75.648249 
L 39.724852 75.41532 
L 39.724852 75.41532 
L 39.618044 75.193306 
L 39.582777 75.245367 
L 39.528701 75.311702 
L 39.309207 75.31758 
L 39.425084 75.460159 
L 39.433816 75.448235 
L 39.507877 75.895956 
L 39.469755 75.832644 
L 39.178888 75.957086 
L 39.422901 75.993864 
L 39.254291 75.871438 
L 39.43516 75.870094 
L 39.292917 75.948689 
L 39.292917 75.948689 
L 39.243375 75.792339 
L 39.243375 75.792339 
L 39.243375 75.792339 
L 39.348336 76.811551 
L 39.221544 76.84581 
L 39.201559 76.730941 
L 39.233635 76.728254 
L 39.394015 76.506913 
L 39.236658 76.7123 
L 39.386626 76.748071 
L 39.14043 76.93297 
L 39.381756 76.932634 
L 39.372687 77.413606 
L 39.561785 77.135334 
L 39.398046 77.095197 
L 39.363954 77.163212 
L 39.170659 77.006862 
L 39.341115 76.758147 
L 39.431969 76.391875 
L 39.393679 76.536302 
L 39.701005 76.514134 
L 39.451282 76.855718 
L 39.779432 77.133655 
L 39.555067 77.227196 
L 39.7665 77.406217 
L 39.529541 77.293027 
L 39.529541 77.293027 
L 39.506365 77.280936 
L 39.687234 76.651675 
L 39.572029 76.458882 
L 39.681188 76.518836 
L 39.763645 76.448134 
L 39.651463 76.967397 
L 39.609815 76.935321 
L 39.788164 77.363393 
L 39.5638 77.052709 
L 39.728379 76.916008 
L 39.574212 76.84178 
L 39.842576 76.566866 
L 39.549861 76.637064 
L 39.461862 76.215709 
L 39.795721 76.155252 
L 39.672791 76.4876 
L 39.711585 76.4965 
L 39.397542 76.765032 
L 39.397542 76.765032 
L 39.397542 76.765032 
L 39.749035 76.51279 
L 39.649448 76.762681 
L 39.721661 76.777796 
L 39.492762 76.803322 
L 39.815034 76.303205 
L 39.620059 76.307907 
L 39.656333 76.610026 
L 39.48235 76.392043 
L 39.657845 76.452837 
L 39.608807 76.173053 
L 39.701005 76.052138 
L 39.573204 76.115115 
L 39.573204 76.115115 
L 39.55725 76.210167 
L 39.72418 75.90704 
L 39.595204 75.921819 
L 39.390489 75.951208 
L 39.54667 75.883361 
L 39.54667 75.883361 
L 39.589662 75.818537 
L 39.589662 75.818537 
L 39.589662 75.818537 
L 39.587647 75.946002 
L 39.304673 75.80527 
L 39.302154 75.848094 
L 39.412992 75.666722 
L 39.343298 75.625241 
L 39.555235 75.718447 
L 39.398885 75.513227 
L 39.455984 75.479808 
L 39.731066 75.38677 
L 39.377725 75.930552 
L 39.550533 75.803423 
L 39.530548 76.039879 
L 39.510396 75.98933 
L 39.705203 75.863041 
L 39.560777 75.823407 
L 39.582105 75.570998 
L 39.613006 75.643547 
L 39.753233 75.424892 
L 39.59067 75.60173 
L 39.59067 75.60173 
L 39.581433 75.633638 
L 39.738455 75.587623 
L 39.655326 75.625073 
L 39.524503 75.51709 
L 39.76818 75.416663 
L 39.559937 75.464189 
L 39.559937 75.464189 
L 39.427099 75.492739 
L 39.427099 75.492739 
L 39.427099 75.492739 
L 39.788836 75.435808 
L 39.484198 75.772019 
L 39.488396 75.522632 
L 39.340443 75.637669 
L 39.550701 75.15804 
L 39.47345 75.358725 
L 39.588655 75.506846 
L 39.638028 75.886384 
L 40.059047 75.917956 
L 40.244954 76.269785 
L 40.294999 75.803423 
L 40.42112 75.92417 
L 40.704934 76.019558 
L 40.909986 75.970185 
L 41.666376 77.23744 
L 42.128875 77.58675 
L 42.026769 77.803053 
L 42.426124 78.35943 
L 43.128439 78.527871 
L 43.060592 78.65416 
L 43.558022 78.768021 
L 43.393276 79.209865 
L 44.114735 78.901364 
L 44.111208 79.126903 
L 44.31055 78.923867 
L 44.539112 78.947546 
L 44.663386 78.71764 
L 44.967857 78.705884 
L 45.009169 78.973409 
L 45.434722 79.048141 
L 46.089174 78.784647 
L 45.898733 79.01724 
L 46.068518 79.148399 
L 46.066503 79.53432 
L 46.358042 79.776821 
L 46.743794 79.766745 
L 46.822893 79.655738 
L 46.708527 80.070544 
L 46.855976 79.952484 
L 46.970846 79.872881 
L 46.970846 79.872881 
L 46.970846 79.872881 
L 46.850938 80.221015 
L 46.892923 80.174497 
L 46.892923 80.174497 
L 47.277667 78.992889 
L 47.422597 79.116323 
L 47.390857 79.142522 
L 47.346857 79.384351 
L 47.36214 79.210536 
L 47.853356 79.120522 
L 47.912302 79.100033 
L 47.848318 78.930921 
L 47.745373 79.097011 
L 47.745373 79.097011 
L 47.745373 79.097011 
L 47.906761 78.688251 
L 47.744197 79.063087 
L 47.935142 79.015729 
L 47.917341 79.087438 
L 47.943539 79.14588 
L 47.919524 79.128751 
L 47.919524 79.128751 
L 47.873173 79.066782 
L 48.425351 79.078705 
L 48.298726 79.20617 
L 48.579853 79.085591 
L 48.379672 79.055194 
L 48.190071 79.144201 
L 48.1543 78.33088 
L 48.354314 78.178057 
L 48.370771 78.131539 
L 48.478755 78.15992 
L 48.428038 78.182088 
L 48.229872 78.249431 
L 48.576999 78.594878 
L 48.702952 78.442895 
L 48.702952 78.442895 
L 48.702952 78.442895 
L 48.435595 78.552222 
L 48.421321 78.396712 
L 48.210559 78.299476 
L 48.232559 78.180073 
L 48.232559 78.180073 
L 48.232559 78.180073 
L 48.151781 78.484711 
L 48.02734 78.117936 
L 48.11769 77.932029 
L 48.125415 77.809771 
L 48.049843 77.851419 
L 48.042622 77.689863 
L 47.9825 77.778702 
L 47.788197 77.707497 
L 47.781983 77.632261 
L 47.724716 77.65023 
L 46.85732 75.786629 
L 46.687703 75.83701 
L 46.453263 74.057546 
L 46.189433 73.948219 
L 45.818123 74.181484 
L 45.545225 74.560351 
L 45.477546 74.375787 
L 45.336647 74.396444 
L 45.362341 73.985165 
L 45.166359 73.924204 
L 45.204816 73.798587 
L 44.562456 73.612512 
L 44.599738 73.712099 
L 44.056796 74.088111 
L 44.090384 74.117164 
L 43.508313 74.763555 
L 43.466664 74.934683 
L 43.069325 75.205398 
L 42.673832 75.248726 
L 42.299668 75.486357 
L 42.116448 76.025772 
L 42.367514 76.044581 
L 39.997414 78.311232 
L 38.334163 79.780516 
L 37.661405 80.388449 
L 37.148357 80.619531 
L 36.014914 81.423615 
L 35.039819 81.90274 
L 34.118162 82.535528 
L 34.265242 82.521589 
L 31.752445 83.706556 
L 32.04118 83.886249 
L 28.883588 85.429761 
L 28.266368 86.6332 
L 27.083383 87.825052 
L 26.161894 89.799827 
L 26.013807 91.467781 
L 24.639844 93.528373 
L 23.960336 95.350325 
L 21.812854 94.441616 
L 20.613695 101.678709 
L 21.248247 101.665946 
L 23.419359 102.454412 
L 24.301114 102.930178 
L 25.086994 103.125321 
L 25.704853 103.137245 
L 27.707623 102.966789 
L 28.547041 102.971827 
L 29.963106 103.369502 
L 31.602746 103.672629 
L 32.129381 103.891116 
L 32.809157 103.997588 
L 33.48796 103.911604 
L 36.27127 104.65859 
L 37.109395 104.59259 
L 37.801969 104.297524 
L 39.774561 102.46516 
L 41.07171 101.008303 
L 41.564438 100.211272 
L 42.096463 99.051833 
L 41.640178 99.813093 
L 41.264334 99.527935 
L 40.996138 98.571028 
L 40.906963 98.710584 
L 40.754644 99.292655 
L 40.581165 99.531126 
L 40.55144 99.493844 
L 40.423303 99.334303 
L 40.401639 99.505431 
L 40.043261 99.832238 
L 39.808485 100.728519 
L 39.54835 101.109233 
L 39.720989 101.393047 
L 39.808149 101.315964 
L 39.786653 101.406818 
L 39.786653 101.406818 
L 39.697142 101.529413 
L 39.534243 101.496833 
L 39.383099 101.773426 
L 39.478488 101.892997 
L 39.608975 102.907171 
L 39.73476 103.113734 
L 39.814195 102.972331 
L 39.820744 102.489846 
L 39.736104 102.397649 
L 39.746852 102.467511 
L 39.768348 102.898774 
L 39.846439 103.916978 
L 40.089444 103.736278 
L 40.12236 103.790521 
L 40.384678 103.914123 
L 40.396265 103.970718 
L 40.502738 103.91765 
L 40.815101 105.334202 
L 40.921909 105.491727 
L 40.941054 105.423376 
L 40.868505 105.095059 
L 40.860276 105.333362 
L 40.860276 105.333362 
L 41.034931 106.03047 
L 41.131159 106.360131 
L 41.02284 106.281704 
L 40.911833 106.805669 
L 40.993955 107.300412 
L 41.257112 107.678607 
L 41.257112 107.592623 
L 41.257112 107.592623 
L 41.257112 107.592623 
L 41.211937 107.709676 
L 40.922245 107.735202 
L 40.737346 107.879125 
L 40.729117 108.466905 
L 41.091022 109.329935 
L 41.169449 109.206837 
L 41.17264 109.010519 
L 40.889833 108.422906 
L 40.605348 108.206602 
L 40.572096 108.325838 
L 40.935344 108.978443 
L 41.303799 109.774466 
L 44.100292 114.01517 
L 44.385282 115.07383 
L 44.36748 116.587483 
L 44.480166 116.619626 
L 44.582104 116.450782 
L 44.558593 115.32362 
L 44.514258 114.782644 
L 44.114903 113.507226 
L 43.297216 112.208852 
L 40.487288 109.011526 
L 39.636853 107.009377 
L 39.438183 106.408497 
L 39.911262 101.337628 
L 39.935109 99.668499 
L 39.993048 98.098788 
L 40.046956 99.082565 
L 40.318175 102.972163 
L 41.486683 107.312168 
L 42.834212 109.923594 
L 42.767373 109.89622 
L 41.447889 109.505598 
L 40.975481 109.744237 
L 41.055756 109.870694 
L 41.984281 109.871701 
L 42.7489 109.478056 
L 43.050012 109.151922 
L 43.721257 108.445577 
L 44.494609 107.925475 
L 44.965673 107.715554 
L 45.771773 107.660134 
L 46.413629 107.779706 
L 47.365834 107.861155 
L 47.790044 107.990131 
L 49.195176 108.625774 
L 49.404426 108.636186 
L 49.635676 108.434325 
L 49.410808 107.979215 
L 48.704295 107.724454 
L 48.112988 107.965444 
L 47.386658 108.377059 
L 46.882678 109.087602 
L 46.481476 110.878318 
L 45.967084 113.219264 
L 45.39828 113.752868 
L 44.645921 113.972682 
L 43.996843 113.782308 
L 42.661405 113.323805 
L 42.465926 113.355646 
L 41.850771 113.196072 
L 41.59601 113.319657 
L 41.32244 113.267479 
L 40.911665 113.391736 
L 40.355793 113.187675 
L 39.897995 112.740156 
L 39.592685 111.982506 
L 39.920163 111.066912 
L 40.374937 110.475268 
L 41.381386 109.961212 
L 42.606993 109.814267 
L 43.385887 109.893533 
L 43.952843 110.284995 
L 44.086521 111.043568 
L 43.423505 112.216258 
L 42.556108 113.230163 
L 41.959259 113.75967 
L 40.772613 114.285851 
L 40.269473 114.46415 
L 39.280322 114.49809 
L 38.839318 114.628544 
L 39.035133 114.688397 
L 39.38797 114.602951 
L 39.828301 114.781149 
L 40.724415 114.638133 
L 41.859504 114.013977 
L 42.796594 113.019184 
L 44.350519 109.901426 
L 44.553723 109.728283 
L 44.881201 109.597124 
L 45.602996 109.796298 
L 45.868673 109.948449 
L 46.691566 110.248721 
L 47.039364 110.42875 
L 48.063782 110.512047 
L 48.423672 110.474261 
L 49.920833 111.066576 
L 50.671513 111.112423 
L 51.476101 111.330204 
L 53.000805 110.62574 
L 53.30813 110.584092 
L 54.688239 110.926684 
L 54.73946 110.784273 
L 54.504012 110.641694 
L 54.287205 110.601893 
L 53.814293 110.812151 
L 53.330298 111.378284 
L 53.194772 111.612003 
L 52.900882 112.582009 
L 52.585999 113.238577 
L 52.130889 113.484588 
L 50.549591 113.096552 
L 49.749537 112.62008 
L 49.282671 111.986335 
L 49.194168 111.197231 
L 49.358075 110.27727 
L 49.789338 109.809733 
L 50.204648 109.544056 
L 50.880763 109.449507 
L 51.94599 109.478896 
L 52.320658 109.729291 
L 52.315788 110.043669 
L 52.315788 110.043669 
" style="fill:none;stroke:#2b83ba;stroke-linecap:square;stroke-width:2;"/>
   </g>
   <g id="patch_3">
    <path d="M 19.7 128.114906 
L 19.7 7.2 
" style="fill:none;stroke:#000000;stroke-linecap:square;stroke-linejoin:miter;stroke-width:0.3;"/>
   </g>
   <g id="patch_4">
    <path d="M 80.157453 128.114906 
L 80.157453 7.2 
" style="fill:none;stroke:#000000;stroke-linecap:square;stroke-linejoin:miter;stroke-width:0.3;"/>
   </g>
   <g id="patch_5">
    <path d="M 19.7 128.114906 
L 80.157453 128.114906 
" style="fill:none;stroke:#000000;stroke-linecap:square;stroke-linejoin:miter;stroke-width:0.3;"/>
   </g>
   <g id="patch_6">
    <path d="M 19.7 7.2 
L 80.157453 7.2 
" style="fill:none;stroke:#000000;stroke-linecap:square;stroke-linejoin:miter;stroke-width:0.3;"/>
   </g>
  </g>
 </g>
 <defs>
  <clipPath id="pdd27b07e0c">
   <rect height="120.914906" width="60.457453" x="19.7" y="7.2"/>
  </clipPath>
 </defs>
</svg>
