<?xml version="1.0" encoding="utf-8" standalone="no"?>
<!DOCTYPE svg PUBLIC "-//W3C//DTD SVG 1.1//EN"
  "http://www.w3.org/Graphics/SVG/1.1/DTD/svg11.dtd">
<!-- Created with matplotlib (http://matplotlib.org/) -->
<svg height="144pt" version="1.1" viewBox="0 0 87 144" width="87pt" xmlns="http://www.w3.org/2000/svg" xmlns:xlink="http://www.w3.org/1999/xlink">
 <defs>
  <style type="text/css">
*{stroke-linecap:butt;stroke-linejoin:round;}
  </style>
 </defs>
 <g id="figure_1">
  <g id="patch_1">
   <path d="M -0 144.264593 
L 87.357453 144.264593 
L 87.357453 0 
L -0 0 
z
" style="fill:#ffffff;"/>
  </g>
  <g id="axes_1">
   <g id="patch_2">
    <path d="M 19.7 128.114906 
L 80.157453 128.114906 
L 80.157453 7.2 
L 19.7 7.2 
z
" style="fill:#ffffff;"/>
   </g>
   <g id="matplotlib.axis_1">
    <g id="xtick_1">
     <g id="line2d_1">
      <path clip-path="url(#pf574e917e6)" d="M 19.7 128.114906 
L 19.7 7.2 
" style="fill:none;opacity:0.1;stroke:#b0b0b0;stroke-linecap:square;stroke-width:0.1;"/>
     </g>
     <g id="line2d_2">
      <defs>
       <path d="M 0 0 
L 0 -2 
" id="m2505ce8775" style="stroke:#000000;stroke-width:0.3;"/>
      </defs>
      <g>
       <use style="stroke:#000000;stroke-width:0.3;" x="19.7" xlink:href="#m2505ce8775" y="128.114906"/>
      </g>
     </g>
     <g id="text_1">
      <!-- 0 -->
      <defs>
       <path d="M 3.609375 32.71875 
Q 3.609375 44.046875 7.03125 52.21875 
Q 10.453125 60.40625 16.109375 64.40625 
Q 20.515625 67.578125 25.203125 67.578125 
Q 32.8125 67.578125 38.875 59.8125 
Q 46.4375 50.203125 46.4375 33.734375 
Q 46.4375 22.21875 43.109375 14.15625 
Q 39.796875 6.109375 34.640625 2.46875 
Q 29.5 -1.171875 24.703125 -1.171875 
Q 15.234375 -1.171875 8.9375 10.015625 
Q 3.609375 19.4375 3.609375 32.71875 
z
M 13.1875 31.5 
Q 13.1875 17.828125 16.546875 9.1875 
Q 19.34375 1.90625 24.859375 1.90625 
Q 27.484375 1.90625 30.3125 4.265625 
Q 33.15625 6.640625 34.625 12.203125 
Q 36.859375 20.609375 36.859375 35.890625 
Q 36.859375 47.21875 34.515625 54.78125 
Q 32.765625 60.40625 29.984375 62.75 
Q 27.984375 64.359375 25.140625 64.359375 
Q 21.828125 64.359375 19.234375 61.375 
Q 15.71875 57.328125 14.453125 48.625 
Q 13.1875 39.9375 13.1875 31.5 
z
" id="TimesNewRomanPSMT-30"/>
      </defs>
      <g transform="translate(18.2 135.781156)scale(0.06 -0.06)">
       <use xlink:href="#TimesNewRomanPSMT-30"/>
      </g>
     </g>
    </g>
    <g id="xtick_2">
     <g id="line2d_3">
      <path clip-path="url(#pf574e917e6)" d="M 33.13499 128.114906 
L 33.13499 7.2 
" style="fill:none;opacity:0.1;stroke:#b0b0b0;stroke-linecap:square;stroke-width:0.1;"/>
     </g>
     <g id="line2d_4">
      <g>
       <use style="stroke:#000000;stroke-width:0.3;" x="33.13499" xlink:href="#m2505ce8775" y="128.114906"/>
      </g>
     </g>
     <g id="text_2">
      <!-- 80 -->
      <defs>
       <path d="M 19.1875 33.34375 
Q 11.328125 39.796875 9.046875 43.703125 
Q 6.78125 47.609375 6.78125 51.8125 
Q 6.78125 58.25 11.765625 62.90625 
Q 16.75 67.578125 25 67.578125 
Q 33.015625 67.578125 37.890625 63.234375 
Q 42.78125 58.890625 42.78125 53.328125 
Q 42.78125 49.609375 40.140625 45.75 
Q 37.5 41.890625 29.15625 36.671875 
Q 37.75 30.03125 40.53125 26.21875 
Q 44.234375 21.234375 44.234375 15.71875 
Q 44.234375 8.734375 38.90625 3.78125 
Q 33.59375 -1.171875 24.953125 -1.171875 
Q 15.53125 -1.171875 10.25 4.734375 
Q 6.0625 9.46875 6.0625 15.09375 
Q 6.0625 19.484375 9.015625 23.796875 
Q 11.96875 28.125 19.1875 33.34375 
z
M 26.859375 38.578125 
Q 32.71875 43.84375 34.28125 46.890625 
Q 35.84375 49.953125 35.84375 53.8125 
Q 35.84375 58.9375 32.953125 61.84375 
Q 30.078125 64.75 25.09375 64.75 
Q 20.125 64.75 17 61.859375 
Q 13.875 58.984375 13.875 55.125 
Q 13.875 52.59375 15.15625 50.046875 
Q 16.453125 47.515625 18.84375 45.21875 
z
M 21.484375 31.5 
Q 17.4375 28.078125 15.484375 24.046875 
Q 13.53125 20.015625 13.53125 15.328125 
Q 13.53125 9.03125 16.96875 5.25 
Q 20.40625 1.46875 25.734375 1.46875 
Q 31 1.46875 34.171875 4.4375 
Q 37.359375 7.421875 37.359375 11.671875 
Q 37.359375 15.1875 35.5 17.96875 
Q 32.03125 23.140625 21.484375 31.5 
z
" id="TimesNewRomanPSMT-38"/>
      </defs>
      <g transform="translate(30.13499 135.781156)scale(0.06 -0.06)">
       <use xlink:href="#TimesNewRomanPSMT-38"/>
       <use x="50" xlink:href="#TimesNewRomanPSMT-30"/>
      </g>
     </g>
    </g>
    <g id="xtick_3">
     <g id="line2d_5">
      <path clip-path="url(#pf574e917e6)" d="M 46.569979 128.114906 
L 46.569979 7.2 
" style="fill:none;opacity:0.1;stroke:#b0b0b0;stroke-linecap:square;stroke-width:0.1;"/>
     </g>
     <g id="line2d_6">
      <g>
       <use style="stroke:#000000;stroke-width:0.3;" x="46.569979" xlink:href="#m2505ce8775" y="128.114906"/>
      </g>
     </g>
     <g id="text_3">
      <!-- 160 -->
      <defs>
       <path d="M 11.71875 59.71875 
L 27.828125 67.578125 
L 29.4375 67.578125 
L 29.4375 11.671875 
Q 29.4375 6.109375 29.90625 4.734375 
Q 30.375 3.375 31.828125 2.640625 
Q 33.296875 1.90625 37.796875 1.8125 
L 37.796875 0 
L 12.890625 0 
L 12.890625 1.8125 
Q 17.578125 1.90625 18.9375 2.609375 
Q 20.3125 3.328125 20.84375 4.515625 
Q 21.390625 5.71875 21.390625 11.671875 
L 21.390625 47.40625 
Q 21.390625 54.640625 20.90625 56.6875 
Q 20.5625 58.25 19.65625 58.984375 
Q 18.75 59.71875 17.484375 59.71875 
Q 15.671875 59.71875 12.453125 58.203125 
z
" id="TimesNewRomanPSMT-31"/>
       <path d="M 44.828125 67.578125 
L 44.828125 65.765625 
Q 38.375 65.140625 34.296875 63.203125 
Q 30.21875 61.28125 26.234375 57.328125 
Q 22.265625 53.375 19.65625 48.515625 
Q 17.046875 43.65625 15.28125 36.96875 
Q 22.3125 41.796875 29.390625 41.796875 
Q 36.1875 41.796875 41.15625 36.328125 
Q 46.140625 30.859375 46.140625 22.265625 
Q 46.140625 13.96875 41.109375 7.125 
Q 35.0625 -1.171875 25.09375 -1.171875 
Q 18.3125 -1.171875 13.578125 3.328125 
Q 4.296875 12.0625 4.296875 25.984375 
Q 4.296875 34.859375 7.859375 42.859375 
Q 11.421875 50.875 18.03125 57.078125 
Q 24.65625 63.28125 30.703125 65.421875 
Q 36.765625 67.578125 42 67.578125 
z
M 14.453125 33.40625 
Q 13.578125 26.8125 13.578125 22.75 
Q 13.578125 18.0625 15.3125 12.5625 
Q 17.046875 7.078125 20.453125 3.859375 
Q 22.953125 1.5625 26.515625 1.5625 
Q 30.765625 1.5625 34.109375 5.5625 
Q 37.453125 9.578125 37.453125 17 
Q 37.453125 25.34375 34.125 31.4375 
Q 30.8125 37.546875 24.703125 37.546875 
Q 22.859375 37.546875 20.734375 36.765625 
Q 18.609375 35.984375 14.453125 33.40625 
z
" id="TimesNewRomanPSMT-36"/>
      </defs>
      <g transform="translate(42.069979 135.781156)scale(0.06 -0.06)">
       <use xlink:href="#TimesNewRomanPSMT-31"/>
       <use x="50" xlink:href="#TimesNewRomanPSMT-36"/>
       <use x="100" xlink:href="#TimesNewRomanPSMT-30"/>
      </g>
     </g>
    </g>
    <g id="xtick_4">
     <g id="line2d_7">
      <path clip-path="url(#pf574e917e6)" d="M 60.004969 128.114906 
L 60.004969 7.2 
" style="fill:none;opacity:0.1;stroke:#b0b0b0;stroke-linecap:square;stroke-width:0.1;"/>
     </g>
     <g id="line2d_8">
      <g>
       <use style="stroke:#000000;stroke-width:0.3;" x="60.004969" xlink:href="#m2505ce8775" y="128.114906"/>
      </g>
     </g>
     <g id="text_4">
      <!-- 240 -->
      <defs>
       <path d="M 45.84375 12.75 
L 41.21875 0 
L 2.15625 0 
L 2.15625 1.8125 
Q 19.390625 17.53125 26.421875 27.484375 
Q 33.453125 37.453125 33.453125 45.703125 
Q 33.453125 52 29.59375 56.046875 
Q 25.734375 60.109375 20.359375 60.109375 
Q 15.484375 60.109375 11.59375 57.25 
Q 7.71875 54.390625 5.859375 48.875 
L 4.046875 48.875 
Q 5.28125 57.90625 10.328125 62.734375 
Q 15.375 67.578125 22.953125 67.578125 
Q 31 67.578125 36.390625 62.40625 
Q 41.796875 57.234375 41.796875 50.203125 
Q 41.796875 45.171875 39.453125 40.140625 
Q 35.84375 32.234375 27.734375 23.390625 
Q 15.578125 10.109375 12.546875 7.375 
L 29.828125 7.375 
Q 35.109375 7.375 37.234375 7.765625 
Q 39.359375 8.15625 41.0625 9.34375 
Q 42.78125 10.546875 44.046875 12.75 
z
" id="TimesNewRomanPSMT-32"/>
       <path d="M 46.53125 24.421875 
L 46.53125 17.484375 
L 37.640625 17.484375 
L 37.640625 0 
L 29.59375 0 
L 29.59375 17.484375 
L 1.5625 17.484375 
L 1.5625 23.734375 
L 32.28125 67.578125 
L 37.640625 67.578125 
L 37.640625 24.421875 
z
M 29.59375 24.421875 
L 29.59375 57.28125 
L 6.34375 24.421875 
z
" id="TimesNewRomanPSMT-34"/>
      </defs>
      <g transform="translate(55.504969 135.781156)scale(0.06 -0.06)">
       <use xlink:href="#TimesNewRomanPSMT-32"/>
       <use x="50" xlink:href="#TimesNewRomanPSMT-34"/>
       <use x="100" xlink:href="#TimesNewRomanPSMT-30"/>
      </g>
     </g>
    </g>
    <g id="xtick_5">
     <g id="line2d_9">
      <path clip-path="url(#pf574e917e6)" d="M 73.439958 128.114906 
L 73.439958 7.2 
" style="fill:none;opacity:0.1;stroke:#b0b0b0;stroke-linecap:square;stroke-width:0.1;"/>
     </g>
     <g id="line2d_10">
      <g>
       <use style="stroke:#000000;stroke-width:0.3;" x="73.439958" xlink:href="#m2505ce8775" y="128.114906"/>
      </g>
     </g>
     <g id="text_5">
      <!-- 320 -->
      <defs>
       <path d="M 5.078125 53.609375 
Q 7.90625 60.296875 12.21875 63.9375 
Q 16.546875 67.578125 23 67.578125 
Q 30.953125 67.578125 35.203125 62.40625 
Q 38.421875 58.546875 38.421875 54.15625 
Q 38.421875 46.921875 29.34375 39.203125 
Q 35.453125 36.8125 38.578125 32.375 
Q 41.703125 27.9375 41.703125 21.921875 
Q 41.703125 13.328125 36.234375 7.03125 
Q 29.109375 -1.171875 15.578125 -1.171875 
Q 8.890625 -1.171875 6.46875 0.484375 
Q 4.046875 2.15625 4.046875 4.046875 
Q 4.046875 5.46875 5.1875 6.546875 
Q 6.34375 7.625 7.953125 7.625 
Q 9.1875 7.625 10.453125 7.234375 
Q 11.28125 6.984375 14.203125 5.4375 
Q 17.140625 3.90625 18.265625 3.609375 
Q 20.0625 3.078125 22.125 3.078125 
Q 27.09375 3.078125 30.78125 6.9375 
Q 34.46875 10.796875 34.46875 16.0625 
Q 34.46875 19.921875 32.765625 23.578125 
Q 31.5 26.3125 29.984375 27.734375 
Q 27.875 29.6875 24.21875 31.265625 
Q 20.5625 32.859375 16.75 32.859375 
L 15.1875 32.859375 
L 15.1875 34.328125 
Q 19.046875 34.8125 22.921875 37.109375 
Q 26.8125 39.40625 28.5625 42.625 
Q 30.328125 45.84375 30.328125 49.703125 
Q 30.328125 54.734375 27.171875 57.828125 
Q 24.03125 60.9375 19.34375 60.9375 
Q 11.765625 60.9375 6.6875 52.828125 
z
" id="TimesNewRomanPSMT-33"/>
      </defs>
      <g transform="translate(68.939958 135.781156)scale(0.06 -0.06)">
       <use xlink:href="#TimesNewRomanPSMT-33"/>
       <use x="50" xlink:href="#TimesNewRomanPSMT-32"/>
       <use x="100" xlink:href="#TimesNewRomanPSMT-30"/>
      </g>
     </g>
    </g>
   </g>
   <g id="matplotlib.axis_2">
    <g id="ytick_1">
     <g id="line2d_11">
      <path clip-path="url(#pf574e917e6)" d="M 19.7 128.114906 
L 80.157453 128.114906 
" style="fill:none;opacity:0.1;stroke:#b0b0b0;stroke-linecap:square;stroke-width:0.1;"/>
     </g>
     <g id="line2d_12">
      <defs>
       <path d="M 0 0 
L 2 0 
" id="mc6fe373b51" style="stroke:#000000;stroke-width:0.3;"/>
      </defs>
      <g>
       <use style="stroke:#000000;stroke-width:0.3;" x="19.7" xlink:href="#mc6fe373b51" y="128.114906"/>
      </g>
     </g>
     <g id="text_6">
      <!-- 0 -->
      <g transform="translate(13.2 130.198031)scale(0.06 -0.06)">
       <use xlink:href="#TimesNewRomanPSMT-30"/>
      </g>
     </g>
    </g>
    <g id="ytick_2">
     <g id="line2d_13">
      <path clip-path="url(#pf574e917e6)" d="M 19.7 102.9243 
L 80.157453 102.9243 
" style="fill:none;opacity:0.1;stroke:#b0b0b0;stroke-linecap:square;stroke-width:0.1;"/>
     </g>
     <g id="line2d_14">
      <g>
       <use style="stroke:#000000;stroke-width:0.3;" x="19.7" xlink:href="#mc6fe373b51" y="102.9243"/>
      </g>
     </g>
     <g id="text_7">
      <!-- 150 -->
      <defs>
       <path d="M 43.40625 66.21875 
L 39.59375 57.90625 
L 19.671875 57.90625 
L 15.328125 49.03125 
Q 28.265625 47.125 35.84375 39.40625 
Q 42.328125 32.765625 42.328125 23.78125 
Q 42.328125 18.5625 40.203125 14.109375 
Q 38.09375 9.671875 34.859375 6.546875 
Q 31.640625 3.421875 27.6875 1.515625 
Q 22.078125 -1.171875 16.15625 -1.171875 
Q 10.203125 -1.171875 7.484375 0.84375 
Q 4.78125 2.875 4.78125 5.328125 
Q 4.78125 6.6875 5.90625 7.734375 
Q 7.03125 8.796875 8.734375 8.796875 
Q 10.015625 8.796875 10.96875 8.40625 
Q 11.921875 8.015625 14.203125 6.390625 
Q 17.875 3.859375 21.625 3.859375 
Q 27.34375 3.859375 31.65625 8.171875 
Q 35.984375 12.5 35.984375 18.703125 
Q 35.984375 24.703125 32.125 29.90625 
Q 28.265625 35.109375 21.484375 37.9375 
Q 16.15625 40.140625 6.984375 40.484375 
L 19.671875 66.21875 
z
" id="TimesNewRomanPSMT-35"/>
      </defs>
      <g transform="translate(7.2 105.007425)scale(0.06 -0.06)">
       <use xlink:href="#TimesNewRomanPSMT-31"/>
       <use x="50" xlink:href="#TimesNewRomanPSMT-35"/>
       <use x="100" xlink:href="#TimesNewRomanPSMT-30"/>
      </g>
     </g>
    </g>
    <g id="ytick_3">
     <g id="line2d_15">
      <path clip-path="url(#pf574e917e6)" d="M 19.7 77.733695 
L 80.157453 77.733695 
" style="fill:none;opacity:0.1;stroke:#b0b0b0;stroke-linecap:square;stroke-width:0.1;"/>
     </g>
     <g id="line2d_16">
      <g>
       <use style="stroke:#000000;stroke-width:0.3;" x="19.7" xlink:href="#mc6fe373b51" y="77.733695"/>
      </g>
     </g>
     <g id="text_8">
      <!-- 300 -->
      <g transform="translate(7.2 79.81682)scale(0.06 -0.06)">
       <use xlink:href="#TimesNewRomanPSMT-33"/>
       <use x="50" xlink:href="#TimesNewRomanPSMT-30"/>
       <use x="100" xlink:href="#TimesNewRomanPSMT-30"/>
      </g>
     </g>
    </g>
    <g id="ytick_4">
     <g id="line2d_17">
      <path clip-path="url(#pf574e917e6)" d="M 19.7 52.54309 
L 80.157453 52.54309 
" style="fill:none;opacity:0.1;stroke:#b0b0b0;stroke-linecap:square;stroke-width:0.1;"/>
     </g>
     <g id="line2d_18">
      <g>
       <use style="stroke:#000000;stroke-width:0.3;" x="19.7" xlink:href="#mc6fe373b51" y="52.54309"/>
      </g>
     </g>
     <g id="text_9">
      <!-- 450 -->
      <g transform="translate(7.2 54.626215)scale(0.06 -0.06)">
       <use xlink:href="#TimesNewRomanPSMT-34"/>
       <use x="50" xlink:href="#TimesNewRomanPSMT-35"/>
       <use x="100" xlink:href="#TimesNewRomanPSMT-30"/>
      </g>
     </g>
    </g>
    <g id="ytick_5">
     <g id="line2d_19">
      <path clip-path="url(#pf574e917e6)" d="M 19.7 27.352484 
L 80.157453 27.352484 
" style="fill:none;opacity:0.1;stroke:#b0b0b0;stroke-linecap:square;stroke-width:0.1;"/>
     </g>
     <g id="line2d_20">
      <g>
       <use style="stroke:#000000;stroke-width:0.3;" x="19.7" xlink:href="#mc6fe373b51" y="27.352484"/>
      </g>
     </g>
     <g id="text_10">
      <!-- 600 -->
      <g transform="translate(7.2 29.435609)scale(0.06 -0.06)">
       <use xlink:href="#TimesNewRomanPSMT-36"/>
       <use x="50" xlink:href="#TimesNewRomanPSMT-30"/>
       <use x="100" xlink:href="#TimesNewRomanPSMT-30"/>
      </g>
     </g>
    </g>
   </g>
   <g id="line2d_21">
    <path clip-path="url(#pf574e917e6)" d="M 44.096765 77.343912 
L 43.230712 77.838152 
L 43.893057 77.607406 
L 45.269136 76.713476 
L 45.269136 76.713476 
L 45.269136 76.713476 
L 42.902059 78.283186 
L 43.323918 77.883663 
L 44.574379 76.777292 
L 43.131461 77.61446 
L 44.523158 76.644621 
L 42.062204 78.009616 
L 43.834111 76.477188 
L 41.557217 78.001219 
L 42.945723 76.77007 
L 41.107312 77.813129 
L 42.51933 76.802146 
L 41.795352 77.626887 
L 41.750009 80.210435 
L 41.873946 80.904856 
L 43.167736 80.604248 
L 43.56474 81.906603 
L 44.007927 82.556688 
L 45.800994 82.325103 
L 46.456285 82.260615 
L 48.091324 81.405814 
L 44.100124 85.676461 
L 46.504148 84.040247 
L 47.482719 83.684052 
L 46.785947 84.742561 
L 46.839351 85.017307 
L 45.663957 87.032051 
L 49.501998 83.893806 
L 45.958015 87.466673 
L 46.71642 87.122737 
L 45.075169 89.162505 
L 44.919155 90.034268 
L 48.640311 87.240797 
L 45.262083 89.930986 
L 45.452692 89.701416 
L 45.287273 89.62534 
L 45.364189 89.521891 
L 45.364189 89.521891 
L 45.364189 89.521891 
L 45.298861 89.643981 
L 45.165519 89.154276 
L 45.460585 88.365978 
L 45.393746 88.389321 
L 45.408356 87.981401 
L 45.639102 87.017273 
L 45.717865 87.287988 
L 45.872535 87.417635 
L 46.092701 85.805773 
L 46.671077 85.058115 
L 46.562926 84.845339 
L 47.2335 84.381328 
L 47.244248 84.430534 
L 48.028011 84.699065 
L 47.868471 84.549265 
L 48.089476 84.512487 
L 48.513014 84.970284 
L 48.456587 85.012604 
L 48.339031 84.377129 
L 48.339031 84.377129 
L 48.339031 84.377129 
L 48.561212 85.248556 
L 48.309978 83.657854 
L 49.082658 85.901497 
L 49.56447 86.320669 
L 49.611997 85.801742 
L 49.118597 84.669173 
L 49.118597 84.669173 
L 49.118597 84.669173 
L 50.025458 86.673169 
L 50.167533 86.441919 
L 49.738453 85.81904 
L 49.738453 85.81904 
L 49.738453 85.81904 
L 50.255365 86.614055 
L 50.310784 86.207311 
L 50.529606 87.188905 
L 50.003627 85.801574 
L 50.003627 85.801574 
L 50.003627 85.801574 
L 50.700902 87.684488 
L 50.453363 86.450316 
L 51.046686 88.412664 
L 50.396936 87.11115 
L 50.639941 87.405376 
L 50.404157 86.499858 
L 50.501729 86.476682 
L 50.267288 86.589872 
L 51.489536 89.080383 
L 51.82222 88.946369 
L 51.391965 88.013141 
L 51.726496 88.81118 
L 52.486413 89.88833 
L 50.726933 86.637902 
L 52.966546 91.019388 
L 50.984885 87.065807 
L 52.246598 88.855347 
L 51.883349 88.991712 
L 52.706914 90.54211 
L 52.121317 88.861561 
L 52.694151 90.176175 
L 51.627413 88.315093 
L 53.188223 89.664302 
L 53.10543 91.395232 
L 53.022301 91.163814 
L 52.935813 91.874189 
L 52.613541 90.989831 
L 51.629764 89.531463 
L 53.518052 93.624769 
L 53.039262 93.089552 
L 51.821884 90.257121 
L 53.836293 93.289062 
L 53.206024 92.197637 
L 53.006347 91.396576 
L 51.772007 88.755425 
L 51.772007 88.755425 
L 51.772007 88.755425 
L 53.499579 92.090157 
L 53.290497 91.940525 
L 52.571893 90.699636 
L 54.325495 93.388145 
L 52.838409 90.74733 
L 52.980652 90.87026 
L 54.917642 93.257154 
L 55.055854 93.201902 
L 54.285022 92.460291 
L 54.613171 92.816822 
L 53.543578 90.587117 
L 53.179658 90.1179 
L 54.34783 92.617312 
L 52.657373 90.607774 
L 53.874247 92.613786 
L 53.912033 92.080081 
L 54.154367 92.444001 
L 55.314982 93.682539 
L 54.006582 91.470636 
L 54.949214 92.551817 
L 54.645247 91.832205 
L 55.213883 92.334002 
L 54.104657 90.983618 
L 56.286667 93.994567 
L 54.6654 91.960509 
L 55.16854 92.772319 
L 55.328753 93.270925 
L 56.346789 94.639278 
L 55.509957 94.002796 
L 54.449768 92.897096 
L 54.449768 92.897096 
L 54.449768 92.897096 
L 55.619116 94.223801 
L 54.83636 92.842684 
L 53.961406 91.985196 
L 56.133508 94.546577 
L 56.039463 94.38183 
L 56.416819 94.658759 
L 56.229904 93.658356 
L 55.842977 93.017507 
L 57.183789 94.337663 
L 55.97296 92.927157 
L 56.784602 94.090291 
L 56.151142 93.070071 
L 57.557785 94.808559 
L 56.688541 93.983987 
L 56.346621 94.032521 
L 56.909211 94.335815 
L 55.702917 93.057812 
L 55.788061 93.021706 
L 55.775634 93.056301 
L 55.003794 91.777961 
L 57.165987 94.485448 
L 56.158363 92.44736 
L 57.49145 93.5408 
L 57.841599 93.549869 
L 57.549556 92.791295 
L 58.912704 93.454144 
L 57.359283 91.41169 
L 56.729854 91.268439 
L 57.853355 92.792135 
L 58.600173 94.583859 
L 56.848586 93.078468 
L 57.841096 93.917315 
L 55.114464 90.901496 
L 57.855874 93.713272 
L 57.391695 92.948653 
L 57.70557 93.403427 
L 57.70557 93.403427 
L 57.861752 93.795393 
L 58.21123 94.065604 
L 56.525306 92.007532 
L 56.525306 92.007532 
L 56.525306 92.007532 
L 58.35045 94.160153 
L 57.84563 93.338435 
L 57.5289 93.058148 
L 58.331137 94.170901 
L 58.331137 94.170901 
L 58.331137 94.170901 
L 57.351894 92.834623 
L 58.852079 94.266121 
L 57.312933 92.18353 
L 58.294023 93.125491 
L 58.144894 93.007599 
L 58.39193 93.458175 
L 58.192085 94.01875 
L 57.820943 93.633333 
L 57.899874 93.786324 
L 57.975949 94.260412 
L 57.498839 93.730905 
L 57.955293 94.638606 
L 57.558121 93.870293 
L 57.207804 93.557762 
L 57.782318 94.478562 
L 57.531083 93.948384 
L 57.530579 93.751058 
L 56.614985 92.504626 
L 58.159337 93.984658 
L 58.200482 93.71747 
L 58.486647 93.849133 
L 57.96285 92.794822 
L 58.355488 93.068056 
L 58.534677 92.965782 
L 58.334496 92.974683 
L 58.381182 93.19804 
L 57.983674 92.613282 
L 58.520234 93.682035 
L 58.317534 93.436007 
L 57.690624 93.184101 
L 58.202665 93.873988 
L 58.026163 93.524678 
L 58.026163 93.524678 
L 57.636716 93.083003 
L 57.636716 93.083003 
L 57.636716 93.083003 
L 58.125917 93.80463 
L 58.01575 93.613013 
L 58.044132 93.431809 
L 57.933965 93.345321 
L 57.695326 92.74209 
L 57.493801 92.555511 
L 57.648136 92.910027 
L 57.491786 93.113063 
L 57.798272 93.618219 
L 57.665097 93.650463 
L 57.859233 93.795393 
L 58.007857 93.744172 
L 57.970239 93.724691 
L 57.96369 93.854003 
L 57.987873 93.823774 
L 57.804653 93.783973 
L 57.812378 94.003971 
L 57.838577 93.962827 
L 57.483389 94.032688 
L 57.303024 93.771378 
L 57.437206 93.849469 
L 57.472641 93.828309 
L 57.492626 94.078199 
L 57.272963 93.972399 
L 57.159438 94.073497 
L 56.627244 94.180641 
L 56.626069 94.463448 
L 56.47375 94.440608 
L 56.47375 94.440608 
L 56.47375 94.440608 
L 56.640008 94.464623 
L 56.633962 94.460929 
L 56.610618 94.323892 
L 56.575688 94.401983 
L 56.34427 94.062078 
L 56.356865 94.156794 
L 56.11302 94.092978 
L 56.046181 94.299205 
L 56.717763 94.328762 
L 56.427063 94.410883 
L 56.464681 94.613248 
L 56.303629 94.822498 
L 56.352163 94.973809 
L 56.168943 95.017641 
L 56.153997 95.237471 
L 56.350987 95.15048 
L 56.366605 95.005046 
L 56.09673 95.009412 
L 56.177676 94.831063 
L 55.935678 94.728957 
L 55.978838 94.522226 
L 55.808382 94.504592 
L 55.646658 94.337831 
L 55.681757 94.474028 
L 55.61878 94.820819 
L 54.860039 94.408868 
L 54.033284 94.856421 
L 53.81379 95.702658 
L 53.500922 96.005113 
L 53.307962 96.630008 
L 53.764416 97.035745 
L 53.806568 97.449038 
L 53.757698 98.245062 
L 53.532159 98.774064 
L 53.509991 98.678676 
L 50.933328 99.23522 
L 50.05955 98.942673 
L 49.126658 99.3647 
L 46.322271 100.084815 
L 44.066201 100.165593 
L 41.321265 100.807618 
L 36.594835 100.922487 
L 30.086826 98.907574 
L 25.021347 99.452363 
L 22.460722 101.123172 
L 20.132739 102.53922 
L 18.996826 102.758882 
L 18.996826 102.758882 
" style="fill:none;stroke:#2b83ba;stroke-linecap:square;stroke-width:2;"/>
   </g>
   <g id="patch_3">
    <path d="M 19.7 128.114906 
L 19.7 7.2 
" style="fill:none;stroke:#000000;stroke-linecap:square;stroke-linejoin:miter;stroke-width:0.3;"/>
   </g>
   <g id="patch_4">
    <path d="M 80.157453 128.114906 
L 80.157453 7.2 
" style="fill:none;stroke:#000000;stroke-linecap:square;stroke-linejoin:miter;stroke-width:0.3;"/>
   </g>
   <g id="patch_5">
    <path d="M 19.7 128.114906 
L 80.157453 128.114906 
" style="fill:none;stroke:#000000;stroke-linecap:square;stroke-linejoin:miter;stroke-width:0.3;"/>
   </g>
   <g id="patch_6">
    <path d="M 19.7 7.2 
L 80.157453 7.2 
" style="fill:none;stroke:#000000;stroke-linecap:square;stroke-linejoin:miter;stroke-width:0.3;"/>
   </g>
  </g>
 </g>
 <defs>
  <clipPath id="pf574e917e6">
   <rect height="120.914906" width="60.457453" x="19.7" y="7.2"/>
  </clipPath>
 </defs>
</svg>
