<?xml version="1.0" encoding="utf-8" standalone="no"?>
<!DOCTYPE svg PUBLIC "-//W3C//DTD SVG 1.1//EN"
  "http://www.w3.org/Graphics/SVG/1.1/DTD/svg11.dtd">
<!-- Created with matplotlib (http://matplotlib.org/) -->
<svg height="81pt" version="1.1" viewBox="0 0 121 81" width="121pt" xmlns="http://www.w3.org/2000/svg" xmlns:xlink="http://www.w3.org/1999/xlink">
 <defs>
  <style type="text/css">
*{stroke-linecap:butt;stroke-linejoin:round;}
  </style>
 </defs>
 <g id="figure_1">
  <g id="patch_1">
   <path d="M 0 81.621931 
L 121.80394 81.621931 
L 121.80394 0 
L 0 0 
z
" style="fill:#ffffff;"/>
  </g>
  <g id="axes_1">
   <g id="patch_2">
    <path d="M 19.7 65.472244 
L 114.60394 65.472244 
L 114.60394 7.2 
L 19.7 7.2 
z
" style="fill:#ffffff;"/>
   </g>
   <g id="matplotlib.axis_1">
    <g id="xtick_1">
     <g id="line2d_1">
      <path clip-path="url(#pcabc861bac)" d="M 40.89578 65.472244 
L 40.89578 7.2 
" style="fill:none;opacity:0.1;stroke:#b0b0b0;stroke-linecap:square;stroke-width:0.1;"/>
     </g>
     <g id="line2d_2">
      <defs>
       <path d="M 0 0 
L 0 -2 
" id="mf69a6366cf" style="stroke:#000000;stroke-width:0.3;"/>
      </defs>
      <g>
       <use style="stroke:#000000;stroke-width:0.3;" x="40.89578" xlink:href="#mf69a6366cf" y="65.472244"/>
      </g>
     </g>
     <g id="text_1">
      <!-- 37 -->
      <defs>
       <path d="M 5.078125 53.609375 
Q 7.90625 60.296875 12.21875 63.9375 
Q 16.546875 67.578125 23 67.578125 
Q 30.953125 67.578125 35.203125 62.40625 
Q 38.421875 58.546875 38.421875 54.15625 
Q 38.421875 46.921875 29.34375 39.203125 
Q 35.453125 36.8125 38.578125 32.375 
Q 41.703125 27.9375 41.703125 21.921875 
Q 41.703125 13.328125 36.234375 7.03125 
Q 29.109375 -1.171875 15.578125 -1.171875 
Q 8.890625 -1.171875 6.46875 0.484375 
Q 4.046875 2.15625 4.046875 4.046875 
Q 4.046875 5.46875 5.1875 6.546875 
Q 6.34375 7.625 7.953125 7.625 
Q 9.1875 7.625 10.453125 7.234375 
Q 11.28125 6.984375 14.203125 5.4375 
Q 17.140625 3.90625 18.265625 3.609375 
Q 20.0625 3.078125 22.125 3.078125 
Q 27.09375 3.078125 30.78125 6.9375 
Q 34.46875 10.796875 34.46875 16.0625 
Q 34.46875 19.921875 32.765625 23.578125 
Q 31.5 26.3125 29.984375 27.734375 
Q 27.875 29.6875 24.21875 31.265625 
Q 20.5625 32.859375 16.75 32.859375 
L 15.1875 32.859375 
L 15.1875 34.328125 
Q 19.046875 34.8125 22.921875 37.109375 
Q 26.8125 39.40625 28.5625 42.625 
Q 30.328125 45.84375 30.328125 49.703125 
Q 30.328125 54.734375 27.171875 57.828125 
Q 24.03125 60.9375 19.34375 60.9375 
Q 11.765625 60.9375 6.6875 52.828125 
z
" id="TimesNewRomanPSMT-33"/>
       <path d="M 10.0625 66.21875 
L 45.5625 66.21875 
L 45.5625 64.359375 
L 23.484375 -1.375 
L 18.015625 -1.375 
L 37.796875 58.25 
L 19.578125 58.25 
Q 14.0625 58.25 11.71875 56.9375 
Q 7.625 54.6875 5.125 50 
L 3.71875 50.53125 
z
" id="TimesNewRomanPSMT-37"/>
      </defs>
      <g transform="translate(37.89578 73.138494)scale(0.06 -0.06)">
       <use xlink:href="#TimesNewRomanPSMT-33"/>
       <use x="50" xlink:href="#TimesNewRomanPSMT-37"/>
      </g>
     </g>
    </g>
    <g id="xtick_2">
     <g id="line2d_3">
      <path clip-path="url(#pcabc861bac)" d="M 75.718313 65.472244 
L 75.718313 7.2 
" style="fill:none;opacity:0.1;stroke:#b0b0b0;stroke-linecap:square;stroke-width:0.1;"/>
     </g>
     <g id="line2d_4">
      <g>
       <use style="stroke:#000000;stroke-width:0.3;" x="75.718313" xlink:href="#mf69a6366cf" y="65.472244"/>
      </g>
     </g>
     <g id="text_2">
      <!-- 38 -->
      <defs>
       <path d="M 19.1875 33.34375 
Q 11.328125 39.796875 9.046875 43.703125 
Q 6.78125 47.609375 6.78125 51.8125 
Q 6.78125 58.25 11.765625 62.90625 
Q 16.75 67.578125 25 67.578125 
Q 33.015625 67.578125 37.890625 63.234375 
Q 42.78125 58.890625 42.78125 53.328125 
Q 42.78125 49.609375 40.140625 45.75 
Q 37.5 41.890625 29.15625 36.671875 
Q 37.75 30.03125 40.53125 26.21875 
Q 44.234375 21.234375 44.234375 15.71875 
Q 44.234375 8.734375 38.90625 3.78125 
Q 33.59375 -1.171875 24.953125 -1.171875 
Q 15.53125 -1.171875 10.25 4.734375 
Q 6.0625 9.46875 6.0625 15.09375 
Q 6.0625 19.484375 9.015625 23.796875 
Q 11.96875 28.125 19.1875 33.34375 
z
M 26.859375 38.578125 
Q 32.71875 43.84375 34.28125 46.890625 
Q 35.84375 49.953125 35.84375 53.8125 
Q 35.84375 58.9375 32.953125 61.84375 
Q 30.078125 64.75 25.09375 64.75 
Q 20.125 64.75 17 61.859375 
Q 13.875 58.984375 13.875 55.125 
Q 13.875 52.59375 15.15625 50.046875 
Q 16.453125 47.515625 18.84375 45.21875 
z
M 21.484375 31.5 
Q 17.4375 28.078125 15.484375 24.046875 
Q 13.53125 20.015625 13.53125 15.328125 
Q 13.53125 9.03125 16.96875 5.25 
Q 20.40625 1.46875 25.734375 1.46875 
Q 31 1.46875 34.171875 4.4375 
Q 37.359375 7.421875 37.359375 11.671875 
Q 37.359375 15.1875 35.5 17.96875 
Q 32.03125 23.140625 21.484375 31.5 
z
" id="TimesNewRomanPSMT-38"/>
      </defs>
      <g transform="translate(72.718313 73.138494)scale(0.06 -0.06)">
       <use xlink:href="#TimesNewRomanPSMT-33"/>
       <use x="50" xlink:href="#TimesNewRomanPSMT-38"/>
      </g>
     </g>
    </g>
    <g id="xtick_3">
     <g id="line2d_5">
      <path clip-path="url(#pcabc861bac)" d="M 110.540847 65.472244 
L 110.540847 7.2 
" style="fill:none;opacity:0.1;stroke:#b0b0b0;stroke-linecap:square;stroke-width:0.1;"/>
     </g>
     <g id="line2d_6">
      <g>
       <use style="stroke:#000000;stroke-width:0.3;" x="110.540847" xlink:href="#mf69a6366cf" y="65.472244"/>
      </g>
     </g>
     <g id="text_3">
      <!-- 39 -->
      <defs>
       <path d="M 5.28125 -1.375 
L 5.28125 0.4375 
Q 11.625 0.53125 17.09375 3.390625 
Q 22.5625 6.25 27.65625 13.375 
Q 32.765625 20.515625 34.765625 29.046875 
Q 27.09375 24.125 20.90625 24.125 
Q 13.921875 24.125 8.9375 29.515625 
Q 3.953125 34.90625 3.953125 43.84375 
Q 3.953125 52.546875 8.9375 59.328125 
Q 14.9375 67.578125 24.609375 67.578125 
Q 32.765625 67.578125 38.578125 60.84375 
Q 45.703125 52.484375 45.703125 40.234375 
Q 45.703125 29.203125 40.28125 19.65625 
Q 34.859375 10.109375 25.203125 3.8125 
Q 17.328125 -1.375 8.0625 -1.375 
z
M 35.546875 32.671875 
Q 36.421875 39.015625 36.421875 42.828125 
Q 36.421875 47.5625 34.8125 53.046875 
Q 33.203125 58.546875 30.25 61.46875 
Q 27.296875 64.40625 23.53125 64.40625 
Q 19.1875 64.40625 15.90625 60.5 
Q 12.640625 56.59375 12.640625 48.875 
Q 12.640625 38.578125 17 32.765625 
Q 20.171875 28.5625 24.8125 28.5625 
Q 27.046875 28.5625 30.125 29.640625 
Q 33.203125 30.71875 35.546875 32.671875 
z
" id="TimesNewRomanPSMT-39"/>
      </defs>
      <g transform="translate(107.540847 73.138494)scale(0.06 -0.06)">
       <use xlink:href="#TimesNewRomanPSMT-33"/>
       <use x="50" xlink:href="#TimesNewRomanPSMT-39"/>
      </g>
     </g>
    </g>
   </g>
   <g id="matplotlib.axis_2">
    <g id="ytick_1">
     <g id="line2d_7">
      <path clip-path="url(#pcabc861bac)" d="M 19.7 62.631415 
L 114.60394 62.631415 
" style="fill:none;opacity:0.1;stroke:#b0b0b0;stroke-linecap:square;stroke-width:0.1;"/>
     </g>
     <g id="line2d_8">
      <defs>
       <path d="M 0 0 
L 2 0 
" id="mf6c9b08613" style="stroke:#000000;stroke-width:0.3;"/>
      </defs>
      <g>
       <use style="stroke:#000000;stroke-width:0.3;" x="19.7" xlink:href="#mf6c9b08613" y="62.631415"/>
      </g>
     </g>
     <g id="text_4">
      <!-- 0 -->
      <defs>
       <path d="M 3.609375 32.71875 
Q 3.609375 44.046875 7.03125 52.21875 
Q 10.453125 60.40625 16.109375 64.40625 
Q 20.515625 67.578125 25.203125 67.578125 
Q 32.8125 67.578125 38.875 59.8125 
Q 46.4375 50.203125 46.4375 33.734375 
Q 46.4375 22.21875 43.109375 14.15625 
Q 39.796875 6.109375 34.640625 2.46875 
Q 29.5 -1.171875 24.703125 -1.171875 
Q 15.234375 -1.171875 8.9375 10.015625 
Q 3.609375 19.4375 3.609375 32.71875 
z
M 13.1875 31.5 
Q 13.1875 17.828125 16.546875 9.1875 
Q 19.34375 1.90625 24.859375 1.90625 
Q 27.484375 1.90625 30.3125 4.265625 
Q 33.15625 6.640625 34.625 12.203125 
Q 36.859375 20.609375 36.859375 35.890625 
Q 36.859375 47.21875 34.515625 54.78125 
Q 32.765625 60.40625 29.984375 62.75 
Q 27.984375 64.359375 25.140625 64.359375 
Q 21.828125 64.359375 19.234375 61.375 
Q 15.71875 57.328125 14.453125 48.625 
Q 13.1875 39.9375 13.1875 31.5 
z
" id="TimesNewRomanPSMT-30"/>
      </defs>
      <g transform="translate(13.2 64.71454)scale(0.06 -0.06)">
       <use xlink:href="#TimesNewRomanPSMT-30"/>
      </g>
     </g>
    </g>
    <g id="ytick_2">
     <g id="line2d_9">
      <path clip-path="url(#pcabc861bac)" d="M 19.7 43.422347 
L 114.60394 43.422347 
" style="fill:none;opacity:0.1;stroke:#b0b0b0;stroke-linecap:square;stroke-width:0.1;"/>
     </g>
     <g id="line2d_10">
      <g>
       <use style="stroke:#000000;stroke-width:0.3;" x="19.7" xlink:href="#mf6c9b08613" y="43.422347"/>
      </g>
     </g>
     <g id="text_5">
      <!-- 100 -->
      <defs>
       <path d="M 11.71875 59.71875 
L 27.828125 67.578125 
L 29.4375 67.578125 
L 29.4375 11.671875 
Q 29.4375 6.109375 29.90625 4.734375 
Q 30.375 3.375 31.828125 2.640625 
Q 33.296875 1.90625 37.796875 1.8125 
L 37.796875 0 
L 12.890625 0 
L 12.890625 1.8125 
Q 17.578125 1.90625 18.9375 2.609375 
Q 20.3125 3.328125 20.84375 4.515625 
Q 21.390625 5.71875 21.390625 11.671875 
L 21.390625 47.40625 
Q 21.390625 54.640625 20.90625 56.6875 
Q 20.5625 58.25 19.65625 58.984375 
Q 18.75 59.71875 17.484375 59.71875 
Q 15.671875 59.71875 12.453125 58.203125 
z
" id="TimesNewRomanPSMT-31"/>
      </defs>
      <g transform="translate(7.2 45.505472)scale(0.06 -0.06)">
       <use xlink:href="#TimesNewRomanPSMT-31"/>
       <use x="50" xlink:href="#TimesNewRomanPSMT-30"/>
       <use x="100" xlink:href="#TimesNewRomanPSMT-30"/>
      </g>
     </g>
    </g>
    <g id="ytick_3">
     <g id="line2d_11">
      <path clip-path="url(#pcabc861bac)" d="M 19.7 24.213279 
L 114.60394 24.213279 
" style="fill:none;opacity:0.1;stroke:#b0b0b0;stroke-linecap:square;stroke-width:0.1;"/>
     </g>
     <g id="line2d_12">
      <g>
       <use style="stroke:#000000;stroke-width:0.3;" x="19.7" xlink:href="#mf6c9b08613" y="24.213279"/>
      </g>
     </g>
     <g id="text_6">
      <!-- 200 -->
      <defs>
       <path d="M 45.84375 12.75 
L 41.21875 0 
L 2.15625 0 
L 2.15625 1.8125 
Q 19.390625 17.53125 26.421875 27.484375 
Q 33.453125 37.453125 33.453125 45.703125 
Q 33.453125 52 29.59375 56.046875 
Q 25.734375 60.109375 20.359375 60.109375 
Q 15.484375 60.109375 11.59375 57.25 
Q 7.71875 54.390625 5.859375 48.875 
L 4.046875 48.875 
Q 5.28125 57.90625 10.328125 62.734375 
Q 15.375 67.578125 22.953125 67.578125 
Q 31 67.578125 36.390625 62.40625 
Q 41.796875 57.234375 41.796875 50.203125 
Q 41.796875 45.171875 39.453125 40.140625 
Q 35.84375 32.234375 27.734375 23.390625 
Q 15.578125 10.109375 12.546875 7.375 
L 29.828125 7.375 
Q 35.109375 7.375 37.234375 7.765625 
Q 39.359375 8.15625 41.0625 9.34375 
Q 42.78125 10.546875 44.046875 12.75 
z
" id="TimesNewRomanPSMT-32"/>
      </defs>
      <g transform="translate(7.2 26.296404)scale(0.06 -0.06)">
       <use xlink:href="#TimesNewRomanPSMT-32"/>
       <use x="50" xlink:href="#TimesNewRomanPSMT-30"/>
       <use x="100" xlink:href="#TimesNewRomanPSMT-30"/>
      </g>
     </g>
    </g>
   </g>
   <g id="line2d_13">
    <path clip-path="url(#pcabc861bac)" d="M 24.5466 17.490106 
L 25.754942 17.298015 
L 25.754942 17.298015 
L 25.754942 17.298015 
L 26.371301 17.298015 
L 26.371301 17.298015 
L 26.371301 17.298015 
L 26.998107 17.298015 
L 26.998107 17.490106 
L 27.875634 17.490106 
L 27.875634 17.298015 
L 28.446724 17.298015 
L 28.446724 17.490106 
L 29.059601 17.298015 
L 29.059601 17.298015 
L 30.55697 17.298015 
L 30.55697 17.490106 
L 31.424051 17.490106 
L 31.424051 17.298015 
L 35.049076 17.298015 
L 35.049076 17.298015 
L 36.170362 17.105924 
L 36.170362 16.913833 
L 36.866813 16.913833 
L 36.866813 17.298015 
L 38.137835 17.298015 
L 38.137835 16.913833 
L 39.683956 16.913833 
L 39.683956 17.105924 
L 40.899262 17.105924 
L 40.899262 16.913833 
L 41.80813 16.913833 
L 41.80813 17.105924 
L 44.022843 17.105924 
L 44.022843 16.913833 
L 44.538217 16.913833 
L 44.538217 16.913833 
L 44.538217 62.823505 
L 47.320537 17.682196 
L 47.320537 18.066378 
L 47.88118 18.066378 
L 47.88118 18.450559 
L 48.800495 18.83474 
L 48.800495 19.987284 
L 50.102858 20.947738 
L 50.102858 21.908191 
L 50.74011 21.908191 
L 50.74011 22.868644 
L 51.433078 22.868644 
L 51.433078 23.637007 
L 52.181763 23.637007 
L 52.181763 24.021189 
L 52.906072 24.021189 
L 52.906072 24.213279 
L 54.229328 24.40537 
L 54.229328 24.021189 
L 54.915332 24.021189 
L 54.915332 23.444917 
L 55.566513 23.444917 
L 55.566513 22.676554 
L 56.360467 22.676554 
L 56.360467 22.100282 
L 57.067364 22.100282 
L 57.067364 21.52401 
L 57.843907 21.52401 
L 57.843907 20.947738 
L 58.348834 20.947738 
L 58.348834 20.755647 
L 59.219397 19.987284 
L 59.219397 19.987284 
L 59.940223 19.987284 
L 59.940223 19.603103 
L 60.493902 19.603103 
L 60.493902 19.603103 
L 61.977342 19.026831 
L 61.977342 18.83474 
L 63.593107 18.83474 
L 63.593107 19.026831 
L 65.149674 19.026831 
L 65.149674 18.64265 
L 66.44159 18.64265 
L 66.44159 18.450559 
L 67.587252 17.874287 
L 67.587252 17.682196 
L 68.917472 17.298015 
L 68.917472 16.721743 
L 69.690533 16.721743 
L 69.690533 16.529652 
L 70.951108 16.337561 
L 70.951108 16.529652 
L 72.382315 16.529652 
L 72.382315 16.721743 
L 73.771734 16.721743 
L 73.771734 16.529652 
L 74.475149 16.529652 
L 74.475149 16.529652 
L 75.23428 16.337561 
L 75.23428 16.337561 
L 75.906355 16.337561 
L 75.906355 16.145471 
L 76.64111 16.145471 
L 76.64111 15.761289 
L 77.898204 15.761289 
L 77.898204 15.569199 
L 79.378162 15.569199 
L 79.378162 15.377108 
L 82.066461 15.377108 
L 82.066461 15.185017 
L 83.497667 15.185017 
L 83.497667 14.992927 
L 84.378677 14.992927 
L 84.378677 14.800836 
L 85.639253 14.800836 
L 85.639253 14.416655 
L 87.115729 14.416655 
L 87.115729 14.224564 
L 88.372822 14.032473 
L 88.372822 13.840383 
L 89.051861 13.840383 
L 89.051861 13.840383 
L 90.577088 13.648292 
L 90.577088 13.456201 
L 92.600278 13.456201 
L 92.600278 13.264111 
L 96.169587 12.687839 
L 96.810322 12.495748 
L 96.810322 12.495748 
L 97.872409 12.495748 
L 97.872409 12.303657 
L 98.154472 12.303657 
L 98.154472 12.111567 
L 98.788242 12.111567 
L 99.707557 11.919476 
L 99.707557 11.727385 
L 102.374963 11.727385 
L 102.374963 11.535295 
L 102.987839 11.535295 
L 102.987839 11.343204 
L 104.485208 11.343204 
L 104.485208 11.151113 
L 105.697032 11.151113 
L 105.697032 10.959022 
L 106.463128 10.959022 
L 106.463128 10.959022 
L 107.128239 10.766932 
L 107.128239 10.574841 
L 108.493282 10.574841 
L 108.493282 10.38275 
L 109.311611 10.38275 
L 109.311611 10.19066 
L 109.959311 10.19066 
L 109.959311 9.998569 
L 109.959311 9.998569 
" style="fill:none;stroke:#1f77b4;stroke-linecap:square;"/>
   </g>
   <g id="line2d_14">
    <path clip-path="url(#pcabc861bac)" d="M 24.013815 17.334512 
L 24.630174 17.329134 
L 25.25698 17.473778 
L 26.134508 17.353913 
L 26.705597 17.478004 
L 27.318474 17.346998 
L 28.196002 17.356218 
L 28.815843 17.541586 
L 29.682924 17.356987 
L 30.382857 17.32971 
L 30.936535 17.318569 
L 31.619057 17.335473 
L 32.221487 17.335473 
L 33.30795 17.38023 
L 33.593494 17.361405 
L 34.429235 16.978184 
L 35.125686 17.330094 
L 35.749009 17.269777 
L 36.396708 16.893472 
L 37.235931 16.877336 
L 37.942829 17.126286 
L 38.510436 17.122636 
L 39.158135 16.970884 
L 40.067003 17.120139 
L 40.686845 17.080568 
L 41.358919 17.141077 
L 42.281717 16.900771 
L 42.79709 16.9025 
L 43.556221 16.758048 
L 44.14124 16.70215 
L 44.761081 16.712522 
L 45.57941 17.758648 
L 46.140053 18.289011 
L 47.059368 19.769646 
L 47.651351 19.67821 
L 48.361731 21.90531 
L 48.998983 22.861729 
L 49.691952 23.688103 
L 50.440636 23.987188 
L 51.164945 24.215584 
L 51.812644 24.265912 
L 52.488201 24.043663 
L 53.174205 23.479493 
L 53.825386 22.74148 
L 54.61934 22.249152 
L 55.326238 21.533422 
L 56.10278 21.157501 
L 56.607707 20.90106 
L 57.47827 20.212607 
L 58.199097 19.804222 
L 58.752775 19.709713 
L 59.438779 19.766572 
L 60.236215 18.901396 
L 61.211246 18.887949 
L 61.85198 18.985531 
L 62.475304 19.02491 
L 63.408548 18.855102 
L 63.732397 18.929249 
L 64.700464 18.464582 
L 65.062618 18.526435 
L 65.846125 17.826456 
L 66.539093 17.83049 
L 67.176346 16.811065 
L 67.949406 16.569031 
L 68.680679 16.552127 
L 69.209982 16.479324 
L 69.895986 16.416127 
L 70.641188 16.65163 
L 71.421213 16.652782 
L 72.030607 16.489313 
L 72.734022 16.520048 
L 73.493153 16.362149 
L 74.165228 16.230759 
L 74.899984 15.822951 
L 75.453662 15.825832 
L 76.157077 15.604543 
L 77.146037 15.68138 
L 77.637035 15.385752 
L 78.424024 15.332159 
L 79.339857 15.333503 
L 79.844784 15.391323 
L 80.325334 15.238995 
L 81.049643 15.191356 
L 81.756541 14.953164 
L 82.637551 14.764147 
L 83.166853 14.792192 
L 83.898126 14.430485 
L 84.702527 14.461796 
L 85.374602 14.272202 
L 85.977032 14.282383 
L 86.631695 13.841919 
L 87.310735 13.812529 
L 87.920129 13.753942 
L 88.835962 13.384936 
L 89.438391 13.474066 
L 90.082608 13.542642 
L 90.859151 13.331919 
L 91.371042 13.302529 
L 92.311251 13.19419 
L 92.938056 12.88915 
L 93.599684 12.913929 
L 94.428461 12.791375 
L 95.069195 12.523601 
L 96.131282 12.312301 
L 96.413345 12.125589 
L 97.047115 12.101962 
L 97.96643 11.653814 
L 98.579307 11.60291 
L 99.209594 11.688007 
L 99.832918 11.70395 
L 100.633836 11.46134 
L 101.246713 11.391995 
L 101.911823 11.380662 
L 102.744082 11.072932 
L 103.423121 11.039701 
L 103.955906 10.895248 
L 104.722001 10.954412 
L 105.387112 10.574457 
L 106.184548 10.631508 
L 106.752155 10.374106 
L 107.570485 10.045055 
L 108.218184 10.097112 
L 108.893741 10.135338 
L 109.781716 9.94536 
L 110.290125 9.848738 
" style="fill:none;stroke:#ff7f0e;stroke-linecap:square;"/>
   </g>
   <g id="patch_3">
    <path d="M 19.7 65.472244 
L 19.7 7.2 
" style="fill:none;stroke:#000000;stroke-linecap:square;stroke-linejoin:miter;stroke-width:0.3;"/>
   </g>
   <g id="patch_4">
    <path d="M 114.60394 65.472244 
L 114.60394 7.2 
" style="fill:none;stroke:#000000;stroke-linecap:square;stroke-linejoin:miter;stroke-width:0.3;"/>
   </g>
   <g id="patch_5">
    <path d="M 19.7 65.472244 
L 114.60394 65.472244 
" style="fill:none;stroke:#000000;stroke-linecap:square;stroke-linejoin:miter;stroke-width:0.3;"/>
   </g>
   <g id="patch_6">
    <path d="M 19.7 7.2 
L 114.60394 7.2 
" style="fill:none;stroke:#000000;stroke-linecap:square;stroke-linejoin:miter;stroke-width:0.3;"/>
   </g>
  </g>
 </g>
 <defs>
  <clipPath id="pcabc861bac">
   <rect height="58.272244" width="94.90394" x="19.7" y="7.2"/>
  </clipPath>
 </defs>
</svg>
