<?xml version="1.0" encoding="utf-8" standalone="no"?>
<!DOCTYPE svg PUBLIC "-//W3C//DTD SVG 1.1//EN"
  "http://www.w3.org/Graphics/SVG/1.1/DTD/svg11.dtd">
<!-- Created with matplotlib (http://matplotlib.org/) -->
<svg height="81pt" version="1.1" viewBox="0 0 121 81" width="121pt" xmlns="http://www.w3.org/2000/svg" xmlns:xlink="http://www.w3.org/1999/xlink">
 <defs>
  <style type="text/css">
*{stroke-linecap:butt;stroke-linejoin:round;}
  </style>
 </defs>
 <g id="figure_1">
  <g id="patch_1">
   <path d="M 0 81.621931 
L 121.80394 81.621931 
L 121.80394 0 
L 0 0 
z
" style="fill:#ffffff;"/>
  </g>
  <g id="axes_1">
   <g id="patch_2">
    <path d="M 19.7 65.472244 
L 114.60394 65.472244 
L 114.60394 7.2 
L 19.7 7.2 
z
" style="fill:#ffffff;"/>
   </g>
   <g id="matplotlib.axis_1">
    <g id="xtick_1">
     <g id="line2d_1">
      <path clip-path="url(#p1dacda8f84)" d="M 23.889109 65.472244 
L 23.889109 7.2 
" style="fill:none;opacity:0.1;stroke:#b0b0b0;stroke-linecap:square;stroke-width:0.1;"/>
     </g>
     <g id="line2d_2">
      <defs>
       <path d="M 0 0 
L 0 -2 
" id="m6040ebb119" style="stroke:#000000;stroke-width:0.3;"/>
      </defs>
      <g>
       <use style="stroke:#000000;stroke-width:0.3;" x="23.889109" xlink:href="#m6040ebb119" y="65.472244"/>
      </g>
     </g>
     <g id="text_1">
      <!-- 35 -->
      <defs>
       <path d="M 5.078125 53.609375 
Q 7.90625 60.296875 12.21875 63.9375 
Q 16.546875 67.578125 23 67.578125 
Q 30.953125 67.578125 35.203125 62.40625 
Q 38.421875 58.546875 38.421875 54.15625 
Q 38.421875 46.921875 29.34375 39.203125 
Q 35.453125 36.8125 38.578125 32.375 
Q 41.703125 27.9375 41.703125 21.921875 
Q 41.703125 13.328125 36.234375 7.03125 
Q 29.109375 -1.171875 15.578125 -1.171875 
Q 8.890625 -1.171875 6.46875 0.484375 
Q 4.046875 2.15625 4.046875 4.046875 
Q 4.046875 5.46875 5.1875 6.546875 
Q 6.34375 7.625 7.953125 7.625 
Q 9.1875 7.625 10.453125 7.234375 
Q 11.28125 6.984375 14.203125 5.4375 
Q 17.140625 3.90625 18.265625 3.609375 
Q 20.0625 3.078125 22.125 3.078125 
Q 27.09375 3.078125 30.78125 6.9375 
Q 34.46875 10.796875 34.46875 16.0625 
Q 34.46875 19.921875 32.765625 23.578125 
Q 31.5 26.3125 29.984375 27.734375 
Q 27.875 29.6875 24.21875 31.265625 
Q 20.5625 32.859375 16.75 32.859375 
L 15.1875 32.859375 
L 15.1875 34.328125 
Q 19.046875 34.8125 22.921875 37.109375 
Q 26.8125 39.40625 28.5625 42.625 
Q 30.328125 45.84375 30.328125 49.703125 
Q 30.328125 54.734375 27.171875 57.828125 
Q 24.03125 60.9375 19.34375 60.9375 
Q 11.765625 60.9375 6.6875 52.828125 
z
" id="TimesNewRomanPSMT-33"/>
       <path d="M 43.40625 66.21875 
L 39.59375 57.90625 
L 19.671875 57.90625 
L 15.328125 49.03125 
Q 28.265625 47.125 35.84375 39.40625 
Q 42.328125 32.765625 42.328125 23.78125 
Q 42.328125 18.5625 40.203125 14.109375 
Q 38.09375 9.671875 34.859375 6.546875 
Q 31.640625 3.421875 27.6875 1.515625 
Q 22.078125 -1.171875 16.15625 -1.171875 
Q 10.203125 -1.171875 7.484375 0.84375 
Q 4.78125 2.875 4.78125 5.328125 
Q 4.78125 6.6875 5.90625 7.734375 
Q 7.03125 8.796875 8.734375 8.796875 
Q 10.015625 8.796875 10.96875 8.40625 
Q 11.921875 8.015625 14.203125 6.390625 
Q 17.875 3.859375 21.625 3.859375 
Q 27.34375 3.859375 31.65625 8.171875 
Q 35.984375 12.5 35.984375 18.703125 
Q 35.984375 24.703125 32.125 29.90625 
Q 28.265625 35.109375 21.484375 37.9375 
Q 16.15625 40.140625 6.984375 40.484375 
L 19.671875 66.21875 
z
" id="TimesNewRomanPSMT-35"/>
      </defs>
      <g transform="translate(20.889109 73.138494)scale(0.06 -0.06)">
       <use xlink:href="#TimesNewRomanPSMT-33"/>
       <use x="50" xlink:href="#TimesNewRomanPSMT-35"/>
      </g>
     </g>
    </g>
    <g id="xtick_2">
     <g id="line2d_3">
      <path clip-path="url(#p1dacda8f84)" d="M 58.529882 65.472244 
L 58.529882 7.2 
" style="fill:none;opacity:0.1;stroke:#b0b0b0;stroke-linecap:square;stroke-width:0.1;"/>
     </g>
     <g id="line2d_4">
      <g>
       <use style="stroke:#000000;stroke-width:0.3;" x="58.529882" xlink:href="#m6040ebb119" y="65.472244"/>
      </g>
     </g>
     <g id="text_2">
      <!-- 36 -->
      <defs>
       <path d="M 44.828125 67.578125 
L 44.828125 65.765625 
Q 38.375 65.140625 34.296875 63.203125 
Q 30.21875 61.28125 26.234375 57.328125 
Q 22.265625 53.375 19.65625 48.515625 
Q 17.046875 43.65625 15.28125 36.96875 
Q 22.3125 41.796875 29.390625 41.796875 
Q 36.1875 41.796875 41.15625 36.328125 
Q 46.140625 30.859375 46.140625 22.265625 
Q 46.140625 13.96875 41.109375 7.125 
Q 35.0625 -1.171875 25.09375 -1.171875 
Q 18.3125 -1.171875 13.578125 3.328125 
Q 4.296875 12.0625 4.296875 25.984375 
Q 4.296875 34.859375 7.859375 42.859375 
Q 11.421875 50.875 18.03125 57.078125 
Q 24.65625 63.28125 30.703125 65.421875 
Q 36.765625 67.578125 42 67.578125 
z
M 14.453125 33.40625 
Q 13.578125 26.8125 13.578125 22.75 
Q 13.578125 18.0625 15.3125 12.5625 
Q 17.046875 7.078125 20.453125 3.859375 
Q 22.953125 1.5625 26.515625 1.5625 
Q 30.765625 1.5625 34.109375 5.5625 
Q 37.453125 9.578125 37.453125 17 
Q 37.453125 25.34375 34.125 31.4375 
Q 30.8125 37.546875 24.703125 37.546875 
Q 22.859375 37.546875 20.734375 36.765625 
Q 18.609375 35.984375 14.453125 33.40625 
z
" id="TimesNewRomanPSMT-36"/>
      </defs>
      <g transform="translate(55.529882 73.138494)scale(0.06 -0.06)">
       <use xlink:href="#TimesNewRomanPSMT-33"/>
       <use x="50" xlink:href="#TimesNewRomanPSMT-36"/>
      </g>
     </g>
    </g>
    <g id="xtick_3">
     <g id="line2d_5">
      <path clip-path="url(#p1dacda8f84)" d="M 93.170655 65.472244 
L 93.170655 7.2 
" style="fill:none;opacity:0.1;stroke:#b0b0b0;stroke-linecap:square;stroke-width:0.1;"/>
     </g>
     <g id="line2d_6">
      <g>
       <use style="stroke:#000000;stroke-width:0.3;" x="93.170655" xlink:href="#m6040ebb119" y="65.472244"/>
      </g>
     </g>
     <g id="text_3">
      <!-- 37 -->
      <defs>
       <path d="M 10.0625 66.21875 
L 45.5625 66.21875 
L 45.5625 64.359375 
L 23.484375 -1.375 
L 18.015625 -1.375 
L 37.796875 58.25 
L 19.578125 58.25 
Q 14.0625 58.25 11.71875 56.9375 
Q 7.625 54.6875 5.125 50 
L 3.71875 50.53125 
z
" id="TimesNewRomanPSMT-37"/>
      </defs>
      <g transform="translate(90.170655 73.138494)scale(0.06 -0.06)">
       <use xlink:href="#TimesNewRomanPSMT-33"/>
       <use x="50" xlink:href="#TimesNewRomanPSMT-37"/>
      </g>
     </g>
    </g>
   </g>
   <g id="matplotlib.axis_2">
    <g id="ytick_1">
     <g id="line2d_7">
      <path clip-path="url(#p1dacda8f84)" d="M 19.7 62.711293 
L 114.60394 62.711293 
" style="fill:none;opacity:0.1;stroke:#b0b0b0;stroke-linecap:square;stroke-width:0.1;"/>
     </g>
     <g id="line2d_8">
      <defs>
       <path d="M 0 0 
L 2 0 
" id="mdbb4631a3c" style="stroke:#000000;stroke-width:0.3;"/>
      </defs>
      <g>
       <use style="stroke:#000000;stroke-width:0.3;" x="19.7" xlink:href="#mdbb4631a3c" y="62.711293"/>
      </g>
     </g>
     <g id="text_4">
      <!-- 0 -->
      <defs>
       <path d="M 3.609375 32.71875 
Q 3.609375 44.046875 7.03125 52.21875 
Q 10.453125 60.40625 16.109375 64.40625 
Q 20.515625 67.578125 25.203125 67.578125 
Q 32.8125 67.578125 38.875 59.8125 
Q 46.4375 50.203125 46.4375 33.734375 
Q 46.4375 22.21875 43.109375 14.15625 
Q 39.796875 6.109375 34.640625 2.46875 
Q 29.5 -1.171875 24.703125 -1.171875 
Q 15.234375 -1.171875 8.9375 10.015625 
Q 3.609375 19.4375 3.609375 32.71875 
z
M 13.1875 31.5 
Q 13.1875 17.828125 16.546875 9.1875 
Q 19.34375 1.90625 24.859375 1.90625 
Q 27.484375 1.90625 30.3125 4.265625 
Q 33.15625 6.640625 34.625 12.203125 
Q 36.859375 20.609375 36.859375 35.890625 
Q 36.859375 47.21875 34.515625 54.78125 
Q 32.765625 60.40625 29.984375 62.75 
Q 27.984375 64.359375 25.140625 64.359375 
Q 21.828125 64.359375 19.234375 61.375 
Q 15.71875 57.328125 14.453125 48.625 
Q 13.1875 39.9375 13.1875 31.5 
z
" id="TimesNewRomanPSMT-30"/>
      </defs>
      <g transform="translate(13.2 64.794418)scale(0.06 -0.06)">
       <use xlink:href="#TimesNewRomanPSMT-30"/>
      </g>
     </g>
    </g>
    <g id="ytick_2">
     <g id="line2d_9">
      <path clip-path="url(#p1dacda8f84)" d="M 19.7 40.26878 
L 114.60394 40.26878 
" style="fill:none;opacity:0.1;stroke:#b0b0b0;stroke-linecap:square;stroke-width:0.1;"/>
     </g>
     <g id="line2d_10">
      <g>
       <use style="stroke:#000000;stroke-width:0.3;" x="19.7" xlink:href="#mdbb4631a3c" y="40.26878"/>
      </g>
     </g>
     <g id="text_5">
      <!-- 200 -->
      <defs>
       <path d="M 45.84375 12.75 
L 41.21875 0 
L 2.15625 0 
L 2.15625 1.8125 
Q 19.390625 17.53125 26.421875 27.484375 
Q 33.453125 37.453125 33.453125 45.703125 
Q 33.453125 52 29.59375 56.046875 
Q 25.734375 60.109375 20.359375 60.109375 
Q 15.484375 60.109375 11.59375 57.25 
Q 7.71875 54.390625 5.859375 48.875 
L 4.046875 48.875 
Q 5.28125 57.90625 10.328125 62.734375 
Q 15.375 67.578125 22.953125 67.578125 
Q 31 67.578125 36.390625 62.40625 
Q 41.796875 57.234375 41.796875 50.203125 
Q 41.796875 45.171875 39.453125 40.140625 
Q 35.84375 32.234375 27.734375 23.390625 
Q 15.578125 10.109375 12.546875 7.375 
L 29.828125 7.375 
Q 35.109375 7.375 37.234375 7.765625 
Q 39.359375 8.15625 41.0625 9.34375 
Q 42.78125 10.546875 44.046875 12.75 
z
" id="TimesNewRomanPSMT-32"/>
      </defs>
      <g transform="translate(7.2 42.351905)scale(0.06 -0.06)">
       <use xlink:href="#TimesNewRomanPSMT-32"/>
       <use x="50" xlink:href="#TimesNewRomanPSMT-30"/>
       <use x="100" xlink:href="#TimesNewRomanPSMT-30"/>
      </g>
     </g>
    </g>
    <g id="ytick_3">
     <g id="line2d_11">
      <path clip-path="url(#p1dacda8f84)" d="M 19.7 17.826266 
L 114.60394 17.826266 
" style="fill:none;opacity:0.1;stroke:#b0b0b0;stroke-linecap:square;stroke-width:0.1;"/>
     </g>
     <g id="line2d_12">
      <g>
       <use style="stroke:#000000;stroke-width:0.3;" x="19.7" xlink:href="#mdbb4631a3c" y="17.826266"/>
      </g>
     </g>
     <g id="text_6">
      <!-- 400 -->
      <defs>
       <path d="M 46.53125 24.421875 
L 46.53125 17.484375 
L 37.640625 17.484375 
L 37.640625 0 
L 29.59375 0 
L 29.59375 17.484375 
L 1.5625 17.484375 
L 1.5625 23.734375 
L 32.28125 67.578125 
L 37.640625 67.578125 
L 37.640625 24.421875 
z
M 29.59375 24.421875 
L 29.59375 57.28125 
L 6.34375 24.421875 
z
" id="TimesNewRomanPSMT-34"/>
      </defs>
      <g transform="translate(7.2 19.909391)scale(0.06 -0.06)">
       <use xlink:href="#TimesNewRomanPSMT-34"/>
       <use x="50" xlink:href="#TimesNewRomanPSMT-30"/>
       <use x="100" xlink:href="#TimesNewRomanPSMT-30"/>
      </g>
     </g>
    </g>
   </g>
   <g id="line2d_13">
    <path clip-path="url(#p1dacda8f84)" d="M 24.013815 43.186306 
L 24.013815 43.074094 
L 24.689311 43.074094 
L 24.689311 43.186306 
L 26.251609 43.186306 
L 26.251609 43.186306 
L 27.464036 43.186306 
L 27.464036 43.298519 
L 28.842739 43.298519 
L 28.842739 43.410731 
L 31.742172 43.410731 
L 31.742172 43.635157 
L 32.306817 43.635157 
L 32.306817 43.635157 
L 33.023881 43.635157 
L 33.023881 43.747369 
L 34.381799 43.747369 
L 34.381799 43.747369 
L 35.133504 43.747369 
L 35.133504 43.747369 
L 37.28816 43.747369 
L 37.28816 43.747369 
L 38.029472 43.747369 
L 38.029472 43.747369 
L 38.649542 43.747369 
L 38.649542 43.859582 
L 40.755701 43.859582 
L 40.755701 43.859582 
L 42.006233 43.747369 
L 42.006233 43.859582 
L 46.904438 44.196219 
L 46.904438 44.308432 
L 47.559149 44.308432 
L 47.559149 44.308432 
L 48.9621 44.308432 
L 48.9621 44.308432 
L 50.430869 44.308432 
L 50.430869 44.308432 
L 51.037082 44.308432 
L 51.037082 44.420645 
L 52.415785 44.420645 
L 52.415785 44.420645 
L 53.319909 44.420645 
L 53.319909 44.308432 
L 54.487303 44.308432 
L 54.487303 44.532857 
L 55.997641 44.532857 
L 55.997641 44.196219 
L 56.73549 44.196219 
L 56.73549 44.420645 
L 57.965237 44.420645 
L 57.965237 44.308432 
L 59.569105 44.308432 
L 59.569105 44.420645 
L 60.182247 44.420645 
L 60.182247 44.64507 
L 61.474347 44.64507 
L 61.474347 44.420645 
L 62.922332 44.420645 
L 62.922332 44.757282 
L 64.172864 44.757282 
L 64.172864 44.757282 
L 65.596599 44.757282 
L 65.596599 45.318345 
L 66.400265 45.318345 
L 66.400265 45.206132 
L 67.643869 45.206132 
L 67.643869 45.318345 
L 69.0295 45.318345 
L 69.0295 45.318345 
L 69.736172 45.318345 
L 69.736172 45.879408 
L 72.503969 45.318345 
L 72.503969 45.767195 
L 73.221033 45.767195 
L 73.221033 44.981707 
L 74.707123 44.981707 
L 74.707123 43.522944 
L 75.992295 43.522944 
L 75.992295 43.186306 
L 77.343285 43.186306 
L 77.343285 43.522944 
L 78.237017 43.522944 
L 78.237017 43.298519 
L 80.928605 46.103833 
L 80.928605 17.826266 
L 81.669918 62.823505 
L 82.923914 62.823505 
L 84.53471 62.823505 
L 84.96772 62.823505 
L 86.405312 62.823505 
L 87.846368 62.823505 
L 89.124612 62.823505 
L 91.220379 62.823505 
L 91.888946 62.823505 
L 92.592154 62.823505 
L 94.251447 62.823505 
L 95.411913 62.823505 
L 96.880681 62.823505 
L 97.611602 62.823505 
L 98.879454 62.823505 
L 99.516844 62.823505 
L 101.05143 62.823505 
L 102.53752 62.823505 
L 103.687593 62.823505 
L 105.319174 62.823505 
L 105.790288 62.823505 
L 107.83063 62.823505 
L 108.554622 62.823505 
L 109.985286 62.823505 
" style="fill:none;stroke:#1f77b4;stroke-linecap:square;"/>
   </g>
   <g id="line2d_14">
    <path clip-path="url(#p1dacda8f84)" d="M 24.519571 43.20325 
L 25.326701 43.127507 
L 25.731998 43.282248 
L 26.442134 43.386381 
L 27.110701 43.516885 
L 27.800052 43.587242 
L 28.700712 43.680827 
L 29.400456 43.75298 
L 30.010133 43.686774 
L 30.574778 43.658833 
L 31.291842 43.800333 
L 31.988121 43.871252 
L 32.64976 43.797192 
L 33.401465 43.752194 
L 34.298661 43.749838 
L 34.77324 43.746359 
L 35.556121 43.745574 
L 36.297434 43.746247 
L 36.917503 43.861489 
L 37.641496 43.87675 
L 38.233853 43.888196 
L 39.023662 43.87574 
L 39.719942 43.884268 
L 40.274194 43.864856 
L 41.025899 43.872823 
L 41.673682 43.87877 
L 42.356105 43.885278 
L 43.062777 43.891899 
L 44.590435 43.910751 
L 44.64586 43.906374 
L 45.1724 44.318419 
L 45.82711 44.336261 
L 46.547638 44.368129 
L 47.230061 44.337158 
L 48.019871 44.371047 
L 48.69883 44.334802 
L 49.305044 44.450044 
L 50.157207 44.486513 
L 50.683747 44.440506 
L 51.587871 44.350624 
L 52.045129 44.367792 
L 52.755265 44.566184 
L 53.475793 44.599736 
L 54.265602 44.224721 
L 55.003451 44.457899 
L 55.66509 44.483932 
L 56.233198 44.326274 
L 56.929478 44.350624 
L 57.837066 44.45644 
L 58.450208 44.665941 
L 59.139559 44.706562 
L 59.742309 44.451279 
L 60.847349 44.512322 
L 61.190293 44.776022 
L 61.883108 44.818326 
L 62.440825 44.788365 
L 63.28606 44.837178 
L 63.864561 45.358966 
L 64.668227 45.244397 
L 65.219015 45.2775 
L 65.91183 45.363455 
L 66.601182 45.404861 
L 67.297461 45.358405 
L 68.004133 45.922834 
L 68.998323 45.979389 
L 69.673818 46.01541 
L 70.120684 46.037291 
L 70.771931 45.801308 
L 71.488995 45.017279 
L 72.185274 45.049372 
L 72.975084 43.542245 
L 73.536264 43.530574 
L 74.260257 43.171943 
L 75.11242 43.070166 
L 75.611247 43.561433 
L 76.504979 43.324552 
L 77.062695 43.351034 
L 77.921786 43.395695 
L 78.534928 43.425095 
L 79.196567 15.650801 
L 79.937879 16.104364 
L 80.495596 16.233297 
L 81.191875 16.151382 
L 81.85005 16.030416 
L 82.802671 16.446388 
L 83.235681 14.282369 
L 84.157125 14.815154 
L 84.673273 16.376704 
L 85.314127 19.019423 
L 86.114329 22.77484 
L 86.789824 25.473216 
L 87.392574 27.062146 
L 88.175455 28.039854 
L 88.792061 27.654292 
L 89.48834 26.461023 
L 90.156907 24.842245 
L 90.860115 22.676879 
L 91.597963 20.118993 
L 92.519408 16.963801 
L 92.976666 15.425366 
L 93.679874 13.24373 
L 94.320728 11.654575 
L 95.148643 10.229363 
L 95.879563 9.848738 
L 96.468456 10.584404 
L 97.147415 12.774793 
L 97.784806 15.488654 
L 98.498405 18.671451 
L 99.319392 21.762122 
L 100.012207 23.385613 
L 100.805481 24.516155 
L 101.259275 24.67056 
L 101.955555 24.47228 
L 102.655298 23.952063 
L 103.587135 23.16074 
L 104.05825 22.756438 
L 104.875772 22.384677 
L 105.540875 22.408915 
L 106.098591 22.730068 
L 106.822583 23.586586 
L 107.536183 24.228891 
L 108.253247 23.668389 
L 108.873317 23.132799 
L 109.715088 22.510355 
L 110.290125 22.222867 
" style="fill:none;stroke:#ff7f0e;stroke-linecap:square;"/>
   </g>
   <g id="patch_3">
    <path d="M 19.7 65.472244 
L 19.7 7.2 
" style="fill:none;stroke:#000000;stroke-linecap:square;stroke-linejoin:miter;stroke-width:0.3;"/>
   </g>
   <g id="patch_4">
    <path d="M 114.60394 65.472244 
L 114.60394 7.2 
" style="fill:none;stroke:#000000;stroke-linecap:square;stroke-linejoin:miter;stroke-width:0.3;"/>
   </g>
   <g id="patch_5">
    <path d="M 19.7 65.472244 
L 114.60394 65.472244 
" style="fill:none;stroke:#000000;stroke-linecap:square;stroke-linejoin:miter;stroke-width:0.3;"/>
   </g>
   <g id="patch_6">
    <path d="M 19.7 7.2 
L 114.60394 7.2 
" style="fill:none;stroke:#000000;stroke-linecap:square;stroke-linejoin:miter;stroke-width:0.3;"/>
   </g>
  </g>
 </g>
 <defs>
  <clipPath id="p1dacda8f84">
   <rect height="58.272244" width="94.90394" x="19.7" y="7.2"/>
  </clipPath>
 </defs>
</svg>
