<?xml version="1.0" encoding="utf-8" standalone="no"?>
<!DOCTYPE svg PUBLIC "-//W3C//DTD SVG 1.1//EN"
  "http://www.w3.org/Graphics/SVG/1.1/DTD/svg11.dtd">
<!-- Created with matplotlib (http://matplotlib.org/) -->
<svg height="142pt" version="1.1" viewBox="0 0 212 142" width="212pt" xmlns="http://www.w3.org/2000/svg" xmlns:xlink="http://www.w3.org/1999/xlink">
 <defs>
  <style type="text/css">
*{stroke-linecap:butt;stroke-linejoin:round;}
  </style>
 </defs>
 <g id="figure_1">
  <g id="patch_1">
   <path d="M 0 142.086618 
L 212.116542 142.086618 
L 212.116542 0 
L 0 0 
z
" style="fill:#ffffff;"/>
  </g>
  <g id="patch_2">
   <path d="M 7.2 134.886618 
L 204.916542 134.886618 
L 204.916542 7.2 
L 7.2 7.2 
z
" style="fill:#ffffff;"/>
  </g>
  <g id="pane3d_1">
   <g id="patch_3">
    <path d="M 67.920484 79.522737 
L 170.223931 85.956679 
L 173.296329 24.576922 
L 65.915998 18.864755 
" style="fill:#ffffff;stroke:#ffffff;stroke-linejoin:miter;"/>
   </g>
  </g>
  <g id="pane3d_2">
   <g id="patch_4">
    <path d="M 67.920484 79.522737 
L 42.757513 115.033258 
L 39.208357 50.506766 
L 65.915998 18.864755 
" style="fill:#ffffff;stroke:#ffffff;stroke-linejoin:miter;"/>
   </g>
  </g>
  <g id="pane3d_3">
   <g id="patch_5">
    <path d="M 67.920484 79.522737 
L 42.757513 115.033258 
L 154.025178 122.69447 
L 170.223931 85.956679 
" style="fill:#ffffff;stroke:#ffffff;stroke-linejoin:miter;"/>
   </g>
  </g>
  <g id="axis3d_1">
   <g id="line2d_1">
    <path d="M 170.223931 85.956679 
L 154.025178 122.69447 
" style="fill:none;stroke:#000000;stroke-linecap:square;stroke-width:0.3;"/>
   </g>
   <g id="text_1">
    <!-- x (m) -->
    <defs>
     <path d="M 1.3125 44.734375 
L 22.359375 44.734375 
L 22.359375 42.921875 
Q 20.359375 42.921875 19.546875 42.234375 
Q 18.75 41.546875 18.75 40.4375 
Q 18.75 39.265625 20.453125 36.8125 
Q 21 36.03125 22.078125 34.375 
L 25.25 29.296875 
L 28.90625 34.375 
Q 32.421875 39.203125 32.421875 40.484375 
Q 32.421875 41.5 31.59375 42.203125 
Q 30.765625 42.921875 28.90625 42.921875 
L 28.90625 44.734375 
L 44.046875 44.734375 
L 44.046875 42.921875 
Q 41.65625 42.78125 39.890625 41.609375 
Q 37.5 39.9375 33.34375 34.375 
L 27.25 26.21875 
L 38.375 10.203125 
Q 42.484375 4.296875 44.234375 3.09375 
Q 46 1.90625 48.78125 1.765625 
L 48.78125 0 
L 27.6875 0 
L 27.6875 1.765625 
Q 29.890625 1.765625 31.109375 2.734375 
Q 32.03125 3.421875 32.03125 4.546875 
Q 32.03125 5.671875 28.90625 10.203125 
L 22.359375 19.78125 
L 15.1875 10.203125 
Q 11.859375 5.765625 11.859375 4.9375 
Q 11.859375 3.765625 12.953125 2.8125 
Q 14.0625 1.859375 16.265625 1.765625 
L 16.265625 0 
L 1.65625 0 
L 1.65625 1.765625 
Q 3.421875 2 4.734375 2.984375 
Q 6.59375 4.390625 10.984375 10.203125 
L 20.359375 22.65625 
L 11.859375 34.96875 
Q 8.25 40.234375 6.265625 41.578125 
Q 4.296875 42.921875 1.3125 42.921875 
z
" id="TimesNewRomanPSMT-78"/>
     <path id="TimesNewRomanPSMT-20"/>
     <path d="M 31.0625 -19.578125 
L 31.0625 -21.390625 
Q 23.6875 -17.671875 18.75 -12.703125 
Q 11.71875 -5.609375 7.90625 4 
Q 4.109375 13.625 4.109375 23.96875 
Q 4.109375 39.109375 11.578125 51.578125 
Q 19.046875 64.0625 31.0625 69.4375 
L 31.0625 67.390625 
Q 25.046875 64.0625 21.1875 58.296875 
Q 17.328125 52.546875 15.421875 43.703125 
Q 13.53125 34.859375 13.53125 25.25 
Q 13.53125 14.796875 15.140625 6.25 
Q 16.40625 -0.484375 18.203125 -4.5625 
Q 20.015625 -8.640625 23.0625 -12.390625 
Q 26.125 -16.15625 31.0625 -19.578125 
z
" id="TimesNewRomanPSMT-28"/>
     <path d="M 16.40625 36.53125 
Q 21.296875 41.40625 22.171875 42.140625 
Q 24.359375 44 26.890625 45.015625 
Q 29.4375 46.046875 31.9375 46.046875 
Q 36.140625 46.046875 39.15625 43.59375 
Q 42.1875 41.15625 43.21875 36.53125 
Q 48.25 42.390625 51.703125 44.21875 
Q 55.171875 46.046875 58.84375 46.046875 
Q 62.40625 46.046875 65.15625 44.21875 
Q 67.921875 42.390625 69.53125 38.234375 
Q 70.609375 35.40625 70.609375 29.34375 
L 70.609375 10.109375 
Q 70.609375 5.90625 71.234375 4.34375 
Q 71.734375 3.265625 73.046875 2.515625 
Q 74.359375 1.765625 77.34375 1.765625 
L 77.34375 0 
L 55.28125 0 
L 55.28125 1.765625 
L 56.203125 1.765625 
Q 59.078125 1.765625 60.6875 2.875 
Q 61.8125 3.65625 62.3125 5.375 
Q 62.5 6.203125 62.5 10.109375 
L 62.5 29.34375 
Q 62.5 34.8125 61.1875 37.0625 
Q 59.28125 40.1875 55.078125 40.1875 
Q 52.484375 40.1875 49.875 38.890625 
Q 47.265625 37.59375 43.5625 34.078125 
L 43.453125 33.546875 
L 43.5625 31.453125 
L 43.5625 10.109375 
Q 43.5625 5.515625 44.0625 4.390625 
Q 44.578125 3.265625 45.984375 2.515625 
Q 47.40625 1.765625 50.828125 1.765625 
L 50.828125 0 
L 28.21875 0 
L 28.21875 1.765625 
Q 31.9375 1.765625 33.328125 2.640625 
Q 34.71875 3.515625 35.25 5.28125 
Q 35.5 6.109375 35.5 10.109375 
L 35.5 29.34375 
Q 35.5 34.8125 33.890625 37.203125 
Q 31.734375 40.328125 27.875 40.328125 
Q 25.25 40.328125 22.65625 38.921875 
Q 18.609375 36.765625 16.40625 34.078125 
L 16.40625 10.109375 
Q 16.40625 5.71875 17.015625 4.390625 
Q 17.625 3.078125 18.8125 2.421875 
Q 20.015625 1.765625 23.6875 1.765625 
L 23.6875 0 
L 1.5625 0 
L 1.5625 1.765625 
Q 4.640625 1.765625 5.859375 2.421875 
Q 7.078125 3.078125 7.703125 4.515625 
Q 8.34375 5.953125 8.34375 10.109375 
L 8.34375 27.203125 
Q 8.34375 34.578125 7.90625 36.71875 
Q 7.5625 38.328125 6.828125 38.9375 
Q 6.109375 39.546875 4.828125 39.546875 
Q 3.46875 39.546875 1.5625 38.8125 
L 0.828125 40.578125 
L 14.3125 46.046875 
L 16.40625 46.046875 
z
" id="TimesNewRomanPSMT-6d"/>
     <path d="M 2.25 67.390625 
L 2.25 69.4375 
Q 9.671875 65.765625 14.59375 60.796875 
Q 21.578125 53.65625 25.390625 44.0625 
Q 29.203125 34.46875 29.203125 24.078125 
Q 29.203125 8.9375 21.75 -3.53125 
Q 14.3125 -16.015625 2.25 -21.390625 
L 2.25 -19.578125 
Q 8.25 -16.21875 12.125 -10.46875 
Q 16.015625 -4.734375 17.890625 4.125 
Q 19.78125 12.984375 19.78125 22.609375 
Q 19.78125 33.015625 18.171875 41.609375 
Q 16.9375 48.34375 15.109375 52.390625 
Q 13.28125 56.453125 10.25 60.203125 
Q 7.234375 63.96875 2.25 67.390625 
z
" id="TimesNewRomanPSMT-29"/>
    </defs>
    <g transform="translate(192.04584 129.782425)rotate(-66.205933)scale(0.06 -0.06)">
     <use xlink:href="#TimesNewRomanPSMT-78"/>
     <use x="50" xlink:href="#TimesNewRomanPSMT-20"/>
     <use x="75" xlink:href="#TimesNewRomanPSMT-28"/>
     <use x="108.300781" xlink:href="#TimesNewRomanPSMT-6d"/>
     <use x="186.083984" xlink:href="#TimesNewRomanPSMT-29"/>
    </g>
   </g>
   <g id="Line3DCollection_1">
    <path d="M 169.926756 86.630654 
L 67.458183 80.175145 
L 65.427458 19.443556 
" style="fill:none;stroke:#b0b0b0;stroke-width:0.1;"/>
    <path d="M 166.457808 94.498018 
L 62.063571 87.788137 
L 59.720751 26.204605 
" style="fill:none;stroke:#b0b0b0;stroke-width:0.1;"/>
    <path d="M 162.849628 102.681153 
L 56.456071 95.701562 
L 53.777298 33.24614 
" style="fill:none;stroke:#b0b0b0;stroke-width:0.1;"/>
    <path d="M 159.093661 111.199458 
L 50.622825 103.933562 
L 47.582056 40.585985 
" style="fill:none;stroke:#b0b0b0;stroke-width:0.1;"/>
    <path d="M 155.180638 120.073957 
L 44.549924 112.50377 
L 41.118677 48.243505 
" style="fill:none;stroke:#b0b0b0;stroke-width:0.1;"/>
   </g>
   <g id="xtick_1">
    <g id="line2d_2">
     <path clip-path="url(#p9e8b8bde73)" d="M 108.730116 69.317814 
" style="fill:none;opacity:0.1;stroke:#b0b0b0;stroke-linecap:square;stroke-width:0.1;"/>
    </g>
    <g id="line2d_3">
     <path d="M 169.093667 86.578169 
L 171.593591 86.735664 
" style="fill:none;stroke:#000000;stroke-linecap:square;stroke-width:0.3;"/>
    </g>
    <g id="text_2">
     <!-- −6.0 -->
     <defs>
      <path d="M 54.4375 31.25 
L 1.8125 31.25 
L 1.8125 35.25 
L 54.4375 35.25 
z
" id="TimesNewRomanPSMT-2212"/>
      <path d="M 44.828125 67.578125 
L 44.828125 65.765625 
Q 38.375 65.140625 34.296875 63.203125 
Q 30.21875 61.28125 26.234375 57.328125 
Q 22.265625 53.375 19.65625 48.515625 
Q 17.046875 43.65625 15.28125 36.96875 
Q 22.3125 41.796875 29.390625 41.796875 
Q 36.1875 41.796875 41.15625 36.328125 
Q 46.140625 30.859375 46.140625 22.265625 
Q 46.140625 13.96875 41.109375 7.125 
Q 35.0625 -1.171875 25.09375 -1.171875 
Q 18.3125 -1.171875 13.578125 3.328125 
Q 4.296875 12.0625 4.296875 25.984375 
Q 4.296875 34.859375 7.859375 42.859375 
Q 11.421875 50.875 18.03125 57.078125 
Q 24.65625 63.28125 30.703125 65.421875 
Q 36.765625 67.578125 42 67.578125 
z
M 14.453125 33.40625 
Q 13.578125 26.8125 13.578125 22.75 
Q 13.578125 18.0625 15.3125 12.5625 
Q 17.046875 7.078125 20.453125 3.859375 
Q 22.953125 1.5625 26.515625 1.5625 
Q 30.765625 1.5625 34.109375 5.5625 
Q 37.453125 9.578125 37.453125 17 
Q 37.453125 25.34375 34.125 31.4375 
Q 30.8125 37.546875 24.703125 37.546875 
Q 22.859375 37.546875 20.734375 36.765625 
Q 18.609375 35.984375 14.453125 33.40625 
z
" id="TimesNewRomanPSMT-36"/>
      <path d="M 12.5 9.46875 
Q 14.796875 9.46875 16.359375 7.875 
Q 17.921875 6.296875 17.921875 4.046875 
Q 17.921875 1.8125 16.328125 0.21875 
Q 14.75 -1.375 12.5 -1.375 
Q 10.25 -1.375 8.65625 0.21875 
Q 7.078125 1.8125 7.078125 4.046875 
Q 7.078125 6.34375 8.65625 7.90625 
Q 10.25 9.46875 12.5 9.46875 
z
" id="TimesNewRomanPSMT-2e"/>
      <path d="M 3.609375 32.71875 
Q 3.609375 44.046875 7.03125 52.21875 
Q 10.453125 60.40625 16.109375 64.40625 
Q 20.515625 67.578125 25.203125 67.578125 
Q 32.8125 67.578125 38.875 59.8125 
Q 46.4375 50.203125 46.4375 33.734375 
Q 46.4375 22.21875 43.109375 14.15625 
Q 39.796875 6.109375 34.640625 2.46875 
Q 29.5 -1.171875 24.703125 -1.171875 
Q 15.234375 -1.171875 8.9375 10.015625 
Q 3.609375 19.4375 3.609375 32.71875 
z
M 13.1875 31.5 
Q 13.1875 17.828125 16.546875 9.1875 
Q 19.34375 1.90625 24.859375 1.90625 
Q 27.484375 1.90625 30.3125 4.265625 
Q 33.15625 6.640625 34.625 12.203125 
Q 36.859375 20.609375 36.859375 35.890625 
Q 36.859375 47.21875 34.515625 54.78125 
Q 32.765625 60.40625 29.984375 62.75 
Q 27.984375 64.359375 25.140625 64.359375 
Q 21.828125 64.359375 19.234375 61.375 
Q 15.71875 57.328125 14.453125 48.625 
Q 13.1875 39.9375 13.1875 31.5 
z
" id="TimesNewRomanPSMT-30"/>
     </defs>
     <g transform="translate(178.165178 99.592455)scale(0.06 -0.06)">
      <use xlink:href="#TimesNewRomanPSMT-2212"/>
      <use x="56.396484" xlink:href="#TimesNewRomanPSMT-36"/>
      <use x="106.396484" xlink:href="#TimesNewRomanPSMT-2e"/>
      <use x="131.396484" xlink:href="#TimesNewRomanPSMT-30"/>
     </g>
    </g>
   </g>
   <g id="xtick_2">
    <g id="line2d_4">
     <path clip-path="url(#p9e8b8bde73)" d="M 108.730116 69.317814 
" style="fill:none;opacity:0.1;stroke:#b0b0b0;stroke-linecap:square;stroke-width:0.1;"/>
    </g>
    <g id="line2d_5">
     <path d="M 165.608795 94.443449 
L 168.156516 94.607202 
" style="fill:none;stroke:#000000;stroke-linecap:square;stroke-width:0.3;"/>
    </g>
    <g id="text_3">
     <!-- −4.5 -->
     <defs>
      <path d="M 46.53125 24.421875 
L 46.53125 17.484375 
L 37.640625 17.484375 
L 37.640625 0 
L 29.59375 0 
L 29.59375 17.484375 
L 1.5625 17.484375 
L 1.5625 23.734375 
L 32.28125 67.578125 
L 37.640625 67.578125 
L 37.640625 24.421875 
z
M 29.59375 24.421875 
L 29.59375 57.28125 
L 6.34375 24.421875 
z
" id="TimesNewRomanPSMT-34"/>
      <path d="M 43.40625 66.21875 
L 39.59375 57.90625 
L 19.671875 57.90625 
L 15.328125 49.03125 
Q 28.265625 47.125 35.84375 39.40625 
Q 42.328125 32.765625 42.328125 23.78125 
Q 42.328125 18.5625 40.203125 14.109375 
Q 38.09375 9.671875 34.859375 6.546875 
Q 31.640625 3.421875 27.6875 1.515625 
Q 22.078125 -1.171875 16.15625 -1.171875 
Q 10.203125 -1.171875 7.484375 0.84375 
Q 4.78125 2.875 4.78125 5.328125 
Q 4.78125 6.6875 5.90625 7.734375 
Q 7.03125 8.796875 8.734375 8.796875 
Q 10.015625 8.796875 10.96875 8.40625 
Q 11.921875 8.015625 14.203125 6.390625 
Q 17.875 3.859375 21.625 3.859375 
Q 27.34375 3.859375 31.65625 8.171875 
Q 35.984375 12.5 35.984375 18.703125 
Q 35.984375 24.703125 32.125 29.90625 
Q 28.265625 35.109375 21.484375 37.9375 
Q 16.15625 40.140625 6.984375 40.484375 
L 19.671875 66.21875 
z
" id="TimesNewRomanPSMT-35"/>
     </defs>
     <g transform="translate(174.979148 107.598231)scale(0.06 -0.06)">
      <use xlink:href="#TimesNewRomanPSMT-2212"/>
      <use x="56.396484" xlink:href="#TimesNewRomanPSMT-34"/>
      <use x="106.396484" xlink:href="#TimesNewRomanPSMT-2e"/>
      <use x="131.396484" xlink:href="#TimesNewRomanPSMT-35"/>
     </g>
    </g>
   </g>
   <g id="xtick_3">
    <g id="line2d_6">
     <path clip-path="url(#p9e8b8bde73)" d="M 108.730116 69.317814 
" style="fill:none;opacity:0.1;stroke:#b0b0b0;stroke-linecap:square;stroke-width:0.1;"/>
    </g>
    <g id="line2d_7">
     <path d="M 161.984071 102.624371 
L 164.581449 102.794764 
" style="fill:none;stroke:#000000;stroke-linecap:square;stroke-width:0.3;"/>
    </g>
    <g id="text_4">
     <!-- −3.0 -->
     <defs>
      <path d="M 5.078125 53.609375 
Q 7.90625 60.296875 12.21875 63.9375 
Q 16.546875 67.578125 23 67.578125 
Q 30.953125 67.578125 35.203125 62.40625 
Q 38.421875 58.546875 38.421875 54.15625 
Q 38.421875 46.921875 29.34375 39.203125 
Q 35.453125 36.8125 38.578125 32.375 
Q 41.703125 27.9375 41.703125 21.921875 
Q 41.703125 13.328125 36.234375 7.03125 
Q 29.109375 -1.171875 15.578125 -1.171875 
Q 8.890625 -1.171875 6.46875 0.484375 
Q 4.046875 2.15625 4.046875 4.046875 
Q 4.046875 5.46875 5.1875 6.546875 
Q 6.34375 7.625 7.953125 7.625 
Q 9.1875 7.625 10.453125 7.234375 
Q 11.28125 6.984375 14.203125 5.4375 
Q 17.140625 3.90625 18.265625 3.609375 
Q 20.0625 3.078125 22.125 3.078125 
Q 27.09375 3.078125 30.78125 6.9375 
Q 34.46875 10.796875 34.46875 16.0625 
Q 34.46875 19.921875 32.765625 23.578125 
Q 31.5 26.3125 29.984375 27.734375 
Q 27.875 29.6875 24.21875 31.265625 
Q 20.5625 32.859375 16.75 32.859375 
L 15.1875 32.859375 
L 15.1875 34.328125 
Q 19.046875 34.8125 22.921875 37.109375 
Q 26.8125 39.40625 28.5625 42.625 
Q 30.328125 45.84375 30.328125 49.703125 
Q 30.328125 54.734375 27.171875 57.828125 
Q 24.03125 60.9375 19.34375 60.9375 
Q 11.765625 60.9375 6.6875 52.828125 
z
" id="TimesNewRomanPSMT-33"/>
     </defs>
     <g transform="translate(171.665802 115.923922)scale(0.06 -0.06)">
      <use xlink:href="#TimesNewRomanPSMT-2212"/>
      <use x="56.396484" xlink:href="#TimesNewRomanPSMT-33"/>
      <use x="106.396484" xlink:href="#TimesNewRomanPSMT-2e"/>
      <use x="131.396484" xlink:href="#TimesNewRomanPSMT-30"/>
     </g>
    </g>
   </g>
   <g id="xtick_4">
    <g id="line2d_8">
     <path clip-path="url(#p9e8b8bde73)" d="M 108.730116 69.317814 
" style="fill:none;opacity:0.1;stroke:#b0b0b0;stroke-linecap:square;stroke-width:0.1;"/>
    </g>
    <g id="line2d_9">
     <path d="M 158.210904 111.140327 
L 160.859912 111.31777 
" style="fill:none;stroke:#000000;stroke-linecap:square;stroke-width:0.3;"/>
    </g>
    <g id="text_5">
     <!-- −1.5 -->
     <defs>
      <path d="M 11.71875 59.71875 
L 27.828125 67.578125 
L 29.4375 67.578125 
L 29.4375 11.671875 
Q 29.4375 6.109375 29.90625 4.734375 
Q 30.375 3.375 31.828125 2.640625 
Q 33.296875 1.90625 37.796875 1.8125 
L 37.796875 0 
L 12.890625 0 
L 12.890625 1.8125 
Q 17.578125 1.90625 18.9375 2.609375 
Q 20.3125 3.328125 20.84375 4.515625 
Q 21.390625 5.71875 21.390625 11.671875 
L 21.390625 47.40625 
Q 21.390625 54.640625 20.90625 56.6875 
Q 20.5625 58.25 19.65625 58.984375 
Q 18.75 59.71875 17.484375 59.71875 
Q 15.671875 59.71875 12.453125 58.203125 
z
" id="TimesNewRomanPSMT-31"/>
     </defs>
     <g transform="translate(168.217355 124.589092)scale(0.06 -0.06)">
      <use xlink:href="#TimesNewRomanPSMT-2212"/>
      <use x="56.396484" xlink:href="#TimesNewRomanPSMT-31"/>
      <use x="106.396484" xlink:href="#TimesNewRomanPSMT-2e"/>
      <use x="131.396484" xlink:href="#TimesNewRomanPSMT-35"/>
     </g>
    </g>
   </g>
   <g id="xtick_5">
    <g id="line2d_10">
     <path clip-path="url(#p9e8b8bde73)" d="M 108.730116 69.317814 
" style="fill:none;opacity:0.1;stroke:#b0b0b0;stroke-linecap:square;stroke-width:0.1;"/>
    </g>
    <g id="line2d_11">
     <path d="M 154.279985 120.012327 
L 156.982715 120.197268 
" style="fill:none;stroke:#000000;stroke-linecap:square;stroke-width:0.3;"/>
    </g>
    <g id="text_6">
     <!-- 0.0 -->
     <g transform="translate(166.317089 133.61494)scale(0.06 -0.06)">
      <use xlink:href="#TimesNewRomanPSMT-30"/>
      <use x="50" xlink:href="#TimesNewRomanPSMT-2e"/>
      <use x="75" xlink:href="#TimesNewRomanPSMT-30"/>
     </g>
    </g>
   </g>
  </g>
  <g id="axis3d_2">
   <g id="line2d_12">
    <path d="M 42.757513 115.033258 
L 154.025178 122.69447 
" style="fill:none;stroke:#000000;stroke-linecap:square;stroke-width:0.3;"/>
   </g>
   <g id="text_7">
    <!-- y (m) -->
    <defs>
     <path d="M 0.59375 44.734375 
L 21.4375 44.734375 
L 21.4375 42.921875 
L 20.40625 42.921875 
Q 18.21875 42.921875 17.109375 41.96875 
Q 16.015625 41.015625 16.015625 39.59375 
Q 16.015625 37.703125 17.625 34.328125 
L 28.515625 11.765625 
L 38.53125 36.46875 
Q 39.359375 38.484375 39.359375 40.4375 
Q 39.359375 41.3125 39.015625 41.75 
Q 38.625 42.28125 37.796875 42.59375 
Q 36.96875 42.921875 34.859375 42.921875 
L 34.859375 44.734375 
L 49.421875 44.734375 
L 49.421875 42.921875 
Q 47.609375 42.71875 46.625 42.125 
Q 45.65625 41.546875 44.484375 39.9375 
Q 44.046875 39.265625 42.828125 36.1875 
L 24.609375 -8.453125 
Q 21.96875 -14.9375 17.6875 -18.25 
Q 13.421875 -21.578125 9.46875 -21.578125 
Q 6.59375 -21.578125 4.734375 -19.921875 
Q 2.875 -18.265625 2.875 -16.109375 
Q 2.875 -14.0625 4.21875 -12.8125 
Q 5.5625 -11.578125 7.90625 -11.578125 
Q 9.515625 -11.578125 12.3125 -12.640625 
Q 14.265625 -13.375 14.75 -13.375 
Q 16.21875 -13.375 17.9375 -11.859375 
Q 19.671875 -10.359375 21.4375 -6 
L 24.609375 1.765625 
L 8.546875 35.5 
Q 7.8125 37.015625 6.203125 39.265625 
Q 4.984375 40.96875 4.203125 41.546875 
Q 3.078125 42.328125 0.59375 42.921875 
z
" id="TimesNewRomanPSMT-79"/>
    </defs>
    <g transform="translate(84.638469 149.957291)rotate(-356.061179)scale(0.06 -0.06)">
     <use xlink:href="#TimesNewRomanPSMT-79"/>
     <use x="50" xlink:href="#TimesNewRomanPSMT-20"/>
     <use x="75" xlink:href="#TimesNewRomanPSMT-28"/>
     <use x="108.300781" xlink:href="#TimesNewRomanPSMT-6d"/>
     <use x="186.083984" xlink:href="#TimesNewRomanPSMT-29"/>
    </g>
   </g>
   <g id="Line3DCollection_2">
    <path d="M 72.676531 19.224386 
L 74.366242 79.928116 
L 49.758344 115.515293 
" style="fill:none;stroke:#b0b0b0;stroke-width:0.1;"/>
    <path d="M 96.018255 20.466064 
L 96.616138 81.327429 
L 73.934322 117.179903 
" style="fill:none;stroke:#b0b0b0;stroke-width:0.1;"/>
    <path d="M 119.534972 21.717052 
L 119.024967 82.736737 
L 98.298742 118.857488 
" style="fill:none;stroke:#b0b0b0;stroke-width:0.1;"/>
    <path d="M 143.228656 22.977453 
L 141.594439 84.156148 
L 122.853818 120.548201 
" style="fill:none;stroke:#b0b0b0;stroke-width:0.1;"/>
    <path d="M 167.101313 24.247374 
L 164.326287 85.585772 
L 147.601796 122.252195 
" style="fill:none;stroke:#b0b0b0;stroke-width:0.1;"/>
   </g>
   <g id="xtick_6">
    <g id="line2d_13">
     <path clip-path="url(#p9e8b8bde73)" d="M 108.730116 69.317814 
" style="fill:none;opacity:0.1;stroke:#b0b0b0;stroke-linecap:square;stroke-width:0.1;"/>
    </g>
    <g id="line2d_14">
     <path d="M 49.97287 115.205052 
L 49.32836 116.137123 
" style="fill:none;stroke:#000000;stroke-linecap:square;stroke-width:0.3;"/>
    </g>
    <g id="text_8">
     <!-- 0 -->
     <g transform="translate(45.008232 133.336913)scale(0.06 -0.06)">
      <use xlink:href="#TimesNewRomanPSMT-30"/>
     </g>
    </g>
   </g>
   <g id="xtick_7">
    <g id="line2d_15">
     <path clip-path="url(#p9e8b8bde73)" d="M 108.730116 69.317814 
" style="fill:none;opacity:0.1;stroke:#b0b0b0;stroke-linecap:square;stroke-width:0.1;"/>
    </g>
    <g id="line2d_16">
     <path d="M 74.132119 116.86725 
L 73.537862 117.806574 
" style="fill:none;stroke:#000000;stroke-linecap:square;stroke-width:0.3;"/>
    </g>
    <g id="text_9">
     <!-- 5 -->
     <g transform="translate(69.301991 135.063805)scale(0.06 -0.06)">
      <use xlink:href="#TimesNewRomanPSMT-35"/>
     </g>
    </g>
   </g>
   <g id="xtick_8">
    <g id="line2d_17">
     <path clip-path="url(#p9e8b8bde73)" d="M 108.730116 69.317814 
" style="fill:none;opacity:0.1;stroke:#b0b0b0;stroke-linecap:square;stroke-width:0.1;"/>
    </g>
    <g id="line2d_18">
     <path d="M 98.479544 118.542394 
L 97.936345 119.489057 
" style="fill:none;stroke:#000000;stroke-linecap:square;stroke-width:0.3;"/>
    </g>
    <g id="text_10">
     <!-- 10 -->
     <g transform="translate(92.286138 136.804231)scale(0.06 -0.06)">
      <use xlink:href="#TimesNewRomanPSMT-31"/>
      <use x="50" xlink:href="#TimesNewRomanPSMT-30"/>
     </g>
    </g>
   </g>
   <g id="xtick_9">
    <g id="line2d_19">
     <path clip-path="url(#p9e8b8bde73)" d="M 108.730116 69.317814 
" style="fill:none;opacity:0.1;stroke:#b0b0b0;stroke-linecap:square;stroke-width:0.1;"/>
    </g>
    <g id="line2d_20">
     <path d="M 123.017352 120.230637 
L 122.52603 121.184725 
" style="fill:none;stroke:#000000;stroke-linecap:square;stroke-width:0.3;"/>
    </g>
    <g id="text_11">
     <!-- 15 -->
     <g transform="translate(116.962919 138.55835)scale(0.06 -0.06)">
      <use xlink:href="#TimesNewRomanPSMT-31"/>
      <use x="50" xlink:href="#TimesNewRomanPSMT-35"/>
     </g>
    </g>
   </g>
   <g id="xtick_10">
    <g id="line2d_21">
     <path clip-path="url(#p9e8b8bde73)" d="M 108.730116 69.317814 
" style="fill:none;opacity:0.1;stroke:#b0b0b0;stroke-linecap:square;stroke-width:0.1;"/>
    </g>
    <g id="line2d_22">
     <path d="M 147.747784 121.932133 
L 147.309174 122.893734 
" style="fill:none;stroke:#000000;stroke-linecap:square;stroke-width:0.3;"/>
    </g>
    <g id="text_12">
     <!-- 20 -->
     <defs>
      <path d="M 45.84375 12.75 
L 41.21875 0 
L 2.15625 0 
L 2.15625 1.8125 
Q 19.390625 17.53125 26.421875 27.484375 
Q 33.453125 37.453125 33.453125 45.703125 
Q 33.453125 52 29.59375 56.046875 
Q 25.734375 60.109375 20.359375 60.109375 
Q 15.484375 60.109375 11.59375 57.25 
Q 7.71875 54.390625 5.859375 48.875 
L 4.046875 48.875 
Q 5.28125 57.90625 10.328125 62.734375 
Q 15.375 67.578125 22.953125 67.578125 
Q 31 67.578125 36.390625 62.40625 
Q 41.796875 57.234375 41.796875 50.203125 
Q 41.796875 45.171875 39.453125 40.140625 
Q 35.84375 32.234375 27.734375 23.390625 
Q 15.578125 10.109375 12.546875 7.375 
L 29.828125 7.375 
Q 35.109375 7.375 37.234375 7.765625 
Q 39.359375 8.15625 41.0625 9.34375 
Q 42.78125 10.546875 44.046875 12.75 
z
" id="TimesNewRomanPSMT-32"/>
     </defs>
     <g transform="translate(141.834616 140.326324)scale(0.06 -0.06)">
      <use xlink:href="#TimesNewRomanPSMT-32"/>
      <use x="50" xlink:href="#TimesNewRomanPSMT-30"/>
     </g>
    </g>
   </g>
  </g>
  <g id="axis3d_3">
   <g id="line2d_23">
    <path d="M 42.757513 115.033258 
L 39.208357 50.506766 
" style="fill:none;stroke:#000000;stroke-linecap:square;stroke-width:0.3;"/>
   </g>
   <g id="text_13">
    <!-- z (m) -->
    <defs>
     <path d="M 42 13.71875 
L 41.453125 0 
L 2 0 
L 2 1.765625 
L 31.6875 41.3125 
L 17.046875 41.3125 
Q 12.3125 41.3125 10.84375 40.703125 
Q 9.375 40.09375 8.453125 38.375 
Q 7.125 35.9375 6.9375 32.328125 
L 4.984375 32.328125 
L 5.28125 44.734375 
L 42.78125 44.734375 
L 42.78125 42.921875 
L 12.796875 3.265625 
L 29.109375 3.265625 
Q 34.234375 3.265625 36.0625 4.125 
Q 37.890625 4.984375 39.015625 7.125 
Q 39.796875 8.6875 40.328125 13.71875 
z
" id="TimesNewRomanPSMT-7a"/>
    </defs>
    <g transform="translate(-3.135072 86.239504)rotate(-273.148272)scale(0.06 -0.06)">
     <use xlink:href="#TimesNewRomanPSMT-7a"/>
     <use x="44.384766" xlink:href="#TimesNewRomanPSMT-20"/>
     <use x="69.384766" xlink:href="#TimesNewRomanPSMT-28"/>
     <use x="102.685547" xlink:href="#TimesNewRomanPSMT-6d"/>
     <use x="180.46875" xlink:href="#TimesNewRomanPSMT-29"/>
    </g>
   </g>
   <g id="Line3DCollection_3">
    <path d="M 42.498202 110.318768 
L 67.773425 75.072574 
L 170.449169 81.456921 
" style="fill:none;stroke:#b0b0b0;stroke-width:0.1;"/>
    <path d="M 42.118183 103.40972 
L 67.558085 68.556131 
L 170.779036 74.866895 
" style="fill:none;stroke:#b0b0b0;stroke-width:0.1;"/>
    <path d="M 41.733778 96.42093 
L 67.340468 61.970801 
L 171.112449 68.206048 
" style="fill:none;stroke:#b0b0b0;stroke-width:0.1;"/>
    <path d="M 41.344911 89.35101 
L 67.120538 55.315488 
L 171.449464 61.473232 
" style="fill:none;stroke:#b0b0b0;stroke-width:0.1;"/>
    <path d="M 40.951503 82.198538 
L 66.898259 48.589069 
L 171.79014 54.667274 
" style="fill:none;stroke:#b0b0b0;stroke-width:0.1;"/>
    <path d="M 40.553474 74.962062 
L 66.673592 41.790398 
L 172.134537 47.786976 
" style="fill:none;stroke:#b0b0b0;stroke-width:0.1;"/>
    <path d="M 40.150743 67.640091 
L 66.446499 34.918306 
L 172.482717 40.831112 
" style="fill:none;stroke:#b0b0b0;stroke-width:0.1;"/>
    <path d="M 39.743226 60.231101 
L 66.21694 27.971596 
L 172.834741 33.798432 
" style="fill:none;stroke:#b0b0b0;stroke-width:0.1;"/>
    <path d="M 39.330836 52.733533 
L 65.984875 20.949047 
L 173.190675 26.687655 
" style="fill:none;stroke:#b0b0b0;stroke-width:0.1;"/>
   </g>
   <g id="xtick_11">
    <g id="line2d_24">
     <path d="M 108.730116 69.317814 
" style="fill:none;opacity:0.1;stroke:#b0b0b0;stroke-linecap:square;stroke-width:0.1;"/>
    </g>
    <g id="line2d_25">
     <path d="M 42.718596 110.01143 
L 42.056452 110.934786 
" style="fill:none;stroke:#000000;stroke-linecap:square;stroke-width:0.3;"/>
    </g>
    <g id="text_14">
     <!-- 0.00 -->
     <g transform="translate(18.427755 118.730339)scale(0.06 -0.06)">
      <use xlink:href="#TimesNewRomanPSMT-30"/>
      <use x="50" xlink:href="#TimesNewRomanPSMT-2e"/>
      <use x="75" xlink:href="#TimesNewRomanPSMT-30"/>
      <use x="125" xlink:href="#TimesNewRomanPSMT-30"/>
     </g>
    </g>
   </g>
   <g id="xtick_12">
    <g id="line2d_26">
     <path d="M 108.730116 69.317814 
" style="fill:none;opacity:0.1;stroke:#b0b0b0;stroke-linecap:square;stroke-width:0.1;"/>
    </g>
    <g id="line2d_27">
     <path d="M 42.340118 103.105661 
L 41.673339 104.019172 
" style="fill:none;stroke:#000000;stroke-linecap:square;stroke-width:0.3;"/>
    </g>
    <g id="text_15">
     <!-- 0.25 -->
     <g transform="translate(17.934831 111.776248)scale(0.06 -0.06)">
      <use xlink:href="#TimesNewRomanPSMT-30"/>
      <use x="50" xlink:href="#TimesNewRomanPSMT-2e"/>
      <use x="75" xlink:href="#TimesNewRomanPSMT-32"/>
      <use x="125" xlink:href="#TimesNewRomanPSMT-35"/>
     </g>
    </g>
   </g>
   <g id="xtick_13">
    <g id="line2d_28">
     <path d="M 108.730116 69.317814 
" style="fill:none;opacity:0.1;stroke:#b0b0b0;stroke-linecap:square;stroke-width:0.1;"/>
    </g>
    <g id="line2d_29">
     <path d="M 41.957275 96.120247 
L 41.285798 97.023623 
" style="fill:none;stroke:#000000;stroke-linecap:square;stroke-width:0.3;"/>
    </g>
    <g id="text_16">
     <!-- 0.50 -->
     <g transform="translate(17.43616 104.741082)scale(0.06 -0.06)">
      <use xlink:href="#TimesNewRomanPSMT-30"/>
      <use x="50" xlink:href="#TimesNewRomanPSMT-2e"/>
      <use x="75" xlink:href="#TimesNewRomanPSMT-35"/>
      <use x="125" xlink:href="#TimesNewRomanPSMT-30"/>
     </g>
    </g>
   </g>
   <g id="xtick_14">
    <g id="line2d_30">
     <path d="M 108.730116 69.317814 
" style="fill:none;opacity:0.1;stroke:#b0b0b0;stroke-linecap:square;stroke-width:0.1;"/>
    </g>
    <g id="line2d_31">
     <path d="M 41.569991 89.053802 
L 40.893751 89.946745 
" style="fill:none;stroke:#000000;stroke-linecap:square;stroke-width:0.3;"/>
    </g>
    <g id="text_17">
     <!-- 0.75 -->
     <defs>
      <path d="M 10.0625 66.21875 
L 45.5625 66.21875 
L 45.5625 64.359375 
L 23.484375 -1.375 
L 18.015625 -1.375 
L 37.796875 58.25 
L 19.578125 58.25 
Q 14.0625 58.25 11.71875 56.9375 
Q 7.625 54.6875 5.125 50 
L 3.71875 50.53125 
z
" id="TimesNewRomanPSMT-37"/>
     </defs>
     <g transform="translate(16.931641 97.623414)scale(0.06 -0.06)">
      <use xlink:href="#TimesNewRomanPSMT-30"/>
      <use x="50" xlink:href="#TimesNewRomanPSMT-2e"/>
      <use x="75" xlink:href="#TimesNewRomanPSMT-37"/>
      <use x="125" xlink:href="#TimesNewRomanPSMT-35"/>
     </g>
    </g>
   </g>
   <g id="xtick_15">
    <g id="line2d_32">
     <path d="M 108.730116 69.317814 
" style="fill:none;opacity:0.1;stroke:#b0b0b0;stroke-linecap:square;stroke-width:0.1;"/>
    </g>
    <g id="line2d_33">
     <path d="M 41.178188 81.904907 
L 40.49712 82.787112 
" style="fill:none;stroke:#000000;stroke-linecap:square;stroke-width:0.3;"/>
    </g>
    <g id="text_18">
     <!-- 1.00 -->
     <g transform="translate(16.42117 90.421785)scale(0.06 -0.06)">
      <use xlink:href="#TimesNewRomanPSMT-31"/>
      <use x="50" xlink:href="#TimesNewRomanPSMT-2e"/>
      <use x="75" xlink:href="#TimesNewRomanPSMT-30"/>
      <use x="125" xlink:href="#TimesNewRomanPSMT-30"/>
     </g>
    </g>
   </g>
   <g id="xtick_16">
    <g id="line2d_34">
     <path d="M 108.730116 69.317814 
" style="fill:none;opacity:0.1;stroke:#b0b0b0;stroke-linecap:square;stroke-width:0.1;"/>
    </g>
    <g id="line2d_35">
     <path d="M 40.781787 74.672112 
L 40.095823 75.543263 
" style="fill:none;stroke:#000000;stroke-linecap:square;stroke-width:0.3;"/>
    </g>
    <g id="text_19">
     <!-- 1.25 -->
     <g transform="translate(15.904642 83.134701)scale(0.06 -0.06)">
      <use xlink:href="#TimesNewRomanPSMT-31"/>
      <use x="50" xlink:href="#TimesNewRomanPSMT-2e"/>
      <use x="75" xlink:href="#TimesNewRomanPSMT-32"/>
      <use x="125" xlink:href="#TimesNewRomanPSMT-35"/>
     </g>
    </g>
   </g>
   <g id="xtick_17">
    <g id="line2d_36">
     <path d="M 108.730116 69.317814 
" style="fill:none;opacity:0.1;stroke:#b0b0b0;stroke-linecap:square;stroke-width:0.1;"/>
    </g>
    <g id="line2d_37">
     <path d="M 40.380706 67.35393 
L 39.689778 68.213704 
" style="fill:none;stroke:#000000;stroke-linecap:square;stroke-width:0.3;"/>
    </g>
    <g id="text_20">
     <!-- 1.50 -->
     <g transform="translate(15.381949 75.76063)scale(0.06 -0.06)">
      <use xlink:href="#TimesNewRomanPSMT-31"/>
      <use x="50" xlink:href="#TimesNewRomanPSMT-2e"/>
      <use x="75" xlink:href="#TimesNewRomanPSMT-35"/>
      <use x="125" xlink:href="#TimesNewRomanPSMT-30"/>
     </g>
    </g>
   </g>
   <g id="xtick_18">
    <g id="line2d_38">
     <path d="M 108.730116 69.317814 
" style="fill:none;opacity:0.1;stroke:#b0b0b0;stroke-linecap:square;stroke-width:0.1;"/>
    </g>
    <g id="line2d_39">
     <path d="M 39.974862 59.948841 
L 39.2789 60.796905 
" style="fill:none;stroke:#000000;stroke-linecap:square;stroke-width:0.3;"/>
    </g>
    <g id="text_21">
     <!-- 1.75 -->
     <g transform="translate(14.852978 68.298007)scale(0.06 -0.06)">
      <use xlink:href="#TimesNewRomanPSMT-31"/>
      <use x="50" xlink:href="#TimesNewRomanPSMT-2e"/>
      <use x="75" xlink:href="#TimesNewRomanPSMT-37"/>
      <use x="125" xlink:href="#TimesNewRomanPSMT-35"/>
     </g>
    </g>
   </g>
   <g id="xtick_19">
    <g id="line2d_40">
     <path d="M 108.730116 69.317814 
" style="fill:none;opacity:0.1;stroke:#b0b0b0;stroke-linecap:square;stroke-width:0.1;"/>
    </g>
    <g id="line2d_41">
     <path d="M 39.56417 52.455287 
L 38.863102 53.291298 
" style="fill:none;stroke:#000000;stroke-linecap:square;stroke-width:0.3;"/>
    </g>
    <g id="text_22">
     <!-- 2.00 -->
     <g transform="translate(14.317617 60.745226)scale(0.06 -0.06)">
      <use xlink:href="#TimesNewRomanPSMT-32"/>
      <use x="50" xlink:href="#TimesNewRomanPSMT-2e"/>
      <use x="75" xlink:href="#TimesNewRomanPSMT-30"/>
      <use x="125" xlink:href="#TimesNewRomanPSMT-30"/>
     </g>
    </g>
   </g>
  </g>
  <g id="axes_1">
   <g id="line2d_42">
    <path clip-path="url(#p9e8b8bde73)" d="M 48.419536 50.615485 
L 48.396906 50.203586 
L 48.411745 50.537147 
L 48.411745 50.537147 
L 48.367723 51.660922 
L 48.296365 52.174466 
L 48.49552 54.853359 
L 48.49552 54.853359 
L 48.705279 55.806508 
L 48.881447 55.185126 
L 49.150979 53.836375 
L 49.304058 53.617465 
L 49.442104 53.63903 
L 49.442104 53.63903 
L 49.85442 54.030585 
L 49.85442 54.030585 
L 50.121373 53.248323 
L 50.632031 51.306131 
L 50.711138 51.189151 
L 50.711138 51.189151 
L 50.941539 51.167598 
L 51.684082 51.938628 
L 51.874592 51.88946 
L 51.874592 51.88946 
L 52.155034 51.476636 
L 52.486284 50.853221 
L 52.838491 50.566326 
L 52.996432 50.558921 
L 52.996432 50.558921 
L 53.522829 50.918344 
L 53.522829 50.918344 
L 53.975882 51.222808 
L 54.417163 51.105018 
L 55.461865 50.231696 
L 56.120296 50.455397 
L 56.120296 50.455397 
L 57.002596 50.777763 
L 57.367823 50.712193 
L 58.91237 50.02006 
L 58.91237 50.02006 
L 59.356916 50.102865 
L 60.40667 50.426683 
L 61.029143 50.44735 
L 61.029143 50.44735 
L 61.797851 50.144315 
L 62.443606 49.863221 
L 62.443606 49.863221 
L 63.20696 49.797642 
L 64.183897 50.038829 
L 64.957972 50.211909 
L 64.957972 50.211909 
L 65.952011 50.148834 
L 67.296669 49.87034 
L 68.730406 49.935774 
L 69.894031 50.167868 
L 70.922986 50.366116 
L 70.922986 50.366116 
L 72.369611 50.442675 
L 74.945553 50.56029 
L 80.42775 51.01827 
L 80.42775 51.01827 
L 82.261379 51.19094 
L 82.261379 51.19094 
L 85.279881 51.605589 
L 89.212823 51.858759 
L 89.212823 51.858759 
L 94.610134 52.991593 
L 94.610134 52.991593 
L 98.111793 53.433404 
L 100.255584 53.882457 
L 103.926859 54.918252 
L 112.142159 57.191134 
L 119.648581 59.579951 
L 123.054661 60.594341 
L 126.021845 61.760563 
L 126.021845 61.760563 
L 131.934831 64.131272 
L 131.934831 64.131272 
L 136.965817 65.754734 
L 138.055665 66.483367 
L 139.70598 67.941688 
L 142.328821 70.267377 
L 144.524479 71.704632 
L 147.281968 73.575634 
L 148.725393 74.84661 
L 153.20737 79.172153 
L 153.20737 79.172153 
L 156.303099 81.992636 
L 158.426809 84.289994 
L 159.801114 85.99566 
L 159.801114 85.99566 
L 159.953141 86.148304 
L 160.043438 85.122986 
L 160.151735 83.809547 
L 160.176174 83.919691 
L 160.619488 85.350217 
L 160.854495 85.588428 
L 161.304187 84.967251 
L 161.304187 84.967251 
L 161.691231 84.433029 
L 161.691231 84.433029 
L 162.017789 84.364814 
L 162.017789 84.364814 
L 162.275577 84.507109 
L 162.694739 85.088874 
L 162.768601 84.961738 
L 162.795869 84.729281 
L 162.788038 84.77217 
L 162.788038 84.77217 
L 162.768959 85.001866 
L 162.801155 84.787089 
L 162.801155 84.787089 
L 162.814559 84.695002 
L 162.795653 84.77688 
L 162.795653 84.77688 
L 162.773158 84.98955 
L 162.783926 84.86068 
L 162.783926 84.86068 
L 162.795103 84.588602 
L 162.730778 84.781745 
L 162.730778 84.781745 
L 162.64204 85.151822 
L 162.642711 84.820996 
L 162.642711 84.820996 
L 162.610187 84.728667 
L 162.584791 84.813086 
L 162.551674 84.953622 
L 162.551674 84.953622 
" style="fill:none;stroke:#1f77b4;stroke-linecap:square;"/>
   </g>
  </g>
 </g>
 <defs>
  <clipPath id="p9e8b8bde73">
   <rect height="127.686618" width="197.716542" x="7.2" y="7.2"/>
  </clipPath>
 </defs>
</svg>
