<?xml version="1.0" encoding="utf-8" standalone="no"?>
<!DOCTYPE svg PUBLIC "-//W3C//DTD SVG 1.1//EN"
  "http://www.w3.org/Graphics/SVG/1.1/DTD/svg11.dtd">
<!-- Created with matplotlib (http://matplotlib.org/) -->
<svg height="142pt" version="1.1" viewBox="0 0 212 142" width="212pt" xmlns="http://www.w3.org/2000/svg" xmlns:xlink="http://www.w3.org/1999/xlink">
 <defs>
  <style type="text/css">
*{stroke-linecap:butt;stroke-linejoin:round;}
  </style>
 </defs>
 <g id="figure_1">
  <g id="patch_1">
   <path d="M 0 142.086618 
L 212.116542 142.086618 
L 212.116542 0 
L 0 0 
z
" style="fill:#ffffff;"/>
  </g>
  <g id="patch_2">
   <path d="M 7.2 134.886618 
L 204.916542 134.886618 
L 204.916542 7.2 
L 7.2 7.2 
z
" style="fill:#ffffff;"/>
  </g>
  <g id="pane3d_1">
   <g id="patch_3">
    <path d="M 67.920484 79.522737 
L 170.223931 85.956679 
L 173.296329 24.576922 
L 65.915998 18.864755 
" style="fill:#ffffff;stroke:#ffffff;stroke-linejoin:miter;"/>
   </g>
  </g>
  <g id="pane3d_2">
   <g id="patch_4">
    <path d="M 67.920484 79.522737 
L 42.757513 115.033258 
L 39.208357 50.506766 
L 65.915998 18.864755 
" style="fill:#ffffff;stroke:#ffffff;stroke-linejoin:miter;"/>
   </g>
  </g>
  <g id="pane3d_3">
   <g id="patch_5">
    <path d="M 67.920484 79.522737 
L 42.757513 115.033258 
L 154.025178 122.69447 
L 170.223931 85.956679 
" style="fill:#ffffff;stroke:#ffffff;stroke-linejoin:miter;"/>
   </g>
  </g>
  <g id="axis3d_1">
   <g id="line2d_1">
    <path d="M 170.223931 85.956679 
L 154.025178 122.69447 
" style="fill:none;stroke:#000000;stroke-linecap:square;stroke-width:0.3;"/>
   </g>
   <g id="text_1">
    <!-- x (m) -->
    <defs>
     <path d="M 1.3125 44.734375 
L 22.359375 44.734375 
L 22.359375 42.921875 
Q 20.359375 42.921875 19.546875 42.234375 
Q 18.75 41.546875 18.75 40.4375 
Q 18.75 39.265625 20.453125 36.8125 
Q 21 36.03125 22.078125 34.375 
L 25.25 29.296875 
L 28.90625 34.375 
Q 32.421875 39.203125 32.421875 40.484375 
Q 32.421875 41.5 31.59375 42.203125 
Q 30.765625 42.921875 28.90625 42.921875 
L 28.90625 44.734375 
L 44.046875 44.734375 
L 44.046875 42.921875 
Q 41.65625 42.78125 39.890625 41.609375 
Q 37.5 39.9375 33.34375 34.375 
L 27.25 26.21875 
L 38.375 10.203125 
Q 42.484375 4.296875 44.234375 3.09375 
Q 46 1.90625 48.78125 1.765625 
L 48.78125 0 
L 27.6875 0 
L 27.6875 1.765625 
Q 29.890625 1.765625 31.109375 2.734375 
Q 32.03125 3.421875 32.03125 4.546875 
Q 32.03125 5.671875 28.90625 10.203125 
L 22.359375 19.78125 
L 15.1875 10.203125 
Q 11.859375 5.765625 11.859375 4.9375 
Q 11.859375 3.765625 12.953125 2.8125 
Q 14.0625 1.859375 16.265625 1.765625 
L 16.265625 0 
L 1.65625 0 
L 1.65625 1.765625 
Q 3.421875 2 4.734375 2.984375 
Q 6.59375 4.390625 10.984375 10.203125 
L 20.359375 22.65625 
L 11.859375 34.96875 
Q 8.25 40.234375 6.265625 41.578125 
Q 4.296875 42.921875 1.3125 42.921875 
z
" id="TimesNewRomanPSMT-78"/>
     <path id="TimesNewRomanPSMT-20"/>
     <path d="M 31.0625 -19.578125 
L 31.0625 -21.390625 
Q 23.6875 -17.671875 18.75 -12.703125 
Q 11.71875 -5.609375 7.90625 4 
Q 4.109375 13.625 4.109375 23.96875 
Q 4.109375 39.109375 11.578125 51.578125 
Q 19.046875 64.0625 31.0625 69.4375 
L 31.0625 67.390625 
Q 25.046875 64.0625 21.1875 58.296875 
Q 17.328125 52.546875 15.421875 43.703125 
Q 13.53125 34.859375 13.53125 25.25 
Q 13.53125 14.796875 15.140625 6.25 
Q 16.40625 -0.484375 18.203125 -4.5625 
Q 20.015625 -8.640625 23.0625 -12.390625 
Q 26.125 -16.15625 31.0625 -19.578125 
z
" id="TimesNewRomanPSMT-28"/>
     <path d="M 16.40625 36.53125 
Q 21.296875 41.40625 22.171875 42.140625 
Q 24.359375 44 26.890625 45.015625 
Q 29.4375 46.046875 31.9375 46.046875 
Q 36.140625 46.046875 39.15625 43.59375 
Q 42.1875 41.15625 43.21875 36.53125 
Q 48.25 42.390625 51.703125 44.21875 
Q 55.171875 46.046875 58.84375 46.046875 
Q 62.40625 46.046875 65.15625 44.21875 
Q 67.921875 42.390625 69.53125 38.234375 
Q 70.609375 35.40625 70.609375 29.34375 
L 70.609375 10.109375 
Q 70.609375 5.90625 71.234375 4.34375 
Q 71.734375 3.265625 73.046875 2.515625 
Q 74.359375 1.765625 77.34375 1.765625 
L 77.34375 0 
L 55.28125 0 
L 55.28125 1.765625 
L 56.203125 1.765625 
Q 59.078125 1.765625 60.6875 2.875 
Q 61.8125 3.65625 62.3125 5.375 
Q 62.5 6.203125 62.5 10.109375 
L 62.5 29.34375 
Q 62.5 34.8125 61.1875 37.0625 
Q 59.28125 40.1875 55.078125 40.1875 
Q 52.484375 40.1875 49.875 38.890625 
Q 47.265625 37.59375 43.5625 34.078125 
L 43.453125 33.546875 
L 43.5625 31.453125 
L 43.5625 10.109375 
Q 43.5625 5.515625 44.0625 4.390625 
Q 44.578125 3.265625 45.984375 2.515625 
Q 47.40625 1.765625 50.828125 1.765625 
L 50.828125 0 
L 28.21875 0 
L 28.21875 1.765625 
Q 31.9375 1.765625 33.328125 2.640625 
Q 34.71875 3.515625 35.25 5.28125 
Q 35.5 6.109375 35.5 10.109375 
L 35.5 29.34375 
Q 35.5 34.8125 33.890625 37.203125 
Q 31.734375 40.328125 27.875 40.328125 
Q 25.25 40.328125 22.65625 38.921875 
Q 18.609375 36.765625 16.40625 34.078125 
L 16.40625 10.109375 
Q 16.40625 5.71875 17.015625 4.390625 
Q 17.625 3.078125 18.8125 2.421875 
Q 20.015625 1.765625 23.6875 1.765625 
L 23.6875 0 
L 1.5625 0 
L 1.5625 1.765625 
Q 4.640625 1.765625 5.859375 2.421875 
Q 7.078125 3.078125 7.703125 4.515625 
Q 8.34375 5.953125 8.34375 10.109375 
L 8.34375 27.203125 
Q 8.34375 34.578125 7.90625 36.71875 
Q 7.5625 38.328125 6.828125 38.9375 
Q 6.109375 39.546875 4.828125 39.546875 
Q 3.46875 39.546875 1.5625 38.8125 
L 0.828125 40.578125 
L 14.3125 46.046875 
L 16.40625 46.046875 
z
" id="TimesNewRomanPSMT-6d"/>
     <path d="M 2.25 67.390625 
L 2.25 69.4375 
Q 9.671875 65.765625 14.59375 60.796875 
Q 21.578125 53.65625 25.390625 44.0625 
Q 29.203125 34.46875 29.203125 24.078125 
Q 29.203125 8.9375 21.75 -3.53125 
Q 14.3125 -16.015625 2.25 -21.390625 
L 2.25 -19.578125 
Q 8.25 -16.21875 12.125 -10.46875 
Q 16.015625 -4.734375 17.890625 4.125 
Q 19.78125 12.984375 19.78125 22.609375 
Q 19.78125 33.015625 18.171875 41.609375 
Q 16.9375 48.34375 15.109375 52.390625 
Q 13.28125 56.453125 10.25 60.203125 
Q 7.234375 63.96875 2.25 67.390625 
z
" id="TimesNewRomanPSMT-29"/>
    </defs>
    <g transform="translate(192.04584 129.782425)rotate(-66.205933)scale(0.06 -0.06)">
     <use xlink:href="#TimesNewRomanPSMT-78"/>
     <use x="50" xlink:href="#TimesNewRomanPSMT-20"/>
     <use x="75" xlink:href="#TimesNewRomanPSMT-28"/>
     <use x="108.300781" xlink:href="#TimesNewRomanPSMT-6d"/>
     <use x="186.083984" xlink:href="#TimesNewRomanPSMT-29"/>
    </g>
   </g>
   <g id="Line3DCollection_1">
    <path d="M 169.530516 87.529303 
L 66.841811 81.044983 
L 64.775976 20.215402 
" style="fill:none;stroke:#b0b0b0;stroke-width:0.1;"/>
    <path d="M 166.283227 94.893957 
L 61.792169 88.171146 
L 59.433359 26.545093 
" style="fill:none;stroke:#b0b0b0;stroke-width:0.1;"/>
    <path d="M 162.914366 102.53433 
L 56.556649 95.559624 
L 53.884006 33.119718 
" style="fill:none;stroke:#b0b0b0;stroke-width:0.1;"/>
    <path d="M 159.416975 110.466202 
L 51.124794 103.225173 
L 48.115678 39.953773 
" style="fill:none;stroke:#b0b0b0;stroke-width:0.1;"/>
    <path d="M 155.783555 118.706579 
L 45.48535 111.183676 
L 42.115156 47.062922 
" style="fill:none;stroke:#b0b0b0;stroke-width:0.1;"/>
   </g>
   <g id="xtick_1">
    <g id="line2d_2">
     <path clip-path="url(#pb93182a41f)" d="M 108.730116 69.317814 
" style="fill:none;opacity:0.1;stroke:#b0b0b0;stroke-linecap:square;stroke-width:0.1;"/>
    </g>
    <g id="line2d_3">
     <path d="M 168.695607 87.476582 
L 171.200994 87.634786 
" style="fill:none;stroke:#000000;stroke-linecap:square;stroke-width:0.3;"/>
    </g>
    <g id="text_2">
     <!-- −1 -->
     <defs>
      <path d="M 54.4375 31.25 
L 1.8125 31.25 
L 1.8125 35.25 
L 54.4375 35.25 
z
" id="TimesNewRomanPSMT-2212"/>
      <path d="M 11.71875 59.71875 
L 27.828125 67.578125 
L 29.4375 67.578125 
L 29.4375 11.671875 
Q 29.4375 6.109375 29.90625 4.734375 
Q 30.375 3.375 31.828125 2.640625 
Q 33.296875 1.90625 37.796875 1.8125 
L 37.796875 0 
L 12.890625 0 
L 12.890625 1.8125 
Q 17.578125 1.90625 18.9375 2.609375 
Q 20.3125 3.328125 20.84375 4.515625 
Q 21.390625 5.71875 21.390625 11.671875 
L 21.390625 47.40625 
Q 21.390625 54.640625 20.90625 56.6875 
Q 20.5625 58.25 19.65625 58.984375 
Q 18.75 59.71875 17.484375 59.71875 
Q 15.671875 59.71875 12.453125 58.203125 
z
" id="TimesNewRomanPSMT-31"/>
     </defs>
     <g transform="translate(180.051228 100.506982)scale(0.06 -0.06)">
      <use xlink:href="#TimesNewRomanPSMT-2212"/>
      <use x="56.396484" xlink:href="#TimesNewRomanPSMT-31"/>
     </g>
    </g>
   </g>
   <g id="xtick_2">
    <g id="line2d_4">
     <path clip-path="url(#pb93182a41f)" d="M 108.730116 69.317814 
" style="fill:none;opacity:0.1;stroke:#b0b0b0;stroke-linecap:square;stroke-width:0.1;"/>
    </g>
    <g id="line2d_5">
     <path d="M 165.433414 94.839281 
L 167.983538 95.003352 
" style="fill:none;stroke:#000000;stroke-linecap:square;stroke-width:0.3;"/>
    </g>
    <g id="text_3">
     <!-- 0 -->
     <defs>
      <path d="M 3.609375 32.71875 
Q 3.609375 44.046875 7.03125 52.21875 
Q 10.453125 60.40625 16.109375 64.40625 
Q 20.515625 67.578125 25.203125 67.578125 
Q 32.8125 67.578125 38.875 59.8125 
Q 46.4375 50.203125 46.4375 33.734375 
Q 46.4375 22.21875 43.109375 14.15625 
Q 39.796875 6.109375 34.640625 2.46875 
Q 29.5 -1.171875 24.703125 -1.171875 
Q 15.234375 -1.171875 8.9375 10.015625 
Q 3.609375 19.4375 3.609375 32.71875 
z
M 13.1875 31.5 
Q 13.1875 17.828125 16.546875 9.1875 
Q 19.34375 1.90625 24.859375 1.90625 
Q 27.484375 1.90625 30.3125 4.265625 
Q 33.15625 6.640625 34.625 12.203125 
Q 36.859375 20.609375 36.859375 35.890625 
Q 36.859375 47.21875 34.515625 54.78125 
Q 32.765625 60.40625 29.984375 62.75 
Q 27.984375 64.359375 25.140625 64.359375 
Q 21.828125 64.359375 19.234375 61.375 
Q 15.71875 57.328125 14.453125 48.625 
Q 13.1875 39.9375 13.1875 31.5 
z
" id="TimesNewRomanPSMT-30"/>
     </defs>
     <g transform="translate(178.760538 108.0011)scale(0.06 -0.06)">
      <use xlink:href="#TimesNewRomanPSMT-30"/>
     </g>
    </g>
   </g>
   <g id="xtick_3">
    <g id="line2d_6">
     <path clip-path="url(#pb93182a41f)" d="M 108.730116 69.317814 
" style="fill:none;opacity:0.1;stroke:#b0b0b0;stroke-linecap:square;stroke-width:0.1;"/>
    </g>
    <g id="line2d_7">
     <path d="M 162.049106 102.477588 
L 164.645594 102.64786 
" style="fill:none;stroke:#000000;stroke-linecap:square;stroke-width:0.3;"/>
    </g>
    <g id="text_4">
     <!-- 1 -->
     <g transform="translate(175.666964 115.774553)scale(0.06 -0.06)">
      <use xlink:href="#TimesNewRomanPSMT-31"/>
     </g>
    </g>
   </g>
   <g id="xtick_4">
    <g id="line2d_8">
     <path clip-path="url(#pb93182a41f)" d="M 108.730116 69.317814 
" style="fill:none;opacity:0.1;stroke:#b0b0b0;stroke-linecap:square;stroke-width:0.1;"/>
    </g>
    <g id="line2d_9">
     <path d="M 158.535698 110.407275 
L 161.180264 110.584105 
" style="fill:none;stroke:#000000;stroke-linecap:square;stroke-width:0.3;"/>
    </g>
    <g id="text_5">
     <!-- 2 -->
     <defs>
      <path d="M 45.84375 12.75 
L 41.21875 0 
L 2.15625 0 
L 2.15625 1.8125 
Q 19.390625 17.53125 26.421875 27.484375 
Q 33.453125 37.453125 33.453125 45.703125 
Q 33.453125 52 29.59375 56.046875 
Q 25.734375 60.109375 20.359375 60.109375 
Q 15.484375 60.109375 11.59375 57.25 
Q 7.71875 54.390625 5.859375 48.875 
L 4.046875 48.875 
Q 5.28125 57.90625 10.328125 62.734375 
Q 15.375 67.578125 22.953125 67.578125 
Q 31 67.578125 36.390625 62.40625 
Q 41.796875 57.234375 41.796875 50.203125 
Q 41.796875 45.171875 39.453125 40.140625 
Q 35.84375 32.234375 27.734375 23.390625 
Q 15.578125 10.109375 12.546875 7.375 
L 29.828125 7.375 
Q 35.109375 7.375 37.234375 7.765625 
Q 39.359375 8.15625 41.0625 9.34375 
Q 42.78125 10.546875 44.046875 12.75 
z
" id="TimesNewRomanPSMT-32"/>
     </defs>
     <g transform="translate(172.455892 123.843255)scale(0.06 -0.06)">
      <use xlink:href="#TimesNewRomanPSMT-32"/>
     </g>
    </g>
   </g>
   <g id="xtick_5">
    <g id="line2d_10">
     <path clip-path="url(#pb93182a41f)" d="M 108.730116 69.317814 
" style="fill:none;opacity:0.1;stroke:#b0b0b0;stroke-linecap:square;stroke-width:0.1;"/>
    </g>
    <g id="line2d_11">
     <path d="M 154.885657 118.645338 
L 157.580114 118.829113 
" style="fill:none;stroke:#000000;stroke-linecap:square;stroke-width:0.3;"/>
    </g>
    <g id="text_6">
     <!-- 3 -->
     <defs>
      <path d="M 5.078125 53.609375 
Q 7.90625 60.296875 12.21875 63.9375 
Q 16.546875 67.578125 23 67.578125 
Q 30.953125 67.578125 35.203125 62.40625 
Q 38.421875 58.546875 38.421875 54.15625 
Q 38.421875 46.921875 29.34375 39.203125 
Q 35.453125 36.8125 38.578125 32.375 
Q 41.703125 27.9375 41.703125 21.921875 
Q 41.703125 13.328125 36.234375 7.03125 
Q 29.109375 -1.171875 15.578125 -1.171875 
Q 8.890625 -1.171875 6.46875 0.484375 
Q 4.046875 2.15625 4.046875 4.046875 
Q 4.046875 5.46875 5.1875 6.546875 
Q 6.34375 7.625 7.953125 7.625 
Q 9.1875 7.625 10.453125 7.234375 
Q 11.28125 6.984375 14.203125 5.4375 
Q 17.140625 3.90625 18.265625 3.609375 
Q 20.0625 3.078125 22.125 3.078125 
Q 27.09375 3.078125 30.78125 6.9375 
Q 34.46875 10.796875 34.46875 16.0625 
Q 34.46875 19.921875 32.765625 23.578125 
Q 31.5 26.3125 29.984375 27.734375 
Q 27.875 29.6875 24.21875 31.265625 
Q 20.5625 32.859375 16.75 32.859375 
L 15.1875 32.859375 
L 15.1875 34.328125 
Q 19.046875 34.8125 22.921875 37.109375 
Q 26.8125 39.40625 28.5625 42.625 
Q 30.328125 45.84375 30.328125 49.703125 
Q 30.328125 54.734375 27.171875 57.828125 
Q 24.03125 60.9375 19.34375 60.9375 
Q 11.765625 60.9375 6.6875 52.828125 
z
" id="TimesNewRomanPSMT-33"/>
     </defs>
     <g transform="translate(169.120496 132.224352)scale(0.06 -0.06)">
      <use xlink:href="#TimesNewRomanPSMT-33"/>
     </g>
    </g>
   </g>
  </g>
  <g id="axis3d_2">
   <g id="line2d_12">
    <path d="M 42.757513 115.033258 
L 154.025178 122.69447 
" style="fill:none;stroke:#000000;stroke-linecap:square;stroke-width:0.3;"/>
   </g>
   <g id="text_7">
    <!-- y (m) -->
    <defs>
     <path d="M 0.59375 44.734375 
L 21.4375 44.734375 
L 21.4375 42.921875 
L 20.40625 42.921875 
Q 18.21875 42.921875 17.109375 41.96875 
Q 16.015625 41.015625 16.015625 39.59375 
Q 16.015625 37.703125 17.625 34.328125 
L 28.515625 11.765625 
L 38.53125 36.46875 
Q 39.359375 38.484375 39.359375 40.4375 
Q 39.359375 41.3125 39.015625 41.75 
Q 38.625 42.28125 37.796875 42.59375 
Q 36.96875 42.921875 34.859375 42.921875 
L 34.859375 44.734375 
L 49.421875 44.734375 
L 49.421875 42.921875 
Q 47.609375 42.71875 46.625 42.125 
Q 45.65625 41.546875 44.484375 39.9375 
Q 44.046875 39.265625 42.828125 36.1875 
L 24.609375 -8.453125 
Q 21.96875 -14.9375 17.6875 -18.25 
Q 13.421875 -21.578125 9.46875 -21.578125 
Q 6.59375 -21.578125 4.734375 -19.921875 
Q 2.875 -18.265625 2.875 -16.109375 
Q 2.875 -14.0625 4.21875 -12.8125 
Q 5.5625 -11.578125 7.90625 -11.578125 
Q 9.515625 -11.578125 12.3125 -12.640625 
Q 14.265625 -13.375 14.75 -13.375 
Q 16.21875 -13.375 17.9375 -11.859375 
Q 19.671875 -10.359375 21.4375 -6 
L 24.609375 1.765625 
L 8.546875 35.5 
Q 7.8125 37.015625 6.203125 39.265625 
Q 4.984375 40.96875 4.203125 41.546875 
Q 3.078125 42.328125 0.59375 42.921875 
z
" id="TimesNewRomanPSMT-79"/>
    </defs>
    <g transform="translate(84.638469 149.957291)rotate(-356.061179)scale(0.06 -0.06)">
     <use xlink:href="#TimesNewRomanPSMT-79"/>
     <use x="50" xlink:href="#TimesNewRomanPSMT-20"/>
     <use x="75" xlink:href="#TimesNewRomanPSMT-28"/>
     <use x="108.300781" xlink:href="#TimesNewRomanPSMT-6d"/>
     <use x="186.083984" xlink:href="#TimesNewRomanPSMT-29"/>
    </g>
   </g>
   <g id="Line3DCollection_2">
    <path d="M 88.393026 20.060435 
L 89.348442 80.870358 
L 66.035778 116.636057 
" style="fill:none;stroke:#b0b0b0;stroke-width:0.1;"/>
    <path d="M 110.526425 21.237836 
L 110.441753 82.196932 
L 88.964612 118.214797 
" style="fill:none;stroke:#b0b0b0;stroke-width:0.1;"/>
    <path d="M 132.816742 22.423584 
L 131.677534 83.532467 
L 112.062472 119.805175 
" style="fill:none;stroke:#b0b0b0;stroke-width:0.1;"/>
    <path d="M 155.26565 23.617768 
L 153.057235 84.877052 
L 135.331232 121.407319 
" style="fill:none;stroke:#b0b0b0;stroke-width:0.1;"/>
   </g>
   <g id="xtick_6">
    <g id="line2d_13">
     <path clip-path="url(#pb93182a41f)" d="M 108.730116 69.317814 
" style="fill:none;opacity:0.1;stroke:#b0b0b0;stroke-linecap:square;stroke-width:0.1;"/>
    </g>
    <g id="line2d_14">
     <path d="M 66.239056 116.324194 
L 65.628336 117.261145 
" style="fill:none;stroke:#000000;stroke-linecap:square;stroke-width:0.3;"/>
    </g>
    <g id="text_8">
     <!-- −12 -->
     <g transform="translate(58.173137 134.499604)scale(0.06 -0.06)">
      <use xlink:href="#TimesNewRomanPSMT-2212"/>
      <use x="56.396484" xlink:href="#TimesNewRomanPSMT-31"/>
      <use x="106.396484" xlink:href="#TimesNewRomanPSMT-32"/>
     </g>
    </g>
   </g>
   <g id="xtick_7">
    <g id="line2d_15">
     <path clip-path="url(#pb93182a41f)" d="M 108.730116 69.317814 
" style="fill:none;opacity:0.1;stroke:#b0b0b0;stroke-linecap:square;stroke-width:0.1;"/>
    </g>
    <g id="line2d_16">
     <path d="M 89.151942 117.900639 
L 88.589133 118.844487 
" style="fill:none;stroke:#000000;stroke-linecap:square;stroke-width:0.3;"/>
    </g>
    <g id="text_9">
     <!-- −9 -->
     <defs>
      <path d="M 5.28125 -1.375 
L 5.28125 0.4375 
Q 11.625 0.53125 17.09375 3.390625 
Q 22.5625 6.25 27.65625 13.375 
Q 32.765625 20.515625 34.765625 29.046875 
Q 27.09375 24.125 20.90625 24.125 
Q 13.921875 24.125 8.9375 29.515625 
Q 3.953125 34.90625 3.953125 43.84375 
Q 3.953125 52.546875 8.9375 59.328125 
Q 14.9375 67.578125 24.609375 67.578125 
Q 32.765625 67.578125 38.578125 60.84375 
Q 45.703125 52.484375 45.703125 40.234375 
Q 45.703125 29.203125 40.28125 19.65625 
Q 34.859375 10.109375 25.203125 3.8125 
Q 17.328125 -1.375 8.0625 -1.375 
z
M 35.546875 32.671875 
Q 36.421875 39.015625 36.421875 42.828125 
Q 36.421875 47.5625 34.8125 53.046875 
Q 33.203125 58.546875 30.25 61.46875 
Q 27.296875 64.40625 23.53125 64.40625 
Q 19.1875 64.40625 15.90625 60.5 
Q 12.640625 56.59375 12.640625 48.875 
Q 12.640625 38.578125 17 32.765625 
Q 20.171875 28.5625 24.8125 28.5625 
Q 27.046875 28.5625 30.125 29.640625 
Q 33.203125 30.71875 35.546875 32.671875 
z
" id="TimesNewRomanPSMT-39"/>
     </defs>
     <g transform="translate(82.7143 136.137457)scale(0.06 -0.06)">
      <use xlink:href="#TimesNewRomanPSMT-2212"/>
      <use x="56.396484" xlink:href="#TimesNewRomanPSMT-39"/>
     </g>
    </g>
   </g>
   <g id="xtick_8">
    <g id="line2d_17">
     <path clip-path="url(#pb93182a41f)" d="M 108.730116 69.317814 
" style="fill:none;opacity:0.1;stroke:#b0b0b0;stroke-linecap:square;stroke-width:0.1;"/>
    </g>
    <g id="line2d_18">
     <path d="M 112.233612 119.488698 
L 111.71944 120.439519 
" style="fill:none;stroke:#000000;stroke-linecap:square;stroke-width:0.3;"/>
    </g>
    <g id="text_10">
     <!-- −6 -->
     <defs>
      <path d="M 44.828125 67.578125 
L 44.828125 65.765625 
Q 38.375 65.140625 34.296875 63.203125 
Q 30.21875 61.28125 26.234375 57.328125 
Q 22.265625 53.375 19.65625 48.515625 
Q 17.046875 43.65625 15.28125 36.96875 
Q 22.3125 41.796875 29.390625 41.796875 
Q 36.1875 41.796875 41.15625 36.328125 
Q 46.140625 30.859375 46.140625 22.265625 
Q 46.140625 13.96875 41.109375 7.125 
Q 35.0625 -1.171875 25.09375 -1.171875 
Q 18.3125 -1.171875 13.578125 3.328125 
Q 4.296875 12.0625 4.296875 25.984375 
Q 4.296875 34.859375 7.859375 42.859375 
Q 11.421875 50.875 18.03125 57.078125 
Q 24.65625 63.28125 30.703125 65.421875 
Q 36.765625 67.578125 42 67.578125 
z
M 14.453125 33.40625 
Q 13.578125 26.8125 13.578125 22.75 
Q 13.578125 18.0625 15.3125 12.5625 
Q 17.046875 7.078125 20.453125 3.859375 
Q 22.953125 1.5625 26.515625 1.5625 
Q 30.765625 1.5625 34.109375 5.5625 
Q 37.453125 9.578125 37.453125 17 
Q 37.453125 25.34375 34.125 31.4375 
Q 30.8125 37.546875 24.703125 37.546875 
Q 22.859375 37.546875 20.734375 36.765625 
Q 18.609375 35.984375 14.453125 33.40625 
z
" id="TimesNewRomanPSMT-36"/>
     </defs>
     <g transform="translate(105.926239 137.787449)scale(0.06 -0.06)">
      <use xlink:href="#TimesNewRomanPSMT-2212"/>
      <use x="56.396484" xlink:href="#TimesNewRomanPSMT-36"/>
     </g>
    </g>
   </g>
   <g id="xtick_9">
    <g id="line2d_19">
     <path clip-path="url(#pb93182a41f)" d="M 108.730116 69.317814 
" style="fill:none;opacity:0.1;stroke:#b0b0b0;stroke-linecap:square;stroke-width:0.1;"/>
    </g>
    <g id="line2d_20">
     <path d="M 135.485938 121.088497 
L 135.021139 122.046369 
" style="fill:none;stroke:#000000;stroke-linecap:square;stroke-width:0.3;"/>
    </g>
    <g id="text_11">
     <!-- −3 -->
     <g transform="translate(129.310859 139.449716)scale(0.06 -0.06)">
      <use xlink:href="#TimesNewRomanPSMT-2212"/>
      <use x="56.396484" xlink:href="#TimesNewRomanPSMT-33"/>
     </g>
    </g>
   </g>
  </g>
  <g id="axis3d_3">
   <g id="line2d_21">
    <path d="M 42.757513 115.033258 
L 39.208357 50.506766 
" style="fill:none;stroke:#000000;stroke-linecap:square;stroke-width:0.3;"/>
   </g>
   <g id="text_12">
    <!-- z (m) -->
    <defs>
     <path d="M 42 13.71875 
L 41.453125 0 
L 2 0 
L 2 1.765625 
L 31.6875 41.3125 
L 17.046875 41.3125 
Q 12.3125 41.3125 10.84375 40.703125 
Q 9.375 40.09375 8.453125 38.375 
Q 7.125 35.9375 6.9375 32.328125 
L 4.984375 32.328125 
L 5.28125 44.734375 
L 42.78125 44.734375 
L 42.78125 42.921875 
L 12.796875 3.265625 
L 29.109375 3.265625 
Q 34.234375 3.265625 36.0625 4.125 
Q 37.890625 4.984375 39.015625 7.125 
Q 39.796875 8.6875 40.328125 13.71875 
z
" id="TimesNewRomanPSMT-7a"/>
    </defs>
    <g transform="translate(-3.135072 86.239504)rotate(-273.148272)scale(0.06 -0.06)">
     <use xlink:href="#TimesNewRomanPSMT-7a"/>
     <use x="44.384766" xlink:href="#TimesNewRomanPSMT-20"/>
     <use x="69.384766" xlink:href="#TimesNewRomanPSMT-28"/>
     <use x="102.685547" xlink:href="#TimesNewRomanPSMT-6d"/>
     <use x="180.46875" xlink:href="#TimesNewRomanPSMT-29"/>
    </g>
   </g>
   <g id="Line3DCollection_3">
    <path d="M 42.593467 112.050767 
L 67.82744 76.707128 
L 170.366436 83.109752 
" style="fill:none;stroke:#b0b0b0;stroke-width:0.1;"/>
    <path d="M 42.207259 105.029197 
L 67.608542 70.083024 
L 170.701739 76.411132 
" style="fill:none;stroke:#b0b0b0;stroke-width:0.1;"/>
    <path d="M 41.816514 97.925141 
L 67.387288 63.387638 
L 171.04071 69.639231 
" style="fill:none;stroke:#b0b0b0;stroke-width:0.1;"/>
    <path d="M 41.421152 90.737135 
L 67.163641 56.619814 
L 171.38341 62.792841 
" style="fill:none;stroke:#b0b0b0;stroke-width:0.1;"/>
    <path d="M 41.021089 83.463683 
L 66.93756 49.778369 
L 171.7299 55.870726 
" style="fill:none;stroke:#b0b0b0;stroke-width:0.1;"/>
    <path d="M 40.616243 76.103252 
L 66.709007 42.862096 
L 172.080244 48.871623 
" style="fill:none;stroke:#b0b0b0;stroke-width:0.1;"/>
    <path d="M 40.206526 68.654272 
L 66.47794 35.86976 
L 172.434507 41.79424 
" style="fill:none;stroke:#b0b0b0;stroke-width:0.1;"/>
    <path d="M 39.79185 61.115136 
L 66.244318 28.800099 
L 172.792753 34.637257 
" style="fill:none;stroke:#b0b0b0;stroke-width:0.1;"/>
    <path d="M 39.372125 53.484197 
L 66.008099 21.651825 
L 173.155052 27.399322 
" style="fill:none;stroke:#b0b0b0;stroke-width:0.1;"/>
   </g>
   <g id="xtick_10">
    <g id="line2d_22">
     <path d="M 108.730116 69.317814 
" style="fill:none;opacity:0.1;stroke:#b0b0b0;stroke-linecap:square;stroke-width:0.1;"/>
    </g>
    <g id="line2d_23">
     <path d="M 42.813475 111.742615 
L 42.152492 112.668412 
" style="fill:none;stroke:#000000;stroke-linecap:square;stroke-width:0.3;"/>
    </g>
    <g id="text_13">
     <!-- 2.6 -->
     <defs>
      <path d="M 12.5 9.46875 
Q 14.796875 9.46875 16.359375 7.875 
Q 17.921875 6.296875 17.921875 4.046875 
Q 17.921875 1.8125 16.328125 0.21875 
Q 14.75 -1.375 12.5 -1.375 
Q 10.25 -1.375 8.65625 0.21875 
Q 7.078125 1.8125 7.078125 4.046875 
Q 7.078125 6.34375 8.65625 7.90625 
Q 10.25 9.46875 12.5 9.46875 
z
" id="TimesNewRomanPSMT-2e"/>
     </defs>
     <g transform="translate(20.051316 120.473503)scale(0.06 -0.06)">
      <use xlink:href="#TimesNewRomanPSMT-32"/>
      <use x="50" xlink:href="#TimesNewRomanPSMT-2e"/>
      <use x="75" xlink:href="#TimesNewRomanPSMT-36"/>
     </g>
    </g>
   </g>
   <g id="xtick_11">
    <g id="line2d_24">
     <path d="M 108.730116 69.317814 
" style="fill:none;opacity:0.1;stroke:#b0b0b0;stroke-linecap:square;stroke-width:0.1;"/>
    </g>
    <g id="line2d_25">
     <path d="M 42.428833 104.724365 
L 41.763141 105.640199 
" style="fill:none;stroke:#000000;stroke-linecap:square;stroke-width:0.3;"/>
    </g>
    <g id="text_14">
     <!-- 2.8 -->
     <defs>
      <path d="M 19.1875 33.34375 
Q 11.328125 39.796875 9.046875 43.703125 
Q 6.78125 47.609375 6.78125 51.8125 
Q 6.78125 58.25 11.765625 62.90625 
Q 16.75 67.578125 25 67.578125 
Q 33.015625 67.578125 37.890625 63.234375 
Q 42.78125 58.890625 42.78125 53.328125 
Q 42.78125 49.609375 40.140625 45.75 
Q 37.5 41.890625 29.15625 36.671875 
Q 37.75 30.03125 40.53125 26.21875 
Q 44.234375 21.234375 44.234375 15.71875 
Q 44.234375 8.734375 38.90625 3.78125 
Q 33.59375 -1.171875 24.953125 -1.171875 
Q 15.53125 -1.171875 10.25 4.734375 
Q 6.0625 9.46875 6.0625 15.09375 
Q 6.0625 19.484375 9.015625 23.796875 
Q 11.96875 28.125 19.1875 33.34375 
z
M 26.859375 38.578125 
Q 32.71875 43.84375 34.28125 46.890625 
Q 35.84375 49.953125 35.84375 53.8125 
Q 35.84375 58.9375 32.953125 61.84375 
Q 30.078125 64.75 25.09375 64.75 
Q 20.125 64.75 17 61.859375 
Q 13.875 58.984375 13.875 55.125 
Q 13.875 52.59375 15.15625 50.046875 
Q 16.453125 47.515625 18.84375 45.21875 
z
M 21.484375 31.5 
Q 17.4375 28.078125 15.484375 24.046875 
Q 13.53125 20.015625 13.53125 15.328125 
Q 13.53125 9.03125 16.96875 5.25 
Q 20.40625 1.46875 25.734375 1.46875 
Q 31 1.46875 34.171875 4.4375 
Q 37.359375 7.421875 37.359375 11.671875 
Q 37.359375 15.1875 35.5 17.96875 
Q 32.03125 23.140625 21.484375 31.5 
z
" id="TimesNewRomanPSMT-38"/>
     </defs>
     <g transform="translate(19.550377 113.406355)scale(0.06 -0.06)">
      <use xlink:href="#TimesNewRomanPSMT-32"/>
      <use x="50" xlink:href="#TimesNewRomanPSMT-2e"/>
      <use x="75" xlink:href="#TimesNewRomanPSMT-38"/>
     </g>
    </g>
   </g>
   <g id="xtick_12">
    <g id="line2d_26">
     <path d="M 108.730116 69.317814 
" style="fill:none;opacity:0.1;stroke:#b0b0b0;stroke-linecap:square;stroke-width:0.1;"/>
    </g>
    <g id="line2d_27">
     <path d="M 42.039675 97.623726 
L 41.36921 98.529298 
" style="fill:none;stroke:#000000;stroke-linecap:square;stroke-width:0.3;"/>
    </g>
    <g id="text_15">
     <!-- 3.0 -->
     <g transform="translate(19.043495 106.255343)scale(0.06 -0.06)">
      <use xlink:href="#TimesNewRomanPSMT-33"/>
      <use x="50" xlink:href="#TimesNewRomanPSMT-2e"/>
      <use x="75" xlink:href="#TimesNewRomanPSMT-30"/>
     </g>
    </g>
   </g>
   <g id="xtick_13">
    <g id="line2d_28">
     <path d="M 108.730116 69.317814 
" style="fill:none;opacity:0.1;stroke:#b0b0b0;stroke-linecap:square;stroke-width:0.1;"/>
    </g>
    <g id="line2d_29">
     <path d="M 41.645921 90.439241 
L 40.970616 91.334244 
" style="fill:none;stroke:#000000;stroke-linecap:square;stroke-width:0.3;"/>
    </g>
    <g id="text_16">
     <!-- 3.2 -->
     <g transform="translate(18.530561 99.018967)scale(0.06 -0.06)">
      <use xlink:href="#TimesNewRomanPSMT-33"/>
      <use x="50" xlink:href="#TimesNewRomanPSMT-2e"/>
      <use x="75" xlink:href="#TimesNewRomanPSMT-32"/>
     </g>
    </g>
   </g>
   <g id="xtick_14">
    <g id="line2d_30">
     <path d="M 108.730116 69.317814 
" style="fill:none;opacity:0.1;stroke:#b0b0b0;stroke-linecap:square;stroke-width:0.1;"/>
    </g>
    <g id="line2d_31">
     <path d="M 41.247491 83.169414 
L 40.567277 84.053532 
" style="fill:none;stroke:#000000;stroke-linecap:square;stroke-width:0.3;"/>
    </g>
    <g id="text_17">
     <!-- 3.4 -->
     <defs>
      <path d="M 46.53125 24.421875 
L 46.53125 17.484375 
L 37.640625 17.484375 
L 37.640625 0 
L 29.59375 0 
L 29.59375 17.484375 
L 1.5625 17.484375 
L 1.5625 23.734375 
L 32.28125 67.578125 
L 37.640625 67.578125 
L 37.640625 24.421875 
z
M 29.59375 24.421875 
L 29.59375 57.28125 
L 6.34375 24.421875 
z
" id="TimesNewRomanPSMT-34"/>
     </defs>
     <g transform="translate(18.011468 91.695687)scale(0.06 -0.06)">
      <use xlink:href="#TimesNewRomanPSMT-33"/>
      <use x="50" xlink:href="#TimesNewRomanPSMT-2e"/>
      <use x="75" xlink:href="#TimesNewRomanPSMT-34"/>
     </g>
    </g>
   </g>
   <g id="xtick_15">
    <g id="line2d_32">
     <path d="M 108.730116 69.317814 
" style="fill:none;opacity:0.1;stroke:#b0b0b0;stroke-linecap:square;stroke-width:0.1;"/>
    </g>
    <g id="line2d_33">
     <path d="M 40.844299 75.812717 
L 40.159108 76.685624 
" style="fill:none;stroke:#000000;stroke-linecap:square;stroke-width:0.3;"/>
    </g>
    <g id="text_18">
     <!-- 3.6 -->
     <g transform="translate(17.486103 84.28393)scale(0.06 -0.06)">
      <use xlink:href="#TimesNewRomanPSMT-33"/>
      <use x="50" xlink:href="#TimesNewRomanPSMT-2e"/>
      <use x="75" xlink:href="#TimesNewRomanPSMT-36"/>
     </g>
    </g>
   </g>
   <g id="xtick_16">
    <g id="line2d_34">
     <path d="M 108.730116 69.317814 
" style="fill:none;opacity:0.1;stroke:#b0b0b0;stroke-linecap:square;stroke-width:0.1;"/>
    </g>
    <g id="line2d_35">
     <path d="M 40.43626 68.367583 
L 39.746021 69.228944 
" style="fill:none;stroke:#000000;stroke-linecap:square;stroke-width:0.3;"/>
    </g>
    <g id="text_19">
     <!-- 3.8 -->
     <g transform="translate(16.954352 76.782081)scale(0.06 -0.06)">
      <use xlink:href="#TimesNewRomanPSMT-33"/>
      <use x="50" xlink:href="#TimesNewRomanPSMT-2e"/>
      <use x="75" xlink:href="#TimesNewRomanPSMT-38"/>
     </g>
    </g>
   </g>
   <g id="xtick_17">
    <g id="line2d_36">
     <path d="M 108.730116 69.317814 
" style="fill:none;opacity:0.1;stroke:#b0b0b0;stroke-linecap:square;stroke-width:0.1;"/>
    </g>
    <g id="line2d_37">
     <path d="M 40.023287 60.832407 
L 39.327926 61.681878 
" style="fill:none;stroke:#000000;stroke-linecap:square;stroke-width:0.3;"/>
    </g>
    <g id="text_20">
     <!-- 4.0 -->
     <g transform="translate(16.416098 69.18849)scale(0.06 -0.06)">
      <use xlink:href="#TimesNewRomanPSMT-34"/>
      <use x="50" xlink:href="#TimesNewRomanPSMT-2e"/>
      <use x="75" xlink:href="#TimesNewRomanPSMT-30"/>
     </g>
    </g>
   </g>
   <g id="xtick_18">
    <g id="line2d_38">
     <path d="M 108.730116 69.317814 
" style="fill:none;opacity:0.1;stroke:#b0b0b0;stroke-linecap:square;stroke-width:0.1;"/>
    </g>
    <g id="line2d_39">
     <path d="M 39.605289 53.205546 
L 38.904733 54.042773 
" style="fill:none;stroke:#000000;stroke-linecap:square;stroke-width:0.3;"/>
    </g>
    <g id="text_21">
     <!-- 4.2 -->
     <g transform="translate(15.871221 61.501461)scale(0.06 -0.06)">
      <use xlink:href="#TimesNewRomanPSMT-34"/>
      <use x="50" xlink:href="#TimesNewRomanPSMT-2e"/>
      <use x="75" xlink:href="#TimesNewRomanPSMT-32"/>
     </g>
    </g>
   </g>
  </g>
  <g id="axes_1">
   <g id="line2d_40">
    <path clip-path="url(#pb93182a41f)" d="M 162.019449 86.473387 
L 162.113788 86.172805 
L 162.209445 85.586224 
L 162.287549 84.038124 
L 162.060039 82.989125 
L 161.751449 82.421407 
L 161.325855 81.584132 
L 160.906284 80.357502 
L 160.416421 78.937364 
L 159.853034 77.694688 
L 158.267366 74.814264 
L 157.140391 73.230631 
L 156.120087 72.165077 
L 154.725642 71.053924 
L 153.074369 69.917308 
L 150.950538 68.898771 
L 149.307786 68.096021 
L 147.974545 67.602941 
L 145.459434 67.030866 
L 139.268122 66.633428 
L 136.806521 66.662626 
L 134.812358 66.835025 
L 124.095424 68.698801 
L 121.637995 69.431729 
L 118.408842 70.639956 
L 111.744707 73.263828 
L 106.147569 75.22796 
L 102.708818 75.867821 
L 100.831295 75.836164 
L 98.010818 75.586337 
L 96.010515 75.088713 
L 94.281585 74.368039 
L 93.078546 73.798116 
L 92.17536 73.230617 
L 91.267156 72.523508 
L 90.046428 71.387182 
L 86.867067 67.874767 
L 83.559735 63.647082 
L 81.554621 60.969273 
L 75.871077 54.403738 
L 74.057583 53.210597 
L 72.914748 52.918764 
L 72.090996 52.88892 
L 68.620663 53.269318 
L 65.885655 53.076659 
L 64.332673 52.700427 
L 62.266526 52.079824 
L 57.842323 50.769745 
L 56.107696 50.505246 
L 55.317111 50.571056 
L 53.894183 51.026979 
L 52.92065 51.542831 
L 52.030279 52.526236 
L 51.466844 53.819677 
L 51.360378 54.525065 
L 51.504296 54.99116 
L 52.144263 55.569176 
L 52.341487 55.554004 
L 52.341487 55.554004 
" style="fill:none;stroke:#1f77b4;stroke-linecap:square;"/>
   </g>
  </g>
 </g>
 <defs>
  <clipPath id="pb93182a41f">
   <rect height="127.686618" width="197.716542" x="7.2" y="7.2"/>
  </clipPath>
 </defs>
</svg>
