<?xml version="1.0" encoding="utf-8" standalone="no"?>
<!DOCTYPE svg PUBLIC "-//W3C//DTD SVG 1.1//EN"
  "http://www.w3.org/Graphics/SVG/1.1/DTD/svg11.dtd">
<!-- Created with matplotlib (http://matplotlib.org/) -->
<svg height="142pt" version="1.1" viewBox="0 0 212 142" width="212pt" xmlns="http://www.w3.org/2000/svg" xmlns:xlink="http://www.w3.org/1999/xlink">
 <defs>
  <style type="text/css">
*{stroke-linecap:butt;stroke-linejoin:round;}
  </style>
 </defs>
 <g id="figure_1">
  <g id="patch_1">
   <path d="M 0 142.086618 
L 212.116542 142.086618 
L 212.116542 0 
L 0 0 
z
" style="fill:#ffffff;"/>
  </g>
  <g id="patch_2">
   <path d="M 7.2 134.886618 
L 204.916542 134.886618 
L 204.916542 7.2 
L 7.2 7.2 
z
" style="fill:#ffffff;"/>
  </g>
  <g id="pane3d_1">
   <g id="patch_3">
    <path d="M 64.602296 87.024967 
L 168.037378 90.633727 
L 170.202138 25.78244 
L 63.012634 22.890688 
" style="fill:#ffffff;stroke:#ffffff;stroke-linejoin:miter;"/>
   </g>
  </g>
  <g id="pane3d_2">
   <g id="patch_4">
    <path d="M 64.602296 87.024967 
L 44.400043 114.877302 
L 41.845186 45.278375 
L 63.012634 22.890688 
" style="fill:#ffffff;stroke:#ffffff;stroke-linejoin:miter;"/>
   </g>
  </g>
  <g id="pane3d_3">
   <g id="patch_5">
    <path d="M 64.602296 87.024967 
L 44.400043 114.877302 
L 157.887074 119.237805 
L 168.037378 90.633727 
" style="fill:#ffffff;stroke:#ffffff;stroke-linejoin:miter;"/>
   </g>
  </g>
  <g id="axis3d_1">
   <g id="line2d_1">
    <path d="M 168.037378 90.633727 
L 157.887074 119.237805 
" style="fill:none;stroke:#000000;stroke-linecap:square;stroke-width:0.3;"/>
   </g>
   <g id="text_1">
    <!-- x (m) -->
    <defs>
     <path d="M 1.3125 44.734375 
L 22.359375 44.734375 
L 22.359375 42.921875 
Q 20.359375 42.921875 19.546875 42.234375 
Q 18.75 41.546875 18.75 40.4375 
Q 18.75 39.265625 20.453125 36.8125 
Q 21 36.03125 22.078125 34.375 
L 25.25 29.296875 
L 28.90625 34.375 
Q 32.421875 39.203125 32.421875 40.484375 
Q 32.421875 41.5 31.59375 42.203125 
Q 30.765625 42.921875 28.90625 42.921875 
L 28.90625 44.734375 
L 44.046875 44.734375 
L 44.046875 42.921875 
Q 41.65625 42.78125 39.890625 41.609375 
Q 37.5 39.9375 33.34375 34.375 
L 27.25 26.21875 
L 38.375 10.203125 
Q 42.484375 4.296875 44.234375 3.09375 
Q 46 1.90625 48.78125 1.765625 
L 48.78125 0 
L 27.6875 0 
L 27.6875 1.765625 
Q 29.890625 1.765625 31.109375 2.734375 
Q 32.03125 3.421875 32.03125 4.546875 
Q 32.03125 5.671875 28.90625 10.203125 
L 22.359375 19.78125 
L 15.1875 10.203125 
Q 11.859375 5.765625 11.859375 4.9375 
Q 11.859375 3.765625 12.953125 2.8125 
Q 14.0625 1.859375 16.265625 1.765625 
L 16.265625 0 
L 1.65625 0 
L 1.65625 1.765625 
Q 3.421875 2 4.734375 2.984375 
Q 6.59375 4.390625 10.984375 10.203125 
L 20.359375 22.65625 
L 11.859375 34.96875 
Q 8.25 40.234375 6.265625 41.578125 
Q 4.296875 42.921875 1.3125 42.921875 
z
" id="TimesNewRomanPSMT-78"/>
     <path id="TimesNewRomanPSMT-20"/>
     <path d="M 31.0625 -19.578125 
L 31.0625 -21.390625 
Q 23.6875 -17.671875 18.75 -12.703125 
Q 11.71875 -5.609375 7.90625 4 
Q 4.109375 13.625 4.109375 23.96875 
Q 4.109375 39.109375 11.578125 51.578125 
Q 19.046875 64.0625 31.0625 69.4375 
L 31.0625 67.390625 
Q 25.046875 64.0625 21.1875 58.296875 
Q 17.328125 52.546875 15.421875 43.703125 
Q 13.53125 34.859375 13.53125 25.25 
Q 13.53125 14.796875 15.140625 6.25 
Q 16.40625 -0.484375 18.203125 -4.5625 
Q 20.015625 -8.640625 23.0625 -12.390625 
Q 26.125 -16.15625 31.0625 -19.578125 
z
" id="TimesNewRomanPSMT-28"/>
     <path d="M 16.40625 36.53125 
Q 21.296875 41.40625 22.171875 42.140625 
Q 24.359375 44 26.890625 45.015625 
Q 29.4375 46.046875 31.9375 46.046875 
Q 36.140625 46.046875 39.15625 43.59375 
Q 42.1875 41.15625 43.21875 36.53125 
Q 48.25 42.390625 51.703125 44.21875 
Q 55.171875 46.046875 58.84375 46.046875 
Q 62.40625 46.046875 65.15625 44.21875 
Q 67.921875 42.390625 69.53125 38.234375 
Q 70.609375 35.40625 70.609375 29.34375 
L 70.609375 10.109375 
Q 70.609375 5.90625 71.234375 4.34375 
Q 71.734375 3.265625 73.046875 2.515625 
Q 74.359375 1.765625 77.34375 1.765625 
L 77.34375 0 
L 55.28125 0 
L 55.28125 1.765625 
L 56.203125 1.765625 
Q 59.078125 1.765625 60.6875 2.875 
Q 61.8125 3.65625 62.3125 5.375 
Q 62.5 6.203125 62.5 10.109375 
L 62.5 29.34375 
Q 62.5 34.8125 61.1875 37.0625 
Q 59.28125 40.1875 55.078125 40.1875 
Q 52.484375 40.1875 49.875 38.890625 
Q 47.265625 37.59375 43.5625 34.078125 
L 43.453125 33.546875 
L 43.5625 31.453125 
L 43.5625 10.109375 
Q 43.5625 5.515625 44.0625 4.390625 
Q 44.578125 3.265625 45.984375 2.515625 
Q 47.40625 1.765625 50.828125 1.765625 
L 50.828125 0 
L 28.21875 0 
L 28.21875 1.765625 
Q 31.9375 1.765625 33.328125 2.640625 
Q 34.71875 3.515625 35.25 5.28125 
Q 35.5 6.109375 35.5 10.109375 
L 35.5 29.34375 
Q 35.5 34.8125 33.890625 37.203125 
Q 31.734375 40.328125 27.875 40.328125 
Q 25.25 40.328125 22.65625 38.921875 
Q 18.609375 36.765625 16.40625 34.078125 
L 16.40625 10.109375 
Q 16.40625 5.71875 17.015625 4.390625 
Q 17.625 3.078125 18.8125 2.421875 
Q 20.015625 1.765625 23.6875 1.765625 
L 23.6875 0 
L 1.5625 0 
L 1.5625 1.765625 
Q 4.640625 1.765625 5.859375 2.421875 
Q 7.078125 3.078125 7.703125 4.515625 
Q 8.34375 5.953125 8.34375 10.109375 
L 8.34375 27.203125 
Q 8.34375 34.578125 7.90625 36.71875 
Q 7.5625 38.328125 6.828125 38.9375 
Q 6.109375 39.546875 4.828125 39.546875 
Q 3.46875 39.546875 1.5625 38.8125 
L 0.828125 40.578125 
L 14.3125 46.046875 
L 16.40625 46.046875 
z
" id="TimesNewRomanPSMT-6d"/>
     <path d="M 2.25 67.390625 
L 2.25 69.4375 
Q 9.671875 65.765625 14.59375 60.796875 
Q 21.578125 53.65625 25.390625 44.0625 
Q 29.203125 34.46875 29.203125 24.078125 
Q 29.203125 8.9375 21.75 -3.53125 
Q 14.3125 -16.015625 2.25 -21.390625 
L 2.25 -19.578125 
Q 8.25 -16.21875 12.125 -10.46875 
Q 16.015625 -4.734375 17.890625 4.125 
Q 19.78125 12.984375 19.78125 22.609375 
Q 19.78125 33.015625 18.171875 41.609375 
Q 16.9375 48.34375 15.109375 52.390625 
Q 13.28125 56.453125 10.25 60.203125 
Q 7.234375 63.96875 2.25 67.390625 
z
" id="TimesNewRomanPSMT-29"/>
    </defs>
    <g transform="translate(193.905912 131.171193)rotate(-70.462509)scale(0.06 -0.06)">
     <use xlink:href="#TimesNewRomanPSMT-78"/>
     <use x="50" xlink:href="#TimesNewRomanPSMT-20"/>
     <use x="75" xlink:href="#TimesNewRomanPSMT-28"/>
     <use x="108.300781" xlink:href="#TimesNewRomanPSMT-6d"/>
     <use x="186.083984" xlink:href="#TimesNewRomanPSMT-29"/>
    </g>
   </g>
   <g id="Line3DCollection_1">
    <path d="M 165.858436 96.774099 
L 60.261235 93.009877 
L 58.476859 27.687937 
" style="fill:none;stroke:#b0b0b0;stroke-width:0.1;"/>
    <path d="M 163.728356 102.776772 
L 56.019792 98.857448 
L 54.038476 32.38218 
" style="fill:none;stroke:#b0b0b0;stroke-width:0.1;"/>
    <path d="M 161.508987 109.03107 
L 51.602936 104.946855 
L 49.409487 37.278015 
" style="fill:none;stroke:#b0b0b0;stroke-width:0.1;"/>
    <path d="M 159.194592 115.553153 
L 46.999557 111.293419 
L 44.577346 42.388715 
" style="fill:none;stroke:#b0b0b0;stroke-width:0.1;"/>
   </g>
   <g id="xtick_1">
    <g id="line2d_2">
     <path clip-path="url(#p6173b409de)" d="M 108.730116 69.317814 
" style="fill:none;opacity:0.1;stroke:#b0b0b0;stroke-linecap:square;stroke-width:0.1;"/>
    </g>
    <g id="line2d_3">
     <path d="M 165.00273 96.743596 
L 167.570382 96.835125 
" style="fill:none;stroke:#000000;stroke-linecap:square;stroke-width:0.3;"/>
    </g>
    <g id="text_2">
     <!-- −30 -->
     <defs>
      <path d="M 54.4375 31.25 
L 1.8125 31.25 
L 1.8125 35.25 
L 54.4375 35.25 
z
" id="TimesNewRomanPSMT-2212"/>
      <path d="M 5.078125 53.609375 
Q 7.90625 60.296875 12.21875 63.9375 
Q 16.546875 67.578125 23 67.578125 
Q 30.953125 67.578125 35.203125 62.40625 
Q 38.421875 58.546875 38.421875 54.15625 
Q 38.421875 46.921875 29.34375 39.203125 
Q 35.453125 36.8125 38.578125 32.375 
Q 41.703125 27.9375 41.703125 21.921875 
Q 41.703125 13.328125 36.234375 7.03125 
Q 29.109375 -1.171875 15.578125 -1.171875 
Q 8.890625 -1.171875 6.46875 0.484375 
Q 4.046875 2.15625 4.046875 4.046875 
Q 4.046875 5.46875 5.1875 6.546875 
Q 6.34375 7.625 7.953125 7.625 
Q 9.1875 7.625 10.453125 7.234375 
Q 11.28125 6.984375 14.203125 5.4375 
Q 17.140625 3.90625 18.265625 3.609375 
Q 20.0625 3.078125 22.125 3.078125 
Q 27.09375 3.078125 30.78125 6.9375 
Q 34.46875 10.796875 34.46875 16.0625 
Q 34.46875 19.921875 32.765625 23.578125 
Q 31.5 26.3125 29.984375 27.734375 
Q 27.875 29.6875 24.21875 31.265625 
Q 20.5625 32.859375 16.75 32.859375 
L 15.1875 32.859375 
L 15.1875 34.328125 
Q 19.046875 34.8125 22.921875 37.109375 
Q 26.8125 39.40625 28.5625 42.625 
Q 30.328125 45.84375 30.328125 49.703125 
Q 30.328125 54.734375 27.171875 57.828125 
Q 24.03125 60.9375 19.34375 60.9375 
Q 11.765625 60.9375 6.6875 52.828125 
z
" id="TimesNewRomanPSMT-33"/>
      <path d="M 3.609375 32.71875 
Q 3.609375 44.046875 7.03125 52.21875 
Q 10.453125 60.40625 16.109375 64.40625 
Q 20.515625 67.578125 25.203125 67.578125 
Q 32.8125 67.578125 38.875 59.8125 
Q 46.4375 50.203125 46.4375 33.734375 
Q 46.4375 22.21875 43.109375 14.15625 
Q 39.796875 6.109375 34.640625 2.46875 
Q 29.5 -1.171875 24.703125 -1.171875 
Q 15.234375 -1.171875 8.9375 10.015625 
Q 3.609375 19.4375 3.609375 32.71875 
z
M 13.1875 31.5 
Q 13.1875 17.828125 16.546875 9.1875 
Q 19.34375 1.90625 24.859375 1.90625 
Q 27.484375 1.90625 30.3125 4.265625 
Q 33.15625 6.640625 34.625 12.203125 
Q 36.859375 20.609375 36.859375 35.890625 
Q 36.859375 47.21875 34.515625 54.78125 
Q 32.765625 60.40625 29.984375 62.75 
Q 27.984375 64.359375 25.140625 64.359375 
Q 21.828125 64.359375 19.234375 61.375 
Q 15.71875 57.328125 14.453125 48.625 
Q 13.1875 39.9375 13.1875 31.5 
z
" id="TimesNewRomanPSMT-30"/>
     </defs>
     <g transform="translate(175.361011 110.072542)scale(0.06 -0.06)">
      <use xlink:href="#TimesNewRomanPSMT-2212"/>
      <use x="56.396484" xlink:href="#TimesNewRomanPSMT-33"/>
      <use x="106.396484" xlink:href="#TimesNewRomanPSMT-30"/>
     </g>
    </g>
   </g>
   <g id="xtick_2">
    <g id="line2d_4">
     <path clip-path="url(#p6173b409de)" d="M 108.730116 69.317814 
" style="fill:none;opacity:0.1;stroke:#b0b0b0;stroke-linecap:square;stroke-width:0.1;"/>
    </g>
    <g id="line2d_5">
     <path d="M 162.855313 102.745004 
L 165.475001 102.84033 
" style="fill:none;stroke:#000000;stroke-linecap:square;stroke-width:0.3;"/>
    </g>
    <g id="text_3">
     <!-- −20 -->
     <defs>
      <path d="M 45.84375 12.75 
L 41.21875 0 
L 2.15625 0 
L 2.15625 1.8125 
Q 19.390625 17.53125 26.421875 27.484375 
Q 33.453125 37.453125 33.453125 45.703125 
Q 33.453125 52 29.59375 56.046875 
Q 25.734375 60.109375 20.359375 60.109375 
Q 15.484375 60.109375 11.59375 57.25 
Q 7.71875 54.390625 5.859375 48.875 
L 4.046875 48.875 
Q 5.28125 57.90625 10.328125 62.734375 
Q 15.375 67.578125 22.953125 67.578125 
Q 31 67.578125 36.390625 62.40625 
Q 41.796875 57.234375 41.796875 50.203125 
Q 41.796875 45.171875 39.453125 40.140625 
Q 35.84375 32.234375 27.734375 23.390625 
Q 15.578125 10.109375 12.546875 7.375 
L 29.828125 7.375 
Q 35.109375 7.375 37.234375 7.765625 
Q 39.359375 8.15625 41.0625 9.34375 
Q 42.78125 10.546875 44.046875 12.75 
z
" id="TimesNewRomanPSMT-32"/>
     </defs>
     <g transform="translate(173.528148 116.243096)scale(0.06 -0.06)">
      <use xlink:href="#TimesNewRomanPSMT-2212"/>
      <use x="56.396484" xlink:href="#TimesNewRomanPSMT-32"/>
      <use x="106.396484" xlink:href="#TimesNewRomanPSMT-30"/>
     </g>
    </g>
   </g>
   <g id="xtick_3">
    <g id="line2d_6">
     <path clip-path="url(#p6173b409de)" d="M 108.730116 69.317814 
" style="fill:none;opacity:0.1;stroke:#b0b0b0;stroke-linecap:square;stroke-width:0.1;"/>
    </g>
    <g id="line2d_7">
     <path d="M 160.617888 108.997956 
L 163.291766 109.09732 
" style="fill:none;stroke:#000000;stroke-linecap:square;stroke-width:0.3;"/>
    </g>
    <g id="text_4">
     <!-- −10 -->
     <defs>
      <path d="M 11.71875 59.71875 
L 27.828125 67.578125 
L 29.4375 67.578125 
L 29.4375 11.671875 
Q 29.4375 6.109375 29.90625 4.734375 
Q 30.375 3.375 31.828125 2.640625 
Q 33.296875 1.90625 37.796875 1.8125 
L 37.796875 0 
L 12.890625 0 
L 12.890625 1.8125 
Q 17.578125 1.90625 18.9375 2.609375 
Q 20.3125 3.328125 20.84375 4.515625 
Q 21.390625 5.71875 21.390625 11.671875 
L 21.390625 47.40625 
Q 21.390625 54.640625 20.90625 56.6875 
Q 20.5625 58.25 19.65625 58.984375 
Q 18.75 59.71875 17.484375 59.71875 
Q 15.671875 59.71875 12.453125 58.203125 
z
" id="TimesNewRomanPSMT-31"/>
     </defs>
     <g transform="translate(171.618701 122.671476)scale(0.06 -0.06)">
      <use xlink:href="#TimesNewRomanPSMT-2212"/>
      <use x="56.396484" xlink:href="#TimesNewRomanPSMT-31"/>
      <use x="106.396484" xlink:href="#TimesNewRomanPSMT-30"/>
     </g>
    </g>
   </g>
   <g id="xtick_4">
    <g id="line2d_8">
     <path clip-path="url(#p6173b409de)" d="M 108.730116 69.317814 
" style="fill:none;opacity:0.1;stroke:#b0b0b0;stroke-linecap:square;stroke-width:0.1;"/>
    </g>
    <g id="line2d_9">
     <path d="M 158.284675 115.518606 
L 161.015031 115.62227 
" style="fill:none;stroke:#000000;stroke-linecap:square;stroke-width:0.3;"/>
    </g>
    <g id="text_5">
     <!-- 0 -->
     <g transform="translate(172.819489 129.374185)scale(0.06 -0.06)">
      <use xlink:href="#TimesNewRomanPSMT-30"/>
     </g>
    </g>
   </g>
  </g>
  <g id="axis3d_2">
   <g id="line2d_10">
    <path d="M 44.400043 114.877302 
L 157.887074 119.237805 
" style="fill:none;stroke:#000000;stroke-linecap:square;stroke-width:0.3;"/>
   </g>
   <g id="text_6">
    <!-- y (m) -->
    <defs>
     <path d="M 0.59375 44.734375 
L 21.4375 44.734375 
L 21.4375 42.921875 
L 20.40625 42.921875 
Q 18.21875 42.921875 17.109375 41.96875 
Q 16.015625 41.015625 16.015625 39.59375 
Q 16.015625 37.703125 17.625 34.328125 
L 28.515625 11.765625 
L 38.53125 36.46875 
Q 39.359375 38.484375 39.359375 40.4375 
Q 39.359375 41.3125 39.015625 41.75 
Q 38.625 42.28125 37.796875 42.59375 
Q 36.96875 42.921875 34.859375 42.921875 
L 34.859375 44.734375 
L 49.421875 44.734375 
L 49.421875 42.921875 
Q 47.609375 42.71875 46.625 42.125 
Q 45.65625 41.546875 44.484375 39.9375 
Q 44.046875 39.265625 42.828125 36.1875 
L 24.609375 -8.453125 
Q 21.96875 -14.9375 17.6875 -18.25 
Q 13.421875 -21.578125 9.46875 -21.578125 
Q 6.59375 -21.578125 4.734375 -19.921875 
Q 2.875 -18.265625 2.875 -16.109375 
Q 2.875 -14.0625 4.21875 -12.8125 
Q 5.5625 -11.578125 7.90625 -11.578125 
Q 9.515625 -11.578125 12.3125 -12.640625 
Q 14.265625 -13.375 14.75 -13.375 
Q 16.21875 -13.375 17.9375 -11.859375 
Q 19.671875 -10.359375 21.4375 -6 
L 24.609375 1.765625 
L 8.546875 35.5 
Q 7.8125 37.015625 6.203125 39.265625 
Q 4.984375 40.96875 4.203125 41.546875 
Q 3.078125 42.328125 0.59375 42.921875 
z
" id="TimesNewRomanPSMT-79"/>
    </defs>
    <g transform="translate(89.174898 147.76879)rotate(-357.799611)scale(0.06 -0.06)">
     <use xlink:href="#TimesNewRomanPSMT-79"/>
     <use x="50" xlink:href="#TimesNewRomanPSMT-20"/>
     <use x="75" xlink:href="#TimesNewRomanPSMT-28"/>
     <use x="108.300781" xlink:href="#TimesNewRomanPSMT-6d"/>
     <use x="186.083984" xlink:href="#TimesNewRomanPSMT-29"/>
    </g>
   </g>
   <g id="Line3DCollection_2">
    <path d="M 69.771577 23.073031 
L 71.127312 87.252619 
L 51.550729 115.152052 
" style="fill:none;stroke:#b0b0b0;stroke-width:0.1;"/>
    <path d="M 93.913096 23.724319 
L 94.430202 88.065637 
L 77.097351 116.133628 
" style="fill:none;stroke:#b0b0b0;stroke-width:0.1;"/>
    <path d="M 118.198834 24.379498 
L 117.867428 88.883341 
L 102.80586 117.121424 
" style="fill:none;stroke:#b0b0b0;stroke-width:0.1;"/>
    <path d="M 142.630085 25.038603 
L 141.440155 89.705773 
L 128.677801 118.1155 
" style="fill:none;stroke:#b0b0b0;stroke-width:0.1;"/>
    <path d="M 167.208163 25.701669 
L 165.149562 90.532974 
L 154.714736 119.115915 
" style="fill:none;stroke:#b0b0b0;stroke-width:0.1;"/>
   </g>
   <g id="xtick_5">
    <g id="line2d_11">
     <path clip-path="url(#p6173b409de)" d="M 108.730116 69.317814 
" style="fill:none;opacity:0.1;stroke:#b0b0b0;stroke-linecap:square;stroke-width:0.1;"/>
    </g>
    <g id="line2d_12">
     <path d="M 51.722652 114.907037 
L 51.206067 115.643244 
" style="fill:none;stroke:#000000;stroke-linecap:square;stroke-width:0.3;"/>
    </g>
    <g id="text_7">
     <!-- 0 -->
     <g transform="translate(47.406992 132.678419)scale(0.06 -0.06)">
      <use xlink:href="#TimesNewRomanPSMT-30"/>
     </g>
    </g>
   </g>
   <g id="xtick_6">
    <g id="line2d_13">
     <path clip-path="url(#p6173b409de)" d="M 108.730116 69.317814 
" style="fill:none;opacity:0.1;stroke:#b0b0b0;stroke-linecap:square;stroke-width:0.1;"/>
    </g>
    <g id="line2d_14">
     <path d="M 77.249612 115.887063 
L 76.792104 116.62793 
" style="fill:none;stroke:#000000;stroke-linecap:square;stroke-width:0.3;"/>
    </g>
    <g id="text_8">
     <!-- 8 -->
     <defs>
      <path d="M 19.1875 33.34375 
Q 11.328125 39.796875 9.046875 43.703125 
Q 6.78125 47.609375 6.78125 51.8125 
Q 6.78125 58.25 11.765625 62.90625 
Q 16.75 67.578125 25 67.578125 
Q 33.015625 67.578125 37.890625 63.234375 
Q 42.78125 58.890625 42.78125 53.328125 
Q 42.78125 49.609375 40.140625 45.75 
Q 37.5 41.890625 29.15625 36.671875 
Q 37.75 30.03125 40.53125 26.21875 
Q 44.234375 21.234375 44.234375 15.71875 
Q 44.234375 8.734375 38.90625 3.78125 
Q 33.59375 -1.171875 24.953125 -1.171875 
Q 15.53125 -1.171875 10.25 4.734375 
Q 6.0625 9.46875 6.0625 15.09375 
Q 6.0625 19.484375 9.015625 23.796875 
Q 11.96875 28.125 19.1875 33.34375 
z
M 26.859375 38.578125 
Q 32.71875 43.84375 34.28125 46.890625 
Q 35.84375 49.953125 35.84375 53.8125 
Q 35.84375 58.9375 32.953125 61.84375 
Q 30.078125 64.75 25.09375 64.75 
Q 20.125 64.75 17 61.859375 
Q 13.875 58.984375 13.875 55.125 
Q 13.875 52.59375 15.15625 50.046875 
Q 16.453125 47.515625 18.84375 45.21875 
z
M 21.484375 31.5 
Q 17.4375 28.078125 15.484375 24.046875 
Q 13.53125 20.015625 13.53125 15.328125 
Q 13.53125 9.03125 16.96875 5.25 
Q 20.40625 1.46875 25.734375 1.46875 
Q 31 1.46875 34.171875 4.4375 
Q 37.359375 7.421875 37.359375 11.671875 
Q 37.359375 15.1875 35.5 17.96875 
Q 32.03125 23.140625 21.484375 31.5 
z
" id="TimesNewRomanPSMT-38"/>
     </defs>
     <g transform="translate(73.156984 133.710679)scale(0.06 -0.06)">
      <use xlink:href="#TimesNewRomanPSMT-38"/>
     </g>
    </g>
   </g>
   <g id="xtick_7">
    <g id="line2d_15">
     <path clip-path="url(#p6173b409de)" d="M 108.730116 69.317814 
" style="fill:none;opacity:0.1;stroke:#b0b0b0;stroke-linecap:square;stroke-width:0.1;"/>
    </g>
    <g id="line2d_16">
     <path d="M 102.938207 116.873295 
L 102.540536 117.618866 
" style="fill:none;stroke:#000000;stroke-linecap:square;stroke-width:0.3;"/>
    </g>
    <g id="text_9">
     <!-- 16 -->
     <defs>
      <path d="M 44.828125 67.578125 
L 44.828125 65.765625 
Q 38.375 65.140625 34.296875 63.203125 
Q 30.21875 61.28125 26.234375 57.328125 
Q 22.265625 53.375 19.65625 48.515625 
Q 17.046875 43.65625 15.28125 36.96875 
Q 22.3125 41.796875 29.390625 41.796875 
Q 36.1875 41.796875 41.15625 36.328125 
Q 46.140625 30.859375 46.140625 22.265625 
Q 46.140625 13.96875 41.109375 7.125 
Q 35.0625 -1.171875 25.09375 -1.171875 
Q 18.3125 -1.171875 13.578125 3.328125 
Q 4.296875 12.0625 4.296875 25.984375 
Q 4.296875 34.859375 7.859375 42.859375 
Q 11.421875 50.875 18.03125 57.078125 
Q 24.65625 63.28125 30.703125 65.421875 
Q 36.765625 67.578125 42 67.578125 
z
M 14.453125 33.40625 
Q 13.578125 26.8125 13.578125 22.75 
Q 13.578125 18.0625 15.3125 12.5625 
Q 17.046875 7.078125 20.453125 3.859375 
Q 22.953125 1.5625 26.515625 1.5625 
Q 30.765625 1.5625 34.109375 5.5625 
Q 37.453125 9.578125 37.453125 17 
Q 37.453125 25.34375 34.125 31.4375 
Q 30.8125 37.546875 24.703125 37.546875 
Q 22.859375 37.546875 20.734375 36.765625 
Q 18.609375 35.984375 14.453125 33.40625 
z
" id="TimesNewRomanPSMT-36"/>
     </defs>
     <g transform="translate(97.571509 134.749536)scale(0.06 -0.06)">
      <use xlink:href="#TimesNewRomanPSMT-31"/>
      <use x="50" xlink:href="#TimesNewRomanPSMT-36"/>
     </g>
    </g>
   </g>
   <g id="xtick_8">
    <g id="line2d_17">
     <path clip-path="url(#p6173b409de)" d="M 108.730116 69.317814 
" style="fill:none;opacity:0.1;stroke:#b0b0b0;stroke-linecap:square;stroke-width:0.1;"/>
    </g>
    <g id="line2d_18">
     <path d="M 128.789976 117.865791 
L 128.452914 118.616112 
" style="fill:none;stroke:#000000;stroke-linecap:square;stroke-width:0.3;"/>
    </g>
    <g id="text_10">
     <!-- 24 -->
     <defs>
      <path d="M 46.53125 24.421875 
L 46.53125 17.484375 
L 37.640625 17.484375 
L 37.640625 0 
L 29.59375 0 
L 29.59375 17.484375 
L 1.5625 17.484375 
L 1.5625 23.734375 
L 32.28125 67.578125 
L 37.640625 67.578125 
L 37.640625 24.421875 
z
M 29.59375 24.421875 
L 29.59375 57.28125 
L 6.34375 24.421875 
z
" id="TimesNewRomanPSMT-34"/>
     </defs>
     <g transform="translate(123.652149 135.795052)scale(0.06 -0.06)">
      <use xlink:href="#TimesNewRomanPSMT-32"/>
      <use x="50" xlink:href="#TimesNewRomanPSMT-34"/>
     </g>
    </g>
   </g>
   <g id="xtick_9">
    <g id="line2d_19">
     <path clip-path="url(#p6173b409de)" d="M 108.730116 69.317814 
" style="fill:none;opacity:0.1;stroke:#b0b0b0;stroke-linecap:square;stroke-width:0.1;"/>
    </g>
    <g id="line2d_20">
     <path d="M 154.80648 118.864612 
L 154.530809 119.619727 
" style="fill:none;stroke:#000000;stroke-linecap:square;stroke-width:0.3;"/>
    </g>
    <g id="text_11">
     <!-- 32 -->
     <g transform="translate(149.900507 136.847291)scale(0.06 -0.06)">
      <use xlink:href="#TimesNewRomanPSMT-33"/>
      <use x="50" xlink:href="#TimesNewRomanPSMT-32"/>
     </g>
    </g>
   </g>
  </g>
  <g id="axis3d_3">
   <g id="line2d_21">
    <path d="M 44.400043 114.877302 
L 41.845186 45.278375 
" style="fill:none;stroke:#000000;stroke-linecap:square;stroke-width:0.3;"/>
   </g>
   <g id="text_12">
    <!-- z (m) -->
    <defs>
     <path d="M 42 13.71875 
L 41.453125 0 
L 2 0 
L 2 1.765625 
L 31.6875 41.3125 
L 17.046875 41.3125 
Q 12.3125 41.3125 10.84375 40.703125 
Q 9.375 40.09375 8.453125 38.375 
Q 7.125 35.9375 6.9375 32.328125 
L 4.984375 32.328125 
L 5.28125 44.734375 
L 42.78125 44.734375 
L 42.78125 42.921875 
L 12.796875 3.265625 
L 29.109375 3.265625 
Q 34.234375 3.265625 36.0625 4.125 
Q 37.890625 4.984375 39.015625 7.125 
Q 39.796875 8.6875 40.328125 13.71875 
z
" id="TimesNewRomanPSMT-7a"/>
    </defs>
    <g transform="translate(0.049986 81.62359)rotate(-272.102286)scale(0.06 -0.06)">
     <use xlink:href="#TimesNewRomanPSMT-7a"/>
     <use x="44.384766" xlink:href="#TimesNewRomanPSMT-20"/>
     <use x="69.384766" xlink:href="#TimesNewRomanPSMT-28"/>
     <use x="102.685547" xlink:href="#TimesNewRomanPSMT-6d"/>
     <use x="180.46875" xlink:href="#TimesNewRomanPSMT-29"/>
    </g>
   </g>
   <g id="Line3DCollection_3">
    <path d="M 44.313037 112.507081 
L 64.547973 84.833333 
L 168.111321 88.418575 
" style="fill:none;stroke:#b0b0b0;stroke-width:0.1;"/>
    <path d="M 44.0083 104.205497 
L 64.357813 77.161428 
L 168.370178 80.663797 
" style="fill:none;stroke:#b0b0b0;stroke-width:0.1;"/>
    <path d="M 43.700666 95.824995 
L 64.16601 69.423198 
L 168.631302 72.841114 
" style="fill:none;stroke:#b0b0b0;stroke-width:0.1;"/>
    <path d="M 43.390094 87.364445 
L 63.972542 61.61778 
L 168.894723 64.949629 
" style="fill:none;stroke:#b0b0b0;stroke-width:0.1;"/>
    <path d="M 43.076541 78.822694 
L 63.777386 53.744293 
L 169.160471 56.98843 
" style="fill:none;stroke:#b0b0b0;stroke-width:0.1;"/>
    <path d="M 42.759964 70.198568 
L 63.580521 45.801845 
L 169.428576 48.95659 
" style="fill:none;stroke:#b0b0b0;stroke-width:0.1;"/>
    <path d="M 42.440319 61.490869 
L 63.381924 37.789525 
L 169.699072 40.853164 
" style="fill:none;stroke:#b0b0b0;stroke-width:0.1;"/>
    <path d="M 42.117562 52.698376 
L 63.181572 29.706406 
L 169.971988 32.67719 
" style="fill:none;stroke:#b0b0b0;stroke-width:0.1;"/>
   </g>
   <g id="xtick_10">
    <g id="line2d_22">
     <path d="M 108.730116 69.317814 
" style="fill:none;opacity:0.1;stroke:#b0b0b0;stroke-linecap:square;stroke-width:0.1;"/>
    </g>
    <g id="line2d_23">
     <path d="M 44.490749 112.264038 
L 43.956769 112.994321 
" style="fill:none;stroke:#000000;stroke-linecap:square;stroke-width:0.3;"/>
    </g>
    <g id="text_13">
     <!-- 5.0 -->
     <defs>
      <path d="M 43.40625 66.21875 
L 39.59375 57.90625 
L 19.671875 57.90625 
L 15.328125 49.03125 
Q 28.265625 47.125 35.84375 39.40625 
Q 42.328125 32.765625 42.328125 23.78125 
Q 42.328125 18.5625 40.203125 14.109375 
Q 38.09375 9.671875 34.859375 6.546875 
Q 31.640625 3.421875 27.6875 1.515625 
Q 22.078125 -1.171875 16.15625 -1.171875 
Q 10.203125 -1.171875 7.484375 0.84375 
Q 4.78125 2.875 4.78125 5.328125 
Q 4.78125 6.6875 5.90625 7.734375 
Q 7.03125 8.796875 8.734375 8.796875 
Q 10.015625 8.796875 10.96875 8.40625 
Q 11.921875 8.015625 14.203125 6.390625 
Q 17.875 3.859375 21.625 3.859375 
Q 27.34375 3.859375 31.65625 8.171875 
Q 35.984375 12.5 35.984375 18.703125 
Q 35.984375 24.703125 32.125 29.90625 
Q 28.265625 35.109375 21.484375 37.9375 
Q 16.15625 40.140625 6.984375 40.484375 
L 19.671875 66.21875 
z
" id="TimesNewRomanPSMT-35"/>
      <path d="M 12.5 9.46875 
Q 14.796875 9.46875 16.359375 7.875 
Q 17.921875 6.296875 17.921875 4.046875 
Q 17.921875 1.8125 16.328125 0.21875 
Q 14.75 -1.375 12.5 -1.375 
Q 10.25 -1.375 8.65625 0.21875 
Q 7.078125 1.8125 7.078125 4.046875 
Q 7.078125 6.34375 8.65625 7.90625 
Q 10.25 9.46875 12.5 9.46875 
z
" id="TimesNewRomanPSMT-2e"/>
     </defs>
     <g transform="translate(22.125573 120.260868)scale(0.06 -0.06)">
      <use xlink:href="#TimesNewRomanPSMT-35"/>
      <use x="50" xlink:href="#TimesNewRomanPSMT-2e"/>
      <use x="75" xlink:href="#TimesNewRomanPSMT-30"/>
     </g>
    </g>
   </g>
   <g id="xtick_11">
    <g id="line2d_24">
     <path d="M 108.730116 69.317814 
" style="fill:none;opacity:0.1;stroke:#b0b0b0;stroke-linecap:square;stroke-width:0.1;"/>
    </g>
    <g id="line2d_25">
     <path d="M 44.187094 103.967884 
L 43.64986 104.681856 
" style="fill:none;stroke:#000000;stroke-linecap:square;stroke-width:0.3;"/>
    </g>
    <g id="text_14">
     <!-- 7.5 -->
     <defs>
      <path d="M 10.0625 66.21875 
L 45.5625 66.21875 
L 45.5625 64.359375 
L 23.484375 -1.375 
L 18.015625 -1.375 
L 37.796875 58.25 
L 19.578125 58.25 
Q 14.0625 58.25 11.71875 56.9375 
Q 7.625 54.6875 5.125 50 
L 3.71875 50.53125 
z
" id="TimesNewRomanPSMT-37"/>
     </defs>
     <g transform="translate(21.729029 111.879337)scale(0.06 -0.06)">
      <use xlink:href="#TimesNewRomanPSMT-37"/>
      <use x="50" xlink:href="#TimesNewRomanPSMT-2e"/>
      <use x="75" xlink:href="#TimesNewRomanPSMT-35"/>
     </g>
    </g>
   </g>
   <g id="xtick_12">
    <g id="line2d_26">
     <path d="M 108.730116 69.317814 
" style="fill:none;opacity:0.1;stroke:#b0b0b0;stroke-linecap:square;stroke-width:0.1;"/>
    </g>
    <g id="line2d_27">
     <path d="M 43.880554 95.592926 
L 43.340028 96.290244 
" style="fill:none;stroke:#000000;stroke-linecap:square;stroke-width:0.3;"/>
    </g>
    <g id="text_15">
     <!-- 10.0 -->
     <g transform="translate(19.828671 103.417192)scale(0.06 -0.06)">
      <use xlink:href="#TimesNewRomanPSMT-31"/>
      <use x="50" xlink:href="#TimesNewRomanPSMT-30"/>
      <use x="100" xlink:href="#TimesNewRomanPSMT-2e"/>
      <use x="125" xlink:href="#TimesNewRomanPSMT-30"/>
     </g>
    </g>
   </g>
   <g id="xtick_13">
    <g id="line2d_28">
     <path d="M 108.730116 69.317814 
" style="fill:none;opacity:0.1;stroke:#b0b0b0;stroke-linecap:square;stroke-width:0.1;"/>
    </g>
    <g id="line2d_29">
     <path d="M 43.571089 87.138038 
L 43.027233 87.818349 
" style="fill:none;stroke:#000000;stroke-linecap:square;stroke-width:0.3;"/>
    </g>
    <g id="text_16">
     <!-- 12.5 -->
     <g transform="translate(19.424443 94.873264)scale(0.06 -0.06)">
      <use xlink:href="#TimesNewRomanPSMT-31"/>
      <use x="50" xlink:href="#TimesNewRomanPSMT-32"/>
      <use x="100" xlink:href="#TimesNewRomanPSMT-2e"/>
      <use x="125" xlink:href="#TimesNewRomanPSMT-35"/>
     </g>
    </g>
   </g>
   <g id="xtick_14">
    <g id="line2d_30">
     <path d="M 108.730116 69.317814 
" style="fill:none;opacity:0.1;stroke:#b0b0b0;stroke-linecap:square;stroke-width:0.1;"/>
    </g>
    <g id="line2d_31">
     <path d="M 43.258656 78.602068 
L 42.71143 79.265014 
" style="fill:none;stroke:#000000;stroke-linecap:square;stroke-width:0.3;"/>
    </g>
    <g id="text_17">
     <!-- 15.0 -->
     <g transform="translate(19.01629 86.246362)scale(0.06 -0.06)">
      <use xlink:href="#TimesNewRomanPSMT-31"/>
      <use x="50" xlink:href="#TimesNewRomanPSMT-35"/>
      <use x="100" xlink:href="#TimesNewRomanPSMT-2e"/>
      <use x="125" xlink:href="#TimesNewRomanPSMT-30"/>
     </g>
    </g>
   </g>
   <g id="xtick_15">
    <g id="line2d_32">
     <path d="M 108.730116 69.317814 
" style="fill:none;opacity:0.1;stroke:#b0b0b0;stroke-linecap:square;stroke-width:0.1;"/>
    </g>
    <g id="line2d_33">
     <path d="M 42.943212 69.983845 
L 42.392577 70.629057 
" style="fill:none;stroke:#000000;stroke-linecap:square;stroke-width:0.3;"/>
    </g>
    <g id="text_18">
     <!-- 17.5 -->
     <g transform="translate(18.604154 77.53527)scale(0.06 -0.06)">
      <use xlink:href="#TimesNewRomanPSMT-31"/>
      <use x="50" xlink:href="#TimesNewRomanPSMT-37"/>
      <use x="100" xlink:href="#TimesNewRomanPSMT-2e"/>
      <use x="125" xlink:href="#TimesNewRomanPSMT-35"/>
     </g>
    </g>
   </g>
   <g id="xtick_16">
    <g id="line2d_34">
     <path d="M 108.730116 69.317814 
" style="fill:none;opacity:0.1;stroke:#b0b0b0;stroke-linecap:square;stroke-width:0.1;"/>
    </g>
    <g id="line2d_35">
     <path d="M 42.624714 61.282174 
L 42.07063 61.909277 
" style="fill:none;stroke:#000000;stroke-linecap:square;stroke-width:0.3;"/>
    </g>
    <g id="text_19">
     <!-- 20.0 -->
     <g transform="translate(18.187976 68.738752)scale(0.06 -0.06)">
      <use xlink:href="#TimesNewRomanPSMT-32"/>
      <use x="50" xlink:href="#TimesNewRomanPSMT-30"/>
      <use x="100" xlink:href="#TimesNewRomanPSMT-2e"/>
      <use x="125" xlink:href="#TimesNewRomanPSMT-30"/>
     </g>
    </g>
   </g>
   <g id="xtick_17">
    <g id="line2d_36">
     <path d="M 108.730116 69.317814 
" style="fill:none;opacity:0.1;stroke:#b0b0b0;stroke-linecap:square;stroke-width:0.1;"/>
    </g>
    <g id="line2d_37">
     <path d="M 42.303117 52.495837 
L 41.745542 53.104447 
" style="fill:none;stroke:#000000;stroke-linecap:square;stroke-width:0.3;"/>
    </g>
    <g id="text_20">
     <!-- 22.5 -->
     <g transform="translate(17.767697 59.855543)scale(0.06 -0.06)">
      <use xlink:href="#TimesNewRomanPSMT-32"/>
      <use x="50" xlink:href="#TimesNewRomanPSMT-32"/>
      <use x="100" xlink:href="#TimesNewRomanPSMT-2e"/>
      <use x="125" xlink:href="#TimesNewRomanPSMT-35"/>
     </g>
    </g>
   </g>
  </g>
  <g id="axes_1">
   <g id="line2d_38">
    <path clip-path="url(#p6173b409de)" d="M 53.911295 108.295413 
L 54.432348 109.169073 
L 55.314513 110.134877 
L 56.203498 110.772165 
L 57.242695 111.222007 
L 58.705808 111.608434 
L 60.577624 111.876713 
L 62.949912 111.973928 
L 65.411388 111.858745 
L 68.402827 111.537311 
L 72.523312 110.889833 
L 75.392998 110.169541 
L 79.05313 108.930803 
L 82.496899 107.507132 
L 86.332353 105.659552 
L 90.184942 103.530989 
L 94.021132 101.165758 
L 97.180132 98.974312 
L 100.949063 96.087191 
L 105.410711 92.359423 
L 109.4652 88.663211 
L 113.066644 85.083557 
L 116.601782 81.226088 
L 119.832433 77.396324 
L 123.565874 72.567386 
L 126.5167 68.321149 
L 128.569971 64.974515 
L 135.031741 53.726843 
L 138.340905 47.414237 
L 140.097489 43.47071 
L 142.967991 36.584216 
L 143.935966 34.984376 
L 145.909281 32.140791 
L 146.832429 31.281854 
L 147.748796 30.691764 
L 149.271195 30.029069 
L 150.878662 29.634334 
L 153.207388 29.383315 
L 159.392945 28.878382 
L 161.085352 28.603611 
L 162.598699 28.367469 
L 162.597791 28.363908 
L 162.550999 28.276294 
L 162.550999 28.276294 
" style="fill:none;stroke:#1f77b4;stroke-linecap:square;"/>
   </g>
  </g>
 </g>
 <defs>
  <clipPath id="p6173b409de">
   <rect height="127.686618" width="197.716542" x="7.2" y="7.2"/>
  </clipPath>
 </defs>
</svg>
