<?xml version="1.0" encoding="utf-8" standalone="no"?>
<!DOCTYPE svg PUBLIC "-//W3C//DTD SVG 1.1//EN"
  "http://www.w3.org/Graphics/SVG/1.1/DTD/svg11.dtd">
<!-- Created with matplotlib (http://matplotlib.org/) -->
<svg height="142pt" version="1.1" viewBox="0 0 212 142" width="212pt" xmlns="http://www.w3.org/2000/svg" xmlns:xlink="http://www.w3.org/1999/xlink">
 <defs>
  <style type="text/css">
*{stroke-linecap:butt;stroke-linejoin:round;}
  </style>
 </defs>
 <g id="figure_1">
  <g id="patch_1">
   <path d="M 0 142.086618 
L 212.116542 142.086618 
L 212.116542 0 
L 0 0 
z
" style="fill:#ffffff;"/>
  </g>
  <g id="patch_2">
   <path d="M 7.2 134.886618 
L 204.916542 134.886618 
L 204.916542 7.2 
L 7.2 7.2 
z
" style="fill:#ffffff;"/>
  </g>
  <g id="pane3d_1">
   <g id="patch_3">
    <path d="M 82.758235 71.365377 
L 35.840101 108.887834 
L 31.248659 49.289506 
L 81.246472 14.108986 
" style="fill:#ffffff;stroke:#ffffff;stroke-linejoin:miter;"/>
   </g>
  </g>
  <g id="pane3d_2">
   <g id="patch_4">
    <path d="M 178.622365 87.384376 
L 82.758235 71.365377 
L 81.246472 14.108986 
L 182.832998 29.089362 
" style="fill:#ffffff;stroke:#ffffff;stroke-linejoin:miter;"/>
   </g>
  </g>
  <g id="pane3d_3">
   <g id="patch_5">
    <path d="M 178.622365 87.384376 
L 82.758235 71.365377 
L 35.840101 108.887834 
L 137.707432 127.527115 
" style="fill:#ffffff;stroke:#ffffff;stroke-linejoin:miter;"/>
   </g>
  </g>
  <g id="axis3d_1">
   <g id="line2d_1">
    <path d="M 35.840101 108.887834 
L 137.707432 127.527115 
" style="fill:none;stroke:#000000;stroke-linecap:square;stroke-width:0.3;"/>
   </g>
   <g id="text_1">
    <!-- x (m) -->
    <defs>
     <path d="M 1.3125 44.734375 
L 22.359375 44.734375 
L 22.359375 42.921875 
Q 20.359375 42.921875 19.546875 42.234375 
Q 18.75 41.546875 18.75 40.4375 
Q 18.75 39.265625 20.453125 36.8125 
Q 21 36.03125 22.078125 34.375 
L 25.25 29.296875 
L 28.90625 34.375 
Q 32.421875 39.203125 32.421875 40.484375 
Q 32.421875 41.5 31.59375 42.203125 
Q 30.765625 42.921875 28.90625 42.921875 
L 28.90625 44.734375 
L 44.046875 44.734375 
L 44.046875 42.921875 
Q 41.65625 42.78125 39.890625 41.609375 
Q 37.5 39.9375 33.34375 34.375 
L 27.25 26.21875 
L 38.375 10.203125 
Q 42.484375 4.296875 44.234375 3.09375 
Q 46 1.90625 48.78125 1.765625 
L 48.78125 0 
L 27.6875 0 
L 27.6875 1.765625 
Q 29.890625 1.765625 31.109375 2.734375 
Q 32.03125 3.421875 32.03125 4.546875 
Q 32.03125 5.671875 28.90625 10.203125 
L 22.359375 19.78125 
L 15.1875 10.203125 
Q 11.859375 5.765625 11.859375 4.9375 
Q 11.859375 3.765625 12.953125 2.8125 
Q 14.0625 1.859375 16.265625 1.765625 
L 16.265625 0 
L 1.65625 0 
L 1.65625 1.765625 
Q 3.421875 2 4.734375 2.984375 
Q 6.59375 4.390625 10.984375 10.203125 
L 20.359375 22.65625 
L 11.859375 34.96875 
Q 8.25 40.234375 6.265625 41.578125 
Q 4.296875 42.921875 1.3125 42.921875 
z
" id="TimesNewRomanPSMT-78"/>
     <path id="TimesNewRomanPSMT-20"/>
     <path d="M 31.0625 -19.578125 
L 31.0625 -21.390625 
Q 23.6875 -17.671875 18.75 -12.703125 
Q 11.71875 -5.609375 7.90625 4 
Q 4.109375 13.625 4.109375 23.96875 
Q 4.109375 39.109375 11.578125 51.578125 
Q 19.046875 64.0625 31.0625 69.4375 
L 31.0625 67.390625 
Q 25.046875 64.0625 21.1875 58.296875 
Q 17.328125 52.546875 15.421875 43.703125 
Q 13.53125 34.859375 13.53125 25.25 
Q 13.53125 14.796875 15.140625 6.25 
Q 16.40625 -0.484375 18.203125 -4.5625 
Q 20.015625 -8.640625 23.0625 -12.390625 
Q 26.125 -16.15625 31.0625 -19.578125 
z
" id="TimesNewRomanPSMT-28"/>
     <path d="M 16.40625 36.53125 
Q 21.296875 41.40625 22.171875 42.140625 
Q 24.359375 44 26.890625 45.015625 
Q 29.4375 46.046875 31.9375 46.046875 
Q 36.140625 46.046875 39.15625 43.59375 
Q 42.1875 41.15625 43.21875 36.53125 
Q 48.25 42.390625 51.703125 44.21875 
Q 55.171875 46.046875 58.84375 46.046875 
Q 62.40625 46.046875 65.15625 44.21875 
Q 67.921875 42.390625 69.53125 38.234375 
Q 70.609375 35.40625 70.609375 29.34375 
L 70.609375 10.109375 
Q 70.609375 5.90625 71.234375 4.34375 
Q 71.734375 3.265625 73.046875 2.515625 
Q 74.359375 1.765625 77.34375 1.765625 
L 77.34375 0 
L 55.28125 0 
L 55.28125 1.765625 
L 56.203125 1.765625 
Q 59.078125 1.765625 60.6875 2.875 
Q 61.8125 3.65625 62.3125 5.375 
Q 62.5 6.203125 62.5 10.109375 
L 62.5 29.34375 
Q 62.5 34.8125 61.1875 37.0625 
Q 59.28125 40.1875 55.078125 40.1875 
Q 52.484375 40.1875 49.875 38.890625 
Q 47.265625 37.59375 43.5625 34.078125 
L 43.453125 33.546875 
L 43.5625 31.453125 
L 43.5625 10.109375 
Q 43.5625 5.515625 44.0625 4.390625 
Q 44.578125 3.265625 45.984375 2.515625 
Q 47.40625 1.765625 50.828125 1.765625 
L 50.828125 0 
L 28.21875 0 
L 28.21875 1.765625 
Q 31.9375 1.765625 33.328125 2.640625 
Q 34.71875 3.515625 35.25 5.28125 
Q 35.5 6.109375 35.5 10.109375 
L 35.5 29.34375 
Q 35.5 34.8125 33.890625 37.203125 
Q 31.734375 40.328125 27.875 40.328125 
Q 25.25 40.328125 22.65625 38.921875 
Q 18.609375 36.765625 16.40625 34.078125 
L 16.40625 10.109375 
Q 16.40625 5.71875 17.015625 4.390625 
Q 17.625 3.078125 18.8125 2.421875 
Q 20.015625 1.765625 23.6875 1.765625 
L 23.6875 0 
L 1.5625 0 
L 1.5625 1.765625 
Q 4.640625 1.765625 5.859375 2.421875 
Q 7.078125 3.078125 7.703125 4.515625 
Q 8.34375 5.953125 8.34375 10.109375 
L 8.34375 27.203125 
Q 8.34375 34.578125 7.90625 36.71875 
Q 7.5625 38.328125 6.828125 38.9375 
Q 6.109375 39.546875 4.828125 39.546875 
Q 3.46875 39.546875 1.5625 38.8125 
L 0.828125 40.578125 
L 14.3125 46.046875 
L 16.40625 46.046875 
z
" id="TimesNewRomanPSMT-6d"/>
     <path d="M 2.25 67.390625 
L 2.25 69.4375 
Q 9.671875 65.765625 14.59375 60.796875 
Q 21.578125 53.65625 25.390625 44.0625 
Q 29.203125 34.46875 29.203125 24.078125 
Q 29.203125 8.9375 21.75 -3.53125 
Q 14.3125 -16.015625 2.25 -21.390625 
L 2.25 -19.578125 
Q 8.25 -16.21875 12.125 -10.46875 
Q 16.015625 -4.734375 17.890625 4.125 
Q 19.78125 12.984375 19.78125 22.609375 
Q 19.78125 33.015625 18.171875 41.609375 
Q 16.9375 48.34375 15.109375 52.390625 
Q 13.28125 56.453125 10.25 60.203125 
Q 7.234375 63.96875 2.25 67.390625 
z
" id="TimesNewRomanPSMT-29"/>
    </defs>
    <g transform="translate(65.469251 147.450204)rotate(-349.630949)scale(0.06 -0.06)">
     <use xlink:href="#TimesNewRomanPSMT-78"/>
     <use x="50" xlink:href="#TimesNewRomanPSMT-20"/>
     <use x="75" xlink:href="#TimesNewRomanPSMT-28"/>
     <use x="108.300781" xlink:href="#TimesNewRomanPSMT-6d"/>
     <use x="186.083984" xlink:href="#TimesNewRomanPSMT-29"/>
    </g>
   </g>
   <g id="Line3DCollection_1">
    <path d="M 133.128409 126.689263 
L 174.323694 86.666063 
L 178.269353 28.416388 
" style="fill:none;stroke:#b0b0b0;stroke-width:0.1;"/>
    <path d="M 111.884602 122.802155 
L 154.367637 83.331385 
L 157.093498 25.293707 
" style="fill:none;stroke:#b0b0b0;stroke-width:0.1;"/>
    <path d="M 90.944085 118.970543 
L 134.675674 80.040836 
L 136.214501 22.214803 
" style="fill:none;stroke:#b0b0b0;stroke-width:0.1;"/>
    <path d="M 70.30041 115.193245 
L 115.242597 76.793548 
L 115.626163 19.17876 
" style="fill:none;stroke:#b0b0b0;stroke-width:0.1;"/>
    <path d="M 49.947309 111.469115 
L 96.063334 73.588673 
L 95.322455 16.18469 
" style="fill:none;stroke:#b0b0b0;stroke-width:0.1;"/>
   </g>
   <g id="xtick_1">
    <g id="line2d_2">
     <path clip-path="url(#p95b880f667)" d="M 108.730116 69.317814 
" style="fill:none;opacity:0.1;stroke:#b0b0b0;stroke-linecap:square;stroke-width:0.1;"/>
    </g>
    <g id="line2d_3">
     <path d="M 133.484091 126.343701 
L 132.415679 127.381715 
" style="fill:none;stroke:#000000;stroke-linecap:square;stroke-width:0.3;"/>
    </g>
    <g id="text_2">
     <!-- 3 -->
     <defs>
      <path d="M 5.078125 53.609375 
Q 7.90625 60.296875 12.21875 63.9375 
Q 16.546875 67.578125 23 67.578125 
Q 30.953125 67.578125 35.203125 62.40625 
Q 38.421875 58.546875 38.421875 54.15625 
Q 38.421875 46.921875 29.34375 39.203125 
Q 35.453125 36.8125 38.578125 32.375 
Q 41.703125 27.9375 41.703125 21.921875 
Q 41.703125 13.328125 36.234375 7.03125 
Q 29.109375 -1.171875 15.578125 -1.171875 
Q 8.890625 -1.171875 6.46875 0.484375 
Q 4.046875 2.15625 4.046875 4.046875 
Q 4.046875 5.46875 5.1875 6.546875 
Q 6.34375 7.625 7.953125 7.625 
Q 9.1875 7.625 10.453125 7.234375 
Q 11.28125 6.984375 14.203125 5.4375 
Q 17.140625 3.90625 18.265625 3.609375 
Q 20.0625 3.078125 22.125 3.078125 
Q 27.09375 3.078125 30.78125 6.9375 
Q 34.46875 10.796875 34.46875 16.0625 
Q 34.46875 19.921875 32.765625 23.578125 
Q 31.5 26.3125 29.984375 27.734375 
Q 27.875 29.6875 24.21875 31.265625 
Q 20.5625 32.859375 16.75 32.859375 
L 15.1875 32.859375 
L 15.1875 34.328125 
Q 19.046875 34.8125 22.921875 37.109375 
Q 26.8125 39.40625 28.5625 42.625 
Q 30.328125 45.84375 30.328125 49.703125 
Q 30.328125 54.734375 27.171875 57.828125 
Q 24.03125 60.9375 19.34375 60.9375 
Q 11.765625 60.9375 6.6875 52.828125 
z
" id="TimesNewRomanPSMT-33"/>
     </defs>
     <g transform="translate(125.372175 144.475478)scale(0.06 -0.06)">
      <use xlink:href="#TimesNewRomanPSMT-33"/>
     </g>
    </g>
   </g>
   <g id="xtick_2">
    <g id="line2d_4">
     <path clip-path="url(#p95b880f667)" d="M 108.730116 69.317814 
" style="fill:none;opacity:0.1;stroke:#b0b0b0;stroke-linecap:square;stroke-width:0.1;"/>
    </g>
    <g id="line2d_5">
     <path d="M 112.251209 122.461543 
L 111.14999 123.48468 
" style="fill:none;stroke:#000000;stroke-linecap:square;stroke-width:0.3;"/>
    </g>
    <g id="text_3">
     <!-- 6 -->
     <defs>
      <path d="M 44.828125 67.578125 
L 44.828125 65.765625 
Q 38.375 65.140625 34.296875 63.203125 
Q 30.21875 61.28125 26.234375 57.328125 
Q 22.265625 53.375 19.65625 48.515625 
Q 17.046875 43.65625 15.28125 36.96875 
Q 22.3125 41.796875 29.390625 41.796875 
Q 36.1875 41.796875 41.15625 36.328125 
Q 46.140625 30.859375 46.140625 22.265625 
Q 46.140625 13.96875 41.109375 7.125 
Q 35.0625 -1.171875 25.09375 -1.171875 
Q 18.3125 -1.171875 13.578125 3.328125 
Q 4.296875 12.0625 4.296875 25.984375 
Q 4.296875 34.859375 7.859375 42.859375 
Q 11.421875 50.875 18.03125 57.078125 
Q 24.65625 63.28125 30.703125 65.421875 
Q 36.765625 67.578125 42 67.578125 
z
M 14.453125 33.40625 
Q 13.578125 26.8125 13.578125 22.75 
Q 13.578125 18.0625 15.3125 12.5625 
Q 17.046875 7.078125 20.453125 3.859375 
Q 22.953125 1.5625 26.515625 1.5625 
Q 30.765625 1.5625 34.109375 5.5625 
Q 37.453125 9.578125 37.453125 17 
Q 37.453125 25.34375 34.125 31.4375 
Q 30.8125 37.546875 24.703125 37.546875 
Q 22.859375 37.546875 20.734375 36.765625 
Q 18.609375 35.984375 14.453125 33.40625 
z
" id="TimesNewRomanPSMT-36"/>
     </defs>
     <g transform="translate(104.11989 140.480399)scale(0.06 -0.06)">
      <use xlink:href="#TimesNewRomanPSMT-36"/>
     </g>
    </g>
   </g>
   <g id="xtick_3">
    <g id="line2d_6">
     <path clip-path="url(#p95b880f667)" d="M 108.730116 69.317814 
" style="fill:none;opacity:0.1;stroke:#b0b0b0;stroke-linecap:square;stroke-width:0.1;"/>
    </g>
    <g id="line2d_7">
     <path d="M 91.32127 118.634774 
L 90.188287 119.643351 
" style="fill:none;stroke:#000000;stroke-linecap:square;stroke-width:0.3;"/>
    </g>
    <g id="text_4">
     <!-- 9 -->
     <defs>
      <path d="M 5.28125 -1.375 
L 5.28125 0.4375 
Q 11.625 0.53125 17.09375 3.390625 
Q 22.5625 6.25 27.65625 13.375 
Q 32.765625 20.515625 34.765625 29.046875 
Q 27.09375 24.125 20.90625 24.125 
Q 13.921875 24.125 8.9375 29.515625 
Q 3.953125 34.90625 3.953125 43.84375 
Q 3.953125 52.546875 8.9375 59.328125 
Q 14.9375 67.578125 24.609375 67.578125 
Q 32.765625 67.578125 38.578125 60.84375 
Q 45.703125 52.484375 45.703125 40.234375 
Q 45.703125 29.203125 40.28125 19.65625 
Q 34.859375 10.109375 25.203125 3.8125 
Q 17.328125 -1.375 8.0625 -1.375 
z
M 35.546875 32.671875 
Q 36.421875 39.015625 36.421875 42.828125 
Q 36.421875 47.5625 34.8125 53.046875 
Q 33.203125 58.546875 30.25 61.46875 
Q 27.296875 64.40625 23.53125 64.40625 
Q 19.1875 64.40625 15.90625 60.5 
Q 12.640625 56.59375 12.640625 48.875 
Q 12.640625 38.578125 17 32.765625 
Q 20.171875 28.5625 24.8125 28.5625 
Q 27.046875 28.5625 30.125 29.640625 
Q 33.203125 30.71875 35.546875 32.671875 
z
" id="TimesNewRomanPSMT-39"/>
     </defs>
     <g transform="translate(83.171777 136.542498)scale(0.06 -0.06)">
      <use xlink:href="#TimesNewRomanPSMT-39"/>
     </g>
    </g>
   </g>
   <g id="xtick_4">
    <g id="line2d_8">
     <path clip-path="url(#p95b880f667)" d="M 108.730116 69.317814 
" style="fill:none;opacity:0.1;stroke:#b0b0b0;stroke-linecap:square;stroke-width:0.1;"/>
    </g>
    <g id="line2d_9">
     <path d="M 70.687837 114.862217 
L 69.524099 115.856544 
" style="fill:none;stroke:#000000;stroke-linecap:square;stroke-width:0.3;"/>
    </g>
    <g id="text_5">
     <!-- 12 -->
     <defs>
      <path d="M 11.71875 59.71875 
L 27.828125 67.578125 
L 29.4375 67.578125 
L 29.4375 11.671875 
Q 29.4375 6.109375 29.90625 4.734375 
Q 30.375 3.375 31.828125 2.640625 
Q 33.296875 1.90625 37.796875 1.8125 
L 37.796875 0 
L 12.890625 0 
L 12.890625 1.8125 
Q 17.578125 1.90625 18.9375 2.609375 
Q 20.3125 3.328125 20.84375 4.515625 
Q 21.390625 5.71875 21.390625 11.671875 
L 21.390625 47.40625 
Q 21.390625 54.640625 20.90625 56.6875 
Q 20.5625 58.25 19.65625 58.984375 
Q 18.75 59.71875 17.484375 59.71875 
Q 15.671875 59.71875 12.453125 58.203125 
z
" id="TimesNewRomanPSMT-31"/>
      <path d="M 45.84375 12.75 
L 41.21875 0 
L 2.15625 0 
L 2.15625 1.8125 
Q 19.390625 17.53125 26.421875 27.484375 
Q 33.453125 37.453125 33.453125 45.703125 
Q 33.453125 52 29.59375 56.046875 
Q 25.734375 60.109375 20.359375 60.109375 
Q 15.484375 60.109375 11.59375 57.25 
Q 7.71875 54.390625 5.859375 48.875 
L 4.046875 48.875 
Q 5.28125 57.90625 10.328125 62.734375 
Q 15.375 67.578125 22.953125 67.578125 
Q 31 67.578125 36.390625 62.40625 
Q 41.796875 57.234375 41.796875 50.203125 
Q 41.796875 45.171875 39.453125 40.140625 
Q 35.84375 32.234375 27.734375 23.390625 
Q 15.578125 10.109375 12.546875 7.375 
L 29.828125 7.375 
Q 35.109375 7.375 37.234375 7.765625 
Q 39.359375 8.15625 41.0625 9.34375 
Q 42.78125 10.546875 44.046875 12.75 
z
" id="TimesNewRomanPSMT-32"/>
     </defs>
     <g transform="translate(61.02135 132.660558)scale(0.06 -0.06)">
      <use xlink:href="#TimesNewRomanPSMT-31"/>
      <use x="50" xlink:href="#TimesNewRomanPSMT-32"/>
     </g>
    </g>
   </g>
   <g id="xtick_5">
    <g id="line2d_10">
     <path clip-path="url(#p95b880f667)" d="M 108.730116 69.317814 
" style="fill:none;opacity:0.1;stroke:#b0b0b0;stroke-linecap:square;stroke-width:0.1;"/>
    </g>
    <g id="line2d_11">
     <path d="M 50.344655 111.142729 
L 49.151136 112.123105 
" style="fill:none;stroke:#000000;stroke-linecap:square;stroke-width:0.3;"/>
    </g>
    <g id="text_6">
     <!-- 15 -->
     <defs>
      <path d="M 43.40625 66.21875 
L 39.59375 57.90625 
L 19.671875 57.90625 
L 15.328125 49.03125 
Q 28.265625 47.125 35.84375 39.40625 
Q 42.328125 32.765625 42.328125 23.78125 
Q 42.328125 18.5625 40.203125 14.109375 
Q 38.09375 9.671875 34.859375 6.546875 
Q 31.640625 3.421875 27.6875 1.515625 
Q 22.078125 -1.171875 16.15625 -1.171875 
Q 10.203125 -1.171875 7.484375 0.84375 
Q 4.78125 2.875 4.78125 5.328125 
Q 4.78125 6.6875 5.90625 7.734375 
Q 7.03125 8.796875 8.734375 8.796875 
Q 10.015625 8.796875 10.96875 8.40625 
Q 11.921875 8.015625 14.203125 6.390625 
Q 17.875 3.859375 21.625 3.859375 
Q 27.34375 3.859375 31.65625 8.171875 
Q 35.984375 12.5 35.984375 18.703125 
Q 35.984375 24.703125 32.125 29.90625 
Q 28.265625 35.109375 21.484375 37.9375 
Q 16.15625 40.140625 6.984375 40.484375 
L 19.671875 66.21875 
z
" id="TimesNewRomanPSMT-35"/>
     </defs>
     <g transform="translate(40.662311 128.833393)scale(0.06 -0.06)">
      <use xlink:href="#TimesNewRomanPSMT-31"/>
      <use x="50" xlink:href="#TimesNewRomanPSMT-35"/>
     </g>
    </g>
   </g>
  </g>
  <g id="axis3d_2">
   <g id="line2d_12">
    <path d="M 178.622365 87.384376 
L 137.707432 127.527115 
" style="fill:none;stroke:#000000;stroke-linecap:square;stroke-width:0.3;"/>
   </g>
   <g id="text_7">
    <!-- y (m) -->
    <defs>
     <path d="M 0.59375 44.734375 
L 21.4375 44.734375 
L 21.4375 42.921875 
L 20.40625 42.921875 
Q 18.21875 42.921875 17.109375 41.96875 
Q 16.015625 41.015625 16.015625 39.59375 
Q 16.015625 37.703125 17.625 34.328125 
L 28.515625 11.765625 
L 38.53125 36.46875 
Q 39.359375 38.484375 39.359375 40.4375 
Q 39.359375 41.3125 39.015625 41.75 
Q 38.625 42.28125 37.796875 42.59375 
Q 36.96875 42.921875 34.859375 42.921875 
L 34.859375 44.734375 
L 49.421875 44.734375 
L 49.421875 42.921875 
Q 47.609375 42.71875 46.625 42.125 
Q 45.65625 41.546875 44.484375 39.9375 
Q 44.046875 39.265625 42.828125 36.1875 
L 24.609375 -8.453125 
Q 21.96875 -14.9375 17.6875 -18.25 
Q 13.421875 -21.578125 9.46875 -21.578125 
Q 6.59375 -21.578125 4.734375 -19.921875 
Q 2.875 -18.265625 2.875 -16.109375 
Q 2.875 -14.0625 4.21875 -12.8125 
Q 5.5625 -11.578125 7.90625 -11.578125 
Q 9.515625 -11.578125 12.3125 -12.640625 
Q 14.265625 -13.375 14.75 -13.375 
Q 16.21875 -13.375 17.9375 -11.859375 
Q 19.671875 -10.359375 21.4375 -6 
L 24.609375 1.765625 
L 8.546875 35.5 
Q 7.8125 37.015625 6.203125 39.265625 
Q 4.984375 40.96875 4.203125 41.546875 
Q 3.078125 42.328125 0.59375 42.921875 
z
" id="TimesNewRomanPSMT-79"/>
    </defs>
    <g transform="translate(184.31473 133.93368)rotate(-44.45419)scale(0.06 -0.06)">
     <use xlink:href="#TimesNewRomanPSMT-79"/>
     <use x="50" xlink:href="#TimesNewRomanPSMT-20"/>
     <use x="75" xlink:href="#TimesNewRomanPSMT-28"/>
     <use x="108.300781" xlink:href="#TimesNewRomanPSMT-6d"/>
     <use x="186.083984" xlink:href="#TimesNewRomanPSMT-29"/>
    </g>
   </g>
   <g id="Line3DCollection_2">
    <path d="M 78.79757 15.832135 
L 80.450299 73.211133 
L 176.614614 89.354234 
" style="fill:none;stroke:#b0b0b0;stroke-width:0.1;"/>
    <path d="M 69.61105 22.296149 
L 71.801679 80.127807 
L 169.086406 96.740362 
" style="fill:none;stroke:#b0b0b0;stroke-width:0.1;"/>
    <path d="M 60.143985 28.957566 
L 62.903944 87.24371 
L 161.333955 104.346499 
" style="fill:none;stroke:#b0b0b0;stroke-width:0.1;"/>
    <path d="M 50.383324 35.825568 
L 53.746175 94.567573 
L 153.347092 112.182624 
" style="fill:none;stroke:#b0b0b0;stroke-width:0.1;"/>
    <path d="M 40.315196 42.909918 
L 44.316802 102.10865 
L 145.115022 120.259329 
" style="fill:none;stroke:#b0b0b0;stroke-width:0.1;"/>
   </g>
   <g id="xtick_6">
    <g id="line2d_13">
     <path clip-path="url(#p95b880f667)" d="M 108.730116 69.317814 
" style="fill:none;opacity:0.1;stroke:#b0b0b0;stroke-linecap:square;stroke-width:0.1;"/>
    </g>
    <g id="line2d_14">
     <path d="M 175.820018 89.220845 
L 178.205071 89.621224 
" style="fill:none;stroke:#000000;stroke-linecap:square;stroke-width:0.3;"/>
    </g>
    <g id="text_8">
     <!-- −50 -->
     <defs>
      <path d="M 54.4375 31.25 
L 1.8125 31.25 
L 1.8125 35.25 
L 54.4375 35.25 
z
" id="TimesNewRomanPSMT-2212"/>
      <path d="M 3.609375 32.71875 
Q 3.609375 44.046875 7.03125 52.21875 
Q 10.453125 60.40625 16.109375 64.40625 
Q 20.515625 67.578125 25.203125 67.578125 
Q 32.8125 67.578125 38.875 59.8125 
Q 46.4375 50.203125 46.4375 33.734375 
Q 46.4375 22.21875 43.109375 14.15625 
Q 39.796875 6.109375 34.640625 2.46875 
Q 29.5 -1.171875 24.703125 -1.171875 
Q 15.234375 -1.171875 8.9375 10.015625 
Q 3.609375 19.4375 3.609375 32.71875 
z
M 13.1875 31.5 
Q 13.1875 17.828125 16.546875 9.1875 
Q 19.34375 1.90625 24.859375 1.90625 
Q 27.484375 1.90625 30.3125 4.265625 
Q 33.15625 6.640625 34.625 12.203125 
Q 36.859375 20.609375 36.859375 35.890625 
Q 36.859375 47.21875 34.515625 54.78125 
Q 32.765625 60.40625 29.984375 62.75 
Q 27.984375 64.359375 25.140625 64.359375 
Q 21.828125 64.359375 19.234375 61.375 
Q 15.71875 57.328125 14.453125 48.625 
Q 13.1875 39.9375 13.1875 31.5 
z
" id="TimesNewRomanPSMT-30"/>
     </defs>
     <g transform="translate(184.838225 103.228017)scale(0.06 -0.06)">
      <use xlink:href="#TimesNewRomanPSMT-2212"/>
      <use x="56.396484" xlink:href="#TimesNewRomanPSMT-35"/>
      <use x="106.396484" xlink:href="#TimesNewRomanPSMT-30"/>
     </g>
    </g>
   </g>
   <g id="xtick_7">
    <g id="line2d_15">
     <path clip-path="url(#p95b880f667)" d="M 108.730116 69.317814 
" style="fill:none;opacity:0.1;stroke:#b0b0b0;stroke-linecap:square;stroke-width:0.1;"/>
    </g>
    <g id="line2d_16">
     <path d="M 168.282176 96.60303 
L 170.696162 97.015247 
" style="fill:none;stroke:#000000;stroke-linecap:square;stroke-width:0.3;"/>
    </g>
    <g id="text_9">
     <!-- −40 -->
     <defs>
      <path d="M 46.53125 24.421875 
L 46.53125 17.484375 
L 37.640625 17.484375 
L 37.640625 0 
L 29.59375 0 
L 29.59375 17.484375 
L 1.5625 17.484375 
L 1.5625 23.734375 
L 32.28125 67.578125 
L 37.640625 67.578125 
L 37.640625 24.421875 
z
M 29.59375 24.421875 
L 29.59375 57.28125 
L 6.34375 24.421875 
z
" id="TimesNewRomanPSMT-34"/>
     </defs>
     <g transform="translate(177.523629 110.731897)scale(0.06 -0.06)">
      <use xlink:href="#TimesNewRomanPSMT-2212"/>
      <use x="56.396484" xlink:href="#TimesNewRomanPSMT-34"/>
      <use x="106.396484" xlink:href="#TimesNewRomanPSMT-30"/>
     </g>
    </g>
   </g>
   <g id="xtick_8">
    <g id="line2d_17">
     <path clip-path="url(#p95b880f667)" d="M 108.730116 69.317814 
" style="fill:none;opacity:0.1;stroke:#b0b0b0;stroke-linecap:square;stroke-width:0.1;"/>
    </g>
    <g id="line2d_18">
     <path d="M 160.519867 104.205046 
L 162.963465 104.629636 
" style="fill:none;stroke:#000000;stroke-linecap:square;stroke-width:0.3;"/>
    </g>
    <g id="text_10">
     <!-- −30 -->
     <g transform="translate(169.991879 118.45855)scale(0.06 -0.06)">
      <use xlink:href="#TimesNewRomanPSMT-2212"/>
      <use x="56.396484" xlink:href="#TimesNewRomanPSMT-33"/>
      <use x="106.396484" xlink:href="#TimesNewRomanPSMT-30"/>
     </g>
    </g>
   </g>
   <g id="xtick_9">
    <g id="line2d_19">
     <path clip-path="url(#p95b880f667)" d="M 108.730116 69.317814 
" style="fill:none;opacity:0.1;stroke:#b0b0b0;stroke-linecap:square;stroke-width:0.1;"/>
    </g>
    <g id="line2d_20">
     <path d="M 152.522913 112.036863 
L 154.996823 112.47439 
" style="fill:none;stroke:#000000;stroke-linecap:square;stroke-width:0.3;"/>
    </g>
    <g id="text_11">
     <!-- −20 -->
     <g transform="translate(162.233159 126.418045)scale(0.06 -0.06)">
      <use xlink:href="#TimesNewRomanPSMT-2212"/>
      <use x="56.396484" xlink:href="#TimesNewRomanPSMT-32"/>
      <use x="106.396484" xlink:href="#TimesNewRomanPSMT-30"/>
     </g>
    </g>
   </g>
   <g id="xtick_10">
    <g id="line2d_21">
     <path clip-path="url(#p95b880f667)" d="M 108.730116 69.317814 
" style="fill:none;opacity:0.1;stroke:#b0b0b0;stroke-linecap:square;stroke-width:0.1;"/>
    </g>
    <g id="line2d_22">
     <path d="M 144.28051 120.109059 
L 146.785456 120.560124 
" style="fill:none;stroke:#000000;stroke-linecap:square;stroke-width:0.3;"/>
    </g>
    <g id="text_12">
     <!-- −10 -->
     <g transform="translate(154.237055 134.621069)scale(0.06 -0.06)">
      <use xlink:href="#TimesNewRomanPSMT-2212"/>
      <use x="56.396484" xlink:href="#TimesNewRomanPSMT-31"/>
      <use x="106.396484" xlink:href="#TimesNewRomanPSMT-30"/>
     </g>
    </g>
   </g>
  </g>
  <g id="axis3d_3">
   <g id="line2d_23">
    <path d="M 178.622365 87.384376 
L 182.832998 29.089362 
" style="fill:none;stroke:#000000;stroke-linecap:square;stroke-width:0.3;"/>
   </g>
   <g id="text_13">
    <!-- z (m) -->
    <defs>
     <path d="M 42 13.71875 
L 41.453125 0 
L 2 0 
L 2 1.765625 
L 31.6875 41.3125 
L 17.046875 41.3125 
Q 12.3125 41.3125 10.84375 40.703125 
Q 9.375 40.09375 8.453125 38.375 
Q 7.125 35.9375 6.9375 32.328125 
L 4.984375 32.328125 
L 5.28125 44.734375 
L 42.78125 44.734375 
L 42.78125 42.921875 
L 12.796875 3.265625 
L 29.109375 3.265625 
Q 34.234375 3.265625 36.0625 4.125 
Q 37.890625 4.984375 39.015625 7.125 
Q 39.796875 8.6875 40.328125 13.71875 
z
" id="TimesNewRomanPSMT-7a"/>
    </defs>
    <g transform="translate(222.675918 59.754661)rotate(-85.868716)scale(0.06 -0.06)">
     <use xlink:href="#TimesNewRomanPSMT-7a"/>
     <use x="44.384766" xlink:href="#TimesNewRomanPSMT-20"/>
     <use x="69.384766" xlink:href="#TimesNewRomanPSMT-28"/>
     <use x="102.685547" xlink:href="#TimesNewRomanPSMT-6d"/>
     <use x="180.46875" xlink:href="#TimesNewRomanPSMT-29"/>
    </g>
   </g>
   <g id="Line3DCollection_3">
    <path d="M 178.785755 85.122283 
L 82.699464 69.139476 
L 35.662376 106.580911 
" style="fill:none;stroke:#b0b0b0;stroke-width:0.1;"/>
    <path d="M 179.372071 77.004904 
L 82.488639 61.154708 
L 35.024329 98.298854 
" style="fill:none;stroke:#b0b0b0;stroke-width:0.1;"/>
    <path d="M 179.968284 68.750505 
L 82.274371 53.039546 
L 34.375039 89.87088 
" style="fill:none;stroke:#b0b0b0;stroke-width:0.1;"/>
    <path d="M 180.574647 60.355588 
L 82.056575 44.790768 
L 33.714209 81.293099 
" style="fill:none;stroke:#b0b0b0;stroke-width:0.1;"/>
    <path d="M 181.191421 51.816532 
L 81.835164 36.405047 
L 33.041527 72.561482 
" style="fill:none;stroke:#b0b0b0;stroke-width:0.1;"/>
    <path d="M 181.818876 43.129594 
L 81.610046 27.878945 
L 32.356672 63.671851 
" style="fill:none;stroke:#b0b0b0;stroke-width:0.1;"/>
    <path d="M 182.457292 34.290898 
L 81.381128 19.208907 
L 31.65931 54.619878 
" style="fill:none;stroke:#b0b0b0;stroke-width:0.1;"/>
   </g>
   <g id="xtick_11">
    <g id="line2d_24">
     <path d="M 108.730116 69.317814 
" style="fill:none;opacity:0.1;stroke:#b0b0b0;stroke-linecap:square;stroke-width:0.1;"/>
    </g>
    <g id="line2d_25">
     <path d="M 177.991844 84.990225 
L 180.374839 85.386608 
" style="fill:none;stroke:#000000;stroke-linecap:square;stroke-width:0.3;"/>
    </g>
    <g id="text_14">
     <!-- 9.0 -->
     <defs>
      <path d="M 12.5 9.46875 
Q 14.796875 9.46875 16.359375 7.875 
Q 17.921875 6.296875 17.921875 4.046875 
Q 17.921875 1.8125 16.328125 0.21875 
Q 14.75 -1.375 12.5 -1.375 
Q 10.25 -1.375 8.65625 0.21875 
Q 7.078125 1.8125 7.078125 4.046875 
Q 7.078125 6.34375 8.65625 7.90625 
Q 10.25 9.46875 12.5 9.46875 
z
" id="TimesNewRomanPSMT-2e"/>
     </defs>
     <g transform="translate(193.55454 86.511993)scale(0.06 -0.06)">
      <use xlink:href="#TimesNewRomanPSMT-39"/>
      <use x="50" xlink:href="#TimesNewRomanPSMT-2e"/>
      <use x="75" xlink:href="#TimesNewRomanPSMT-30"/>
     </g>
    </g>
   </g>
   <g id="xtick_12">
    <g id="line2d_26">
     <path d="M 108.730116 69.317814 
" style="fill:none;opacity:0.1;stroke:#b0b0b0;stroke-linecap:square;stroke-width:0.1;"/>
    </g>
    <g id="line2d_27">
     <path d="M 178.571361 76.873907 
L 180.974775 77.267108 
" style="fill:none;stroke:#000000;stroke-linecap:square;stroke-width:0.3;"/>
    </g>
    <g id="text_15">
     <!-- 9.5 -->
     <g transform="translate(194.291686 78.417042)scale(0.06 -0.06)">
      <use xlink:href="#TimesNewRomanPSMT-39"/>
      <use x="50" xlink:href="#TimesNewRomanPSMT-2e"/>
      <use x="75" xlink:href="#TimesNewRomanPSMT-35"/>
     </g>
    </g>
   </g>
   <g id="xtick_13">
    <g id="line2d_28">
     <path d="M 108.730116 69.317814 
" style="fill:none;opacity:0.1;stroke:#b0b0b0;stroke-linecap:square;stroke-width:0.1;"/>
    </g>
    <g id="line2d_29">
     <path d="M 179.160657 68.620624 
L 181.584843 69.010477 
" style="fill:none;stroke:#000000;stroke-linecap:square;stroke-width:0.3;"/>
    </g>
    <g id="text_16">
     <!-- 10.0 -->
     <g transform="translate(193.541206 70.186222)scale(0.06 -0.06)">
      <use xlink:href="#TimesNewRomanPSMT-31"/>
      <use x="50" xlink:href="#TimesNewRomanPSMT-30"/>
      <use x="100" xlink:href="#TimesNewRomanPSMT-2e"/>
      <use x="125" xlink:href="#TimesNewRomanPSMT-30"/>
     </g>
    </g>
   </g>
   <g id="xtick_14">
    <g id="line2d_30">
     <path d="M 108.730116 69.317814 
" style="fill:none;opacity:0.1;stroke:#b0b0b0;stroke-linecap:square;stroke-width:0.1;"/>
    </g>
    <g id="line2d_31">
     <path d="M 179.759983 60.226879 
L 182.205302 60.613214 
" style="fill:none;stroke:#000000;stroke-linecap:square;stroke-width:0.3;"/>
    </g>
    <g id="text_17">
     <!-- 10.5 -->
     <g transform="translate(194.303412 61.816084)scale(0.06 -0.06)">
      <use xlink:href="#TimesNewRomanPSMT-31"/>
      <use x="50" xlink:href="#TimesNewRomanPSMT-30"/>
      <use x="100" xlink:href="#TimesNewRomanPSMT-2e"/>
      <use x="125" xlink:href="#TimesNewRomanPSMT-35"/>
     </g>
    </g>
   </g>
   <g id="xtick_15">
    <g id="line2d_32">
     <path d="M 108.730116 69.317814 
" style="fill:none;opacity:0.1;stroke:#b0b0b0;stroke-linecap:square;stroke-width:0.1;"/>
    </g>
    <g id="line2d_33">
     <path d="M 180.369596 51.689056 
L 182.83642 52.071693 
" style="fill:none;stroke:#000000;stroke-linecap:square;stroke-width:0.3;"/>
    </g>
    <g id="text_18">
     <!-- 11.0 -->
     <g transform="translate(195.080036 53.30306)scale(0.06 -0.06)">
      <use xlink:href="#TimesNewRomanPSMT-31"/>
      <use x="49.953125" xlink:href="#TimesNewRomanPSMT-31"/>
      <use x="99.953125" xlink:href="#TimesNewRomanPSMT-2e"/>
      <use x="124.953125" xlink:href="#TimesNewRomanPSMT-30"/>
     </g>
    </g>
   </g>
   <g id="xtick_16">
    <g id="line2d_34">
     <path d="M 108.730116 69.317814 
" style="fill:none;opacity:0.1;stroke:#b0b0b0;stroke-linecap:square;stroke-width:0.1;"/>
    </g>
    <g id="line2d_35">
     <path d="M 180.989764 43.003412 
L 183.478475 43.382166 
" style="fill:none;stroke:#000000;stroke-linecap:square;stroke-width:0.3;"/>
    </g>
    <g id="text_19">
     <!-- 11.5 -->
     <g transform="translate(195.868601 44.643461)scale(0.06 -0.06)">
      <use xlink:href="#TimesNewRomanPSMT-31"/>
      <use x="49.953125" xlink:href="#TimesNewRomanPSMT-31"/>
      <use x="99.953125" xlink:href="#TimesNewRomanPSMT-2e"/>
      <use x="124.953125" xlink:href="#TimesNewRomanPSMT-35"/>
     </g>
    </g>
   </g>
   <g id="xtick_17">
    <g id="line2d_36">
     <path d="M 108.730116 69.317814 
" style="fill:none;opacity:0.1;stroke:#b0b0b0;stroke-linecap:square;stroke-width:0.1;"/>
    </g>
    <g id="line2d_37">
     <path d="M 181.620762 34.166076 
L 184.131751 34.540751 
" style="fill:none;stroke:#000000;stroke-linecap:square;stroke-width:0.3;"/>
    </g>
    <g id="text_20">
     <!-- 12.0 -->
     <g transform="translate(196.669455 35.833466)scale(0.06 -0.06)">
      <use xlink:href="#TimesNewRomanPSMT-31"/>
      <use x="50" xlink:href="#TimesNewRomanPSMT-32"/>
      <use x="100" xlink:href="#TimesNewRomanPSMT-2e"/>
      <use x="125" xlink:href="#TimesNewRomanPSMT-30"/>
     </g>
    </g>
   </g>
  </g>
  <g id="axes_1">
   <g id="line2d_38">
    <path clip-path="url(#p95b880f667)" d="M 134.454611 91.573829 
L 134.699115 91.599565 
L 134.671114 92.040154 
L 134.32939 93.24273 
L 133.674333 94.744063 
L 132.879375 95.935917 
L 131.864272 96.913973 
L 130.951723 97.533568 
L 129.576586 98.18806 
L 127.525864 98.840649 
L 124.187723 99.869965 
L 119.313723 101.647607 
L 116.363335 102.781587 
L 109.700043 105.412061 
L 105.087897 107.194027 
L 101.487864 108.464405 
L 98.564878 109.264522 
L 96.43798 109.613747 
L 94.376916 109.729149 
L 91.450651 109.675747 
L 89.367274 109.450929 
L 86.468919 108.85564 
L 83.745434 108.12393 
L 79.639543 106.728041 
L 75.965917 105.184268 
L 72.826693 103.536701 
L 70.695787 102.166865 
L 68.123652 100.354282 
L 64.51252 97.501402 
L 62.971371 95.950607 
L 62.104353 94.784881 
L 61.615602 93.775414 
L 61.334842 92.74014 
L 61.205858 91.224069 
L 61.356132 89.853437 
L 61.830049 88.257558 
L 62.605897 86.687341 
L 63.628937 85.062013 
L 66.273848 81.681584 
L 68.139454 79.478207 
L 70.829925 76.643617 
L 73.299303 74.317452 
L 79.257925 69.171083 
L 86.385438 63.429145 
L 91.773218 58.970595 
L 95.805574 55.516523 
L 98.847332 52.554515 
L 100.588296 50.537736 
L 102.445912 47.92511 
L 103.909965 45.321929 
L 105.846734 41.186336 
L 107.685053 37.244199 
L 110.205429 32.552973 
L 110.659385 30.934113 
L 110.835575 29.328803 
L 110.765138 27.128087 
L 110.394751 24.958757 
L 109.9266 23.600323 
L 109.514863 22.990385 
L 108.977282 22.611667 
L 107.8375 22.389325 
L 107.432043 22.520856 
L 107.432043 22.520856 
" style="fill:none;stroke:#1f77b4;stroke-linecap:square;"/>
   </g>
  </g>
 </g>
 <defs>
  <clipPath id="p95b880f667">
   <rect height="127.686618" width="197.716542" x="7.2" y="7.2"/>
  </clipPath>
 </defs>
</svg>
