<?xml version="1.0" encoding="utf-8" standalone="no"?>
<!DOCTYPE svg PUBLIC "-//W3C//DTD SVG 1.1//EN"
  "http://www.w3.org/Graphics/SVG/1.1/DTD/svg11.dtd">
<!-- Created with matplotlib (http://matplotlib.org/) -->
<svg height="117pt" version="1.1" viewBox="0 0 174 117" width="174pt" xmlns="http://www.w3.org/2000/svg" xmlns:xlink="http://www.w3.org/1999/xlink">
 <defs>
  <style type="text/css">
*{stroke-linecap:butt;stroke-linejoin:round;}
  </style>
 </defs>
 <g id="figure_1">
  <g id="patch_1">
   <path d="M 0 117.343728 
L 174.649655 117.343728 
L 174.649655 0 
L 0 0 
z
" style="fill:#ffffff;"/>
  </g>
  <g id="axes_1">
   <g id="patch_2">
    <path d="M 22.1525 46.215356 
L 167.144631 46.215356 
L 167.144631 7.2 
L 22.1525 7.2 
z
" style="fill:#ffffff;"/>
   </g>
   <g id="matplotlib.axis_1">
    <g id="xtick_1">
     <g id="line2d_1">
      <path clip-path="url(#p93d987ac87)" d="M 28.593371 46.215356 
L 28.593371 7.2 
" style="fill:none;opacity:0.1;stroke:#b0b0b0;stroke-linecap:square;stroke-width:0.1;"/>
     </g>
     <g id="line2d_2">
      <defs>
       <path d="M 0 0 
L 0 -2 
" id="m98db2ae5f2" style="stroke:#000000;stroke-width:0.3;"/>
      </defs>
      <g>
       <use style="stroke:#000000;stroke-width:0.3;" x="28.593371" xlink:href="#m98db2ae5f2" y="46.215356"/>
      </g>
     </g>
     <g id="text_1">
      <!-- 65.0 -->
      <defs>
       <path d="M 33.015625 40.375 
Q 26.375 40.375 22.484375 35.828125 
Q 18.609375 31.296875 18.609375 23.390625 
Q 18.609375 15.53125 22.484375 10.953125 
Q 26.375 6.390625 33.015625 6.390625 
Q 39.65625 6.390625 43.53125 10.953125 
Q 47.40625 15.53125 47.40625 23.390625 
Q 47.40625 31.296875 43.53125 35.828125 
Q 39.65625 40.375 33.015625 40.375 
z
M 52.59375 71.296875 
L 52.59375 62.3125 
Q 48.875 64.0625 45.09375 64.984375 
Q 41.3125 65.921875 37.59375 65.921875 
Q 27.828125 65.921875 22.671875 59.328125 
Q 17.53125 52.734375 16.796875 39.40625 
Q 19.671875 43.65625 24.015625 45.921875 
Q 28.375 48.1875 33.59375 48.1875 
Q 44.578125 48.1875 50.953125 41.515625 
Q 57.328125 34.859375 57.328125 23.390625 
Q 57.328125 12.15625 50.6875 5.359375 
Q 44.046875 -1.421875 33.015625 -1.421875 
Q 20.359375 -1.421875 13.671875 8.265625 
Q 6.984375 17.96875 6.984375 36.375 
Q 6.984375 53.65625 15.1875 63.9375 
Q 23.390625 74.21875 37.203125 74.21875 
Q 40.921875 74.21875 44.703125 73.484375 
Q 48.484375 72.75 52.59375 71.296875 
z
" id="DejaVuSans-36"/>
       <path d="M 10.796875 72.90625 
L 49.515625 72.90625 
L 49.515625 64.59375 
L 19.828125 64.59375 
L 19.828125 46.734375 
Q 21.96875 47.46875 24.109375 47.828125 
Q 26.265625 48.1875 28.421875 48.1875 
Q 40.625 48.1875 47.75 41.5 
Q 54.890625 34.8125 54.890625 23.390625 
Q 54.890625 11.625 47.5625 5.09375 
Q 40.234375 -1.421875 26.90625 -1.421875 
Q 22.3125 -1.421875 17.546875 -0.640625 
Q 12.796875 0.140625 7.71875 1.703125 
L 7.71875 11.625 
Q 12.109375 9.234375 16.796875 8.0625 
Q 21.484375 6.890625 26.703125 6.890625 
Q 35.15625 6.890625 40.078125 11.328125 
Q 45.015625 15.765625 45.015625 23.390625 
Q 45.015625 31 40.078125 35.4375 
Q 35.15625 39.890625 26.703125 39.890625 
Q 22.75 39.890625 18.8125 39.015625 
Q 14.890625 38.140625 10.796875 36.28125 
z
" id="DejaVuSans-35"/>
       <path d="M 10.6875 12.40625 
L 21 12.40625 
L 21 0 
L 10.6875 0 
z
" id="DejaVuSans-2e"/>
       <path d="M 31.78125 66.40625 
Q 24.171875 66.40625 20.328125 58.90625 
Q 16.5 51.421875 16.5 36.375 
Q 16.5 21.390625 20.328125 13.890625 
Q 24.171875 6.390625 31.78125 6.390625 
Q 39.453125 6.390625 43.28125 13.890625 
Q 47.125 21.390625 47.125 36.375 
Q 47.125 51.421875 43.28125 58.90625 
Q 39.453125 66.40625 31.78125 66.40625 
z
M 31.78125 74.21875 
Q 44.046875 74.21875 50.515625 64.515625 
Q 56.984375 54.828125 56.984375 36.375 
Q 56.984375 17.96875 50.515625 8.265625 
Q 44.046875 -1.421875 31.78125 -1.421875 
Q 19.53125 -1.421875 13.0625 8.265625 
Q 6.59375 17.96875 6.59375 36.375 
Q 6.59375 54.828125 13.0625 64.515625 
Q 19.53125 74.21875 31.78125 74.21875 
z
" id="DejaVuSans-30"/>
      </defs>
      <g transform="translate(21.913684 54.274418)scale(0.06 -0.06)">
       <use xlink:href="#DejaVuSans-36"/>
       <use x="63.623047" xlink:href="#DejaVuSans-35"/>
       <use x="127.246094" xlink:href="#DejaVuSans-2e"/>
       <use x="159.033203" xlink:href="#DejaVuSans-30"/>
      </g>
     </g>
    </g>
    <g id="xtick_2">
     <g id="line2d_3">
      <path clip-path="url(#p93d987ac87)" d="M 50.605166 46.215356 
L 50.605166 7.2 
" style="fill:none;opacity:0.1;stroke:#b0b0b0;stroke-linecap:square;stroke-width:0.1;"/>
     </g>
     <g id="line2d_4">
      <g>
       <use style="stroke:#000000;stroke-width:0.3;" x="50.605166" xlink:href="#m98db2ae5f2" y="46.215356"/>
      </g>
     </g>
     <g id="text_2">
      <!-- 67.5 -->
      <defs>
       <path d="M 8.203125 72.90625 
L 55.078125 72.90625 
L 55.078125 68.703125 
L 28.609375 0 
L 18.3125 0 
L 43.21875 64.59375 
L 8.203125 64.59375 
z
" id="DejaVuSans-37"/>
      </defs>
      <g transform="translate(43.925478 54.274418)scale(0.06 -0.06)">
       <use xlink:href="#DejaVuSans-36"/>
       <use x="63.623047" xlink:href="#DejaVuSans-37"/>
       <use x="127.246094" xlink:href="#DejaVuSans-2e"/>
       <use x="159.033203" xlink:href="#DejaVuSans-35"/>
      </g>
     </g>
    </g>
    <g id="xtick_3">
     <g id="line2d_5">
      <path clip-path="url(#p93d987ac87)" d="M 72.61696 46.215356 
L 72.61696 7.2 
" style="fill:none;opacity:0.1;stroke:#b0b0b0;stroke-linecap:square;stroke-width:0.1;"/>
     </g>
     <g id="line2d_6">
      <g>
       <use style="stroke:#000000;stroke-width:0.3;" x="72.61696" xlink:href="#m98db2ae5f2" y="46.215356"/>
      </g>
     </g>
     <g id="text_3">
      <!-- 70.0 -->
      <g transform="translate(65.937273 54.274418)scale(0.06 -0.06)">
       <use xlink:href="#DejaVuSans-37"/>
       <use x="63.623047" xlink:href="#DejaVuSans-30"/>
       <use x="127.246094" xlink:href="#DejaVuSans-2e"/>
       <use x="159.033203" xlink:href="#DejaVuSans-30"/>
      </g>
     </g>
    </g>
    <g id="xtick_4">
     <g id="line2d_7">
      <path clip-path="url(#p93d987ac87)" d="M 94.628755 46.215356 
L 94.628755 7.2 
" style="fill:none;opacity:0.1;stroke:#b0b0b0;stroke-linecap:square;stroke-width:0.1;"/>
     </g>
     <g id="line2d_8">
      <g>
       <use style="stroke:#000000;stroke-width:0.3;" x="94.628755" xlink:href="#m98db2ae5f2" y="46.215356"/>
      </g>
     </g>
     <g id="text_4">
      <!-- 72.5 -->
      <defs>
       <path d="M 19.1875 8.296875 
L 53.609375 8.296875 
L 53.609375 0 
L 7.328125 0 
L 7.328125 8.296875 
Q 12.9375 14.109375 22.625 23.890625 
Q 32.328125 33.6875 34.8125 36.53125 
Q 39.546875 41.84375 41.421875 45.53125 
Q 43.3125 49.21875 43.3125 52.78125 
Q 43.3125 58.59375 39.234375 62.25 
Q 35.15625 65.921875 28.609375 65.921875 
Q 23.96875 65.921875 18.8125 64.3125 
Q 13.671875 62.703125 7.8125 59.421875 
L 7.8125 69.390625 
Q 13.765625 71.78125 18.9375 73 
Q 24.125 74.21875 28.421875 74.21875 
Q 39.75 74.21875 46.484375 68.546875 
Q 53.21875 62.890625 53.21875 53.421875 
Q 53.21875 48.921875 51.53125 44.890625 
Q 49.859375 40.875 45.40625 35.40625 
Q 44.1875 33.984375 37.640625 27.21875 
Q 31.109375 20.453125 19.1875 8.296875 
z
" id="DejaVuSans-32"/>
      </defs>
      <g transform="translate(87.949067 54.274418)scale(0.06 -0.06)">
       <use xlink:href="#DejaVuSans-37"/>
       <use x="63.623047" xlink:href="#DejaVuSans-32"/>
       <use x="127.246094" xlink:href="#DejaVuSans-2e"/>
       <use x="159.033203" xlink:href="#DejaVuSans-35"/>
      </g>
     </g>
    </g>
    <g id="xtick_5">
     <g id="line2d_9">
      <path clip-path="url(#p93d987ac87)" d="M 116.640549 46.215356 
L 116.640549 7.2 
" style="fill:none;opacity:0.1;stroke:#b0b0b0;stroke-linecap:square;stroke-width:0.1;"/>
     </g>
     <g id="line2d_10">
      <g>
       <use style="stroke:#000000;stroke-width:0.3;" x="116.640549" xlink:href="#m98db2ae5f2" y="46.215356"/>
      </g>
     </g>
     <g id="text_5">
      <!-- 75.0 -->
      <g transform="translate(109.960862 54.274418)scale(0.06 -0.06)">
       <use xlink:href="#DejaVuSans-37"/>
       <use x="63.623047" xlink:href="#DejaVuSans-35"/>
       <use x="127.246094" xlink:href="#DejaVuSans-2e"/>
       <use x="159.033203" xlink:href="#DejaVuSans-30"/>
      </g>
     </g>
    </g>
    <g id="xtick_6">
     <g id="line2d_11">
      <path clip-path="url(#p93d987ac87)" d="M 138.652344 46.215356 
L 138.652344 7.2 
" style="fill:none;opacity:0.1;stroke:#b0b0b0;stroke-linecap:square;stroke-width:0.1;"/>
     </g>
     <g id="line2d_12">
      <g>
       <use style="stroke:#000000;stroke-width:0.3;" x="138.652344" xlink:href="#m98db2ae5f2" y="46.215356"/>
      </g>
     </g>
     <g id="text_6">
      <!-- 77.5 -->
      <g transform="translate(131.972656 54.274418)scale(0.06 -0.06)">
       <use xlink:href="#DejaVuSans-37"/>
       <use x="63.623047" xlink:href="#DejaVuSans-37"/>
       <use x="127.246094" xlink:href="#DejaVuSans-2e"/>
       <use x="159.033203" xlink:href="#DejaVuSans-35"/>
      </g>
     </g>
    </g>
    <g id="xtick_7">
     <g id="line2d_13">
      <path clip-path="url(#p93d987ac87)" d="M 160.664138 46.215356 
L 160.664138 7.2 
" style="fill:none;opacity:0.1;stroke:#b0b0b0;stroke-linecap:square;stroke-width:0.1;"/>
     </g>
     <g id="line2d_14">
      <g>
       <use style="stroke:#000000;stroke-width:0.3;" x="160.664138" xlink:href="#m98db2ae5f2" y="46.215356"/>
      </g>
     </g>
     <g id="text_7">
      <!-- 80.0 -->
      <defs>
       <path d="M 31.78125 34.625 
Q 24.75 34.625 20.71875 30.859375 
Q 16.703125 27.09375 16.703125 20.515625 
Q 16.703125 13.921875 20.71875 10.15625 
Q 24.75 6.390625 31.78125 6.390625 
Q 38.8125 6.390625 42.859375 10.171875 
Q 46.921875 13.96875 46.921875 20.515625 
Q 46.921875 27.09375 42.890625 30.859375 
Q 38.875 34.625 31.78125 34.625 
z
M 21.921875 38.8125 
Q 15.578125 40.375 12.03125 44.71875 
Q 8.5 49.078125 8.5 55.328125 
Q 8.5 64.0625 14.71875 69.140625 
Q 20.953125 74.21875 31.78125 74.21875 
Q 42.671875 74.21875 48.875 69.140625 
Q 55.078125 64.0625 55.078125 55.328125 
Q 55.078125 49.078125 51.53125 44.71875 
Q 48 40.375 41.703125 38.8125 
Q 48.828125 37.15625 52.796875 32.3125 
Q 56.78125 27.484375 56.78125 20.515625 
Q 56.78125 9.90625 50.3125 4.234375 
Q 43.84375 -1.421875 31.78125 -1.421875 
Q 19.734375 -1.421875 13.25 4.234375 
Q 6.78125 9.90625 6.78125 20.515625 
Q 6.78125 27.484375 10.78125 32.3125 
Q 14.796875 37.15625 21.921875 38.8125 
z
M 18.3125 54.390625 
Q 18.3125 48.734375 21.84375 45.5625 
Q 25.390625 42.390625 31.78125 42.390625 
Q 38.140625 42.390625 41.71875 45.5625 
Q 45.3125 48.734375 45.3125 54.390625 
Q 45.3125 60.0625 41.71875 63.234375 
Q 38.140625 66.40625 31.78125 66.40625 
Q 25.390625 66.40625 21.84375 63.234375 
Q 18.3125 60.0625 18.3125 54.390625 
z
" id="DejaVuSans-38"/>
      </defs>
      <g transform="translate(153.984451 54.274418)scale(0.06 -0.06)">
       <use xlink:href="#DejaVuSans-38"/>
       <use x="63.623047" xlink:href="#DejaVuSans-30"/>
       <use x="127.246094" xlink:href="#DejaVuSans-2e"/>
       <use x="159.033203" xlink:href="#DejaVuSans-30"/>
      </g>
     </g>
    </g>
   </g>
   <g id="matplotlib.axis_2">
    <g id="ytick_1">
     <g id="line2d_15">
      <path clip-path="url(#p93d987ac87)" d="M 22.1525 37.368002 
L 167.144631 37.368002 
" style="fill:none;opacity:0.1;stroke:#b0b0b0;stroke-linecap:square;stroke-width:0.1;"/>
     </g>
     <g id="line2d_16">
      <defs>
       <path d="M 0 0 
L 2 0 
" id="mec4e3145dc" style="stroke:#000000;stroke-width:0.3;"/>
      </defs>
      <g>
       <use style="stroke:#000000;stroke-width:0.3;" x="22.1525" xlink:href="#mec4e3145dc" y="37.368002"/>
      </g>
     </g>
     <g id="text_8">
      <!-- 0 -->
      <g transform="translate(14.835 39.647533)scale(0.06 -0.06)">
       <use xlink:href="#DejaVuSans-30"/>
      </g>
     </g>
    </g>
    <g id="ytick_2">
     <g id="line2d_17">
      <path clip-path="url(#p93d987ac87)" d="M 22.1525 12.84815 
L 167.144631 12.84815 
" style="fill:none;opacity:0.1;stroke:#b0b0b0;stroke-linecap:square;stroke-width:0.1;"/>
     </g>
     <g id="line2d_18">
      <g>
       <use style="stroke:#000000;stroke-width:0.3;" x="22.1525" xlink:href="#mec4e3145dc" y="12.84815"/>
      </g>
     </g>
     <g id="text_9">
      <!-- 500 -->
      <g transform="translate(7.2 15.127682)scale(0.06 -0.06)">
       <use xlink:href="#DejaVuSans-35"/>
       <use x="63.623047" xlink:href="#DejaVuSans-30"/>
       <use x="127.246094" xlink:href="#DejaVuSans-30"/>
      </g>
     </g>
    </g>
   </g>
   <g id="line2d_19">
    <path clip-path="url(#p93d987ac87)" d="M 28.831979 9.170173 
L 40.789666 9.072093 
L 40.789666 9.023053 
L 63.336788 9.072093 
L 63.336788 9.268252 
L 64.660137 9.366331 
L 64.660137 9.66057 
L 64.827426 9.66057 
L 64.827426 9.807689 
L 65.699974 9.856728 
L 65.699974 10.101927 
L 66.455419 10.200006 
L 66.455419 10.298086 
L 66.580446 10.298086 
L 66.580446 10.396165 
L 68.152968 10.739443 
L 68.152968 10.935602 
L 68.706785 11.033681 
L 68.706785 11.1808 
L 69.584615 11.22984 
L 69.584615 11.475039 
L 70.441314 11.475039 
L 70.441314 11.818317 
L 71.028589 11.818317 
L 71.028589 12.014475 
L 71.676616 12.063515 
L 71.676616 12.161594 
L 72.102765 12.161594 
L 72.102765 12.308714 
L 72.556208 12.406793 
L 72.556208 12.504872 
L 72.743748 12.504872 
L 72.743748 12.651992 
L 73.279955 12.701031 
L 73.279955 12.84815 
L 74.181559 12.94623 
L 74.181559 13.142389 
L 74.858641 13.240468 
L 74.858641 13.387587 
L 75.277746 13.387587 
L 75.277746 13.485666 
L 76.268277 13.583746 
L 76.268277 13.779905 
L 76.81593 13.779905 
L 76.81593 14.074143 
L 77.52471 14.172222 
L 77.52471 14.270302 
L 78.305688 14.270302 
L 78.305688 14.61358 
L 79.021512 14.711659 
L 79.021512 14.809738 
L 80.071034 14.809738 
L 80.071034 15.251096 
L 80.587871 15.349175 
L 80.587871 15.496294 
L 81.189233 15.545334 
L 81.189233 15.692453 
L 81.820532 15.790533 
L 81.820532 15.888612 
L 82.543399 15.986691 
L 82.543399 16.084771 
L 83.047909 16.18285 
L 83.047909 16.329969 
L 83.610531 16.428049 
L 83.610531 16.526128 
L 84.284092 16.624207 
L 84.284092 16.722287 
L 84.477796 16.722287 
L 84.477796 16.820366 
L 85.868941 17.163644 
L 85.868941 17.359803 
L 86.22201 17.359803 
L 86.22201 17.506922 
L 87.102482 17.605002 
L 87.102482 17.80116 
L 87.842078 17.89924 
L 87.842078 17.997319 
L 88.32986 17.997319 
L 88.32986 18.193478 
L 88.542053 18.193478 
L 88.542053 18.340597 
L 89.213853 18.438677 
L 89.213853 18.536756 
L 89.769431 18.634835 
L 89.769431 18.732915 
L 90.130424 18.732915 
L 90.130424 18.880034 
L 90.62613 18.978113 
L 90.62613 19.076193 
L 91.156174 19.076193 
L 91.156174 19.272351 
L 91.898412 19.370431 
L 91.898412 19.46851 
L 92.382671 19.56659 
L 92.382671 19.713709 
L 92.944412 19.713709 
L 92.944412 19.909868 
L 93.27635 19.909868 
L 93.27635 20.007947 
L 94.546871 20.106026 
L 94.546871 20.449304 
L 95.077795 20.547384 
L 95.077795 20.645463 
L 95.748715 20.743543 
L 95.748715 20.841622 
L 95.942419 20.841622 
L 95.942419 20.988741 
L 96.78415 20.988741 
L 96.78415 21.282979 
L 97.138099 21.282979 
L 97.138099 21.430098 
L 97.691916 21.528178 
L 97.691916 21.626257 
L 98.243972 21.626257 
L 98.243972 21.822416 
L 98.80131 21.920495 
L 98.80131 22.018575 
L 99.430848 22.018575 
L 99.430848 22.263773 
L 99.969697 22.361853 
L 99.969697 22.459932 
L 100.523513 22.558012 
L 100.523513 22.656091 
L 103.324294 22.656091 
L 103.324294 23.636885 
L 103.878111 23.636885 
L 103.878111 23.833044 
L 104.358848 23.833044 
L 104.358848 24.078242 
L 105.062345 24.176322 
L 105.062345 24.274401 
L 105.591509 24.372481 
L 105.591509 24.47056 
L 106.121553 24.47056 
L 106.121553 24.715759 
L 106.854105 24.813838 
L 106.854105 24.911917 
L 107.387671 25.009997 
L 107.387671 25.157116 
L 107.882496 25.157116 
L 107.882496 25.353275 
L 108.612408 25.451354 
L 108.612408 25.549434 
L 109.111635 25.647513 
L 109.111635 25.794632 
L 109.675137 25.892711 
L 109.675137 25.990791 
L 110.345176 26.08887 
L 110.345176 26.235989 
L 110.907797 26.334069 
L 110.907797 26.432148 
L 112.139577 26.677347 
L 112.139577 26.824466 
L 112.633522 26.824466 
L 112.633522 27.069664 
L 113.014766 27.069664 
L 113.014766 27.216783 
L 113.542169 27.265823 
L 113.542169 27.363903 
L 114.395346 27.363903 
L 114.395346 27.707181 
L 114.928032 27.80526 
L 114.928032 27.903339 
L 115.641214 27.903339 
L 115.641214 28.148538 
L 116.162453 28.246617 
L 116.162453 28.344697 
L 116.718031 28.344697 
L 116.718031 28.540855 
L 117.079905 28.540855 
L 117.079905 28.687975 
L 117.919875 28.786054 
L 117.919875 28.982213 
L 118.137351 28.982213 
L 118.137351 29.129332 
L 121.963001 29.178372 
L 121.963001 30.502444 
L 122.681466 30.600523 
L 122.681466 30.698602 
L 123.427226 30.796682 
L 123.427226 31.04188 
L 124.113113 31.13996 
L 124.113113 31.238039 
L 124.46178 31.238039 
L 124.46178 31.385158 
L 124.967171 31.483238 
L 124.967171 31.581317 
L 126.041346 31.679397 
L 126.041346 31.973635 
L 126.376806 31.973635 
L 126.376806 32.120754 
L 127.077662 32.218833 
L 127.077662 32.365952 
L 128.129825 32.365952 
L 128.129825 32.75827 
L 128.491699 32.75827 
L 128.491699 32.856349 
L 129.894291 33.150588 
L 129.894291 33.395786 
L 130.249121 33.395786 
L 130.249121 33.542905 
L 130.777404 33.591945 
L 130.777404 33.739064 
L 131.338265 33.739064 
L 131.338265 33.935223 
L 132.006543 33.935223 
L 132.006543 34.180421 
L 132.537467 34.278501 
L 132.537467 34.37658 
L 133.235681 34.47466 
L 133.235681 34.572739 
L 133.768367 34.572739 
L 133.768367 34.817938 
L 134.305455 34.916017 
L 134.305455 35.014096 
L 134.858391 35.014096 
L 134.858391 35.259295 
L 135.880619 35.308335 
L 135.880619 35.553533 
L 136.409782 35.553533 
L 136.409782 35.749692 
L 136.939826 35.847771 
L 136.939826 35.99489 
L 137.298178 35.99489 
L 137.298178 36.09297 
L 138.55197 36.387208 
L 138.55197 36.534327 
L 139.063524 36.632407 
L 139.063524 36.730486 
L 139.572437 36.828565 
L 139.572437 36.926645 
L 140.278575 36.975684 
L 140.278575 37.073764 
L 141.20131 37.171843 
L 141.20131 37.220883 
L 141.379165 37.220883 
L 141.379165 37.269923 
L 142.070335 37.417042 
L 160.554079 37.417042 
L 160.554079 37.417042 
" style="fill:none;stroke:#1f77b4;stroke-linecap:square;"/>
   </g>
   <g id="line2d_20">
    <path clip-path="url(#p93d987ac87)" d="M 28.743051 9.160757 
L 50.061034 9.021484 
L 62.729262 9.102792 
L 62.896552 9.27806 
L 64.024436 9.363585 
L 64.38719 9.80661 
L 65.075719 9.856238 
L 65.259738 10.101731 
L 65.782738 10.201428 
L 66.482713 10.403178 
L 66.865719 10.40563 
L 67.213505 10.746211 
L 67.578901 10.750183 
L 67.712732 10.939427 
L 68.672447 11.232782 
L 68.975329 11.242836 
L 69.144379 11.480139 
L 69.883976 11.501814 
L 70.001079 11.822877 
L 70.373518 11.834402 
L 70.588353 12.020998 
L 71.093744 12.071263 
L 71.425682 12.170569 
L 72.303512 12.656994 
L 72.650418 12.707455 
L 72.993802 12.862127 
L 73.521205 12.962364 
L 73.877796 13.157934 
L 74.418405 13.394845 
L 75.685404 13.537354 
L 75.828041 13.788487 
L 76.193437 13.809279 
L 76.375694 14.084735 
L 76.941838 14.185855 
L 77.161075 14.293399 
L 77.728099 14.33067 
L 77.865452 14.625643 
L 78.416628 14.740102 
L 78.759131 14.838476 
L 79.452943 14.897863 
L 79.630798 15.26517 
L 79.971541 15.366633 
L 80.147635 15.516744 
L 80.52976 15.56441 
L 80.867861 15.729184 
L 81.236779 15.810492 
L 81.581924 15.930492 
L 83.49607 16.645147 
L 83.843856 16.744159 
L 84.194284 16.86666 
L 84.72873 16.936836 
L 84.898661 17.186742 
L 85.272862 17.234016 
L 85.428705 17.381822 
L 85.992207 17.554 
L 86.311818 17.650707 
L 86.525773 17.676796 
L 86.836579 17.848288 
L 93.738598 20.181597 
L 93.906768 20.209206 
L 94.251913 20.507269 
L 98.665718 22.128767 
L 99.19312 22.340717 
L 101.119593 22.933018 
L 102.711486 23.291155 
L 102.884058 23.677196 
L 103.738116 23.976779 
L 104.139611 24.194761 
L 104.811411 24.428043 
L 107.280254 25.343074 
L 108.887995 25.926892 
L 109.234901 26.064792 
L 111.495953 26.873211 
L 112.055933 27.009885 
L 112.574531 27.287597 
L 114.338115 27.869257 
L 115.010796 28.139809 
L 118.386525 29.387428 
L 121.713828 30.59861 
L 126.120589 32.260762 
L 126.637426 32.419847 
L 129.302614 33.320098 
L 129.808885 33.59627 
L 135.440383 35.607987 
L 137.911867 36.49637 
L 138.808187 36.856033 
L 140.048772 37.183743 
L 140.588501 37.287813 
L 140.938929 37.318068 
L 150.408403 40.390795 
L 156.569944 42.755749 
L 160.448423 44.44193 
L 160.448423 44.44193 
" style="fill:none;stroke:#ff7f0e;stroke-linecap:square;"/>
   </g>
   <g id="patch_3">
    <path d="M 22.1525 46.215356 
L 22.1525 7.2 
" style="fill:none;stroke:#000000;stroke-linecap:square;stroke-linejoin:miter;stroke-width:0.3;"/>
   </g>
   <g id="patch_4">
    <path d="M 167.144631 46.215356 
L 167.144631 7.2 
" style="fill:none;stroke:#000000;stroke-linecap:square;stroke-linejoin:miter;stroke-width:0.3;"/>
   </g>
   <g id="patch_5">
    <path d="M 22.1525 46.215356 
L 167.144631 46.215356 
" style="fill:none;stroke:#000000;stroke-linecap:square;stroke-linejoin:miter;stroke-width:0.3;"/>
   </g>
   <g id="patch_6">
    <path d="M 22.1525 7.2 
L 167.144631 7.2 
" style="fill:none;stroke:#000000;stroke-linecap:square;stroke-linejoin:miter;stroke-width:0.3;"/>
   </g>
  </g>
  <g id="axes_2">
   <g id="patch_7">
    <path d="M 22.1525 100.836853 
L 167.144631 100.836853 
L 167.144631 61.821498 
L 22.1525 61.821498 
z
" style="fill:#ffffff;"/>
   </g>
   <g id="matplotlib.axis_3">
    <g id="xtick_8">
     <g id="line2d_21">
      <path clip-path="url(#p218bdd8a21)" d="M 28.593251 100.836853 
L 28.593251 61.821498 
" style="fill:none;opacity:0.1;stroke:#b0b0b0;stroke-linecap:square;stroke-width:0.1;"/>
     </g>
     <g id="line2d_22">
      <g>
       <use style="stroke:#000000;stroke-width:0.3;" x="28.593251" xlink:href="#m98db2ae5f2" y="100.836853"/>
      </g>
     </g>
     <g id="text_10">
      <!-- 65.0 -->
      <g transform="translate(21.913564 108.895916)scale(0.06 -0.06)">
       <use xlink:href="#DejaVuSans-36"/>
       <use x="63.623047" xlink:href="#DejaVuSans-35"/>
       <use x="127.246094" xlink:href="#DejaVuSans-2e"/>
       <use x="159.033203" xlink:href="#DejaVuSans-30"/>
      </g>
     </g>
    </g>
    <g id="xtick_9">
     <g id="line2d_23">
      <path clip-path="url(#p218bdd8a21)" d="M 50.622704 100.836853 
L 50.622704 61.821498 
" style="fill:none;opacity:0.1;stroke:#b0b0b0;stroke-linecap:square;stroke-width:0.1;"/>
     </g>
     <g id="line2d_24">
      <g>
       <use style="stroke:#000000;stroke-width:0.3;" x="50.622704" xlink:href="#m98db2ae5f2" y="100.836853"/>
      </g>
     </g>
     <g id="text_11">
      <!-- 67.5 -->
      <g transform="translate(43.943016 108.895916)scale(0.06 -0.06)">
       <use xlink:href="#DejaVuSans-36"/>
       <use x="63.623047" xlink:href="#DejaVuSans-37"/>
       <use x="127.246094" xlink:href="#DejaVuSans-2e"/>
       <use x="159.033203" xlink:href="#DejaVuSans-35"/>
      </g>
     </g>
    </g>
    <g id="xtick_10">
     <g id="line2d_25">
      <path clip-path="url(#p218bdd8a21)" d="M 72.652157 100.836853 
L 72.652157 61.821498 
" style="fill:none;opacity:0.1;stroke:#b0b0b0;stroke-linecap:square;stroke-width:0.1;"/>
     </g>
     <g id="line2d_26">
      <g>
       <use style="stroke:#000000;stroke-width:0.3;" x="72.652157" xlink:href="#m98db2ae5f2" y="100.836853"/>
      </g>
     </g>
     <g id="text_12">
      <!-- 70.0 -->
      <g transform="translate(65.972469 108.895916)scale(0.06 -0.06)">
       <use xlink:href="#DejaVuSans-37"/>
       <use x="63.623047" xlink:href="#DejaVuSans-30"/>
       <use x="127.246094" xlink:href="#DejaVuSans-2e"/>
       <use x="159.033203" xlink:href="#DejaVuSans-30"/>
      </g>
     </g>
    </g>
    <g id="xtick_11">
     <g id="line2d_27">
      <path clip-path="url(#p218bdd8a21)" d="M 94.681609 100.836853 
L 94.681609 61.821498 
" style="fill:none;opacity:0.1;stroke:#b0b0b0;stroke-linecap:square;stroke-width:0.1;"/>
     </g>
     <g id="line2d_28">
      <g>
       <use style="stroke:#000000;stroke-width:0.3;" x="94.681609" xlink:href="#m98db2ae5f2" y="100.836853"/>
      </g>
     </g>
     <g id="text_13">
      <!-- 72.5 -->
      <g transform="translate(88.001922 108.895916)scale(0.06 -0.06)">
       <use xlink:href="#DejaVuSans-37"/>
       <use x="63.623047" xlink:href="#DejaVuSans-32"/>
       <use x="127.246094" xlink:href="#DejaVuSans-2e"/>
       <use x="159.033203" xlink:href="#DejaVuSans-35"/>
      </g>
     </g>
    </g>
    <g id="xtick_12">
     <g id="line2d_29">
      <path clip-path="url(#p218bdd8a21)" d="M 116.711062 100.836853 
L 116.711062 61.821498 
" style="fill:none;opacity:0.1;stroke:#b0b0b0;stroke-linecap:square;stroke-width:0.1;"/>
     </g>
     <g id="line2d_30">
      <g>
       <use style="stroke:#000000;stroke-width:0.3;" x="116.711062" xlink:href="#m98db2ae5f2" y="100.836853"/>
      </g>
     </g>
     <g id="text_14">
      <!-- 75.0 -->
      <g transform="translate(110.031375 108.895916)scale(0.06 -0.06)">
       <use xlink:href="#DejaVuSans-37"/>
       <use x="63.623047" xlink:href="#DejaVuSans-35"/>
       <use x="127.246094" xlink:href="#DejaVuSans-2e"/>
       <use x="159.033203" xlink:href="#DejaVuSans-30"/>
      </g>
     </g>
    </g>
    <g id="xtick_13">
     <g id="line2d_31">
      <path clip-path="url(#p218bdd8a21)" d="M 138.740515 100.836853 
L 138.740515 61.821498 
" style="fill:none;opacity:0.1;stroke:#b0b0b0;stroke-linecap:square;stroke-width:0.1;"/>
     </g>
     <g id="line2d_32">
      <g>
       <use style="stroke:#000000;stroke-width:0.3;" x="138.740515" xlink:href="#m98db2ae5f2" y="100.836853"/>
      </g>
     </g>
     <g id="text_15">
      <!-- 77.5 -->
      <g transform="translate(132.060828 108.895916)scale(0.06 -0.06)">
       <use xlink:href="#DejaVuSans-37"/>
       <use x="63.623047" xlink:href="#DejaVuSans-37"/>
       <use x="127.246094" xlink:href="#DejaVuSans-2e"/>
       <use x="159.033203" xlink:href="#DejaVuSans-35"/>
      </g>
     </g>
    </g>
    <g id="xtick_14">
     <g id="line2d_33">
      <path clip-path="url(#p218bdd8a21)" d="M 160.769968 100.836853 
L 160.769968 61.821498 
" style="fill:none;opacity:0.1;stroke:#b0b0b0;stroke-linecap:square;stroke-width:0.1;"/>
     </g>
     <g id="line2d_34">
      <g>
       <use style="stroke:#000000;stroke-width:0.3;" x="160.769968" xlink:href="#m98db2ae5f2" y="100.836853"/>
      </g>
     </g>
     <g id="text_16">
      <!-- 80.0 -->
      <g transform="translate(154.09028 108.895916)scale(0.06 -0.06)">
       <use xlink:href="#DejaVuSans-38"/>
       <use x="63.623047" xlink:href="#DejaVuSans-30"/>
       <use x="127.246094" xlink:href="#DejaVuSans-2e"/>
       <use x="159.033203" xlink:href="#DejaVuSans-30"/>
      </g>
     </g>
    </g>
   </g>
   <g id="matplotlib.axis_4">
    <g id="ytick_3">
     <g id="line2d_35">
      <path clip-path="url(#p218bdd8a21)" d="M 22.1525 98.594036 
L 167.144631 98.594036 
" style="fill:none;opacity:0.1;stroke:#b0b0b0;stroke-linecap:square;stroke-width:0.1;"/>
     </g>
     <g id="line2d_36">
      <g>
       <use style="stroke:#000000;stroke-width:0.3;" x="22.1525" xlink:href="#mec4e3145dc" y="98.594036"/>
      </g>
     </g>
     <g id="text_17">
      <!-- 0 -->
      <g transform="translate(14.835 100.873567)scale(0.06 -0.06)">
       <use xlink:href="#DejaVuSans-30"/>
      </g>
     </g>
    </g>
    <g id="ytick_4">
     <g id="line2d_37">
      <path clip-path="url(#p218bdd8a21)" d="M 22.1525 78.245715 
L 167.144631 78.245715 
" style="fill:none;opacity:0.1;stroke:#b0b0b0;stroke-linecap:square;stroke-width:0.1;"/>
     </g>
     <g id="line2d_38">
      <g>
       <use style="stroke:#000000;stroke-width:0.3;" x="22.1525" xlink:href="#mec4e3145dc" y="78.245715"/>
      </g>
     </g>
     <g id="text_18">
      <!-- 200 -->
      <g transform="translate(7.2 80.525246)scale(0.06 -0.06)">
       <use xlink:href="#DejaVuSans-32"/>
       <use x="63.623047" xlink:href="#DejaVuSans-30"/>
       <use x="127.246094" xlink:href="#DejaVuSans-30"/>
      </g>
     </g>
    </g>
   </g>
   <g id="line2d_39">
    <path clip-path="url(#p218bdd8a21)" d="M 29.260303 64.001889 
L 29.450637 64.001889 
L 29.450637 63.900148 
L 35.960781 63.696665 
L 35.960781 63.696665 
L 46.188616 63.798406 
L 46.188616 63.900148 
L 54.514868 63.798406 
L 54.514868 63.696665 
L 62.92395 63.798406 
L 62.92395 63.900148 
L 64.248361 64.001889 
L 64.248361 64.408856 
L 65.289032 64.510598 
L 65.289032 64.714081 
L 66.045083 64.815822 
L 66.045083 64.917564 
L 66.170211 64.917564 
L 66.170211 64.917564 
L 67.743995 65.222789 
L 67.743995 65.426272 
L 68.298256 65.528014 
L 68.298256 65.629755 
L 69.17679 65.629755 
L 69.17679 65.833238 
L 70.034177 65.833238 
L 70.034177 66.036722 
L 70.621922 66.036722 
L 70.621922 66.240205 
L 71.844998 66.341946 
L 71.844998 66.443688 
L 72.338457 66.54543 
L 72.338457 66.647171 
L 73.388822 66.748913 
L 73.388822 66.850655 
L 73.777421 66.850655 
L 73.777421 67.054138 
L 74.455047 67.155879 
L 74.455047 67.257621 
L 75.865813 67.359363 
L 75.865813 67.562846 
L 76.413906 67.562846 
L 76.413906 67.868071 
L 77.904859 67.969812 
L 77.904859 68.275037 
L 79.671622 68.376779 
L 79.671622 68.783745 
L 80.188873 68.885487 
L 80.188873 68.987228 
L 80.790718 69.08897 
L 80.790718 69.190711 
L 81.811122 69.292453 
L 81.811122 69.394195 
L 82.335423 69.495936 
L 82.335423 69.597678 
L 82.84915 69.69942 
L 82.84915 69.801161 
L 83.539993 69.902903 
L 83.539993 70.004644 
L 84.081918 70.106386 
L 84.081918 70.106386 
L 85.474179 70.411611 
L 85.474179 70.615094 
L 86.179122 70.716836 
L 86.179122 70.818577 
L 87.110527 70.920319 
L 87.110527 71.02206 
L 87.937072 71.123802 
L 87.937072 71.327285 
L 88.821775 71.429027 
L 88.821775 71.530768 
L 89.377798 71.63251 
L 89.377798 71.734252 
L 89.879189 71.835993 
L 89.879189 71.937735 
L 90.765654 71.937735 
L 90.765654 72.24296 
L 91.650357 72.344701 
L 91.650357 72.446443 
L 92.555327 72.548185 
L 92.555327 72.751668 
L 92.887531 72.751668 
L 92.887531 72.853409 
L 94.159071 72.955151 
L 94.159071 73.260376 
L 94.988259 73.362117 
L 94.988259 73.463859 
L 95.555738 73.565601 
L 95.555738 73.667342 
L 96.398144 73.667342 
L 96.398144 73.870825 
L 96.962098 73.972567 
L 96.962098 74.074309 
L 97.859138 74.17605 
L 97.859138 74.277792 
L 98.416924 74.379533 
L 98.416924 74.481275 
L 99.046966 74.481275 
L 99.046966 74.684758 
L 99.586247 74.7865 
L 99.586247 74.888242 
L 102.943535 74.989983 
L 102.943535 75.905658 
L 103.97892 76.007399 
L 103.97892 76.210882 
L 104.872434 76.312624 
L 104.872434 76.516107 
L 105.743038 76.516107 
L 105.743038 76.71959 
L 106.476179 76.821332 
L 106.476179 76.923074 
L 107.010172 77.024815 
L 107.010172 77.126557 
L 107.879014 77.228298 
L 107.879014 77.33004 
L 108.415652 77.431782 
L 108.415652 77.533523 
L 109.087109 77.635265 
L 109.087109 77.737007 
L 109.97005 77.838748 
L 109.97005 77.94049 
L 110.533123 78.042231 
L 110.533123 78.143973 
L 111.248639 78.245715 
L 111.248639 78.449198 
L 112.260232 78.550939 
L 112.260232 78.754423 
L 113.169607 78.856164 
L 113.169607 78.957906 
L 114.023469 78.957906 
L 114.023469 79.263131 
L 115.270336 79.364872 
L 115.270336 79.568355 
L 116.348017 79.670097 
L 116.348017 79.87358 
L 117.019475 79.975322 
L 117.019475 80.077064 
L 117.550825 80.077064 
L 117.550825 80.280547 
L 121.597195 80.382288 
L 121.597195 81.603188 
L 122.531244 81.704929 
L 122.531244 81.908412 
L 123.363957 82.010154 
L 123.363957 82.213637 
L 124.097978 82.213637 
L 124.097978 82.41712 
L 124.830237 82.518862 
L 124.830237 82.620604 
L 125.678812 82.620604 
L 125.678812 83.02757 
L 126.715959 83.129312 
L 126.715959 83.231053 
L 127.768966 83.231053 
L 127.768966 83.63802 
L 128.131131 83.63802 
L 128.131131 83.63802 
L 129.534847 83.943245 
L 129.534847 84.146728 
L 130.267106 84.248469 
L 130.267106 84.350211 
L 130.979979 84.451953 
L 130.979979 84.553694 
L 131.648794 84.553694 
L 131.648794 84.757177 
L 132.180144 84.858919 
L 132.180144 84.960661 
L 133.412031 85.062402 
L 133.412031 85.265886 
L 133.94955 85.367627 
L 133.94955 85.469369 
L 134.828965 85.57111 
L 134.828965 85.672852 
L 135.525977 85.672852 
L 135.525977 85.876335 
L 136.264405 85.978077 
L 136.264405 86.079818 
L 136.944674 86.18156 
L 136.944674 86.283302 
L 138.199472 86.486785 
L 138.199472 86.588526 
L 138.711436 86.690268 
L 138.711436 86.79201 
L 139.573228 86.893751 
L 139.573228 86.995493 
L 140.454407 87.097234 
L 140.454407 87.198976 
L 141.028935 87.300718 
L 141.028935 87.300718 
L 141.516226 98.695778 
L 160.554079 98.695778 
L 160.554079 98.695778 
" style="fill:none;stroke:#1f77b4;stroke-linecap:square;"/>
   </g>
   <g id="line2d_40">
    <path clip-path="url(#p218bdd8a21)" d="M 28.743051 63.984899 
L 29.830425 63.888651 
L 32.253665 63.7922 
L 32.634334 63.696054 
L 36.679823 63.706025 
L 36.849009 63.604792 
L 37.232321 63.707144 
L 37.365379 63.600621 
L 39.659086 63.701548 
L 40.189555 63.724949 
L 40.358741 63.598484 
L 40.715618 63.699819 
L 44.244737 63.695749 
L 44.590159 63.811836 
L 46.004449 63.794744 
L 46.378069 63.895366 
L 50.778672 63.890991 
L 50.931116 63.794438 
L 51.326765 63.884887 
L 54.283999 63.808784 
L 54.642638 63.702871 
L 56.754822 63.711417 
L 57.107294 63.811226 
L 60.098012 63.805426 
L 63.11076 63.9032 
L 63.270253 63.999448 
L 64.05274 63.983881 
L 64.248361 64.414248 
L 64.617575 64.51599 
L 65.104866 64.500932 
L 65.289032 64.706348 
L 65.492585 64.693936 
L 65.637098 64.812465 
L 65.812452 64.807581 
L 66.170211 64.918378 
L 66.896301 64.914512 
L 67.244367 65.206815 
L 67.610056 65.182804 
L 67.743995 65.416301 
L 68.490352 65.596282 
L 69.007604 65.586515 
L 69.17679 65.818791 
L 69.91698 65.74686 
L 70.034177 66.021053 
L 70.406915 65.977712 
L 70.621922 66.223112 
L 71.127719 66.209988 
L 71.270469 66.32465 
L 71.69696 66.32404 
L 71.844998 66.425985 
L 72.015065 66.406247 
L 72.338457 66.62723 
L 72.685641 66.629265 
L 73.029301 66.708216 
L 73.216992 66.68217 
L 73.388822 66.828882 
L 73.557127 66.806092 
L 73.777421 67.032467 
L 73.914004 67.010185 
L 74.085833 67.132682 
L 74.264713 67.106535 
L 74.455047 67.233101 
L 74.664768 67.208175 
L 75.00314 67.309102 
L 75.723062 67.212041 
L 75.865813 67.537512 
L 76.231502 67.478095 
L 76.413906 67.8406 
L 76.599835 67.810281 
L 77.199917 67.913142 
L 77.767396 67.818929 
L 77.904859 68.250314 
L 78.121629 68.218062 
L 78.296984 68.347274 
L 79.493624 68.183877 
L 79.671622 68.758004 
L 79.891035 68.737961 
L 80.188873 68.976138 
L 80.403881 68.966371 
L 80.909677 69.176061 
L 81.27889 69.178401 
L 81.422522 69.277701 
L 81.624312 69.265797 
L 82.335423 69.592896 
L 82.650885 69.687516 
L 83.213958 69.895374 
L 83.394599 69.887031 
L 83.719754 69.989587 
L 84.081918 70.102316 
L 84.773643 70.065791 
L 84.94371 70.404794 
L 85.318211 70.393603 
L 85.474179 70.608583 
L 86.038133 70.710528 
L 86.358001 70.812371 
L 86.883183 70.908822 
L 87.4489 71.124209 
L 87.767005 71.119631 
L 88.149436 71.435538 
L 88.821775 71.528327 
L 89.377798 71.739949 
L 89.739081 71.843929 
L 90.055424 71.941805 
L 90.612329 71.94679 
L 90.765654 72.246317 
L 91.508487 72.358436 
L 91.993135 72.557545 
L 92.345606 72.574637 
L 92.698959 72.773135 
L 93.050549 72.878031 
L 93.959043 72.944773 
L 94.159071 73.278181 
L 94.820836 73.391114 
L 95.555738 73.686164 
L 96.229839 73.748939 
L 96.398144 73.887918 
L 96.752378 73.985997 
L 97.306639 74.198128 
L 98.164907 74.399373 
L 98.721811 74.548628 
L 98.868968 74.568264 
L 99.249637 74.734408 
L 99.937837 75.015622 
L 100.848975 75.136389 
L 102.770825 75.461352 
L 102.943535 75.939131 
L 104.200095 76.297058 
L 104.529656 76.396663 
L 104.682981 76.352507 
L 105.037215 76.609099 
L 105.448725 76.614797 
L 111.410776 78.582479 
L 111.946532 78.682593 
L 114.235833 79.400278 
L 114.406782 79.331603 
L 115.080002 79.618616 
L 115.46772 79.73806 
L 115.66246 79.809483 
L 115.791994 79.729616 
L 117.550825 80.347391 
L 117.901534 80.524625 
L 118.254886 80.526253 
L 120.560048 81.408861 
L 121.554898 81.793037 
L 121.597195 81.656195 
L 122.139119 81.851742 
L 122.316236 81.778997 
L 122.836131 82.134177 
L 123.214157 82.168871 
L 123.57544 82.36279 
L 123.749032 82.286993 
L 126.198707 83.287215 
L 126.393447 83.207246 
L 127.961944 83.795719 
L 128.131131 83.717073 
L 130.794932 84.691859 
L 130.979979 84.639259 
L 132.03475 85.013566 
L 133.234914 85.268836 
L 134.655373 85.730438 
L 135.170863 85.899329 
L 135.918102 86.101489 
L 136.055565 86.052043 
L 136.813379 86.344448 
L 137.122672 86.447004 
L 137.687507 86.699221 
L 137.849644 86.563294 
L 138.896484 86.955203 
L 139.081531 86.87381 
L 139.463962 87.071799 
L 140.138064 87.178119 
L 140.678226 87.36451 
L 141.172567 87.464623 
L 142.923468 88.245388 
L 148.953369 91.285245 
L 149.976417 91.887087 
L 152.136185 93.030591 
L 154.57881 94.629634 
L 156.67249 96.076155 
L 158.622537 97.54448 
L 160.554079 99.063428 
L 160.554079 99.063428 
" style="fill:none;stroke:#ff7f0e;stroke-linecap:square;"/>
   </g>
   <g id="patch_8">
    <path d="M 22.1525 100.836853 
L 22.1525 61.821498 
" style="fill:none;stroke:#000000;stroke-linecap:square;stroke-linejoin:miter;stroke-width:0.3;"/>
   </g>
   <g id="patch_9">
    <path d="M 167.144631 100.836853 
L 167.144631 61.821498 
" style="fill:none;stroke:#000000;stroke-linecap:square;stroke-linejoin:miter;stroke-width:0.3;"/>
   </g>
   <g id="patch_10">
    <path d="M 22.1525 100.836853 
L 167.144631 100.836853 
" style="fill:none;stroke:#000000;stroke-linecap:square;stroke-linejoin:miter;stroke-width:0.3;"/>
   </g>
   <g id="patch_11">
    <path d="M 22.1525 61.821498 
L 167.144631 61.821498 
" style="fill:none;stroke:#000000;stroke-linecap:square;stroke-linejoin:miter;stroke-width:0.3;"/>
   </g>
  </g>
 </g>
 <defs>
  <clipPath id="p93d987ac87">
   <rect height="39.015356" width="144.992131" x="22.1525" y="7.2"/>
  </clipPath>
  <clipPath id="p218bdd8a21">
   <rect height="39.015356" width="144.992131" x="22.1525" y="61.821498"/>
  </clipPath>
 </defs>
</svg>
