<?xml version="1.0" encoding="utf-8" standalone="no"?>
<!DOCTYPE svg PUBLIC "-//W3C//DTD SVG 1.1//EN"
  "http://www.w3.org/Graphics/SVG/1.1/DTD/svg11.dtd">
<!-- Created with matplotlib (http://matplotlib.org/) -->
<svg height="330pt" version="1.1" viewBox="0 0 541 330" width="541pt" xmlns="http://www.w3.org/2000/svg" xmlns:xlink="http://www.w3.org/1999/xlink">
 <defs>
  <style type="text/css">
*{stroke-linecap:butt;stroke-linejoin:round;}
  </style>
 </defs>
 <g id="figure_1">
  <g id="patch_1">
   <path d="M 0 330.290009 
L 541.686906 330.290009 
L 541.686906 0 
L 0 0 
z
" style="fill:#ffffff;"/>
  </g>
  <g id="axes_1">
   <g id="patch_2">
    <path d="M 33.605 133.798616 
L 534.486906 133.798616 
L 534.486906 9.386013 
L 33.605 9.386013 
z
" style="fill:#ffffff;"/>
   </g>
   <g id="matplotlib.axis_1">
    <g id="xtick_1">
     <g id="line2d_1">
      <defs>
       <path d="M 0 0 
L 0 -2 
" id="me5c70cf6d9" style="stroke:#000000;stroke-width:0.3;"/>
      </defs>
      <g>
       <use style="stroke:#000000;stroke-width:0.3;" x="86.27158" xlink:href="#me5c70cf6d9" y="133.798616"/>
      </g>
     </g>
     <g id="text_1">
      <!-- 66 -->
      <defs>
       <path d="M 33.015625 40.375 
Q 26.375 40.375 22.484375 35.828125 
Q 18.609375 31.296875 18.609375 23.390625 
Q 18.609375 15.53125 22.484375 10.953125 
Q 26.375 6.390625 33.015625 6.390625 
Q 39.65625 6.390625 43.53125 10.953125 
Q 47.40625 15.53125 47.40625 23.390625 
Q 47.40625 31.296875 43.53125 35.828125 
Q 39.65625 40.375 33.015625 40.375 
z
M 52.59375 71.296875 
L 52.59375 62.3125 
Q 48.875 64.0625 45.09375 64.984375 
Q 41.3125 65.921875 37.59375 65.921875 
Q 27.828125 65.921875 22.671875 59.328125 
Q 17.53125 52.734375 16.796875 39.40625 
Q 19.671875 43.65625 24.015625 45.921875 
Q 28.375 48.1875 33.59375 48.1875 
Q 44.578125 48.1875 50.953125 41.515625 
Q 57.328125 34.859375 57.328125 23.390625 
Q 57.328125 12.15625 50.6875 5.359375 
Q 44.046875 -1.421875 33.015625 -1.421875 
Q 20.359375 -1.421875 13.671875 8.265625 
Q 6.984375 17.96875 6.984375 36.375 
Q 6.984375 53.65625 15.1875 63.9375 
Q 23.390625 74.21875 37.203125 74.21875 
Q 40.921875 74.21875 44.703125 73.484375 
Q 48.484375 72.75 52.59375 71.296875 
z
" id="DejaVuSans-36"/>
      </defs>
      <g transform="translate(78.63658 146.416741)scale(0.12 -0.12)">
       <use xlink:href="#DejaVuSans-36"/>
       <use x="63.623047" xlink:href="#DejaVuSans-36"/>
      </g>
     </g>
    </g>
    <g id="xtick_2">
     <g id="line2d_2">
      <g>
       <use style="stroke:#000000;stroke-width:0.3;" x="147.104176" xlink:href="#me5c70cf6d9" y="133.798616"/>
      </g>
     </g>
     <g id="text_2">
      <!-- 68 -->
      <defs>
       <path d="M 31.78125 34.625 
Q 24.75 34.625 20.71875 30.859375 
Q 16.703125 27.09375 16.703125 20.515625 
Q 16.703125 13.921875 20.71875 10.15625 
Q 24.75 6.390625 31.78125 6.390625 
Q 38.8125 6.390625 42.859375 10.171875 
Q 46.921875 13.96875 46.921875 20.515625 
Q 46.921875 27.09375 42.890625 30.859375 
Q 38.875 34.625 31.78125 34.625 
z
M 21.921875 38.8125 
Q 15.578125 40.375 12.03125 44.71875 
Q 8.5 49.078125 8.5 55.328125 
Q 8.5 64.0625 14.71875 69.140625 
Q 20.953125 74.21875 31.78125 74.21875 
Q 42.671875 74.21875 48.875 69.140625 
Q 55.078125 64.0625 55.078125 55.328125 
Q 55.078125 49.078125 51.53125 44.71875 
Q 48 40.375 41.703125 38.8125 
Q 48.828125 37.15625 52.796875 32.3125 
Q 56.78125 27.484375 56.78125 20.515625 
Q 56.78125 9.90625 50.3125 4.234375 
Q 43.84375 -1.421875 31.78125 -1.421875 
Q 19.734375 -1.421875 13.25 4.234375 
Q 6.78125 9.90625 6.78125 20.515625 
Q 6.78125 27.484375 10.78125 32.3125 
Q 14.796875 37.15625 21.921875 38.8125 
z
M 18.3125 54.390625 
Q 18.3125 48.734375 21.84375 45.5625 
Q 25.390625 42.390625 31.78125 42.390625 
Q 38.140625 42.390625 41.71875 45.5625 
Q 45.3125 48.734375 45.3125 54.390625 
Q 45.3125 60.0625 41.71875 63.234375 
Q 38.140625 66.40625 31.78125 66.40625 
Q 25.390625 66.40625 21.84375 63.234375 
Q 18.3125 60.0625 18.3125 54.390625 
z
" id="DejaVuSans-38"/>
      </defs>
      <g transform="translate(139.469176 146.416741)scale(0.12 -0.12)">
       <use xlink:href="#DejaVuSans-36"/>
       <use x="63.623047" xlink:href="#DejaVuSans-38"/>
      </g>
     </g>
    </g>
    <g id="xtick_3">
     <g id="line2d_3">
      <g>
       <use style="stroke:#000000;stroke-width:0.3;" x="207.936772" xlink:href="#me5c70cf6d9" y="133.798616"/>
      </g>
     </g>
     <g id="text_3">
      <!-- 70 -->
      <defs>
       <path d="M 8.203125 72.90625 
L 55.078125 72.90625 
L 55.078125 68.703125 
L 28.609375 0 
L 18.3125 0 
L 43.21875 64.59375 
L 8.203125 64.59375 
z
" id="DejaVuSans-37"/>
       <path d="M 31.78125 66.40625 
Q 24.171875 66.40625 20.328125 58.90625 
Q 16.5 51.421875 16.5 36.375 
Q 16.5 21.390625 20.328125 13.890625 
Q 24.171875 6.390625 31.78125 6.390625 
Q 39.453125 6.390625 43.28125 13.890625 
Q 47.125 21.390625 47.125 36.375 
Q 47.125 51.421875 43.28125 58.90625 
Q 39.453125 66.40625 31.78125 66.40625 
z
M 31.78125 74.21875 
Q 44.046875 74.21875 50.515625 64.515625 
Q 56.984375 54.828125 56.984375 36.375 
Q 56.984375 17.96875 50.515625 8.265625 
Q 44.046875 -1.421875 31.78125 -1.421875 
Q 19.53125 -1.421875 13.0625 8.265625 
Q 6.59375 17.96875 6.59375 36.375 
Q 6.59375 54.828125 13.0625 64.515625 
Q 19.53125 74.21875 31.78125 74.21875 
z
" id="DejaVuSans-30"/>
      </defs>
      <g transform="translate(200.301772 146.416741)scale(0.12 -0.12)">
       <use xlink:href="#DejaVuSans-37"/>
       <use x="63.623047" xlink:href="#DejaVuSans-30"/>
      </g>
     </g>
    </g>
    <g id="xtick_4">
     <g id="line2d_4">
      <g>
       <use style="stroke:#000000;stroke-width:0.3;" x="268.769367" xlink:href="#me5c70cf6d9" y="133.798616"/>
      </g>
     </g>
     <g id="text_4">
      <!-- 72 -->
      <defs>
       <path d="M 19.1875 8.296875 
L 53.609375 8.296875 
L 53.609375 0 
L 7.328125 0 
L 7.328125 8.296875 
Q 12.9375 14.109375 22.625 23.890625 
Q 32.328125 33.6875 34.8125 36.53125 
Q 39.546875 41.84375 41.421875 45.53125 
Q 43.3125 49.21875 43.3125 52.78125 
Q 43.3125 58.59375 39.234375 62.25 
Q 35.15625 65.921875 28.609375 65.921875 
Q 23.96875 65.921875 18.8125 64.3125 
Q 13.671875 62.703125 7.8125 59.421875 
L 7.8125 69.390625 
Q 13.765625 71.78125 18.9375 73 
Q 24.125 74.21875 28.421875 74.21875 
Q 39.75 74.21875 46.484375 68.546875 
Q 53.21875 62.890625 53.21875 53.421875 
Q 53.21875 48.921875 51.53125 44.890625 
Q 49.859375 40.875 45.40625 35.40625 
Q 44.1875 33.984375 37.640625 27.21875 
Q 31.109375 20.453125 19.1875 8.296875 
z
" id="DejaVuSans-32"/>
      </defs>
      <g transform="translate(261.134367 146.416741)scale(0.12 -0.12)">
       <use xlink:href="#DejaVuSans-37"/>
       <use x="63.623047" xlink:href="#DejaVuSans-32"/>
      </g>
     </g>
    </g>
    <g id="xtick_5">
     <g id="line2d_5">
      <g>
       <use style="stroke:#000000;stroke-width:0.3;" x="329.601963" xlink:href="#me5c70cf6d9" y="133.798616"/>
      </g>
     </g>
     <g id="text_5">
      <!-- 74 -->
      <defs>
       <path d="M 37.796875 64.3125 
L 12.890625 25.390625 
L 37.796875 25.390625 
z
M 35.203125 72.90625 
L 47.609375 72.90625 
L 47.609375 25.390625 
L 58.015625 25.390625 
L 58.015625 17.1875 
L 47.609375 17.1875 
L 47.609375 0 
L 37.796875 0 
L 37.796875 17.1875 
L 4.890625 17.1875 
L 4.890625 26.703125 
z
" id="DejaVuSans-34"/>
      </defs>
      <g transform="translate(321.966963 146.416741)scale(0.12 -0.12)">
       <use xlink:href="#DejaVuSans-37"/>
       <use x="63.623047" xlink:href="#DejaVuSans-34"/>
      </g>
     </g>
    </g>
    <g id="xtick_6">
     <g id="line2d_6">
      <g>
       <use style="stroke:#000000;stroke-width:0.3;" x="390.434559" xlink:href="#me5c70cf6d9" y="133.798616"/>
      </g>
     </g>
     <g id="text_6">
      <!-- 76 -->
      <g transform="translate(382.799559 146.416741)scale(0.12 -0.12)">
       <use xlink:href="#DejaVuSans-37"/>
       <use x="63.623047" xlink:href="#DejaVuSans-36"/>
      </g>
     </g>
    </g>
    <g id="xtick_7">
     <g id="line2d_7">
      <g>
       <use style="stroke:#000000;stroke-width:0.3;" x="451.267154" xlink:href="#me5c70cf6d9" y="133.798616"/>
      </g>
     </g>
     <g id="text_7">
      <!-- 78 -->
      <g transform="translate(443.632154 146.416741)scale(0.12 -0.12)">
       <use xlink:href="#DejaVuSans-37"/>
       <use x="63.623047" xlink:href="#DejaVuSans-38"/>
      </g>
     </g>
    </g>
    <g id="xtick_8">
     <g id="line2d_8">
      <g>
       <use style="stroke:#000000;stroke-width:0.3;" x="512.09975" xlink:href="#me5c70cf6d9" y="133.798616"/>
      </g>
     </g>
     <g id="text_8">
      <!-- 80 -->
      <g transform="translate(504.46475 146.416741)scale(0.12 -0.12)">
       <use xlink:href="#DejaVuSans-38"/>
       <use x="63.623047" xlink:href="#DejaVuSans-30"/>
      </g>
     </g>
    </g>
   </g>
   <g id="matplotlib.axis_2">
    <g id="ytick_1">
     <g id="line2d_9">
      <defs>
       <path d="M 0 0 
L 2 0 
" id="m1549534320" style="stroke:#000000;stroke-width:0.3;"/>
      </defs>
      <g>
       <use style="stroke:#000000;stroke-width:0.3;" x="33.605" xlink:href="#m1549534320" y="105.586076"/>
      </g>
     </g>
     <g id="text_9">
      <!-- 0 -->
      <g transform="translate(22.47 110.145138)scale(0.12 -0.12)">
       <use xlink:href="#DejaVuSans-30"/>
      </g>
     </g>
    </g>
    <g id="ytick_2">
     <g id="line2d_10">
      <g>
       <use style="stroke:#000000;stroke-width:0.3;" x="33.605" xlink:href="#m1549534320" y="74.310405"/>
      </g>
     </g>
     <g id="text_10">
      <!-- 200 -->
      <g transform="translate(7.2 78.869467)scale(0.12 -0.12)">
       <use xlink:href="#DejaVuSans-32"/>
       <use x="63.623047" xlink:href="#DejaVuSans-30"/>
       <use x="127.246094" xlink:href="#DejaVuSans-30"/>
      </g>
     </g>
    </g>
    <g id="ytick_3">
     <g id="line2d_11">
      <g>
       <use style="stroke:#000000;stroke-width:0.3;" x="33.605" xlink:href="#m1549534320" y="43.034734"/>
      </g>
     </g>
     <g id="text_11">
      <!-- 400 -->
      <g transform="translate(7.2 47.593796)scale(0.12 -0.12)">
       <use xlink:href="#DejaVuSans-34"/>
       <use x="63.623047" xlink:href="#DejaVuSans-30"/>
       <use x="127.246094" xlink:href="#DejaVuSans-30"/>
      </g>
     </g>
    </g>
    <g id="ytick_4">
     <g id="line2d_12">
      <g>
       <use style="stroke:#000000;stroke-width:0.3;" x="33.605" xlink:href="#m1549534320" y="11.759062"/>
      </g>
     </g>
     <g id="text_12">
      <!-- 600 -->
      <g transform="translate(7.2 16.318125)scale(0.12 -0.12)">
       <use xlink:href="#DejaVuSans-36"/>
       <use x="63.623047" xlink:href="#DejaVuSans-30"/>
       <use x="127.246094" xlink:href="#DejaVuSans-30"/>
      </g>
     </g>
    </g>
   </g>
   <g id="line2d_13">
    <path clip-path="url(#pb621a2198c)" d="M 56.679564 15.668521 
L 60.335603 15.668521 
L 60.335603 15.512143 
L 77.46302 15.512143 
L 77.46302 15.355765 
L 79.756409 15.355765 
L 79.756409 15.512143 
L 80.370818 15.512143 
L 80.370818 15.355765 
L 81.617887 15.355765 
L 81.617887 15.512143 
L 87.655522 15.512143 
L 87.655522 15.355765 
L 97.987938 15.355765 
L 97.987938 15.199386 
L 112.037226 15.199386 
L 112.037226 15.043008 
L 120.562914 15.043008 
L 120.562914 15.199386 
L 123.084425 15.199386 
L 123.084425 15.043008 
L 125.399106 15.043008 
L 125.399106 15.199386 
L 125.983099 15.199386 
L 125.983099 15.199386 
L 129.04602 15.043008 
L 129.04602 15.199386 
L 155.258785 15.199386 
L 155.258785 15.355765 
L 156.414605 15.355765 
L 156.414605 15.199386 
L 163.705391 15.199386 
L 163.705391 15.355765 
L 175.877994 15.355765 
L 175.877994 15.981278 
L 177.073354 15.981278 
L 177.073354 16.294035 
L 180.449563 16.294035 
L 180.449563 17.232305 
L 181.027473 17.232305 
L 181.027473 17.70144 
L 182.174167 17.70144 
L 182.174167 17.857818 
L 184.041728 17.857818 
L 184.041728 18.63971 
L 185.243172 18.63971 
L 185.243172 18.952467 
L 186.651446 18.952467 
L 186.651446 19.265224 
L 187.083358 19.265224 
L 187.083358 19.57798 
L 190.620773 20.359872 
L 190.620773 20.672629 
L 192.515709 20.672629 
L 192.515709 21.298142 
L 193.333907 21.298142 
L 193.333907 21.610899 
L 194.428894 21.610899 
L 194.428894 22.080034 
L 195.831085 22.080034 
L 195.831085 22.236412 
L 197.461399 22.236412 
L 197.461399 23.018304 
L 200.420904 23.018304 
L 200.420904 24.112953 
L 202.449671 24.112953 
L 202.449671 24.738466 
L 203.532492 24.738466 
L 203.532492 24.894844 
L 204.688311 24.894844 
L 204.688311 25.207601 
L 206.16046 25.207601 
L 206.16046 25.676736 
L 206.671454 25.676736 
L 206.671454 25.989493 
L 207.726899 25.989493 
L 207.726899 26.30225 
L 208.374766 26.30225 
L 208.374766 26.771385 
L 209.573168 26.771385 
L 209.573168 26.927763 
L 210.227119 26.927763 
L 210.227119 27.396898 
L 212.000389 27.396898 
L 212.000389 27.709655 
L 213.341748 27.709655 
L 213.341748 28.335168 
L 214.406318 28.335168 
L 214.406318 28.647925 
L 215.680761 28.647925 
L 215.680761 29.11706 
L 217.128577 29.11706 
L 217.128577 29.429817 
L 220.55041 29.742573 
L 220.55041 30.368087 
L 222.442304 30.368087 
L 222.442304 31.306357 
L 224.398072 31.306357 
L 224.398072 31.619114 
L 224.890816 31.619114 
L 224.890816 31.93187 
L 227.588742 31.93187 
L 227.588742 33.026519 
L 228.942267 33.026519 
L 228.942267 33.339276 
L 230.061587 33.339276 
L 230.061587 33.652032 
L 233.687209 33.652032 
L 233.687209 35.059437 
L 234.86432 35.059437 
L 234.86432 35.372194 
L 235.472646 35.372194 
L 235.472646 35.841329 
L 236.792713 35.841329 
L 236.792713 35.997708 
L 237.550079 35.997708 
L 237.550079 36.466843 
L 239.235142 36.466843 
L 239.235142 36.779599 
L 239.730928 36.779599 
L 239.730928 37.092356 
L 241.072286 37.092356 
L 241.072286 37.405113 
L 242.228106 37.405113 
L 242.228106 37.71787 
L 242.882056 37.71787 
L 242.882056 38.030626 
L 243.97096 38.030626 
L 243.97096 38.499761 
L 244.655326 38.499761 
L 244.655326 38.812518 
L 245.914561 38.812518 
L 245.914561 39.125275 
L 247.039964 39.125275 
L 247.039964 39.438031 
L 248.241408 39.438031 
L 248.241408 39.750788 
L 248.910566 39.750788 
L 248.910566 40.063545 
L 251.88528 40.845437 
L 251.88528 41.158193 
L 253.716341 41.158193 
L 253.716341 41.783707 
L 254.936035 41.783707 
L 254.936035 42.252842 
L 256.149645 42.252842 
L 256.149645 42.565599 
L 257.977665 42.565599 
L 257.977665 43.191112 
L 259.364648 43.191112 
L 259.364648 43.503869 
L 260.532634 43.503869 
L 260.532634 43.816625 
L 262.217697 43.816625 
L 262.217697 44.442139 
L 262.95073 44.442139 
L 262.95073 44.911274 
L 264.130882 44.911274 
L 264.130882 45.224031 
L 265.271493 45.224031 
L 265.271493 45.536787 
L 265.995401 45.536787 
L 265.995401 45.849544 
L 267.190761 45.849544 
L 267.190761 46.162301 
L 268.43783 46.162301 
L 268.43783 46.631436 
L 268.921449 46.631436 
L 268.921449 46.944193 
L 270.150267 46.944193 
L 270.150267 47.256949 
L 271.981328 47.256949 
L 271.981328 47.882463 
L 273.173647 47.882463 
L 273.173647 48.195219 
L 274.545422 48.195219 
L 274.545422 48.507976 
L 275.035125 48.507976 
L 275.035125 48.820733 
L 276.218319 48.820733 
L 276.218319 49.289868 
L 278.158878 49.289868 
L 278.158878 49.915381 
L 279.305573 49.915381 
L 279.305573 50.228138 
L 283.694645 50.540895 
L 283.694645 51.635543 
L 284.807881 51.635543 
L 284.807881 51.9483 
L 285.528747 51.9483 
L 285.528747 52.261057 
L 286.556818 52.261057 
L 286.556818 52.573813 
L 287.846469 52.573813 
L 287.846469 52.88657 
L 288.515628 52.88657 
L 288.515628 53.355705 
L 291.423426 53.355705 
L 291.423426 54.293975 
L 292.646161 54.293975 
L 292.646161 54.76311 
L 293.370069 54.76311 
L 293.370069 55.075867 
L 294.559346 55.075867 
L 294.559346 55.388624 
L 296.466448 55.388624 
L 296.466448 56.014137 
L 297.521894 56.014137 
L 297.521894 56.326894 
L 298.3918 56.326894 
L 298.3918 56.639651 
L 300.566565 56.639651 
L 300.566565 57.421542 
L 301.780175 57.421542 
L 301.780175 57.734299 
L 302.428043 57.734299 
L 302.428043 58.047056 
L 303.641653 58.047056 
L 303.641653 58.359812 
L 304.341228 58.359812 
L 304.341228 58.672569 
L 314.016652 58.672569 
L 314.016652 61.800136 
L 315.929837 61.800136 
L 315.929837 62.42565 
L 317.590567 62.42565 
L 317.590567 63.207541 
L 318.804177 63.207541 
L 318.804177 63.520298 
L 320.020829 63.520298 
L 320.020829 63.833055 
L 320.67478 63.833055 
L 320.67478 64.145812 
L 321.848849 64.145812 
L 321.848849 64.458568 
L 323.67991 64.458568 
L 323.67991 65.24046 
L 324.945228 65.24046 
L 324.945228 65.553217 
L 326.210546 65.553217 
L 326.210546 65.865974 
L 326.879704 65.865974 
L 326.879704 66.17873 
L 328.053773 66.17873 
L 328.053773 66.647865 
L 329.763169 66.647865 
L 329.763169 67.273379 
L 331.05282 67.273379 
L 331.05282 67.586135 
L 332.28468 67.586135 
L 332.28468 67.898892 
L 332.905173 67.898892 
L 332.905173 68.211649 
L 334.009285 68.211649 
L 334.009285 68.680784 
L 335.222895 68.680784 
L 335.222895 68.993541 
L 335.955928 68.993541 
L 335.955928 69.306297 
L 337.671407 69.306297 
L 337.671407 69.619054 
L 338.270608 69.619054 
L 338.270608 70.088189 
L 338.948891 70.088189 
L 338.948891 70.400946 
L 340.214209 70.400946 
L 340.214209 70.713703 
L 342.684013 71.182838 
L 342.684013 71.495594 
L 344.469449 71.495594 
L 344.469449 71.964729 
L 346.175804 71.964729 
L 346.175804 72.746621 
L 347.492829 72.746621 
L 347.492829 73.215756 
L 348.152863 73.215756 
L 348.152863 73.372135 
L 349.314766 73.372135 
L 349.314766 73.684891 
L 352.262105 73.684891 
L 352.262105 74.77954 
L 353.585214 74.77954 
L 353.585214 75.092297 
L 354.102291 75.092297 
L 354.102291 75.405053 
L 356.566011 75.405053 
L 356.566011 76.186945 
L 357.247336 76.186945 
L 357.247336 76.499702 
L 358.366656 76.499702 
L 358.366656 76.812458 
L 360.285924 76.812458 
L 360.285924 77.437972 
L 361.536034 77.437972 
L 361.536034 77.907107 
L 362.603646 77.907107 
L 362.603646 78.219864 
L 364.437749 78.219864 
L 364.437749 78.845377 
L 365.189032 78.845377 
L 365.189032 79.314512 
L 366.363101 79.314512 
L 366.363101 79.47089 
L 378.404913 79.47089 
L 378.404913 83.693106 
L 379.658064 83.693106 
L 379.658064 84.005863 
L 380.886883 84.005863 
L 380.886883 84.318619 
L 381.62904 84.318619 
L 381.62904 84.631376 
L 383.463143 84.631376 
L 383.463143 85.413268 
L 384.503381 85.413268 
L 384.503381 85.726025 
L 385.832573 85.726025 
L 385.832573 86.038781 
L 387.037058 86.038781 
L 387.037058 86.507916 
L 387.551094 86.507916 
L 387.551094 86.820673 
L 388.782954 86.820673 
L 388.782954 87.13343 
L 389.564653 87.13343 
L 389.564653 87.446187 
L 392.493742 87.446187 
L 392.493742 88.384457 
L 393.652603 88.384457 
L 393.652603 88.853592 
L 394.960504 88.853592 
L 394.960504 89.166349 
L 396.07374 89.166349 
L 396.07374 89.635484 
L 399.708488 89.635484 
L 399.708488 90.88651 
L 400.958598 90.88651 
L 400.958598 91.199267 
L 404.07931 91.824781 
L 404.07931 92.137537 
L 405.803914 92.137537 
L 405.803914 92.919429 
L 407.029691 92.919429 
L 407.029691 93.388564 
L 408.331508 93.388564 
L 408.331508 93.544942 
L 408.854669 93.544942 
L 408.854669 94.014078 
L 410.792187 94.014078 
L 410.792187 94.639591 
L 413.100784 94.639591 
L 413.100784 95.421483 
L 413.894649 95.421483 
L 413.894649 95.734239 
L 414.934887 95.734239 
L 414.934887 96.046996 
L 416.142414 96.046996 
L 416.142414 96.359753 
L 417.346899 96.359753 
L 417.346899 96.67251 
L 419.187085 96.67251 
L 419.187085 97.454401 
L 420.467611 97.454401 
L 420.467611 97.767158 
L 421.042479 97.767158 
L 421.042479 98.079915 
L 422.952623 98.079915 
L 422.952623 98.861807 
L 424.078026 98.861807 
L 424.078026 99.018185 
L 426.483955 99.018185 
L 426.483955 99.800077 
L 428.311974 99.800077 
L 428.311974 100.42559 
L 429.032841 100.42559 
L 429.032841 100.738347 
L 430.143036 100.738347 
L 430.143036 101.207482 
L 431.380979 101.207482 
L 431.380979 101.520239 
L 434.504733 102.145752 
L 434.504733 102.458509 
L 435.71226 102.458509 
L 435.71226 102.927644 
L 436.195879 102.927644 
L 436.195879 103.240401 
L 437.479447 103.240401 
L 437.479447 103.553157 
L 438.756931 103.553157 
L 438.756931 103.865914 
L 439.237509 103.865914 
L 439.237509 104.178671 
L 440.454161 104.178671 
L 440.454161 104.335049 
L 441.676896 104.335049 
L 441.676896 104.647806 
L 442.403845 104.647806 
L 442.403845 104.804184 
L 443.49579 104.804184 
L 443.49579 104.960562 
L 444.864524 104.960562 
L 444.864524 105.116941 
L 445.478933 105.116941 
L 445.478933 105.273319 
L 447.160954 105.742454 
L 511.719546 105.742454 
L 511.719546 105.742454 
" style="fill:none;stroke:#1f77b4;stroke-linecap:square;"/>
   </g>
   <g id="line2d_14">
    <path clip-path="url(#pb621a2198c)" d="M 56.372359 15.638497 
L 58.157796 15.657888 
L 58.814788 15.496505 
L 69.804196 15.4976 
L 74.57043 15.502135 
L 75.163548 15.514489 
L 76.395408 15.353419 
L 77.736767 15.358736 
L 78.235594 15.509797 
L 78.850003 15.353419 
L 79.427913 15.351386 
L 80.097072 15.508546 
L 85.675421 15.48509 
L 86.134707 15.348415 
L 89.812037 15.345287 
L 95.88313 15.304785 
L 96.467123 15.189378 
L 109.880711 15.260999 
L 110.516411 15.047387 
L 117.244496 15.062712 
L 118.382066 15.049732 
L 119.042099 15.197041 
L 120.833619 15.214868 
L 122.019855 15.055831 
L 123.318631 15.062243 
L 123.878291 15.210489 
L 153.062729 15.197666 
L 153.73797 15.353263 
L 154.279381 15.351386 
L 154.89379 15.195008 
L 161.606667 15.215806 
L 162.184576 15.368744 
L 169.478405 15.341065 
L 171.917792 15.364365 
L 173.779269 15.453658 
L 174.357179 16.012554 
L 175.002004 16.037574 
L 175.552539 16.308422 
L 178.253507 16.285278 
L 178.928748 17.2187 
L 179.506658 17.698 
L 180.203191 17.695341 
L 180.653352 17.856724 
L 181.885212 17.856255 
L 182.520913 18.639085 
L 183.22353 18.633299 
L 183.722357 18.956689 
L 184.327641 18.957002 
L 185.130631 19.270071 
L 185.562543 19.586737 
L 188.068846 19.608161 
L 189.099958 20.680135 
L 190.532566 20.706876 
L 190.994894 21.31034 
L 191.813092 21.623253 
L 192.281503 21.634199 
L 192.908079 22.093326 
L 193.571154 22.105836 
L 194.882097 22.262371 
L 195.356591 22.277853 
L 195.940584 23.034567 
L 198.495553 23.103687 
L 198.900089 24.127496 
L 200.186699 24.164245 
L 200.928857 24.759264 
L 201.631473 24.773026 
L 202.011677 24.910326 
L 202.674752 24.919552 
L 203.167496 25.22105 
L 203.821446 25.236218 
L 205.150639 26.009353 
L 205.737673 26.022176 
L 206.853951 26.787335 
L 207.553526 26.809541 
L 208.052354 26.948249 
L 208.706304 27.416914 
L 209.886456 27.461951 
L 210.479574 27.73749 
L 211.060525 27.761103 
L 211.820933 28.363473 
L 212.292385 28.38474 
L 212.885503 28.671225 
L 213.502954 28.693118 
L 214.159946 29.140204 
L 214.883854 29.167414 
L 215.607762 29.459685 
L 218.536851 29.594639 
L 219.029595 30.395453 
L 220.291872 30.461757 
L 220.921489 31.340135 
L 221.563273 31.378917 
L 222.877257 31.662587 
L 223.634623 32.005525 
L 225.593432 32.124372 
L 226.067927 33.064988 
L 226.816168 33.113622 
L 227.421452 33.383687 
L 227.971987 33.429975 
L 228.540772 33.697226 
L 231.551985 33.933044 
L 232.166394 35.104318 
L 232.92376 35.176721 
L 233.951831 35.906539 
L 235.271898 36.058539 
L 236.029264 36.530645 
L 237.714327 36.843245 
L 238.210113 37.153187 
L 238.906646 37.225903 
L 239.551472 37.47517 
L 240.050299 37.537253 
L 242.450145 38.561531 
L 243.134511 38.884921 
L 243.718504 38.954353 
L 244.393746 39.199085 
L 245.01728 39.271958 
L 245.519149 39.504805 
L 246.139642 39.577052 
L 247.931162 40.211166 
L 249.777431 40.434943 
L 250.364465 41.231848 
L 251.657158 41.382596 
L 252.195527 41.853921 
L 252.904226 41.929764 
L 253.41522 42.322274 
L 254.14217 42.402965 
L 254.62883 42.634718 
L 255.985397 42.794536 
L 256.45685 43.261013 
L 257.059093 43.341392 
L 259.011819 43.900913 
L 260.109847 44.051037 
L 261.429915 44.997907 
L 261.916575 45.07078 
L 262.610067 45.311915 
L 263.197102 45.392137 
L 264.991663 46.017964 
L 266.917015 46.723074 
L 267.400634 47.020505 
L 268.00896 47.106513 
L 268.629452 47.345147 
L 269.93127 47.524982 
L 270.460513 47.962997 
L 271.105339 48.05229 
L 271.652832 48.276849 
L 272.297658 48.364421 
L 273.024607 48.601803 
L 273.51431 48.899547 
L 274.086136 48.985556 
L 274.697504 49.379629 
L 275.914156 49.559464 
L 276.638064 50.014994 
L 277.133849 50.096311 
L 278.347459 50.407191 
L 281.48338 50.869915 
L 282.17383 51.734687 
L 282.675699 51.820382 
L 285.036003 52.668891 
L 285.641288 52.76522 
L 286.325654 52.989467 
L 286.994813 53.460479 
L 289.32166 53.855334 
L 289.902611 54.395621 
L 290.690393 54.52088 
L 291.125346 54.852246 
L 291.849254 55.197998 
L 294.157851 55.715611 
L 294.945633 56.145495 
L 296.001079 56.436515 
L 297.293771 56.874374 
L 298.431341 57.093461 
L 299.04575 57.537262 
L 300.25936 57.840949 
L 300.907228 58.173097 
L 302.120838 58.471779 
L 302.820413 58.810495 
L 311.899678 60.697669 
L 312.495837 61.928679 
L 313.685114 62.23049 
L 314.843975 62.727304 
L 315.446218 62.883995 
L 316.069752 63.372364 
L 318.500014 63.986931 
L 319.722749 64.492815 
L 321.553811 64.990724 
L 322.159095 65.417637 
L 323.996239 65.941661 
L 324.689731 66.077084 
L 326.532959 66.848499 
L 330.106874 68.000851 
L 330.763866 68.108439 
L 332.48847 68.851705 
L 335.575724 69.95558 
L 336.150592 69.826099 
L 337.428076 70.617373 
L 338.693394 70.967035 
L 342.246018 72.120169 
L 342.948635 72.194136 
L 344.180495 72.555996 
L 344.654989 72.896119 
L 348.450943 74.087878 
L 350.196838 74.632544 
L 350.74129 74.952181 
L 355.045196 76.402434 
L 356.398721 76.959298 
L 356.845841 76.990104 
L 358.086826 77.353215 
L 360.535338 78.325106 
L 361.691157 78.600019 
L 362.916934 79.029278 
L 364.127503 79.763005 
L 364.842286 79.768322 
L 374.596792 82.790334 
L 376.7381 83.437897 
L 376.884098 83.781147 
L 381.16063 85.216231 
L 382.465489 85.865358 
L 382.982566 85.926189 
L 384.311758 86.242542 
L 385.516243 86.707142 
L 386.030279 86.998006 
L 396.362695 90.35326 
L 397.594555 90.716856 
L 398.187673 91.065611 
L 403.759939 92.678075 
L 404.283099 93.076714 
L 405.058715 93.305605 
L 405.508876 93.558735 
L 406.147618 93.781043 
L 406.810693 93.763653 
L 407.333854 94.187564 
L 415.281632 96.71764 
L 417.054903 97.199708 
L 417.66627 97.622399 
L 420.780899 98.641454 
L 421.431808 99.060485 
L 421.95801 99.241509 
L 422.557211 99.212845 
L 426.79116 100.588145 
L 428.622221 101.374431 
L 433.500995 102.806607 
L 435.292515 103.629579 
L 437.236116 104.055939 
L 437.716694 104.341046 
L 438.556184 104.563426 
L 438.933346 104.492857 
L 441.390983 105.168381 
L 441.974975 105.137462 
L 442.747549 105.330369 
L 443.343709 105.272473 
L 448.195108 106.60395 
L 451.115073 107.486949 
L 470.043135 113.102433 
L 476.06252 115.039523 
L 482.297862 117.040962 
L 495.623242 121.803293 
L 496.855102 122.288692 
L 500.495933 123.673735 
L 502.193162 124.363207 
L 506.57615 126.105105 
L 510.198732 127.598362 
L 511.354551 128.143497 
L 511.354551 128.143497 
" style="fill:none;stroke:#ff7f0e;stroke-linecap:square;"/>
   </g>
   <g id="patch_3">
    <path d="M 33.605 133.798616 
L 33.605 9.386013 
" style="fill:none;stroke:#000000;stroke-linecap:square;stroke-linejoin:miter;stroke-width:0.3;"/>
   </g>
   <g id="patch_4">
    <path d="M 534.486906 133.798616 
L 534.486906 9.386013 
" style="fill:none;stroke:#000000;stroke-linecap:square;stroke-linejoin:miter;stroke-width:0.3;"/>
   </g>
   <g id="patch_5">
    <path d="M 33.605 133.798616 
L 534.486906 133.798616 
" style="fill:none;stroke:#000000;stroke-linecap:square;stroke-linejoin:miter;stroke-width:0.3;"/>
   </g>
   <g id="patch_6">
    <path d="M 33.605 9.386013 
L 534.486906 9.386013 
" style="fill:none;stroke:#000000;stroke-linecap:square;stroke-linejoin:miter;stroke-width:0.3;"/>
   </g>
  </g>
  <g id="axes_2">
   <g id="patch_7">
    <path d="M 33.605 307.976259 
L 534.486906 307.976259 
L 534.486906 183.563657 
L 33.605 183.563657 
z
" style="fill:#ffffff;"/>
   </g>
   <g id="matplotlib.axis_3">
    <g id="xtick_9">
     <g id="line2d_15">
      <g>
       <use style="stroke:#000000;stroke-width:0.3;" x="86.295566" xlink:href="#me5c70cf6d9" y="307.976259"/>
      </g>
     </g>
     <g id="text_13">
      <!-- 66 -->
      <g transform="translate(78.660566 320.594384)scale(0.12 -0.12)">
       <use xlink:href="#DejaVuSans-36"/>
       <use x="63.623047" xlink:href="#DejaVuSans-36"/>
      </g>
     </g>
    </g>
    <g id="xtick_10">
     <g id="line2d_16">
      <g>
       <use style="stroke:#000000;stroke-width:0.3;" x="147.176963" xlink:href="#me5c70cf6d9" y="307.976259"/>
      </g>
     </g>
     <g id="text_14">
      <!-- 68 -->
      <g transform="translate(139.541963 320.594384)scale(0.12 -0.12)">
       <use xlink:href="#DejaVuSans-36"/>
       <use x="63.623047" xlink:href="#DejaVuSans-38"/>
      </g>
     </g>
    </g>
    <g id="xtick_11">
     <g id="line2d_17">
      <g>
       <use style="stroke:#000000;stroke-width:0.3;" x="208.05836" xlink:href="#me5c70cf6d9" y="307.976259"/>
      </g>
     </g>
     <g id="text_15">
      <!-- 70 -->
      <g transform="translate(200.42336 320.594384)scale(0.12 -0.12)">
       <use xlink:href="#DejaVuSans-37"/>
       <use x="63.623047" xlink:href="#DejaVuSans-30"/>
      </g>
     </g>
    </g>
    <g id="xtick_12">
     <g id="line2d_18">
      <g>
       <use style="stroke:#000000;stroke-width:0.3;" x="268.939756" xlink:href="#me5c70cf6d9" y="307.976259"/>
      </g>
     </g>
     <g id="text_16">
      <!-- 72 -->
      <g transform="translate(261.304756 320.594384)scale(0.12 -0.12)">
       <use xlink:href="#DejaVuSans-37"/>
       <use x="63.623047" xlink:href="#DejaVuSans-32"/>
      </g>
     </g>
    </g>
    <g id="xtick_13">
     <g id="line2d_19">
      <g>
       <use style="stroke:#000000;stroke-width:0.3;" x="329.821153" xlink:href="#me5c70cf6d9" y="307.976259"/>
      </g>
     </g>
     <g id="text_17">
      <!-- 74 -->
      <g transform="translate(322.186153 320.594384)scale(0.12 -0.12)">
       <use xlink:href="#DejaVuSans-37"/>
       <use x="63.623047" xlink:href="#DejaVuSans-34"/>
      </g>
     </g>
    </g>
    <g id="xtick_14">
     <g id="line2d_20">
      <g>
       <use style="stroke:#000000;stroke-width:0.3;" x="390.70255" xlink:href="#me5c70cf6d9" y="307.976259"/>
      </g>
     </g>
     <g id="text_18">
      <!-- 76 -->
      <g transform="translate(383.06755 320.594384)scale(0.12 -0.12)">
       <use xlink:href="#DejaVuSans-37"/>
       <use x="63.623047" xlink:href="#DejaVuSans-36"/>
      </g>
     </g>
    </g>
    <g id="xtick_15">
     <g id="line2d_21">
      <g>
       <use style="stroke:#000000;stroke-width:0.3;" x="451.583947" xlink:href="#me5c70cf6d9" y="307.976259"/>
      </g>
     </g>
     <g id="text_19">
      <!-- 78 -->
      <g transform="translate(443.948947 320.594384)scale(0.12 -0.12)">
       <use xlink:href="#DejaVuSans-37"/>
       <use x="63.623047" xlink:href="#DejaVuSans-38"/>
      </g>
     </g>
    </g>
    <g id="xtick_16">
     <g id="line2d_22">
      <g>
       <use style="stroke:#000000;stroke-width:0.3;" x="512.465344" xlink:href="#me5c70cf6d9" y="307.976259"/>
      </g>
     </g>
     <g id="text_20">
      <!-- 80 -->
      <g transform="translate(504.830344 320.594384)scale(0.12 -0.12)">
       <use xlink:href="#DejaVuSans-38"/>
       <use x="63.623047" xlink:href="#DejaVuSans-30"/>
      </g>
     </g>
    </g>
   </g>
   <g id="matplotlib.axis_4">
    <g id="ytick_5">
     <g id="line2d_23">
      <g>
       <use style="stroke:#000000;stroke-width:0.3;" x="33.605" xlink:href="#m1549534320" y="300.824338"/>
      </g>
     </g>
     <g id="text_21">
      <!-- 0 -->
      <g transform="translate(22.47 305.383401)scale(0.12 -0.12)">
       <use xlink:href="#DejaVuSans-30"/>
      </g>
     </g>
    </g>
    <g id="ytick_6">
     <g id="line2d_24">
      <g>
       <use style="stroke:#000000;stroke-width:0.3;" x="33.605" xlink:href="#m1549534320" y="268.38086"/>
      </g>
     </g>
     <g id="text_22">
      <!-- 100 -->
      <defs>
       <path d="M 12.40625 8.296875 
L 28.515625 8.296875 
L 28.515625 63.921875 
L 10.984375 60.40625 
L 10.984375 69.390625 
L 28.421875 72.90625 
L 38.28125 72.90625 
L 38.28125 8.296875 
L 54.390625 8.296875 
L 54.390625 0 
L 12.40625 0 
z
" id="DejaVuSans-31"/>
      </defs>
      <g transform="translate(7.2 272.939923)scale(0.12 -0.12)">
       <use xlink:href="#DejaVuSans-31"/>
       <use x="63.623047" xlink:href="#DejaVuSans-30"/>
       <use x="127.246094" xlink:href="#DejaVuSans-30"/>
      </g>
     </g>
    </g>
    <g id="ytick_7">
     <g id="line2d_25">
      <g>
       <use style="stroke:#000000;stroke-width:0.3;" x="33.605" xlink:href="#m1549534320" y="235.937383"/>
      </g>
     </g>
     <g id="text_23">
      <!-- 200 -->
      <g transform="translate(7.2 240.496445)scale(0.12 -0.12)">
       <use xlink:href="#DejaVuSans-32"/>
       <use x="63.623047" xlink:href="#DejaVuSans-30"/>
       <use x="127.246094" xlink:href="#DejaVuSans-30"/>
      </g>
     </g>
    </g>
    <g id="ytick_8">
     <g id="line2d_26">
      <g>
       <use style="stroke:#000000;stroke-width:0.3;" x="33.605" xlink:href="#m1549534320" y="203.493905"/>
      </g>
     </g>
     <g id="text_24">
      <!-- 300 -->
      <defs>
       <path d="M 40.578125 39.3125 
Q 47.65625 37.796875 51.625 33 
Q 55.609375 28.21875 55.609375 21.1875 
Q 55.609375 10.40625 48.1875 4.484375 
Q 40.765625 -1.421875 27.09375 -1.421875 
Q 22.515625 -1.421875 17.65625 -0.515625 
Q 12.796875 0.390625 7.625 2.203125 
L 7.625 11.71875 
Q 11.71875 9.328125 16.59375 8.109375 
Q 21.484375 6.890625 26.8125 6.890625 
Q 36.078125 6.890625 40.9375 10.546875 
Q 45.796875 14.203125 45.796875 21.1875 
Q 45.796875 27.640625 41.28125 31.265625 
Q 36.765625 34.90625 28.71875 34.90625 
L 20.21875 34.90625 
L 20.21875 43.015625 
L 29.109375 43.015625 
Q 36.375 43.015625 40.234375 45.921875 
Q 44.09375 48.828125 44.09375 54.296875 
Q 44.09375 59.90625 40.109375 62.90625 
Q 36.140625 65.921875 28.71875 65.921875 
Q 24.65625 65.921875 20.015625 65.03125 
Q 15.375 64.15625 9.8125 62.3125 
L 9.8125 71.09375 
Q 15.4375 72.65625 20.34375 73.4375 
Q 25.25 74.21875 29.59375 74.21875 
Q 40.828125 74.21875 47.359375 69.109375 
Q 53.90625 64.015625 53.90625 55.328125 
Q 53.90625 49.265625 50.4375 45.09375 
Q 46.96875 40.921875 40.578125 39.3125 
z
" id="DejaVuSans-33"/>
      </defs>
      <g transform="translate(7.2 208.052967)scale(0.12 -0.12)">
       <use xlink:href="#DejaVuSans-33"/>
       <use x="63.623047" xlink:href="#DejaVuSans-30"/>
       <use x="127.246094" xlink:href="#DejaVuSans-30"/>
      </g>
     </g>
    </g>
   </g>
   <g id="line2d_27">
    <path clip-path="url(#p7082b799ff)" d="M 58.159228 190.516514 
L 58.816747 190.516514 
L 58.816747 190.192079 
L 67.924604 189.867644 
L 67.924604 189.867644 
L 69.187893 189.867644 
L 69.187893 189.54321 
L 84.374758 189.54321 
L 84.374758 189.218775 
L 84.968351 189.218775 
L 84.968351 189.54321 
L 86.158583 189.54321 
L 86.158583 189.218775 
L 87.385343 189.218775 
L 87.385343 189.54321 
L 96.499288 189.54321 
L 96.499288 189.218775 
L 97.18116 189.218775 
L 97.18116 189.54321 
L 110.559847 189.54321 
L 110.559847 189.867644 
L 116.638854 189.867644 
L 116.638854 190.192079 
L 124.516907 190.192079 
L 124.516907 190.192079 
L 127.582285 190.516514 
L 127.582285 190.516514 
L 130.075378 190.516514 
L 130.075378 190.192079 
L 133.022038 190.192079 
L 133.022038 189.867644 
L 133.661293 189.867644 
L 133.661293 190.192079 
L 136.081328 190.192079 
L 136.081328 189.867644 
L 145.40227 189.867644 
L 145.40227 189.54321 
L 153.816079 189.54321 
L 153.816079 189.867644 
L 174.451828 189.867644 
L 174.451828 190.192079 
L 175.648148 190.192079 
L 175.648148 190.516514 
L 179.027065 190.516514 
L 179.027065 191.814253 
L 179.605439 191.814253 
L 179.605439 192.138688 
L 182.622112 192.138688 
L 182.622112 192.787557 
L 183.82452 192.787557 
L 183.82452 193.111992 
L 185.233924 193.111992 
L 185.233924 193.436427 
L 185.666182 193.436427 
L 185.666182 193.436427 
L 189.206435 194.085296 
L 189.206435 194.409731 
L 191.10289 194.409731 
L 191.10289 195.058601 
L 191.921745 195.058601 
L 191.921745 195.383036 
L 193.01761 195.383036 
L 193.01761 195.70747 
L 196.052548 195.70747 
L 196.052548 196.35634 
L 199.014428 196.35634 
L 199.014428 197.005209 
L 201.044823 197.005209 
L 201.044823 197.654079 
L 203.285258 197.654079 
L 203.285258 197.978514 
L 205.269992 197.978514 
L 205.269992 198.302949 
L 206.326284 198.302949 
L 206.326284 198.627383 
L 206.974671 198.627383 
L 206.974671 198.951818 
L 208.828509 198.951818 
L 208.828509 199.276253 
L 210.603202 199.276253 
L 210.603202 199.600688 
L 211.945637 199.600688 
L 211.945637 200.249557 
L 213.011061 200.249557 
L 213.011061 200.573992 
L 214.286526 200.573992 
L 214.286526 200.898427 
L 215.735504 200.898427 
L 215.735504 201.222862 
L 219.160082 201.222862 
L 219.160082 201.871731 
L 221.053494 201.871731 
L 221.053494 202.845035 
L 223.010831 202.845035 
L 223.010831 203.16947 
L 226.20406 203.16947 
L 226.20406 204.142775 
L 227.558671 204.142775 
L 227.558671 204.467209 
L 232.30742 204.467209 
L 232.30742 205.764948 
L 233.485475 205.764948 
L 233.485475 206.089383 
L 234.094289 206.089383 
L 234.094289 206.413818 
L 235.415415 206.413818 
L 235.415415 206.738253 
L 236.173389 206.738253 
L 236.173389 207.062688 
L 238.355987 207.062688 
L 238.355987 207.387122 
L 239.698421 207.387122 
L 239.698421 207.711557 
L 240.855168 207.711557 
L 240.855168 208.035992 
L 241.509643 208.035992 
L 241.509643 208.360427 
L 242.59942 208.360427 
L 242.59942 208.684861 
L 243.284336 208.684861 
L 243.284336 209.009296 
L 244.544581 209.009296 
L 244.544581 209.333731 
L 245.670886 209.333731 
L 245.670886 209.658166 
L 246.873294 209.658166 
L 246.873294 209.982601 
L 247.542989 209.982601 
L 247.542989 209.982601 
L 250.52009 210.63147 
L 250.52009 210.955905 
L 252.35262 210.955905 
L 252.35262 211.604774 
L 253.573292 211.604774 
L 253.573292 211.929209 
L 254.787876 211.929209 
L 254.787876 212.253644 
L 256.617362 212.253644 
L 256.617362 212.578079 
L 258.005457 212.578079 
L 258.005457 212.902514 
L 259.17438 212.902514 
L 259.17438 213.226948 
L 260.860795 213.226948 
L 260.860795 213.875818 
L 261.594416 213.875818 
L 261.594416 214.200253 
L 263.917041 214.200253 
L 263.917041 214.524687 
L 264.64153 214.524687 
L 264.64153 214.849122 
L 265.837849 214.849122 
L 265.837849 215.173557 
L 267.085918 215.173557 
L 267.085918 215.497992 
L 267.569925 215.497992 
L 267.569925 215.822427 
L 270.632259 215.822427 
L 270.632259 216.795731 
L 271.825535 216.795731 
L 271.825535 217.120166 
L 273.688505 217.120166 
L 273.688505 217.4446 
L 274.872648 217.4446 
L 274.872648 217.769035 
L 276.814765 217.769035 
L 276.814765 218.417905 
L 277.962379 218.417905 
L 277.962379 218.742339 
L 282.354972 219.066774 
L 282.354972 220.040079 
L 283.469102 220.040079 
L 283.469102 220.364513 
L 285.219442 220.364513 
L 285.219442 220.688948 
L 286.510127 220.688948 
L 286.510127 221.013383 
L 287.179823 221.013383 
L 287.179823 221.337818 
L 290.089954 221.337818 
L 290.089954 221.986687 
L 291.31367 221.986687 
L 291.31367 222.311122 
L 292.038158 222.311122 
L 292.038158 222.635557 
L 293.22839 222.635557 
L 293.22839 222.959992 
L 295.137021 222.959992 
L 295.137021 223.284426 
L 296.193314 223.284426 
L 296.193314 223.608861 
L 297.063918 223.608861 
L 297.063918 223.933296 
L 299.240428 223.933296 
L 299.240428 224.582165 
L 300.455011 224.582165 
L 300.455011 224.9066 
L 301.103398 224.9066 
L 301.103398 225.231035 
L 302.317982 225.231035 
L 302.317982 225.55547 
L 312.701304 225.55547 
L 312.701304 228.475383 
L 314.616024 228.475383 
L 314.616024 228.799818 
L 316.278086 228.799818 
L 316.278086 229.448687 
L 317.49267 229.448687 
L 317.49267 229.773122 
L 319.364773 229.773122 
L 319.364773 230.421991 
L 322.372314 230.421991 
L 322.372314 231.070861 
L 323.638647 231.070861 
L 323.638647 231.395296 
L 324.90498 231.395296 
L 324.90498 231.719731 
L 325.574676 231.719731 
L 325.574676 232.044165 
L 326.749687 232.044165 
L 326.749687 232.3686 
L 328.460454 232.3686 
L 328.460454 232.693035 
L 329.75114 232.693035 
L 329.75114 233.01747 
L 330.983988 233.01747 
L 330.983988 233.341904 
L 331.604978 233.341904 
L 331.604978 233.666339 
L 332.709975 233.666339 
L 332.709975 233.990774 
L 333.924559 233.990774 
L 333.924559 234.315209 
L 334.65818 234.315209 
L 334.65818 234.639644 
L 336.974717 234.639644 
L 336.974717 234.964078 
L 337.653545 234.964078 
L 337.653545 235.288513 
L 338.919878 235.288513 
L 338.919878 235.612948 
L 341.391663 235.937383 
L 341.391663 236.586252 
L 343.178532 236.586252 
L 343.178532 236.910687 
L 344.886255 236.910687 
L 344.886255 237.559557 
L 346.204337 237.559557 
L 346.204337 237.883991 
L 348.027735 237.883991 
L 348.027735 238.208426 
L 350.977439 238.208426 
L 350.977439 239.18173 
L 352.819101 239.18173 
L 352.819101 239.506165 
L 355.284797 239.506165 
L 355.284797 240.155035 
L 355.966669 240.155035 
L 355.966669 240.47947 
L 359.007695 240.47947 
L 359.007695 241.128339 
L 360.258807 241.128339 
L 360.258807 241.452774 
L 361.327276 241.452774 
L 361.327276 241.777209 
L 363.16285 241.777209 
L 363.16285 242.426078 
L 363.914735 242.426078 
L 363.914735 242.750513 
L 377.141219 242.750513 
L 377.141219 246.64373 
L 378.395376 246.64373 
L 378.395376 246.968165 
L 380.367933 246.968165 
L 380.367933 247.617035 
L 382.203507 247.617035 
L 382.203507 247.941469 
L 383.244579 247.941469 
L 383.244579 248.590339 
L 385.780289 248.590339 
L 385.780289 249.239209 
L 387.527585 249.239209 
L 387.527585 249.563643 
L 388.309911 249.563643 
L 388.309911 249.888078 
L 391.24135 249.888078 
L 391.24135 251.185817 
L 392.401141 251.185817 
L 392.401141 251.510252 
L 394.82422 251.510252 
L 394.82422 251.834687 
L 398.461884 251.834687 
L 398.461884 253.132426 
L 399.712997 253.132426 
L 399.712997 253.132426 
L 402.836212 253.781295 
L 402.836212 254.10573 
L 404.5622 254.10573 
L 404.5622 254.7546 
L 405.78896 254.7546 
L 405.78896 255.079035 
L 407.091822 255.079035 
L 407.091822 255.403469 
L 407.615402 255.403469 
L 407.615402 255.727904 
L 409.554474 255.727904 
L 409.554474 256.052339 
L 411.864923 256.052339 
L 411.864923 256.701208 
L 412.659426 256.701208 
L 412.659426 257.025643 
L 413.700498 257.025643 
L 413.700498 257.350078 
L 414.908993 257.350078 
L 414.908993 257.674513 
L 417.956107 257.674513 
L 417.956107 258.323382 
L 419.237661 258.323382 
L 419.237661 258.647817 
L 419.81299 258.647817 
L 419.81299 258.972252 
L 421.724666 258.972252 
L 421.724666 259.296687 
L 422.850972 259.296687 
L 422.850972 259.621121 
L 425.258831 259.621121 
L 425.258831 260.269991 
L 427.088317 260.269991 
L 427.088317 260.594426 
L 427.809761 260.594426 
L 427.809761 260.918861 
L 428.920847 260.918861 
L 428.920847 261.243295 
L 430.159783 261.243295 
L 430.159783 261.56773 
L 433.286043 261.892165 
L 433.286043 262.2166 
L 434.494539 262.2166 
L 434.494539 262.541034 
L 434.978546 262.541034 
L 434.978546 262.865469 
L 436.263143 262.865469 
L 436.263143 263.189904 
L 438.022616 263.189904 
L 438.022616 263.514339 
L 439.240244 263.514339 
L 439.240244 263.838773 
L 440.46396 263.838773 
L 440.46396 264.163208 
L 442.284313 264.163208 
L 442.284313 264.487643 
L 443.654145 264.487643 
L 443.654145 264.812078 
L 444.269047 264.812078 
L 444.269047 264.812078 
L 445.952418 301.148773 
L 511.719546 301.148773 
L 511.719546 301.148773 
" style="fill:none;stroke:#1f77b4;stroke-linecap:square;"/>
   </g>
   <g id="line2d_28">
    <path clip-path="url(#p7082b799ff)" d="M 56.372359 190.462333 
L 58.159228 190.507105 
L 58.816747 190.182995 
L 65.516745 190.004556 
L 66.095118 189.84169 
L 68.499934 189.847854 
L 69.187893 189.544832 
L 83.260628 189.561702 
L 83.790296 189.573058 
L 84.374758 189.250245 
L 84.968351 189.553916 
L 85.698928 189.576626 
L 86.158583 189.236943 
L 86.816102 189.235645 
L 87.385343 189.530232 
L 94.678934 189.578249 
L 95.914827 189.633402 
L 96.499288 189.23013 
L 97.18116 189.551645 
L 109.923636 189.54029 
L 110.559847 189.884191 
L 113.007279 189.93902 
L 114.839809 189.870564 
L 116.002643 189.855965 
L 116.638854 190.19143 
L 119.710321 190.216736 
L 123.932445 190.178453 
L 126.970427 190.127192 
L 127.582285 190.523651 
L 129.378286 190.495426 
L 130.075378 190.184942 
L 132.495414 190.16288 
L 133.022038 189.854991 
L 133.661293 190.16288 
L 135.460338 190.146334 
L 136.081328 189.872511 
L 144.090276 189.875106 
L 144.604724 189.900737 
L 145.40227 189.545805 
L 148.251519 189.552618 
L 153.140296 189.590253 
L 153.816079 189.886137 
L 157.398949 189.933505 
L 165.910168 189.917607 
L 167.727478 189.919878 
L 171.048558 189.962704 
L 171.450376 189.882568 
L 173.873455 189.906577 
L 174.451828 190.210572 
L 175.097171 190.201812 
L 175.648148 190.508727 
L 178.351282 190.459089 
L 179.027065 191.831448 
L 179.605439 192.139986 
L 181.985901 192.107866 
L 182.622112 192.7629 
L 183.325292 192.723319 
L 183.82452 193.101286 
L 184.430289 193.085713 
L 185.233924 193.427667 
L 188.174495 193.426694 
L 189.206435 194.373719 
L 190.640192 194.282228 
L 191.10289 195.026806 
L 191.921745 195.314904 
L 192.390532 195.28019 
L 193.01761 195.657183 
L 193.681218 195.600731 
L 194.993212 195.606896 
L 195.468087 195.569586 
L 196.052548 196.31027 
L 198.609567 196.080895 
L 199.014428 196.955246 
L 200.30207 196.817037 
L 201.044823 197.599574 
L 202.792119 197.557722 
L 203.285258 197.92336 
L 203.939733 197.865935 
L 204.758588 197.921413 
L 205.269992 198.246497 
L 205.857497 198.183557 
L 206.326284 198.569634 
L 206.974671 198.888229 
L 207.674807 198.819124 
L 208.174034 198.894718 
L 208.828509 199.212339 
L 210.009608 199.063424 
L 210.603202 199.531259 
L 211.184619 199.458585 
L 211.945637 200.180453 
L 212.417468 200.109401 
L 213.011061 200.500021 
L 213.629007 200.416641 
L 214.286526 200.820238 
L 215.011015 200.740751 
L 215.735504 201.142077 
L 217.905925 200.8423 
L 218.666943 200.75308 
L 219.160082 201.790947 
L 220.423371 201.601477 
L 221.053494 202.757438 
L 221.695792 202.660756 
L 223.010831 203.052998 
L 223.768804 202.98876 
L 225.729185 202.688333 
L 226.20406 204.063937 
L 226.952901 203.961091 
L 227.558671 204.373123 
L 228.109648 204.272548 
L 228.678889 204.368906 
L 231.692518 203.852081 
L 232.30742 205.682866 
L 233.065393 205.618953 
L 233.485475 206.032932 
L 234.094289 206.378455 
L 234.837042 206.347309 
L 236.173389 207.061714 
L 237.244901 206.98677 
L 237.859803 207.023431 
L 238.355987 207.340079 
L 239.053079 207.30212 
L 239.698421 207.676843 
L 240.197649 207.639208 
L 241.509643 208.345178 
L 242.121501 208.322468 
L 243.284336 208.97815 
L 243.868797 208.938245 
L 244.544581 209.309723 
L 245.168615 209.283119 
L 245.670886 209.626371 
L 246.291877 209.610149 
L 246.873294 209.969623 
L 249.448577 209.889163 
L 249.932584 209.853151 
L 250.52009 210.934168 
L 251.813819 210.89848 
L 252.35262 211.584011 
L 253.061888 211.582713 
L 253.573292 211.910716 
L 254.300824 211.909094 
L 254.787876 212.236449 
L 256.145531 212.242613 
L 256.617362 212.559262 
L 257.220087 212.541418 
L 258.005457 212.902838 
L 258.480332 212.881425 
L 259.17438 213.228246 
L 260.273289 213.213646 
L 260.860795 213.879387 
L 261.594416 214.221016 
L 263.36302 214.199928 
L 264.64153 214.863073 
L 265.159022 214.862424 
L 265.837849 215.191725 
L 266.346209 215.194321 
L 267.569925 215.823724 
L 270.102591 215.851301 
L 270.632259 216.806437 
L 271.277602 216.838556 
L 271.825535 217.144823 
L 273.19841 217.163964 
L 273.688505 217.461795 
L 274.26079 217.485804 
L 274.872648 217.798883 
L 276.090276 217.853388 
L 276.814765 218.462352 
L 277.310948 218.48636 
L 277.962379 218.78484 
L 281.663968 219.033682 
L 282.354972 220.096855 
L 282.857244 220.135138 
L 283.469102 220.416423 
L 284.641069 220.456977 
L 285.219442 220.734693 
L 285.825212 220.78271 
L 287.179823 221.397838 
L 289.508536 221.598014 
L 290.089954 222.041192 
L 290.878368 222.11419 
L 292.038158 222.706284 
L 292.543474 222.756895 
L 293.22839 223.030394 
L 294.348607 223.154652 
L 296.193314 223.672126 
L 297.487043 224.075723 
L 298.625525 224.210688 
L 299.240428 224.656461 
L 299.940564 224.74049 
L 301.103398 225.32285 
L 301.78527 225.419856 
L 302.317982 225.637227 
L 303.672593 225.751753 
L 309.602441 226.659521 
L 312.104667 227.058576 
L 312.701304 228.582122 
L 315.654052 229.169024 
L 316.278086 229.576514 
L 318.18063 230.041105 
L 318.710298 229.9003 
L 319.364773 230.569285 
L 319.934014 230.718525 
L 320.539784 230.570258 
L 321.766544 230.855112 
L 322.372314 231.212315 
L 324.90498 231.888437 
L 326.13174 232.380604 
L 327.900345 232.898402 
L 328.460454 232.863363 
L 330.983988 233.518073 
L 331.604978 233.830503 
L 333.924559 234.482293 
L 335.160452 235.032534 
L 335.799706 235.244714 
L 336.375035 234.834953 
L 338.195389 235.664857 
L 340.204475 236.194659 
L 340.621513 236.359148 
L 341.951771 237.011262 
L 342.475351 237.208518 
L 343.178532 237.136494 
L 346.204337 238.100065 
L 346.8649 238.092927 
L 351.711059 239.619069 
L 352.301609 239.400075 
L 352.819101 239.692715 
L 354.627278 240.315306 
L 355.284797 240.369162 
L 356.639408 240.923945 
L 357.086887 240.669264 
L 358.328867 241.057937 
L 359.494746 241.511497 
L 361.93609 242.177237 
L 363.16285 242.639232 
L 364.37439 243.204397 
L 365.089746 243.018821 
L 369.305783 244.497919 
L 376.995103 247.249126 
L 377.141219 246.812761 
L 379.013322 247.436324 
L 379.62518 247.204354 
L 380.367933 247.86912 
L 381.421181 248.336955 
L 382.203507 248.217563 
L 382.727087 248.447588 
L 383.244579 248.815172 
L 383.975156 249.06596 
L 384.574837 248.824256 
L 385.092329 249.033192 
L 385.780289 249.460473 
L 386.294737 249.46534 
L 386.964432 249.718399 
L 387.527585 249.804374 
L 391.755798 251.681878 
L 392.401141 251.765258 
L 393.037351 252.013775 
L 393.710091 251.758769 
L 394.242803 251.975816 
L 394.82422 252.052058 
L 398.461884 253.373805 
L 399.128535 253.6353 
L 399.712997 253.384512 
L 402.215222 254.346785 
L 402.836212 254.349381 
L 404.5622 254.99241 
L 406.428215 255.562118 
L 407.091822 255.665288 
L 407.615402 255.967337 
L 408.91522 256.492921 
L 409.554474 256.325188 
L 411.256109 257.111943 
L 411.864923 256.972111 
L 414.42803 257.853276 
L 414.908993 257.908755 
L 415.569556 258.152405 
L 416.114445 257.916217 
L 419.237661 258.876219 
L 419.81299 259.21136 
L 421.073235 259.713261 
L 421.724666 259.560128 
L 422.25129 259.804751 
L 422.850972 259.867367 
L 424.726119 260.59767 
L 425.258831 260.498717 
L 426.613442 260.987965 
L 427.088317 260.83029 
L 428.397267 261.425628 
L 428.920847 261.489217 
L 432.725934 262.894019 
L 433.286043 262.460575 
L 433.803535 262.695141 
L 434.494539 262.794094 
L 435.596492 263.371912 
L 436.263143 263.441341 
L 436.902398 263.710297 
L 437.541653 263.45075 
L 438.022616 263.772589 
L 438.862779 264.0821 
L 439.240244 264.086642 
L 439.919071 264.359491 
L 441.191492 264.421134 
L 441.699852 264.66738 
L 442.284313 264.743947 
L 443.057507 265.015498 
L 444.269047 265.088821 
L 445.952418 265.830154 
L 450.250644 267.556147 
L 453.270361 268.924646 
L 457.626425 270.677048 
L 462.402571 272.924342 
L 465.504478 274.451359 
L 466.028058 274.736797 
L 466.831693 275.024733 
L 467.251774 275.306862 
L 469.306521 276.250318 
L 470.907702 277.187805 
L 472.12533 277.820452 
L 477.62292 280.734363 
L 478.441775 281.038845 
L 478.822284 281.334957 
L 482.639547 283.083563 
L 484.9226 284.446611 
L 486.828187 285.551895 
L 488.073212 286.34436 
L 489.299972 287.140296 
L 490.398881 287.820927 
L 492.949812 289.285523 
L 495.975617 291.226844 
L 496.468757 291.607146 
L 497.811191 292.404023 
L 498.907056 293.175269 
L 500.252535 293.924843 
L 502.550808 295.592698 
L 506.270661 298.302299 
L 507.567435 299.106141 
L 508.075795 299.55123 
L 508.778975 299.969125 
L 509.871796 300.86893 
L 511.719546 302.321141 
L 511.719546 302.321141 
" style="fill:none;stroke:#ff7f0e;stroke-linecap:square;"/>
   </g>
   <g id="patch_8">
    <path d="M 33.605 307.976259 
L 33.605 183.563657 
" style="fill:none;stroke:#000000;stroke-linecap:square;stroke-linejoin:miter;stroke-width:0.3;"/>
   </g>
   <g id="patch_9">
    <path d="M 534.486906 307.976259 
L 534.486906 183.563657 
" style="fill:none;stroke:#000000;stroke-linecap:square;stroke-linejoin:miter;stroke-width:0.3;"/>
   </g>
   <g id="patch_10">
    <path d="M 33.605 307.976259 
L 534.486906 307.976259 
" style="fill:none;stroke:#000000;stroke-linecap:square;stroke-linejoin:miter;stroke-width:0.3;"/>
   </g>
   <g id="patch_11">
    <path d="M 33.605 183.563657 
L 534.486906 183.563657 
" style="fill:none;stroke:#000000;stroke-linecap:square;stroke-linejoin:miter;stroke-width:0.3;"/>
   </g>
  </g>
 </g>
 <defs>
  <clipPath id="pb621a2198c">
   <rect height="124.412602" width="500.881906" x="33.605" y="9.386013"/>
  </clipPath>
  <clipPath id="p7082b799ff">
   <rect height="124.412602" width="500.881906" x="33.605" y="183.563657"/>
  </clipPath>
 </defs>
</svg>
