<?xml version="1.0" encoding="utf-8" standalone="no"?>
<!DOCTYPE svg PUBLIC "-//W3C//DTD SVG 1.1//EN"
  "http://www.w3.org/Graphics/SVG/1.1/DTD/svg11.dtd">
<!-- Created with matplotlib (http://matplotlib.org/) -->
<svg height="116pt" version="1.1" viewBox="0 0 171 116" width="171pt" xmlns="http://www.w3.org/2000/svg" xmlns:xlink="http://www.w3.org/1999/xlink">
 <defs>
  <style type="text/css">
*{stroke-linecap:butt;stroke-linejoin:round;}
  </style>
 </defs>
 <g id="figure_1">
  <g id="patch_1">
   <path d="M -0 116.986541 
L 171.892131 116.986541 
L 171.892131 0 
L -0 0 
z
" style="fill:#ffffff;"/>
  </g>
  <g id="axes_1">
   <g id="patch_2">
    <path d="M 19.7 46.215356 
L 164.692131 46.215356 
L 164.692131 7.2 
L 19.7 7.2 
z
" style="fill:#ffffff;"/>
   </g>
   <g id="matplotlib.axis_1">
    <g id="xtick_1">
     <g id="line2d_1">
      <path clip-path="url(#p30a270602d)" d="M 26.213929 46.215356 
L 26.213929 7.2 
" style="fill:none;opacity:0.1;stroke:#b0b0b0;stroke-linecap:square;stroke-width:0.1;"/>
     </g>
     <g id="line2d_2">
      <defs>
       <path d="M 0 0 
L 0 -2 
" id="m159495c7d9" style="stroke:#000000;stroke-width:0.3;"/>
      </defs>
      <g>
       <use style="stroke:#000000;stroke-width:0.3;" x="26.213929" xlink:href="#m159495c7d9" y="46.215356"/>
      </g>
     </g>
     <g id="text_1">
      <!-- 35 -->
      <defs>
       <path d="M 5.078125 53.609375 
Q 7.90625 60.296875 12.21875 63.9375 
Q 16.546875 67.578125 23 67.578125 
Q 30.953125 67.578125 35.203125 62.40625 
Q 38.421875 58.546875 38.421875 54.15625 
Q 38.421875 46.921875 29.34375 39.203125 
Q 35.453125 36.8125 38.578125 32.375 
Q 41.703125 27.9375 41.703125 21.921875 
Q 41.703125 13.328125 36.234375 7.03125 
Q 29.109375 -1.171875 15.578125 -1.171875 
Q 8.890625 -1.171875 6.46875 0.484375 
Q 4.046875 2.15625 4.046875 4.046875 
Q 4.046875 5.46875 5.1875 6.546875 
Q 6.34375 7.625 7.953125 7.625 
Q 9.1875 7.625 10.453125 7.234375 
Q 11.28125 6.984375 14.203125 5.4375 
Q 17.140625 3.90625 18.265625 3.609375 
Q 20.0625 3.078125 22.125 3.078125 
Q 27.09375 3.078125 30.78125 6.9375 
Q 34.46875 10.796875 34.46875 16.0625 
Q 34.46875 19.921875 32.765625 23.578125 
Q 31.5 26.3125 29.984375 27.734375 
Q 27.875 29.6875 24.21875 31.265625 
Q 20.5625 32.859375 16.75 32.859375 
L 15.1875 32.859375 
L 15.1875 34.328125 
Q 19.046875 34.8125 22.921875 37.109375 
Q 26.8125 39.40625 28.5625 42.625 
Q 30.328125 45.84375 30.328125 49.703125 
Q 30.328125 54.734375 27.171875 57.828125 
Q 24.03125 60.9375 19.34375 60.9375 
Q 11.765625 60.9375 6.6875 52.828125 
z
" id="TimesNewRomanPSMT-33"/>
       <path d="M 43.40625 66.21875 
L 39.59375 57.90625 
L 19.671875 57.90625 
L 15.328125 49.03125 
Q 28.265625 47.125 35.84375 39.40625 
Q 42.328125 32.765625 42.328125 23.78125 
Q 42.328125 18.5625 40.203125 14.109375 
Q 38.09375 9.671875 34.859375 6.546875 
Q 31.640625 3.421875 27.6875 1.515625 
Q 22.078125 -1.171875 16.15625 -1.171875 
Q 10.203125 -1.171875 7.484375 0.84375 
Q 4.78125 2.875 4.78125 5.328125 
Q 4.78125 6.6875 5.90625 7.734375 
Q 7.03125 8.796875 8.734375 8.796875 
Q 10.015625 8.796875 10.96875 8.40625 
Q 11.921875 8.015625 14.203125 6.390625 
Q 17.875 3.859375 21.625 3.859375 
Q 27.34375 3.859375 31.65625 8.171875 
Q 35.984375 12.5 35.984375 18.703125 
Q 35.984375 24.703125 32.125 29.90625 
Q 28.265625 35.109375 21.484375 37.9375 
Q 16.15625 40.140625 6.984375 40.484375 
L 19.671875 66.21875 
z
" id="TimesNewRomanPSMT-35"/>
      </defs>
      <g transform="translate(23.213929 53.881606)scale(0.06 -0.06)">
       <use xlink:href="#TimesNewRomanPSMT-33"/>
       <use x="50" xlink:href="#TimesNewRomanPSMT-35"/>
      </g>
     </g>
    </g>
    <g id="xtick_2">
     <g id="line2d_3">
      <path clip-path="url(#p30a270602d)" d="M 52.635319 46.215356 
L 52.635319 7.2 
" style="fill:none;opacity:0.1;stroke:#b0b0b0;stroke-linecap:square;stroke-width:0.1;"/>
     </g>
     <g id="line2d_4">
      <g>
       <use style="stroke:#000000;stroke-width:0.3;" x="52.635319" xlink:href="#m159495c7d9" y="46.215356"/>
      </g>
     </g>
     <g id="text_2">
      <!-- 36 -->
      <defs>
       <path d="M 44.828125 67.578125 
L 44.828125 65.765625 
Q 38.375 65.140625 34.296875 63.203125 
Q 30.21875 61.28125 26.234375 57.328125 
Q 22.265625 53.375 19.65625 48.515625 
Q 17.046875 43.65625 15.28125 36.96875 
Q 22.3125 41.796875 29.390625 41.796875 
Q 36.1875 41.796875 41.15625 36.328125 
Q 46.140625 30.859375 46.140625 22.265625 
Q 46.140625 13.96875 41.109375 7.125 
Q 35.0625 -1.171875 25.09375 -1.171875 
Q 18.3125 -1.171875 13.578125 3.328125 
Q 4.296875 12.0625 4.296875 25.984375 
Q 4.296875 34.859375 7.859375 42.859375 
Q 11.421875 50.875 18.03125 57.078125 
Q 24.65625 63.28125 30.703125 65.421875 
Q 36.765625 67.578125 42 67.578125 
z
M 14.453125 33.40625 
Q 13.578125 26.8125 13.578125 22.75 
Q 13.578125 18.0625 15.3125 12.5625 
Q 17.046875 7.078125 20.453125 3.859375 
Q 22.953125 1.5625 26.515625 1.5625 
Q 30.765625 1.5625 34.109375 5.5625 
Q 37.453125 9.578125 37.453125 17 
Q 37.453125 25.34375 34.125 31.4375 
Q 30.8125 37.546875 24.703125 37.546875 
Q 22.859375 37.546875 20.734375 36.765625 
Q 18.609375 35.984375 14.453125 33.40625 
z
" id="TimesNewRomanPSMT-36"/>
      </defs>
      <g transform="translate(49.635319 53.881606)scale(0.06 -0.06)">
       <use xlink:href="#TimesNewRomanPSMT-33"/>
       <use x="50" xlink:href="#TimesNewRomanPSMT-36"/>
      </g>
     </g>
    </g>
    <g id="xtick_3">
     <g id="line2d_5">
      <path clip-path="url(#p30a270602d)" d="M 79.056708 46.215356 
L 79.056708 7.2 
" style="fill:none;opacity:0.1;stroke:#b0b0b0;stroke-linecap:square;stroke-width:0.1;"/>
     </g>
     <g id="line2d_6">
      <g>
       <use style="stroke:#000000;stroke-width:0.3;" x="79.056708" xlink:href="#m159495c7d9" y="46.215356"/>
      </g>
     </g>
     <g id="text_3">
      <!-- 37 -->
      <defs>
       <path d="M 10.0625 66.21875 
L 45.5625 66.21875 
L 45.5625 64.359375 
L 23.484375 -1.375 
L 18.015625 -1.375 
L 37.796875 58.25 
L 19.578125 58.25 
Q 14.0625 58.25 11.71875 56.9375 
Q 7.625 54.6875 5.125 50 
L 3.71875 50.53125 
z
" id="TimesNewRomanPSMT-37"/>
      </defs>
      <g transform="translate(76.056708 53.881606)scale(0.06 -0.06)">
       <use xlink:href="#TimesNewRomanPSMT-33"/>
       <use x="50" xlink:href="#TimesNewRomanPSMT-37"/>
      </g>
     </g>
    </g>
    <g id="xtick_4">
     <g id="line2d_7">
      <path clip-path="url(#p30a270602d)" d="M 105.478098 46.215356 
L 105.478098 7.2 
" style="fill:none;opacity:0.1;stroke:#b0b0b0;stroke-linecap:square;stroke-width:0.1;"/>
     </g>
     <g id="line2d_8">
      <g>
       <use style="stroke:#000000;stroke-width:0.3;" x="105.478098" xlink:href="#m159495c7d9" y="46.215356"/>
      </g>
     </g>
     <g id="text_4">
      <!-- 38 -->
      <defs>
       <path d="M 19.1875 33.34375 
Q 11.328125 39.796875 9.046875 43.703125 
Q 6.78125 47.609375 6.78125 51.8125 
Q 6.78125 58.25 11.765625 62.90625 
Q 16.75 67.578125 25 67.578125 
Q 33.015625 67.578125 37.890625 63.234375 
Q 42.78125 58.890625 42.78125 53.328125 
Q 42.78125 49.609375 40.140625 45.75 
Q 37.5 41.890625 29.15625 36.671875 
Q 37.75 30.03125 40.53125 26.21875 
Q 44.234375 21.234375 44.234375 15.71875 
Q 44.234375 8.734375 38.90625 3.78125 
Q 33.59375 -1.171875 24.953125 -1.171875 
Q 15.53125 -1.171875 10.25 4.734375 
Q 6.0625 9.46875 6.0625 15.09375 
Q 6.0625 19.484375 9.015625 23.796875 
Q 11.96875 28.125 19.1875 33.34375 
z
M 26.859375 38.578125 
Q 32.71875 43.84375 34.28125 46.890625 
Q 35.84375 49.953125 35.84375 53.8125 
Q 35.84375 58.9375 32.953125 61.84375 
Q 30.078125 64.75 25.09375 64.75 
Q 20.125 64.75 17 61.859375 
Q 13.875 58.984375 13.875 55.125 
Q 13.875 52.59375 15.15625 50.046875 
Q 16.453125 47.515625 18.84375 45.21875 
z
M 21.484375 31.5 
Q 17.4375 28.078125 15.484375 24.046875 
Q 13.53125 20.015625 13.53125 15.328125 
Q 13.53125 9.03125 16.96875 5.25 
Q 20.40625 1.46875 25.734375 1.46875 
Q 31 1.46875 34.171875 4.4375 
Q 37.359375 7.421875 37.359375 11.671875 
Q 37.359375 15.1875 35.5 17.96875 
Q 32.03125 23.140625 21.484375 31.5 
z
" id="TimesNewRomanPSMT-38"/>
      </defs>
      <g transform="translate(102.478098 53.881606)scale(0.06 -0.06)">
       <use xlink:href="#TimesNewRomanPSMT-33"/>
       <use x="50" xlink:href="#TimesNewRomanPSMT-38"/>
      </g>
     </g>
    </g>
    <g id="xtick_5">
     <g id="line2d_9">
      <path clip-path="url(#p30a270602d)" d="M 131.899487 46.215356 
L 131.899487 7.2 
" style="fill:none;opacity:0.1;stroke:#b0b0b0;stroke-linecap:square;stroke-width:0.1;"/>
     </g>
     <g id="line2d_10">
      <g>
       <use style="stroke:#000000;stroke-width:0.3;" x="131.899487" xlink:href="#m159495c7d9" y="46.215356"/>
      </g>
     </g>
     <g id="text_5">
      <!-- 39 -->
      <defs>
       <path d="M 5.28125 -1.375 
L 5.28125 0.4375 
Q 11.625 0.53125 17.09375 3.390625 
Q 22.5625 6.25 27.65625 13.375 
Q 32.765625 20.515625 34.765625 29.046875 
Q 27.09375 24.125 20.90625 24.125 
Q 13.921875 24.125 8.9375 29.515625 
Q 3.953125 34.90625 3.953125 43.84375 
Q 3.953125 52.546875 8.9375 59.328125 
Q 14.9375 67.578125 24.609375 67.578125 
Q 32.765625 67.578125 38.578125 60.84375 
Q 45.703125 52.484375 45.703125 40.234375 
Q 45.703125 29.203125 40.28125 19.65625 
Q 34.859375 10.109375 25.203125 3.8125 
Q 17.328125 -1.375 8.0625 -1.375 
z
M 35.546875 32.671875 
Q 36.421875 39.015625 36.421875 42.828125 
Q 36.421875 47.5625 34.8125 53.046875 
Q 33.203125 58.546875 30.25 61.46875 
Q 27.296875 64.40625 23.53125 64.40625 
Q 19.1875 64.40625 15.90625 60.5 
Q 12.640625 56.59375 12.640625 48.875 
Q 12.640625 38.578125 17 32.765625 
Q 20.171875 28.5625 24.8125 28.5625 
Q 27.046875 28.5625 30.125 29.640625 
Q 33.203125 30.71875 35.546875 32.671875 
z
" id="TimesNewRomanPSMT-39"/>
      </defs>
      <g transform="translate(128.899487 53.881606)scale(0.06 -0.06)">
       <use xlink:href="#TimesNewRomanPSMT-33"/>
       <use x="50" xlink:href="#TimesNewRomanPSMT-39"/>
      </g>
     </g>
    </g>
    <g id="xtick_6">
     <g id="line2d_11">
      <path clip-path="url(#p30a270602d)" d="M 158.320877 46.215356 
L 158.320877 7.2 
" style="fill:none;opacity:0.1;stroke:#b0b0b0;stroke-linecap:square;stroke-width:0.1;"/>
     </g>
     <g id="line2d_12">
      <g>
       <use style="stroke:#000000;stroke-width:0.3;" x="158.320877" xlink:href="#m159495c7d9" y="46.215356"/>
      </g>
     </g>
     <g id="text_6">
      <!-- 40 -->
      <defs>
       <path d="M 46.53125 24.421875 
L 46.53125 17.484375 
L 37.640625 17.484375 
L 37.640625 0 
L 29.59375 0 
L 29.59375 17.484375 
L 1.5625 17.484375 
L 1.5625 23.734375 
L 32.28125 67.578125 
L 37.640625 67.578125 
L 37.640625 24.421875 
z
M 29.59375 24.421875 
L 29.59375 57.28125 
L 6.34375 24.421875 
z
" id="TimesNewRomanPSMT-34"/>
       <path d="M 3.609375 32.71875 
Q 3.609375 44.046875 7.03125 52.21875 
Q 10.453125 60.40625 16.109375 64.40625 
Q 20.515625 67.578125 25.203125 67.578125 
Q 32.8125 67.578125 38.875 59.8125 
Q 46.4375 50.203125 46.4375 33.734375 
Q 46.4375 22.21875 43.109375 14.15625 
Q 39.796875 6.109375 34.640625 2.46875 
Q 29.5 -1.171875 24.703125 -1.171875 
Q 15.234375 -1.171875 8.9375 10.015625 
Q 3.609375 19.4375 3.609375 32.71875 
z
M 13.1875 31.5 
Q 13.1875 17.828125 16.546875 9.1875 
Q 19.34375 1.90625 24.859375 1.90625 
Q 27.484375 1.90625 30.3125 4.265625 
Q 33.15625 6.640625 34.625 12.203125 
Q 36.859375 20.609375 36.859375 35.890625 
Q 36.859375 47.21875 34.515625 54.78125 
Q 32.765625 60.40625 29.984375 62.75 
Q 27.984375 64.359375 25.140625 64.359375 
Q 21.828125 64.359375 19.234375 61.375 
Q 15.71875 57.328125 14.453125 48.625 
Q 13.1875 39.9375 13.1875 31.5 
z
" id="TimesNewRomanPSMT-30"/>
      </defs>
      <g transform="translate(155.320877 53.881606)scale(0.06 -0.06)">
       <use xlink:href="#TimesNewRomanPSMT-34"/>
       <use x="50" xlink:href="#TimesNewRomanPSMT-30"/>
      </g>
     </g>
    </g>
   </g>
   <g id="matplotlib.axis_2">
    <g id="ytick_1">
     <g id="line2d_13">
      <path clip-path="url(#p30a270602d)" d="M 19.7 44.374882 
L 164.692131 44.374882 
" style="fill:none;opacity:0.1;stroke:#b0b0b0;stroke-linecap:square;stroke-width:0.1;"/>
     </g>
     <g id="line2d_14">
      <defs>
       <path d="M 0 0 
L 2 0 
" id="m202ee96e5b" style="stroke:#000000;stroke-width:0.3;"/>
      </defs>
      <g>
       <use style="stroke:#000000;stroke-width:0.3;" x="19.7" xlink:href="#m202ee96e5b" y="44.374882"/>
      </g>
     </g>
     <g id="text_7">
      <!-- 0 -->
      <g transform="translate(13.2 46.458007)scale(0.06 -0.06)">
       <use xlink:href="#TimesNewRomanPSMT-30"/>
      </g>
     </g>
    </g>
    <g id="ytick_2">
     <g id="line2d_15">
      <path clip-path="url(#p30a270602d)" d="M 19.7 30.965239 
L 164.692131 30.965239 
" style="fill:none;opacity:0.1;stroke:#b0b0b0;stroke-linecap:square;stroke-width:0.1;"/>
     </g>
     <g id="line2d_16">
      <g>
       <use style="stroke:#000000;stroke-width:0.3;" x="19.7" xlink:href="#m202ee96e5b" y="30.965239"/>
      </g>
     </g>
     <g id="text_8">
      <!-- 200 -->
      <defs>
       <path d="M 45.84375 12.75 
L 41.21875 0 
L 2.15625 0 
L 2.15625 1.8125 
Q 19.390625 17.53125 26.421875 27.484375 
Q 33.453125 37.453125 33.453125 45.703125 
Q 33.453125 52 29.59375 56.046875 
Q 25.734375 60.109375 20.359375 60.109375 
Q 15.484375 60.109375 11.59375 57.25 
Q 7.71875 54.390625 5.859375 48.875 
L 4.046875 48.875 
Q 5.28125 57.90625 10.328125 62.734375 
Q 15.375 67.578125 22.953125 67.578125 
Q 31 67.578125 36.390625 62.40625 
Q 41.796875 57.234375 41.796875 50.203125 
Q 41.796875 45.171875 39.453125 40.140625 
Q 35.84375 32.234375 27.734375 23.390625 
Q 15.578125 10.109375 12.546875 7.375 
L 29.828125 7.375 
Q 35.109375 7.375 37.234375 7.765625 
Q 39.359375 8.15625 41.0625 9.34375 
Q 42.78125 10.546875 44.046875 12.75 
z
" id="TimesNewRomanPSMT-32"/>
      </defs>
      <g transform="translate(7.2 33.048364)scale(0.06 -0.06)">
       <use xlink:href="#TimesNewRomanPSMT-32"/>
       <use x="50" xlink:href="#TimesNewRomanPSMT-30"/>
       <use x="100" xlink:href="#TimesNewRomanPSMT-30"/>
      </g>
     </g>
    </g>
    <g id="ytick_3">
     <g id="line2d_17">
      <path clip-path="url(#p30a270602d)" d="M 19.7 17.555597 
L 164.692131 17.555597 
" style="fill:none;opacity:0.1;stroke:#b0b0b0;stroke-linecap:square;stroke-width:0.1;"/>
     </g>
     <g id="line2d_18">
      <g>
       <use style="stroke:#000000;stroke-width:0.3;" x="19.7" xlink:href="#m202ee96e5b" y="17.555597"/>
      </g>
     </g>
     <g id="text_9">
      <!-- 400 -->
      <g transform="translate(7.2 19.638722)scale(0.06 -0.06)">
       <use xlink:href="#TimesNewRomanPSMT-34"/>
       <use x="50" xlink:href="#TimesNewRomanPSMT-30"/>
       <use x="100" xlink:href="#TimesNewRomanPSMT-30"/>
      </g>
     </g>
    </g>
   </g>
   <g id="line2d_19">
    <path clip-path="url(#p30a270602d)" d="M 28.052858 8.973425 
L 28.052858 10.381438 
L 29.632857 10.381438 
L 29.632857 11.320113 
L 32.880046 11.320113 
L 32.880046 12.92927 
L 35.070379 12.92927 
L 35.070379 13.867945 
L 35.543322 13.867945 
L 35.543322 14.337282 
L 36.557903 14.337282 
L 36.557903 14.672523 
L 44.479036 14.672523 
L 44.479036 18.494272 
L 46.650874 18.494272 
L 46.650874 18.829513 
L 48.159535 18.829513 
L 48.159535 19.969332 
L 49.866357 20.036381 
L 49.866357 20.572766 
L 50.783179 20.572766 
L 50.783179 20.773911 
L 51.419935 20.773911 
L 51.419935 21.042104 
L 52.371105 21.042104 
L 52.371105 21.243248 
L 53.974883 21.243248 
L 53.974883 21.779634 
L 55.42806 21.779634 
L 55.42806 21.913731 
L 56.059531 21.913731 
L 56.059531 22.047827 
L 57.652741 22.047827 
L 57.652741 22.450116 
L 58.699028 22.450116 
L 58.699028 22.651261 
L 59.256519 44.44193 
L 60.273743 22.651261 
L 60.273743 22.986502 
L 61.903942 23.05355 
L 61.903942 23.120598 
L 62.96344 23.120598 
L 62.96344 23.522888 
L 63.983306 23.522888 
L 63.983306 23.656984 
L 64.538155 23.656984 
L 64.538155 23.858129 
L 65.608221 23.858129 
L 65.608221 23.992225 
L 67.304474 23.992225 
L 67.304474 24.059273 
L 70.377282 24.461563 
L 70.377282 24.595659 
L 70.884573 24.595659 
L 70.884573 24.796804 
L 73.526712 24.729755 
L 73.526712 25.064997 
L 74.654905 25.064997 
L 74.654905 25.333189 
L 76.203198 25.333189 
L 76.203198 25.534334 
L 78.863832 25.601382 
L 78.863832 25.802527 
L 80.4544 25.869575 
L 80.4544 26.07072 
L 92.000547 26.07072 
L 92.000547 27.210539 
L 97.245193 27.881022 
L 97.245193 27.746925 
L 106.899569 27.746925 
L 106.899569 28.484455 
L 110.03843 28.484455 
L 110.03843 28.752648 
L 110.540436 28.752648 
L 110.540436 28.886745 
L 111.079432 44.44193 
L 112.141572 28.819697 
L 113.177291 28.819697 
L 113.177291 29.154938 
L 119.653173 29.154938 
L 119.653173 29.020841 
L 122.681064 29.221986 
L 122.681064 29.356082 
L 126.09735 29.42313 
L 126.09735 29.557227 
L 129.056546 29.624275 
L 129.056546 29.959516 
L 130.04999 29.959516 
L 130.04999 29.490179 
L 130.758083 29.490179 
L 130.758083 29.624275 
L 131.622063 29.624275 
L 131.622063 29.490179 
L 132.848015 29.490179 
L 132.848015 30.361805 
L 136.927478 30.294757 
L 136.927478 30.495902 
L 139.56169 30.495902 
L 139.56169 30.160661 
L 140.80878 30.160661 
L 140.80878 29.959516 
L 142.240819 29.959516 
L 142.240819 30.227709 
L 143.382223 30.227709 
L 143.382223 30.361805 
L 145.950382 30.361805 
L 145.950382 30.294757 
L 151.189744 30.495902 
L 151.189744 30.428854 
L 153.823956 30.495902 
L 153.823956 30.56295 
L 154.949507 30.56295 
L 154.949507 30.361805 
L 155.438303 30.361805 
L 155.438303 30.764095 
L 156.460811 30.764095 
L 156.460811 30.428854 
L 158.101579 30.495902 
L 158.101579 30.428854 
" style="fill:none;stroke:#1f77b4;stroke-linecap:square;"/>
   </g>
   <g id="line2d_20">
    <path clip-path="url(#p30a270602d)" d="M 26.290551 9.717593 
L 26.731789 10.495822 
L 27.809781 10.466924 
L 28.311788 11.321387 
L 31.080749 11.432821 
L 31.558976 13.055186 
L 33.109912 13.148518 
L 34.222253 14.353307 
L 34.703122 14.368661 
L 35.236834 14.687073 
L 42.640107 14.819828 
L 43.157966 18.503725 
L 45.757831 18.935918 
L 46.376092 18.945774 
L 46.838466 19.98482 
L 47.884753 20.112346 
L 48.545288 20.628751 
L 49.46211 20.82889 
L 50.098865 21.130741 
L 52.143881 21.555626 
L 52.653814 21.896432 
L 53.179599 22.0548 
L 54.239097 22.222018 
L 54.738461 22.155305 
L 59.533944 23.221774 
L 60.020097 23.148289 
L 61.082237 23.301092 
L 61.642371 23.621784 
L 65.399492 24.288176 
L 65.983405 24.152001 
L 68.535711 24.448019 
L 69.563503 24.871361 
L 70.593937 24.883564 
L 72.863535 25.21552 
L 73.798852 25.452938 
L 78.007779 25.917448 
L 78.544133 25.925359 
L 79.585136 26.184501 
L 85.411052 26.777006 
L 89.078341 27.198337 
L 90.15105 27.383658 
L 90.679478 27.298171 
L 92.964928 27.539813 
L 95.041649 27.471022 
L 95.651983 27.439576 
L 95.924123 27.742768 
L 99.644255 27.878138 
L 104.965523 28.077942 
L 105.578499 28.507788 
L 108.71736 28.759152 
L 109.219367 28.879235 
L 111.288161 28.786105 
L 111.856221 29.14783 
L 115.02943 29.175655 
L 115.586921 29.086347 
L 116.601503 29.15601 
L 117.634579 29.171834 
L 118.731067 29.055237 
L 120.842136 29.129124 
L 121.359995 29.377135 
L 127.146279 29.604563 
L 127.735476 29.94966 
L 128.25862 29.946039 
L 128.728921 29.487094 
L 129.780492 29.598462 
L 130.300993 29.469058 
L 130.842632 29.455917 
L 131.526946 30.354832 
L 134.031693 30.327879 
L 135.107044 30.219529 
L 135.606408 30.425434 
L 140.35169 29.910772 
L 140.91975 30.242393 
L 144.042758 30.399487 
L 145.10754 30.234481 
L 147.81309 30.12546 
L 148.341518 30.485241 
L 152.172619 30.440721 
L 152.502887 30.553161 
L 153.060378 30.525001 
L 153.628438 30.332103 
L 154.117234 30.742438 
L 154.611314 30.724 
L 155.139741 30.411488 
L 156.24944 30.456478 
L 157.832081 30.270486 
L 157.832081 30.270486 
" style="fill:none;stroke:#ff7f0e;stroke-linecap:square;"/>
   </g>
   <g id="patch_3">
    <path d="M 19.7 46.215356 
L 19.7 7.2 
" style="fill:none;stroke:#000000;stroke-linecap:square;stroke-linejoin:miter;stroke-width:0.3;"/>
   </g>
   <g id="patch_4">
    <path d="M 164.692131 46.215356 
L 164.692131 7.2 
" style="fill:none;stroke:#000000;stroke-linecap:square;stroke-linejoin:miter;stroke-width:0.3;"/>
   </g>
   <g id="patch_5">
    <path d="M 19.7 46.215356 
L 164.692131 46.215356 
" style="fill:none;stroke:#000000;stroke-linecap:square;stroke-linejoin:miter;stroke-width:0.3;"/>
   </g>
   <g id="patch_6">
    <path d="M 19.7 7.2 
L 164.692131 7.2 
" style="fill:none;stroke:#000000;stroke-linecap:square;stroke-linejoin:miter;stroke-width:0.3;"/>
   </g>
  </g>
  <g id="axes_2">
   <g id="patch_7">
    <path d="M 19.7 100.836853 
L 164.692131 100.836853 
L 164.692131 61.821498 
L 19.7 61.821498 
z
" style="fill:#ffffff;"/>
   </g>
   <g id="matplotlib.axis_3">
    <g id="xtick_7">
     <g id="line2d_21">
      <path clip-path="url(#p34b993d9d4)" d="M 26.213772 100.836853 
L 26.213772 61.821498 
" style="fill:none;opacity:0.1;stroke:#b0b0b0;stroke-linecap:square;stroke-width:0.1;"/>
     </g>
     <g id="line2d_22">
      <g>
       <use style="stroke:#000000;stroke-width:0.3;" x="26.213772" xlink:href="#m159495c7d9" y="100.836853"/>
      </g>
     </g>
     <g id="text_10">
      <!-- 35 -->
      <g transform="translate(23.213772 108.503103)scale(0.06 -0.06)">
       <use xlink:href="#TimesNewRomanPSMT-33"/>
       <use x="50" xlink:href="#TimesNewRomanPSMT-35"/>
      </g>
     </g>
    </g>
    <g id="xtick_8">
     <g id="line2d_23">
      <path clip-path="url(#p34b993d9d4)" d="M 52.689293 100.836853 
L 52.689293 61.821498 
" style="fill:none;opacity:0.1;stroke:#b0b0b0;stroke-linecap:square;stroke-width:0.1;"/>
     </g>
     <g id="line2d_24">
      <g>
       <use style="stroke:#000000;stroke-width:0.3;" x="52.689293" xlink:href="#m159495c7d9" y="100.836853"/>
      </g>
     </g>
     <g id="text_11">
      <!-- 36 -->
      <g transform="translate(49.689293 108.503103)scale(0.06 -0.06)">
       <use xlink:href="#TimesNewRomanPSMT-33"/>
       <use x="50" xlink:href="#TimesNewRomanPSMT-36"/>
      </g>
     </g>
    </g>
    <g id="xtick_9">
     <g id="line2d_25">
      <path clip-path="url(#p34b993d9d4)" d="M 79.164814 100.836853 
L 79.164814 61.821498 
" style="fill:none;opacity:0.1;stroke:#b0b0b0;stroke-linecap:square;stroke-width:0.1;"/>
     </g>
     <g id="line2d_26">
      <g>
       <use style="stroke:#000000;stroke-width:0.3;" x="79.164814" xlink:href="#m159495c7d9" y="100.836853"/>
      </g>
     </g>
     <g id="text_12">
      <!-- 37 -->
      <g transform="translate(76.164814 108.503103)scale(0.06 -0.06)">
       <use xlink:href="#TimesNewRomanPSMT-33"/>
       <use x="50" xlink:href="#TimesNewRomanPSMT-37"/>
      </g>
     </g>
    </g>
    <g id="xtick_10">
     <g id="line2d_27">
      <path clip-path="url(#p34b993d9d4)" d="M 105.640335 100.836853 
L 105.640335 61.821498 
" style="fill:none;opacity:0.1;stroke:#b0b0b0;stroke-linecap:square;stroke-width:0.1;"/>
     </g>
     <g id="line2d_28">
      <g>
       <use style="stroke:#000000;stroke-width:0.3;" x="105.640335" xlink:href="#m159495c7d9" y="100.836853"/>
      </g>
     </g>
     <g id="text_13">
      <!-- 38 -->
      <g transform="translate(102.640335 108.503103)scale(0.06 -0.06)">
       <use xlink:href="#TimesNewRomanPSMT-33"/>
       <use x="50" xlink:href="#TimesNewRomanPSMT-38"/>
      </g>
     </g>
    </g>
    <g id="xtick_11">
     <g id="line2d_29">
      <path clip-path="url(#p34b993d9d4)" d="M 132.115856 100.836853 
L 132.115856 61.821498 
" style="fill:none;opacity:0.1;stroke:#b0b0b0;stroke-linecap:square;stroke-width:0.1;"/>
     </g>
     <g id="line2d_30">
      <g>
       <use style="stroke:#000000;stroke-width:0.3;" x="132.115856" xlink:href="#m159495c7d9" y="100.836853"/>
      </g>
     </g>
     <g id="text_14">
      <!-- 39 -->
      <g transform="translate(129.115856 108.503103)scale(0.06 -0.06)">
       <use xlink:href="#TimesNewRomanPSMT-33"/>
       <use x="50" xlink:href="#TimesNewRomanPSMT-39"/>
      </g>
     </g>
    </g>
    <g id="xtick_12">
     <g id="line2d_31">
      <path clip-path="url(#p34b993d9d4)" d="M 158.591376 100.836853 
L 158.591376 61.821498 
" style="fill:none;opacity:0.1;stroke:#b0b0b0;stroke-linecap:square;stroke-width:0.1;"/>
     </g>
     <g id="line2d_32">
      <g>
       <use style="stroke:#000000;stroke-width:0.3;" x="158.591376" xlink:href="#m159495c7d9" y="100.836853"/>
      </g>
     </g>
     <g id="text_15">
      <!-- 40 -->
      <g transform="translate(155.591376 108.503103)scale(0.06 -0.06)">
       <use xlink:href="#TimesNewRomanPSMT-34"/>
       <use x="50" xlink:href="#TimesNewRomanPSMT-30"/>
      </g>
     </g>
    </g>
   </g>
   <g id="matplotlib.axis_4">
    <g id="ytick_4">
     <g id="line2d_33">
      <path clip-path="url(#p34b993d9d4)" d="M 19.7 98.929585 
L 164.692131 98.929585 
" style="fill:none;opacity:0.1;stroke:#b0b0b0;stroke-linecap:square;stroke-width:0.1;"/>
     </g>
     <g id="line2d_34">
      <g>
       <use style="stroke:#000000;stroke-width:0.3;" x="19.7" xlink:href="#m202ee96e5b" y="98.929585"/>
      </g>
     </g>
     <g id="text_16">
      <!-- 0 -->
      <g transform="translate(13.2 101.01271)scale(0.06 -0.06)">
       <use xlink:href="#TimesNewRomanPSMT-30"/>
      </g>
     </g>
    </g>
    <g id="ytick_5">
     <g id="line2d_35">
      <path clip-path="url(#p34b993d9d4)" d="M 19.7 85.545243 
L 164.692131 85.545243 
" style="fill:none;opacity:0.1;stroke:#b0b0b0;stroke-linecap:square;stroke-width:0.1;"/>
     </g>
     <g id="line2d_36">
      <g>
       <use style="stroke:#000000;stroke-width:0.3;" x="19.7" xlink:href="#m202ee96e5b" y="85.545243"/>
      </g>
     </g>
     <g id="text_17">
      <!-- 100 -->
      <defs>
       <path d="M 11.71875 59.71875 
L 27.828125 67.578125 
L 29.4375 67.578125 
L 29.4375 11.671875 
Q 29.4375 6.109375 29.90625 4.734375 
Q 30.375 3.375 31.828125 2.640625 
Q 33.296875 1.90625 37.796875 1.8125 
L 37.796875 0 
L 12.890625 0 
L 12.890625 1.8125 
Q 17.578125 1.90625 18.9375 2.609375 
Q 20.3125 3.328125 20.84375 4.515625 
Q 21.390625 5.71875 21.390625 11.671875 
L 21.390625 47.40625 
Q 21.390625 54.640625 20.90625 56.6875 
Q 20.5625 58.25 19.65625 58.984375 
Q 18.75 59.71875 17.484375 59.71875 
Q 15.671875 59.71875 12.453125 58.203125 
z
" id="TimesNewRomanPSMT-31"/>
      </defs>
      <g transform="translate(7.2 87.628368)scale(0.06 -0.06)">
       <use xlink:href="#TimesNewRomanPSMT-31"/>
       <use x="50" xlink:href="#TimesNewRomanPSMT-30"/>
       <use x="100" xlink:href="#TimesNewRomanPSMT-30"/>
      </g>
     </g>
    </g>
    <g id="ytick_6">
     <g id="line2d_37">
      <path clip-path="url(#p34b993d9d4)" d="M 19.7 72.160902 
L 164.692131 72.160902 
" style="fill:none;opacity:0.1;stroke:#b0b0b0;stroke-linecap:square;stroke-width:0.1;"/>
     </g>
     <g id="line2d_38">
      <g>
       <use style="stroke:#000000;stroke-width:0.3;" x="19.7" xlink:href="#m202ee96e5b" y="72.160902"/>
      </g>
     </g>
     <g id="text_18">
      <!-- 200 -->
      <g transform="translate(7.2 74.244027)scale(0.06 -0.06)">
       <use xlink:href="#TimesNewRomanPSMT-32"/>
       <use x="50" xlink:href="#TimesNewRomanPSMT-30"/>
       <use x="100" xlink:href="#TimesNewRomanPSMT-30"/>
      </g>
     </g>
    </g>
   </g>
   <g id="line2d_39">
    <path clip-path="url(#p34b993d9d4)" d="M 26.732693 63.594923 
L 26.732693 71.090154 
L 28.315929 71.090154 
L 28.315929 72.294745 
L 31.56977 72.294745 
L 31.56977 72.428588 
L 33.764591 72.428588 
L 33.764591 73.097806 
L 34.238503 73.097806 
L 34.238503 72.963962 
L 35.255163 72.963962 
L 35.255163 73.365492 
L 43.192524 73.365492 
L 43.192524 75.105457 
L 45.368812 75.105457 
L 45.368812 74.971613 
L 46.880564 74.971613 
L 46.880564 75.105457 
L 48.590883 75.105457 
L 48.590883 75.64083 
L 49.509583 75.64083 
L 49.509583 76.176204 
L 50.147643 76.176204 
L 50.147643 76.845421 
L 51.100762 76.845421 
L 51.100762 77.113108 
L 52.707826 77.113108 
L 52.707826 77.782325 
L 54.796745 77.782325 
L 54.796745 78.183855 
L 56.393219 78.183855 
L 56.393219 78.719229 
L 57.441649 78.719229 
L 57.441649 78.853072 
L 58.000283 99.063428 
L 59.01959 78.853072 
L 59.01959 79.254603 
L 60.089201 79.254603 
L 60.089201 79.656133 
L 62.736753 79.656133 
L 62.736753 79.92382 
L 63.292739 79.92382 
L 63.292739 80.057663 
L 64.364998 80.057663 
L 64.364998 80.191507 
L 66.064726 80.191507 
L 66.064726 80.191507 
L 69.143829 80.593037 
L 69.143829 80.72688 
L 69.652159 80.72688 
L 69.652159 80.860724 
L 72.299711 80.860724 
L 72.299711 80.994567 
L 73.430216 80.994567 
L 73.430216 81.262254 
L 74.981682 81.262254 
L 74.981682 81.663784 
L 75.982456 81.663784 
L 75.982456 81.931471 
L 77.647767 81.931471 
L 77.647767 81.797628 
L 78.651189 81.797628 
L 78.651189 82.065314 
L 79.241593 82.065314 
L 79.241593 81.797628 
L 90.811396 81.797628 
L 90.811396 83.805279 
L 96.066786 84.474496 
L 96.066786 84.608339 
L 105.740942 84.608339 
L 105.740942 86.482147 
L 108.886234 86.482147 
L 108.886234 86.348304 
L 109.389269 86.348304 
L 109.389269 86.883677 
L 109.929369 99.063428 
L 110.993685 86.883677 
L 110.993685 87.686738 
L 112.031525 87.686738 
L 112.031525 87.285208 
L 115.769869 87.285208 
L 115.769869 87.552894 
L 116.294084 87.552894 
L 116.294084 87.419051 
L 118.520676 87.419051 
L 118.520676 87.686738 
L 121.55477 87.820581 
L 121.55477 88.088268 
L 122.616439 88.088268 
L 122.616439 88.355955 
L 123.643689 88.355955 
L 123.643689 88.623642 
L 124.978055 88.623642 
L 124.978055 88.757485 
L 125.87028 88.757485 
L 125.87028 88.222111 
L 126.291241 88.222111 
L 126.291241 88.757485 
L 127.943313 88.757485 
L 127.943313 89.025172 
L 128.938793 89.025172 
L 128.938793 88.623642 
L 129.648337 88.623642 
L 129.648337 89.159015 
L 130.514087 89.159015 
L 130.514087 89.025172 
L 131.742551 89.025172 
L 131.742551 90.363606 
L 133.291369 90.363606 
L 133.291369 89.694389 
L 135.329984 89.694389 
L 135.329984 90.631293 
L 135.830371 90.631293 
L 135.830371 90.229763 
L 138.469981 90.229763 
L 138.469981 88.757485 
L 139.719625 88.757485 
L 139.719625 89.292859 
L 142.298341 89.292859 
L 142.298341 89.694389 
L 142.7749 89.694389 
L 142.7749 89.828232 
L 144.871761 89.828232 
L 144.871761 90.631293 
L 150.121857 90.49745 
L 150.121857 90.49745 
L 152.761467 90.49745 
L 152.761467 90.363606 
L 153.889324 90.363606 
L 153.889324 90.095919 
L 154.379121 90.095919 
L 154.379121 89.828232 
L 155.403724 89.828232 
L 155.403724 90.363606 
L 157.047854 90.363606 
L 157.047854 90.49745 
L 158.101579 90.49745 
L 158.101579 90.765136 
L 158.101579 90.765136 
" style="fill:none;stroke:#1f77b4;stroke-linecap:square;"/>
   </g>
   <g id="line2d_40">
    <path clip-path="url(#p34b993d9d4)" d="M 26.290551 68.189901 
L 26.732693 71.246617 
L 27.812894 70.818854 
L 28.315929 72.092775 
L 30.460446 70.415985 
L 31.090563 69.975908 
L 31.56977 72.311877 
L 33.123883 72.394057 
L 33.764591 73.143178 
L 34.238503 72.992872 
L 34.720357 73.019239 
L 35.255163 73.38838 
L 41.08772 73.667042 
L 42.673604 73.870751 
L 43.192524 75.171709 
L 45.421763 75.130887 
L 45.450886 75.251346 
L 46.417242 75.353201 
L 46.880564 75.144673 
L 47.928995 75.158994 
L 48.590883 75.685936 
L 49.070089 75.737465 
L 50.147643 76.95892 
L 52.196848 77.543548 
L 52.707826 77.941331 
L 53.234689 78.12898 
L 54.296357 78.138215 
L 56.914786 79.084086 
L 57.441649 79.039516 
L 60.089201 79.818485 
L 60.65313 79.833074 
L 61.153517 79.993418 
L 61.714798 79.820091 
L 63.806364 80.350379 
L 64.364998 80.342616 
L 65.479617 80.640551 
L 66.064726 80.340073 
L 68.622262 80.962043 
L 69.143829 80.835963 
L 69.652159 80.966594 
L 70.684705 81.073535 
L 71.730488 81.28755 
L 72.299711 81.108735 
L 74.391278 81.597532 
L 75.982456 82.049521 
L 77.062658 82.290573 
L 77.647767 81.915008 
L 78.651189 82.171586 
L 79.241593 81.903632 
L 83.919818 82.72543 
L 88.690706 83.41285 
L 90.281885 83.429045 
L 90.811396 83.812774 
L 93.101528 83.973118 
L 96.066786 84.720768 
L 97.713564 85.069162 
L 105.12671 86.010014 
L 105.740942 86.532379 
L 108.309067 86.825656 
L 108.886234 86.40935 
L 109.389269 86.954039 
L 110.387396 87.138248 
L 110.993685 87.803302 
L 111.462302 87.911916 
L 112.031525 87.384493 
L 114.138977 87.653879 
L 115.211236 87.763497 
L 116.294084 87.4845 
L 119.420843 87.79479 
L 121.03585 87.867801 
L 121.55477 88.11248 
L 122.105461 88.140721 
L 122.616439 88.385561 
L 123.100941 88.414485 
L 123.643689 88.65041 
L 125.314294 88.849958 
L 125.87028 88.260431 
L 126.291241 88.808185 
L 127.352909 88.908648 
L 128.467529 89.128834 
L 128.938793 88.67307 
L 129.648337 89.186132 
L 129.992519 89.237233 
L 130.514087 89.067988 
L 131.056835 89.106 
L 131.742551 90.390656 
L 132.640071 90.483142 
L 133.291369 89.703932 
L 134.864015 89.739227 
L 135.329984 90.685192 
L 135.830371 90.300486 
L 137.935175 90.604819 
L 138.469981 88.76751 
L 139.018024 88.762437 
L 139.719625 89.263266 
L 141.670871 89.378572 
L 142.298341 89.733083 
L 142.7749 89.855095 
L 144.284005 89.874716 
L 144.871761 90.640997 
L 148.062062 90.772605 
L 148.591572 90.479367 
L 151.175583 90.480733 
L 152.430523 90.520364 
L 152.761467 90.408096 
L 153.3201 90.444568 
L 154.379121 89.855898 
L 154.874213 89.889934 
L 155.403724 90.400748 
L 156.515696 90.43631 
L 158.101579 90.788907 
L 158.101579 90.788907 
" style="fill:none;stroke:#ff7f0e;stroke-linecap:square;"/>
   </g>
   <g id="patch_8">
    <path d="M 19.7 100.836853 
L 19.7 61.821498 
" style="fill:none;stroke:#000000;stroke-linecap:square;stroke-linejoin:miter;stroke-width:0.3;"/>
   </g>
   <g id="patch_9">
    <path d="M 164.692131 100.836853 
L 164.692131 61.821498 
" style="fill:none;stroke:#000000;stroke-linecap:square;stroke-linejoin:miter;stroke-width:0.3;"/>
   </g>
   <g id="patch_10">
    <path d="M 19.7 100.836853 
L 164.692131 100.836853 
" style="fill:none;stroke:#000000;stroke-linecap:square;stroke-linejoin:miter;stroke-width:0.3;"/>
   </g>
   <g id="patch_11">
    <path d="M 19.7 61.821498 
L 164.692131 61.821498 
" style="fill:none;stroke:#000000;stroke-linecap:square;stroke-linejoin:miter;stroke-width:0.3;"/>
   </g>
  </g>
 </g>
 <defs>
  <clipPath id="p30a270602d">
   <rect height="39.015356" width="144.992131" x="19.7" y="7.2"/>
  </clipPath>
  <clipPath id="p34b993d9d4">
   <rect height="39.015356" width="144.992131" x="19.7" y="61.821498"/>
  </clipPath>
 </defs>
</svg>
